<svg xmlns="http://www.w3.org/2000/svg" width="1156" height="266.072" viewBox="0 0 1156 266.072"><path fill="#fff" d="M0 0h1156v266.073H0z"/><path fill="#FFE9BF" d="M1156-.464c-.02 4.995-.1 9.956-.23 14.267-.708 23.008-3.344 46.016-9.368 68.312-7.296 27.01-19.312 51.717-37.517 73.138-13.56 15.955-29.54 29.132-47.206 40.287-18.705 11.81-38.634 21.16-59.262 29.02-24.333 9.277-49.207 16.886-74.57 22.808-11.976 2.798-24.125 4.725-36.323 6.29-9.503 1.22-19.01 2.406-28.536 3.418-8.42.895-16.855 1.624-25.294 2.26-12.426.933-24.86 1.77-37.293 2.548-8.133.507-16.272.916-24.413 1.22-13.57.51-27.144.995-40.718 1.31-18.047.422-36.1.74-54.148.972-17.417.222-34.83.458-52.244.354-25.88-.152-51.763-.48-77.64-.96-20.764-.384-41.525-.983-62.28-1.7-19.797-.687-39.587-1.63-59.377-2.48-9.26-.4-18.516-.775-27.77-1.287-14.035-.778-28.066-1.658-42.096-2.515-5.58-.34-11.162-.688-16.738-1.104-16.565-1.232-33.134-2.437-49.692-3.776-12.42-1.003-24.833-2.058-37.225-3.345-12.546-1.304-25.082-2.752-37.583-4.447-11.86-1.606-23.68-3.543-35.49-5.47-19.246-3.137-37.288-9.896-54.685-18.48-35.534-17.53-64.828-42.33-87.19-75.097C25.012 121.474 14.086 95.6 7.52 67.864 3.58 51.22 1.4 33.873.47 16.785.163 11.185.014 5.53 0-.465h1156z"/></svg>