<?xml version="1.0" encoding="utf-8"?>
<!-- Generator: Adobe Illustrator 16.0.4, SVG Export Plug-In . SVG Version: 6.00 Build 0)  -->
<!DOCTYPE svg PUBLIC "-//W3C//DTD SVG 1.1//EN" "http://www.w3.org/Graphics/SVG/1.1/DTD/svg11.dtd">
<svg version="1.1" id="Слой_1" xmlns="http://www.w3.org/2000/svg" xmlns:xlink="http://www.w3.org/1999/xlink" x="0px" y="0px"
	 width="1156px" height="266.072px" viewBox="0 0 1156 266.072" enable-background="new 0 0 1156 266.072"
	 xml:space="preserve">
<rect x="0" y="0" fill="#FFFFFF" width="1156" height="266.073"/>
<path fill="#FFE9BF" d="M1156-0.464c-0.021,4.995-0.099,9.956-0.23,14.267c-0.708,23.008-3.344,46.016-9.368,68.312
	c-7.296,27.009-19.312,51.717-37.517,73.138c-13.559,15.955-29.54,29.132-47.206,40.287c-18.704,11.809-38.633,21.16-59.261,29.021
	c-24.333,9.276-49.207,16.885-74.571,22.807c-11.975,2.798-24.124,4.725-36.322,6.289c-9.503,1.221-19.011,2.407-28.536,3.419
	c-8.42,0.895-16.854,1.624-25.293,2.26c-12.426,0.933-24.861,1.769-37.293,2.548c-8.133,0.507-16.272,0.916-24.413,1.22
	c-13.57,0.509-27.144,0.995-40.718,1.311c-18.047,0.421-36.101,0.74-54.148,0.971c-17.417,0.222-34.829,0.458-52.244,0.354
	c-25.881-0.152-51.763-0.479-77.639-0.96c-20.765-0.384-41.526-0.983-62.282-1.701c-19.796-0.686-39.586-1.63-59.376-2.479
	c-9.259-0.399-18.516-0.775-27.77-1.287c-14.035-0.778-28.066-1.658-42.096-2.515c-5.58-0.34-11.162-0.688-16.738-1.104
	c-16.564-1.232-33.133-2.437-49.691-3.776c-12.42-1.003-24.833-2.058-37.225-3.345c-12.546-1.304-25.082-2.752-37.583-4.447
	c-11.86-1.606-23.679-3.543-35.491-5.469c-19.245-3.138-37.287-9.897-54.684-18.48c-35.534-17.532-64.828-42.33-87.189-75.098
	C25.011,121.475,14.085,95.601,7.52,67.865c-3.941-16.645-6.119-33.992-7.051-51.08C0.164,11.186,0.015,5.529,0-0.464H1156z"/>
</svg>
