<svg xmlns="http://www.w3.org/2000/svg" width="1156" height="265.521" viewBox="0 0 1156 265.521"><path fill="#fff" d="M.005-.276h1156v266.07H.005z"/><path fill="#FFE9BF" d="M0 265.208c-.035-13.407.698-27.668 1.866-41.03 1.868-21.372 5.71-42.4 12.285-62.875 7.346-22.867 17.936-44.038 32.862-62.944 15.76-19.963 35.047-35.76 57.104-48.274 19.975-11.333 41.228-19.534 63.277-25.753 14.3-4.035 28.758-7.413 43.498-9.392 9.494-1.27 19.03-2.262 28.562-3.217 9.375-.938 18.77-1.7 28.162-2.485 5.093-.426 10.19-.8 15.295-1.088 13.876-.782 27.752-1.567 41.633-2.233 18.51-.888 37.02-1.78 55.54-2.455 17.402-.63 34.815-1.02 52.224-1.434 22.998-.543 45.996-1.08 68.997-1.467C516.8.297 532.3.254 547.798.198c15.34-.06 30.68-.013 46.02-.013v-.186c29.08.135 58.16.098 87.237.455 27.476.34 54.95.963 82.415 1.723 25.39.698 50.77 1.67 76.153 2.662 15.962.622 31.92 1.41 47.873 2.305 11.798.66 23.586 1.563 35.376 2.448 8.918.668 17.842 1.307 26.737 2.242 29.438 3.102 58.535 7.92 86.487 18.126 17.517 6.394 33.912 14.86 48.663 26.365 19.27 15.033 33.686 33.926 44.257 55.842 7.95 16.48 13.44 33.805 17.383 51.636 3.276 14.834 5.495 29.825 6.948 44.947 1.808 18.79 2.74 37.61 2.644 56.46H0z"/></svg>