<svg width="213" height="75" viewBox="0 0 213 75" xmlns="http://www.w3.org/2000/svg"><title>btn-bg-hover</title><desc>Created with Sketch.</desc><g fill="none"><path d="M142.97 1.47C100.7.212 54.29-3.006 18.54 12.39-17.21 27.786 1.62 63.544 53.233 68.097c51.614 4.552 110.203 11.227 134.755.04C212.54 56.95 218.09 35.84 207.664 23.132 197.237 10.422 185.242 2.724 142.97 1.47z" id="path-1"/><path d="M142.97 1.47C100.7.212 54.29-3.006 18.54 12.39-17.21 27.786 1.62 63.544 53.233 68.097c51.614 4.552 110.203 11.227 134.755.04C212.54 56.95 218.09 35.84 207.664 23.132 197.237 10.422 185.242 2.724 142.97 1.47z" fill="#F28A19"/></g></svg>