<svg width="31" height="24" viewBox="0 0 31 24" xmlns="http://www.w3.org/2000/svg"><title>Imported Layers</title><desc>Created with Sketch.</desc><g fill="#fff"><path d="M9.978 9.075h-4.7c-.233 0-.582-.035-.667.246-.09.306-.026.706.035 1.007.193.938.643 1.82 1.153 2.625.496.786 1.218 1.498 2.046 1.912.807.402 1.724.612 2.623.62.505.003 1.04-.037 1.535-.14 1.33-.274 2.785-.894 3.796-1.82 1.412-1.293 2.1-3.26 2.834-4.99.682-1.605 1.22-3.24 2.132-4.735C22.01 1.76 24.65 1.013 26.884.93c1.486-.053 3.832-.17 4.05 1.834.15 1.357-1.18 2.015-2.318 1.756-1.75-.397-4.33-.188-5.28 1.61-.425.802-.8 1.625-1.095 2.487-.22.647-.52 1.27-.753 1.914-.332.917-.758 1.788-1.212 2.647-1.448 2.74-3.966 4.677-6.956 5.363-.823.188-1.69.317-2.534.353-.766.03-1.55-.008-2.304-.146-1.14-.21-2.213-.772-3.166-1.425-1.108-.758-1.96-1.85-2.676-2.972-.708-1.112-1.087-2.41-1.364-3.705-.24-1.12-.583-2.65-.11-3.74C1.638 5.82 2.376 5.7 3.41 5.655c.732-.033 2.06-.018 2.79-.018 1.65 0 3.298.002 4.946.003l2.48.003c.67 0 1.427-.134 2.043.2.544.294.96.972.952 1.605-.015 1.047-.974 1.647-1.944 1.636-1.567-.02-3.134-.008-4.7-.01"/><path d="M8.745 21.507c0 1.38-1.106 2.498-2.47 2.498s-2.47-1.118-2.47-2.498c0-1.38 1.106-2.497 2.47-2.497s2.47 1.118 2.47 2.497"/><path d="M17.345 21.507c0 1.38-1.106 2.498-2.47 2.498s-2.47-1.118-2.47-2.498c0-1.38 1.106-2.497 2.47-2.497s2.47 1.118 2.47 2.497"/></g></svg>