<svg width="53" height="51" viewBox="0 0 53 51" xmlns="http://www.w3.org/2000/svg"><title>курьер</title><desc>Created with Sketch.</desc><g fill="#074296"><path d="M8.138 16.584c2.21 0 4.42-.006 6.63.004.853.003 1.205.373 1.206 1.227.002 3.133-.002 6.267 0 9.4.002 1.208.02 2.415.022 3.623 0 .768-.323 1.07-1.11 1.065-1.338-.01-2.675-.03-4.012-.03-1.457.002-2.914.034-4.372.035-1.712 0-3.424-.012-5.136-.027-.69-.006-1.083-.425-1.082-1.11V18.023c0-.107.003-.213.005-.32.013-.746.39-1.124 1.137-1.125 2.237-.003 4.474 0 6.71 0v.004"/><path d="M26.722 17.372c-.24-.338-.472-.635-.674-.95-.25-.392-.45-.818-.72-1.194-.67-.933-1.626-1.145-2.545-.82-1.083.382-1.716 1.454-1.452 2.495.145.564.462 1.1.774 1.604.903 1.456 2.013 2.746 3.342 3.842.205.17.276.34.25.614-.12 1.32-.208 2.644-.317 3.965-.028.324.088.5.42.55.58.088 1.16.19 1.74.28.727.113 1.46.192 2.182.333 1.056.207 2.162.146 3.173.604.505.228.914.523 1.134 1.054.607 1.474 1.242 2.936 1.845 4.412.46 1.127.89 2.268 1.334 3.403.196.506.385 1.015.59 1.52.702 1.728-.525 3.76-2.695 3.524-1.046-.115-1.735-.688-2.118-1.64-.772-1.915-1.534-3.834-2.304-5.75-.163-.406-.366-.797-.504-1.21-.085-.25-.242-.31-.466-.357-2.86-.585-5.715-1.187-8.576-1.762-1.2-.24-2.092-.78-2.634-1.952-.452-.975-.6-1.983-.65-3.004-.074-1.456-.08-2.92-.002-4.377.08-1.443.4-2.86.847-4.24.255-.793.468-1.607.805-2.366.862-1.945 2.74-3.27 4.994-2.93.856.13 1.424.643 1.807 1.366.465.88.6 1.83.516 2.816-.003.033-.036.064-.1.17"/><path d="M30.167 45.928c-2.68 0-5.358-.005-8.038.006-.34 0-.45-.055-.37-.427.26-1.236.003-2.432-.438-3.583-.706-1.84-1.98-3.204-3.76-4.06-1.423-.686-2.924-.955-4.52-.66-2.17.402-3.878 1.474-5.086 3.293C6.93 42.043 6.468 43.74 6.79 45.6c.044.252-.024.337-.28.335-.95-.01-1.902-.012-2.853 0-.292.003-.35-.14-.31-.374.193-1.094.313-2.21.604-3.278.38-1.39.892-2.744 1.35-4.112.08-.24.182-.47.276-.703.098-.244.015-.38-.242-.426-.393-.07-.556-.32-.56-.703-.003-.73-.018-1.46-.026-2.19-.006-.623.23-.872.87-.882.75-.012 1.5 0 2.25 0H22.63c.803.002 1.15.37 1.136 1.174-.01.61.028 1.223-.017 1.83-.018.237-.204.46-.31.692-.077.167-.235.35-.21.503.2 1.145.39 2.296.673 3.423.184.74.516 1.443.78 2.162.135.368.334.56.794.558 4.112-.02 8.224-.012 12.337-.007.704 0 .688.01.686.68-.002.424.02.852.092 1.266.057.327-.05.393-.347.393-2.692-.007-5.385-.005-8.078-.005v-.007"/><path d="M39.77 44.534c.066-3.46 2.822-6.207 6.362-6.173 3.515.036 6.274 2.754 6.252 6.27-.023 3.527-2.754 6.292-6.474 6.214-3.377-.07-6.11-2.652-6.14-6.31zm3.558-.842c-.086 1.4 1.376 2.634 2.6 2.604 1.417-.035 2.637-1.23 2.628-2.627-.01-1.395-1.196-2.556-2.57-2.584-1.554-.032-2.73 1.35-2.658 2.606z"/><path d="M14.255 38.364c3.595.01 6.37 2.77 6.306 6.38-.058 3.41-2.74 6.1-6.306 6.102-3.563.002-6.305-2.743-6.29-6.286.016-3.504 2.78-6.185 6.29-6.196zm2.473 5.338c.005-1.464-1.157-2.61-2.648-2.607-1.39.002-2.566 1.174-2.573 2.567-.007 1.396 1.188 2.614 2.573 2.624 1.435.01 2.643-1.168 2.648-2.584z"/><path d="M27.192.772c2.71-.01 4.693 1.62 5.415 4.026.14.47.075.543-.42.596-.92.1-1.83.25-2.635.75-.576.358-.908.835-.795 1.555.11.692.21 1.39.252 2.09.048.795-.087.95-.876 1.09-.38.067-.777.1-1.158.068-1.05-.09-2.104-.17-3.087-.616-.85-.384-1.38-1.054-1.68-1.885-.364-1.02-.515-2.08-.33-3.172.273-1.615 1.123-2.842 2.504-3.71.877-.55 1.845-.825 2.808-.793"/><path d="M40.593 39.38l-1.05-3.034c-.177-.514-.347-1.03-.527-1.544-.54-1.55-1.09-3.097-1.628-4.648-.49-1.402-.972-2.806-1.453-4.21-.14-.406-.28-.435-.684-.272-.59.238-1.193.464-1.812.61-.583.136-.936-.15-1.106-.798h.467c.853.006 1.71.052 2.563.006.83-.043 1.562-.73 1.78-1.546.01-.035.04-.063.116-.178.16.445.304.828.437 1.214.34.99.682 1.982 1.012 2.976.117.358.304.635.67.786 1.26.524 2.265 1.408 3.215 2.342.515.507.985 1.09 1.345 1.713.4.693.665 1.466.962 2.214.1.255.247.346.506.355 1.486.05 2.915.324 4.228 1.06 1.406.788 2.448 1.914 3.19 3.32.07.133.107.32.073.46-.028.113-.174.255-.287.274-.102.016-.268-.09-.34-.187-.646-.884-1.437-1.616-2.388-2.156-1.555-.882-3.213-1.258-5.01-.94-1.59.284-2.962.958-4.104 2.09-.034.034-.09.047-.177.092"/><path d="M34.4 25.025c-4.198-.094-7.646-1.717-10.332-4.87-.77-.903-1.397-1.94-1.988-2.972-.462-.808-.1-1.783.747-2.145.752-.32 1.636-.21 2.132.705.768 1.42 1.75 2.664 3 3.696 2.01 1.66 4.33 2.413 6.94 2.293.802-.037 1.43.387 1.654 1.11.233.753-.02 1.544-.722 1.872-.43.2-.95.213-1.43.31"/><path d="M44.078 24.842c-.113.675-.2 1.356-.346 2.024-.222 1.013-.896 1.364-1.878 1.026-1.31-.45-2.1-1.35-2.266-2.71-.176-1.44.734-2.937 2.276-3.35 1.168-.315 1.542-.15 1.924 1.19.062.215.136.433.158.654.04.382.042.767.06 1.15l.072.016"/><path d="M24.53 11.277c.897.103 1.792.255 2.692.288.535.02 1.088-.108 1.612-.246.526-.14.752-.588.79-1.093.03-.393-.01-.794-.047-1.188-.05-.514-.112-1.027-.195-1.536-.073-.45.165-.76.52-.885.687-.243 1.404-.404 2.114-.57.093-.02.296.106.333.207.79 2.118.245 4.65-2.043 5.88-1.89 1.016-3.754.81-5.467-.517-.133-.103-.297-.166-.446-.248l.136-.095"/></g></svg>