<?xml version="1.0" encoding="UTF-8" standalone="no"?>
<svg width="56px" height="56px" viewBox="0 0 56 56" version="1.1" xmlns="http://www.w3.org/2000/svg" xmlns:xlink="http://www.w3.org/1999/xlink" xmlns:sketch="http://www.bohemiancoding.com/sketch/ns">
    <!-- Generator: Sketch 3.2.2 (9983) - http://www.bohemiancoding.com/sketch -->
    <title>Fill-192-+-NEW-2</title>
    <desc>Created with Sketch.</desc>
    <defs></defs>
    <g id="Page-1" stroke="none" stroke-width="1" fill="none" fill-rule="evenodd" sketch:type="MSPage">
        <g id="ico-new" sketch:type="MSLayerGroup" transform="translate(-1.000000, 0.000000)">
            <g id="Welcome" sketch:type="MSShapeGroup">
                <g id="Home-4">
                    <g id="новинки">
                        <g id="контент">
                            <g id="товар-3" transform="translate(0.515641, 0.000000)">
                                <g id="Fill-192-+-NEW-2" transform="translate(0.484359, 0.000000)">
                                    <path d="M28,0 C12.537,0 0,10.97075 0,24.5 C0,32.23325 4.10375,39.1195 10.5,43.60825 L10.5,56 L22.76575,48.55725 C24.46325,48.83725 26.20975,49 28,49 C43.463,49 56,38.031 56,24.5 C56,10.97075 43.463,0 28,0" id="Fill-192" fill="#F28A19" transform="translate(28.000000, 28.000000) scale(-1, 1) translate(-28.000000, -28.000000) "></path>
                                    <g id="NEW-2" transform="translate(11.000000, 19.000000)" fill="#FFFFFF">
                                        <path d="M7.18312079,10 C6.97378325,9.64793232 6.73352446,9.25305153 6.46233719,8.81534577 C6.19114992,8.37764 5.89855753,7.92328921 5.58455122,7.45227975 C5.27054491,6.98127029 4.94464932,6.50313149 4.60685465,6.01784902 C4.26905999,5.53256654 3.93364919,5.06394295 3.6006122,4.61196417 C3.26757521,4.1599854 2.94405841,3.7341802 2.63005211,3.33453581 C2.3160458,2.93489142 2.0258322,2.58282903 1.75940261,2.27833806 L1.75940261,10 L0.403473062,10 L0.403473062,0.108850788 L1.50248964,0.108850788 C1.94971075,0.58461792 2.42784954,1.13887831 2.93692037,1.7716486 C3.4459912,2.40441888 3.9502968,3.05621008 4.44985229,3.72704173 C4.94940777,4.39787339 5.42041017,5.05680098 5.8628736,5.70384428 C6.30533703,6.35088758 6.67880863,6.92655717 6.98329959,7.43087033 L6.98329959,0.108850788 L8.33922914,0.108850788 L8.33922914,10 L7.18312079,10 Z M10.7941753,10 L10.7941753,0.108850788 L16.83163,0.108850788 L16.83163,1.29350502 L12.1786507,1.29350502 L12.1786507,4.2337312 L16.317804,4.2337312 L16.317804,5.38983954 L12.1786507,5.38983954 L12.1786507,8.81534577 L17.1884535,8.81534577 L17.1884535,10 L10.7941753,10 Z M24.3534707,3.29171698 C23.9538263,4.5667729 23.5494303,5.74665769 23.1402706,6.83140675 C22.7311109,7.91615581 22.3219573,8.972343 21.9127975,10 L20.5283221,10 C20.0240089,8.54415258 19.5791734,7.00744779 19.193802,5.38983954 C18.8084306,3.7722313 18.4492318,2.01191931 18.1161948,0.108850788 L19.572035,0.108850788 C19.7052498,0.851047514 19.8432202,1.59323311 19.9859503,2.33542983 C20.1286804,3.07762656 20.276166,3.79840295 20.4284115,4.49778063 C20.580657,5.19715832 20.7329002,5.86560111 20.8851457,6.50312907 C21.0373912,7.14065702 21.194392,7.73059942 21.3561528,8.27297395 C21.7367665,7.27386297 22.1411625,6.17723618 22.5693529,4.98306068 C22.9975433,3.78888518 23.3971817,2.55428799 23.7682801,1.27923208 L24.9672073,1.27923208 C25.3383056,2.55428799 25.7427016,3.78888518 26.1804074,4.98306068 C26.6181131,6.17723618 27.0272667,7.27386297 27.4078804,8.27297395 C27.5601259,7.74011476 27.7123691,7.15492997 27.8646146,6.51740201 C28.0168601,5.87987405 28.1667245,5.21143126 28.3142123,4.51205358 C28.4617001,3.81267589 28.6068069,3.0895207 28.749537,2.3425663 C28.8922672,1.59561191 29.0302376,0.851047514 29.1634524,0.108850788 L30.5764737,0.108850788 C30.2339214,2.01191931 29.869965,3.7722313 29.4845936,5.38983954 C29.0992222,7.00744779 28.6591442,8.54415258 28.1643464,10 L26.779871,10 C26.3611959,8.972343 25.9520423,7.91615581 25.5523979,6.83140675 C25.1527535,5.74665769 24.7531151,4.5667729 24.3534707,3.29171698 L24.3534707,3.29171698 Z" id="NEW"></path>
                                    </g>
                                </g>
                            </g>
                        </g>
                    </g>
                </g>
            </g>
        </g>
    </g>
</svg>