<svg width="50" height="50" viewBox="0 0 50 50" xmlns="http://www.w3.org/2000/svg"><title>Path 139 + скайп</title><desc>Created with Sketch.</desc><g fill="none"><path d="M1.764 29.433c8.607 30.08 34.885 23.525 44.763 3.17 9.878-20.352-3.8-33.8-16.307-32.54-12.507 1.26-37.063-.708-28.456 29.37z" fill="#6CC1ED"/><path d="M25.093 16.23c-.448 0-.887.036-1.315.104-.766-.484-1.678-.767-2.66-.767-2.69 0-4.87 2.116-4.87 4.727 0 .95.29 1.832.785 2.573-.066.405-.1.82-.1 1.242 0 4.35 3.652 7.877 8.16 7.877.508 0 1.004-.048 1.485-.132.748.45 1.63.712 2.574.712 2.69 0 4.87-2.116 4.87-4.726 0-.986-.31-1.904-.845-2.662.05-.35.077-.707.077-1.07 0-4.35-3.655-7.878-8.16-7.878zm-3.89 10.01c1.012-.067 1.62 1.118 2.16 1.447.54.33 2.59 1.077 3.675-.132 1.18-1.316-.785-1.997-2.226-2.203-2.057-.297-4.654-1.383-4.452-3.522.202-2.138 1.862-3.234 3.608-3.388 2.227-.197 3.676.33 4.823 1.283 1.326 1.102.61 2.335-.235 2.434-.842.098-1.787-1.814-3.642-1.843-1.912-.03-3.204 1.94-.843 2.5 2.36.56 4.89.79 5.8 2.896.912 2.106-1.415 4.342-4.013 4.474-2.596.132-3.81-.428-4.923-1.447-1.243-1.138-.744-2.435.27-2.5z" fill="#fff"/></g></svg>