<svg width="73" height="64" viewBox="0 0 73 64" xmlns="http://www.w3.org/2000/svg" xmlns:xlink="http://www.w3.org/1999/xlink"><title>Imported Layers</title><desc>Created with Sketch.</desc><defs><path d="M744 484.392c5.135-.674 7.778-.884 9.974.128 4.33 2.004 4.93 6.18 2.93 10.493-.9 1.897-1.468 3.125-4.532 5.492 0 0-2.79 1.152-4.782 5.95-2.4 4.652-1.482 7.535-1.482 7.535.18 3.85-.383 5.027-1.27 6.923-2.01 4.327-5.6 6.555-9.935 4.55-2.19-1.012-3.735-3.17-6.525-7.503 0 0-5.688-8.374-7.49-14.197-1.29-4.2.73-8.527.73-8.527l.63-1.324s2.082-4.518 6.054-6.058c5.695-2.195 15.706-3.455 15.7-3.462zm-32.247 18.296c2.1-4.525-1.916-10.818-8.977-14.09-7.05-3.264-14.48-2.246-16.575 2.26-2.105 4.512 1.917 10.824 8.972 14.082 7.055 3.265 14.474 2.253 16.58-2.252zm8.72 13.548c0-4.047-5.107-7.33-11.408-7.344-6.32-.012-11.44 3.252-11.448 7.287-.02 4.046 5.095 7.317 11.416 7.336 6.295.013 11.435-3.246 11.44-7.28zm.122-32.55c2.1-4.518-1.92-10.825-8.964-14.083-7.06-3.258-14.485-2.246-16.586 2.26-2.1 4.51 1.922 10.817 8.977 14.088 7.05 3.266 14.468 2.248 16.575-2.264zm1.226-19.486c-3.095 2.63-2.284 8.63 1.795 13.42 4.093 4.8 9.903 6.575 12.993 3.953 3.084-2.615 2.286-8.616-1.807-13.414-4.08-4.793-9.89-6.562-12.98-3.96z" id="a"/></defs><g transform="translate(-685 -463)" fill="none"><use fill="#F5A623" transform="matrix(-1 0 0 1 1443.642 0)" xlink:href="#a"/><use xlink:href="#a"/></g></svg>