<svg width="51" height="51" viewBox="0 0 51 51" xmlns="http://www.w3.org/2000/svg" xmlns:xlink="http://www.w3.org/1999/xlink"><title>Path 137 + вк</title><desc>Created with Sketch.</desc><defs><path d="M17.688 33.44V16.373h.343c3.294 0 6.588-.003 9.88.002 1.213.002 2.4.14 3.45.783 1.464.897 2.132 2.202 1.99 3.838-.137 1.558-1.008 2.645-2.543 3.23-.088.033-.172.073-.286.12.395.14.77.25 1.127.397 1.664.682 2.49 1.907 2.554 3.618.07 1.83-.684 3.256-2.318 4.238-.644.386-1.383.486-2.116.603-1.684.272-3.383.248-5.082.243-2.21-.006-4.42-.002-6.63-.002h-.366zm5.504-3.38c1.127 0 2.218.01 3.31-.01.326-.005.66-.07.973-.164.765-.232 1.208-.87 1.18-1.636-.03-.784-.495-1.336-1.32-1.52-.32-.072-.652-.12-.98-.124-1.048-.015-2.096-.006-3.163-.006v3.46zm.19-7.474c.797 0 1.594.01 2.39-.006.28-.006.563-.055.834-.122.41-.102.717-.34.89-.72.474-1.04-.104-2.048-1.285-2.147-.87-.072-1.752-.046-2.63-.063-.125-.003-.252 0-.388 0v3.042c.073.006.13.016.19.016z" id="a"/></defs><g fill="none"><path d="M16.72 50.007c9.92.85 20.816 3.023 29.208-7.38C54.32 32.228 49.9 8.066 37.784 4.99 25.668 1.912 11.914-2.6 6.15 4.96.39 12.52-.914 26.784 1.534 35.37 3.98 43.96 6.796 49.16 16.72 50.008z" fill="#5C92CD"/><g transform="translate(0 1)"><use fill="#fff" xlink:href="#a"/><use xlink:href="#a"/></g></g></svg>