<svg width="50" height="50" viewBox="0 0 50 50" xmlns="http://www.w3.org/2000/svg"><title>Path 138 + инста</title><desc>Created with Sketch.</desc><g fill="none"><path d="M1.764 20.567c8.607-30.08 34.885-23.525 44.763-3.17 9.878 20.352-3.8 33.8-16.307 32.54-12.507-1.26-37.063.708-28.456-29.37z" fill="#415C71"/><path d="M33.48 31.613c.016-.076.027-.154.04-.23V17.617c-.012-.075-.023-.15-.038-.226-.153-.77-.8-1.368-1.592-1.475-.033-.004-.065-.01-.098-.017H17.768c-.085.015-.17.026-.253.045-.775.174-1.348.787-1.458 1.56-.004.032-.01.064-.017.096V31.4c.016.087.03.175.05.262.17.746.816 1.323 1.585 1.42l.112.018h13.986c.09-.015.182-.028.272-.047.714-.15 1.297-.735 1.436-1.442zm-15.55-1.055c0 .366.324.68.696.68H30.93c.377 0 .698-.313.698-.682V22.874h-1.67c.236.74.31 1.495.217 2.264-.093.768-.345 1.484-.755 2.144-.41.66-.94 1.21-1.592 1.645-1.687 1.13-3.91 1.23-5.7.24-.904-.498-1.614-1.194-2.11-2.092-.74-1.338-.857-2.744-.423-4.202H17.93v7.685zm6.77-2.574c1.978.042 3.58-1.514 3.62-3.407.043-1.952-1.557-3.564-3.54-3.563-1.938 0-3.515 1.534-3.542 3.433-.028 1.95 1.56 3.497 3.46 3.537zm6.927-8.36v-1.63c0-.39-.313-.7-.708-.7h-1.652c-.395 0-.71.312-.71.702 0 .538 0 1.077.003 1.615 0 .082.017.165.043.24.1.288.365.464.692.465h.797c.287-.003.576.002.864-.005.37-.01.67-.32.67-.686z" fill="#fff"/></g></svg>