<svg width="83" height="42" viewBox="0 0 83 42" xmlns="http://www.w3.org/2000/svg"><title>почта России</title><desc>Created with Sketch.</desc><g fill="#074296"><path d="M40.018 41.1H.032V.92h39.986c-.004.14-.013.28-.013.42v39.34c0 .14.01.28.013.42zM32.046 19.05c.01-.088.02-.155.022-.22.046-1.18.098-2.36.132-3.542.007-.23.053-.345.31-.335.43.015.86.012 1.29.002.242-.006.312.095.334.33.107 1.163.23 2.324.36 3.484.013.105.11.282.173.285.482.025.966.014 1.484.014l-.277-2.426c-.152-1.357-.328-2.712-.448-4.07-.096-1.095-.818-1.9-1.902-1.97-.79-.05-1.583-.025-2.373-.062-.347-.015-.435.123-.44.445-.013 1.054-.048 2.106-.083 3.158-.03.922-.082 1.845-.105 2.77-.017.707-.003 1.416-.003 2.14h1.526zm-23.394.003c.008-.166.022-.316.022-.466.002-1.275 0-2.55 0-3.826v-3.86c.002-.207-.014-.36-.29-.358-1.503.008-3.005.005-4.507.002-.2 0-.298.062-.297.282.004 2.656.004 5.313 0 7.968 0 .217.08.288.288.28.314-.012.63-.024.943.003.326.028.412-.09.41-.41-.013-2.06-.007-4.12-.007-6.178v-.427h1.874v6.99h1.565zm7.544-4.28c-.022-1.044-.152-2.066-.64-3.016-.453-.883-1.15-1.415-2.154-1.415-.99 0-1.66.552-2.057 1.427-.83 1.833-.786 3.716-.22 5.604.163.55.45 1.053.915 1.422 1.135.9 2.79.454 3.498-.93.495-.973.63-2.017.658-3.092zm13.412 7.83l-.092-.052c-1.016 1.062-2.03 2.125-3.115 3.258 0-.935-.005-1.762.005-2.59.003-.236-.063-.344-.315-.327-.243.016-.49.022-.733-.002-.32-.033-.39.104-.388.403.01 1.79.005 3.582.005 5.373 0 .796-.006 1.592.008 2.388.003.106.105.294.17.3.402.027.806.013 1.248.013 0-.713.066-1.386-.013-2.04-.127-1.03.174-1.83.985-2.474.33-.262.59-.61.93-.97.01.145.017.21.02.277.028.995.055 1.99.086 2.983.02.632.037 1.263.075 1.894.007.112.102.31.166.313.413.03.83.015 1.287.015-.11-2.95-.22-5.857-.33-8.763zm6.463-.022l-.09-.03c-1.018 1.064-2.034 2.126-3.06 3.196-.036-.057-.06-.076-.06-.095-.004-.585 0-1.17-.012-1.755-.006-.32.077-.747-.09-.933-.148-.163-.592-.04-.902-.074-.326-.035-.41.09-.408.41.012 2.563.007 5.124.008 7.687 0 .113.012.226.02.348h1.375c0-1.05-.002-2.067.004-3.085 0-.135-.003-.313.074-.4.58-.646 1.18-1.274 1.83-1.967l.205 5.46h1.442l-.334-8.762zm-22.78 4.526c-.036-.465-.05-.934-.114-1.395-.11-.807-.35-1.57-.842-2.237-.752-1.015-2.244-1.05-2.962-.032-.27.385-.48.83-.626 1.28-.383 1.175-.393 2.393-.26 3.61.094.84.274 1.664.767 2.374.444.64 1.058.924 1.84.802.812-.125 1.28-.662 1.607-1.36.45-.963.574-1.99.59-3.042zM5 29.008c1.125.508 1.85.23 2.228-.89.415-1.23.445-2.48-.037-3.708-.382-.974-1.102-1.477-2.143-1.506-.35-.01-.7.018-1.048-.01-.343-.026-.432.1-.43.436.012 2.54.006 5.08.007 7.62 0 .124.012.25.018.388h1.403v-2.33zm17.744-9.957c.015-.067.03-.1.03-.134 0-2.703 0-5.406.006-8.11 0-.204-.085-.266-.27-.264-.35.006-.7.01-1.05 0-.214-.006-.28.086-.277.294.01.75.005 1.497.003 2.247 0 .124-.01.25-.018.394-.348 0-.66.013-.973-.003-.528-.026-.727-.236-.734-.765-.008-.61-.01-1.218 0-1.827.006-.26-.09-.356-.348-.343-.325.015-.652.012-.978 0-.227-.007-.304.08-.3.31.012.737 0 1.474.008 2.212.006.463.183.863.5 1.2.448.475 1.005.705 1.65.722.39.01.78.002 1.205.002v4.065h1.547zm.95 4.417c0-.795 0-.795-.798-.72-.023.003-.047 0-.07.004-1.31.19-2.32.82-2.884 2.052-.556 1.214-.597 2.494-.292 3.77.44 1.833 1.767 2.92 3.623 3.05.444.032.458.02.46-.417.002-.21.002-.42 0-.63 0-.49 0-.48-.472-.52-.712-.055-1.31-.356-1.698-.962-.742-1.158-.744-2.386-.19-3.61.325-.72.957-1.097 1.727-1.214.593-.092.595-.076.595-.663v-.14zm-5.173.018c-.016-.813-.016-.813-.828-.737-.024.002-.047 0-.07.004-1.295.19-2.29.818-2.863 2.028-.462.977-.51 2.013-.43 3.08.153 2.113 1.736 3.692 3.825 3.77.26.01.395-.04.368-.338-.023-.266-.028-.54 0-.806.038-.336-.115-.417-.415-.43-.77-.037-1.375-.392-1.798-1.04-.574-.882-.578-1.852-.39-2.837.188-1 .918-1.715 1.904-1.903.213-.04.523.008.62-.117.12-.15.058-.443.075-.675zm8.963-4.436v-7.02c.37 0 .706-.003 1.04.003.165.002.264-.042.26-.235-.01-.34.01-.68-.013-1.017-.006-.082-.14-.223-.214-.224-1.246-.014-2.49-.015-3.736 0-.085 0-.23.153-.24.245-.03.313-.007.63-.015.946-.005.21.08.295.29.29.332-.012.664-.004 1.037-.004v7.017h1.59z"/><path d="M42.605.92h40.062c-.007.14-.02.28-.02.42v39.342c0 .14.013.28.02.42H42.605c.01-.14.03-.28.03-.418.002-13.115.002-26.23 0-39.346 0-.14-.02-.28-.03-.418zm2.376 20.055V38.29c0 .48.003.482.484.482H79.86c.49 0 .492-.002.492-.51V3.74c0-.5-.002-.5-.5-.5H45.49c-.508 0-.51 0-.51.527v17.21z"/><path d="M32.278 13.453V12.1c1.21-.26 1.545.208 1.59 1.353h-1.59"/><path d="M14.63 14.774c-.114.675-.203 1.393-.368 2.092-.137.584-.492.914-.86.887-.527-.038-.712-.46-.833-.877-.406-1.388-.414-2.788-.01-4.18.125-.426.322-.825.843-.86.4-.03.777.3.907.88.148.656.212 1.33.32 2.058"/><path d="M11.92 27.064c-.127.763-.226 1.514-.382 2.252-.08.382-.277.78-.73.785-.463.008-.625-.407-.74-.776-.302-.96-.37-1.953-.264-2.947.057-.54.175-1.08.312-1.607.088-.337.29-.644.693-.64.407.005.648.3.723.656.16.75.26 1.51.386 2.278"/><path d="M5.042 24.28c.304-.07.515.096.623.33.144.31.29.65.306.985.03.596-.01 1.2-.082 1.794-.018.15-.258.277-.395.414-.122-.142-.27-.268-.354-.43-.073-.137-.092-.313-.094-.473-.008-.87-.004-1.742-.004-2.62"/><path d="M67.425 20.626l-.795.605-.113-.91c-.12-.026-.294-.06-.51-.103.16-.304.297-.566.39-.74.603-.028 1.157-.01 1.697-.09.47-.07.612-.35.478-.82-.1-.356-.24-.704-.383-1.047-.275-.66-.18-.967.366-1.434.565-.482 1.1-1 1.634-1.516.13-.125.208-.306.384-.456-.03.322-.014.656-.097.963-.086.32-.232.636-.415.91-.184.275-.447.497-.657.774.45-.09.866-.38 1.332-.118-.033.426-.106.53-.725 1.048.322.1.653.2 1.003.307-.213.542-.63.66-1.047.772l.585.868c-.458.272-.825.056-1.237-.032.213.438.395.846.102 1.278-.384-.034-.384-.034-1.04-.588l-.258.847-.695-.517"/><path d="M58.868 19.36l.467.85c-.2.043-.37.08-.526.112l-.098.91-.822-.615c-.098.087-.22.208-.353.314-.216.174-.38.144-.453-.143-.04-.157-.064-.318-.095-.467l-.998.662c-.36-.51-.205-.93.01-1.326-.385.047-.748.09-1.11.136-.034-.053-.068-.105-.1-.158l.546-.827c-.238-.125-.523-.227-.753-.402-.334-.253-.294-.406.096-.544.11-.037.225-.06.338-.083.1-.02.204-.032.395-.06-.458-.26-.773-.563-.84-1.063.478-.257.898-.03 1.32.16.02-.025.036-.05.054-.077-.142-.155-.274-.32-.427-.463-.635-.59-.79-1.333-.72-2.244.496.93 1.235 1.51 1.992 2.077.546.41.62.774.36 1.405-.15.355-.296.713-.402 1.08-.126.436.038.684.484.806.54.148 1.08.137 1.634-.04"/><path d="M53.17 15.035c-.463-.298-.977-.54-1.38-.907-.687-.626-1.34-1.297-1.94-2.006-.93-1.094-1.032-2.378-.697-3.73 1.135.734 3.552 4.242 3.49 5.1-.85-.916-1.438-2.035-2.453-2.76l-.086.045c.095.212.18.43.285.636.472.917 1.262 1.547 2 2.225.17.157.303.365.424.566.148.246.265.51.396.764l-.04.067"/><path d="M76.175 8.405c.412 1.497.107 2.807-.87 3.98-.75.903-1.57 1.725-2.59 2.32-.12.07-.247.128-.372.19-.05.022-.103.037-.183.03.35-.457.403-1.058.93-1.448.736-.544 1.41-1.19 1.838-2.035.107-.21.2-.43.255-.67-1.054.688-1.64 1.795-2.52 2.672.026-.146.02-.31.085-.438.843-1.638 1.835-3.17 3.188-4.44.05-.048.104-.094.16-.136.014-.013.04-.014.08-.025"/><path d="M48.738 13.075c.323.32.61.696.978.95.726.5 1.5.93 2.252 1.394.15.092.285.214.426.322l-.058.12c-.473-.158-.96-.29-1.42-.48-1.016-.425-1.936-1.007-2.753-1.758-.793-.73-.978-1.652-.906-2.797.494.33.958.572 1.344.905 1.07.922 2.108 1.876 3.143 2.835.137.126.182.354.242.55-1.074-.704-1.982-1.628-3.154-2.15l-.092.108"/><path d="M72.942 15.752c.147-.114.287-.242.445-.34.73-.453 1.483-.874 2.195-1.357.39-.262.71-.624 1.062-.942l-.127-.15c-1.183.512-2.09 1.45-3.194 2.137.088-.18.133-.408.27-.535 1.027-.952 2.06-1.898 3.118-2.813.39-.338.855-.588 1.363-.93.073.974-.013 1.798-.602 2.47-.91 1.04-2.082 1.71-3.352 2.21-.363.145-.747.235-1.122.35l-.054-.1"/><path d="M72.763 17.453c.135-.466.47-.584.898-.682.744-.17 1.464-.445 2.19-.685.13-.042.242-.13.354-.28-.16.008-.327-.013-.477.028-.76.208-1.52.424-2.274.654-.325.1-.637.27-.956-.063 2.197-.815 4.373-1.768 6.853-1.794-.26.517-.645.826-1.065 1.1-.722.47-1.524.737-2.353.94-1.057.256-2.113.52-3.17.783"/><path d="M45.998 14.63c2.474.028 4.65.986 6.88 1.807-.354.27-.67.16-1.01.048-.74-.24-1.492-.442-2.24-.647-.163-.044-.34-.034-.508-.048l-.036.12c.453.184.897.395 1.36.546.474.153.962.29 1.454.352.417.053.512.37.743.7-1.72-.582-3.494-.712-5.087-1.492-.752-.368-1.268-.82-1.555-1.387"/><path d="M61.887 31.25l1.582 2.863c1.06-1.497 2.09-2.945 3.124-4.403l-.25-.268.89-.343v.97l-.343-.146-3.452 4.86c-.53-.948-1.04-1.854-1.583-2.825l-1.25 1.896.308.23-.922.375v-.952c.098.032.2.065.333.11l1.564-2.367"/><path d="M70.74 27.588l1.3-1.112c.17.605.403 1.24.516 1.898.137.804-.25 1.474-.724 2.09-.155.203-.293.418-.44.627-.033.046-.07.127-.104.127-.356 0-.713-.01-1.07-.024-.014 0-.028-.057-.074-.153 1.01-.012 1.537-.472 1.325-1.506-.108-.524-.622-.88-1.166-.886-.642-.006-1.05.35-1.27 1.117l-.105.002c-.003-.174-.064-.374 0-.52.43-1 1.823-1.17 2.524-.32.05.062.098.126.157.203.063-.548-.33-1.215-.87-1.542"/><path d="M53.313 26.49l1.27 1.09c-.565.294-.794.876-.933 1.57.178-.172.31-.316.46-.44.714-.587 1.808-.37 2.257.438.123.22.174.43-.056.655l-.06-.223c-.18-.67-.866-1.077-1.515-.898-.697.193-1.085.9-.874 1.59.136.442.435.673.925.723.128.013.254.038.39.142-.06.036-.122.103-.183.102-.483-.003-1.018.17-1.27-.497-.1-.262-.353-.46-.513-.702-.442-.668-.573-1.395-.34-2.17.143-.478.305-.95.443-1.38"/><path d="M79.24 17.106c-1.373 1.048-5.217 1.737-5.9 1.028.524-.048 1.02-.073 1.508-.142.487-.068.968-.18 1.446-.318-1.154-.276-2.28 0-3.413.17 1.013-.688 5.162-1.15 6.36-.738"/><path d="M51.982 18.173c-.834.68-4.7-.04-5.915-1.11 2.224-.29 4.33.004 6.393.752-1.132-.135-2.258-.417-3.402-.19-.006.044-.01.087-.017.13.972.14 1.942.276 2.942.418"/><path d="M51.956 18.718l-2.395.39.018.15c.46 0 .923.025 1.382-.01.39-.03.775-.144 1.165-.194.228-.03.462-.004.694-.004l.037.125c-.172.09-.335.222-.516.256-.74.137-1.484.298-2.233.347-.947.06-1.9.027-2.85.023-.172 0-.343-.055-.604-.1.856-.514 1.702-.825 2.617-.906.89-.077 1.787-.1 2.68-.146.003.023.004.047.006.07"/><path d="M78.64 19.69c-.858.235-1.698.23-2.524.163-1.04-.086-2.074-.26-3.107-.42-.185-.028-.353-.164-.528-.25l.033-.136c.23 0 .466-.038.686.007.845.174 1.69.302 2.557.18-.743-.394-1.582-.35-2.37-.54 1.78.09 3.615-.102 5.252.997"/><path d="M52.216 19.78l-2.234.953.057.186c.437-.095.88-.174 1.313-.287.28-.074.54-.218.82-.295.213-.06.44-.064.673-.028-1.668.546-3.115 1.76-4.99 1.662.19-1.127 2.476-2.248 4.36-2.192"/><path d="M72.507 20.26c.204.02.417.01.613.063.615.165 1.222.357 1.835.53.113.032.238.02.367-.006-.67-.534-1.468-.774-2.283-1.048 1.45-.142 3.404.635 4.202 1.66.106.134.19.286.31.468-.575.116-1.087.025-1.575-.146-.613-.215-1.21-.476-1.81-.726-.557-.233-1.108-.476-1.663-.715l.003-.08"/><path d="M51.025 24.656c.106-1.084.668-1.855 1.394-2.528.298-.277.63-.52.926-.8.27-.252.545-.388.96-.165l-.324.266c-.534.427-1.072.848-1.597 1.286-.106.09-.16.24-.206.394.8-.306 1.37-.916 2.043-1.433-.047.106-.073.228-.14.316-.432.552-.878 1.092-1.307 1.646-.44.566-.983.94-1.75 1.016"/><path d="M71.01 21.16c.417-.198.684-.087.97.155.745.635 1.53 1.234 1.976 2.138.178.357.27.756.42 1.196-.658-.033-1.15-.264-1.52-.68-.576-.653-1.107-1.35-1.65-2.034-.053-.066-.048-.18-.072-.283l1.937 1.565.116-.105c-.068-.122-.108-.276-.207-.36-.53-.45-1.075-.88-1.615-1.317-.107-.086-.22-.17-.354-.275"/><path d="M71.866 20.722c.807.614 1.553 1.178 2.464 1.513-.146-.553-.588-.882-2.237-1.744.34.133.688.25 1.022.4.74.33 1.542.54 2.124 1.166.386.415.668.88.857 1.46-.73.046-1.338-.16-1.85-.59-.787-.66-1.542-1.357-2.31-2.04-.02-.017-.024-.054-.07-.164"/><path d="M49.24 23.52c.29-.903.784-1.602 1.58-2.01.74-.38 1.527-.666 2.31-.96-.806.42-1.667.758-2.13 1.635.92-.265 1.653-.862 2.445-1.37-.042.046-.08.098-.126.14-.706.63-1.404 1.265-2.12 1.883-.545.47-1.178.72-1.96.68"/><path d="M54.26 30.616c.248-.394.776-.464 1.11-.208.473.36.73.334 1.07-.34.35-.696.718-1.385 1.086-2.074.124-.23.33-.315.612-.267l.07.367c.224.017.47-.37.685.055-1.505.508-2.03 1.79-2.514 3.177l-2.12-.71"/><path d="M68.96 31.327c-.494-1.367-.992-2.67-2.497-3.16.118-.232.118-.232.673-.078.01-.058.018-.115.025-.17.01-.058.014-.114.022-.185.265-.062.477.006.603.233.338.61.663 1.23.99 1.844.067.124.117.255.183.38.263.49.46.544.94.255.486-.296.812-.255 1.184.168l-2.12.712"/><path d="M64.838 12.752v-.08c-.128-.075-.238-.14-.384-.223-.29.255-.65.5-1.152.306l.797-.486-.34-.226.198-.222c-.06-.063-.12-.13-.143-.15h2.947c-.055.492-.23.944-.803 1.168l-.11-.232c-.303.204-.603.45-1.012.144zm1.5-.732c-.374-.026-.675-.048-.977-.068 0 .014-.004.027-.006.04l.8.35.184-.322z"/><path d="M60.844 12.416c-.17.203-.414.27-.588.406-.387.298-.49-.213-.79-.153l-.086.167c-.575-.21-.745-.666-.81-1.157h2.915c-.083.094-.194.238.113.3l-.328.31c.25.154.472.292.69.425-.25.224-.603.137-1.116-.3zM59 12.02l.182.32c.303-.13.557-.24.812-.347l-.01-.045-.983.073z"/><path d="M54.877 15.92c-1.298-.594-2.276-1.864-1.868-3.05.595.218 1.042.602 1.265 1.196.224.597.396 1.213.602 1.854"/><path d="M72.316 12.868c.414 1.033-.424 2.396-1.867 3.08.21-.66.383-1.33.64-1.964.223-.545.66-.913 1.226-1.116"/><path d="M52.91 25.258c-.164-1.12 1.138-3.216 2.078-3.288-.32.364-.63.684-.903 1.034-.276.353-.533.727-.57 1.318.224-.193.4-.306.524-.46.27-.333.523-.683.768-1.037.174-.252.162-.26.528-.228-.68 1.01-1.023 2.3-2.427 2.66"/><path d="M70 22.608c.29-.105.407.036.54.23.274.404.58.788.886 1.17.08.1.208.167.382.304-.018-.573-.275-.946-.55-1.296-.275-.353-.587-.677-.883-1.013l.07-.098c.177.104.386.176.525.317.66.672 1.22 1.416 1.438 2.362.048.21.044.434.067.68-1.445-.345-1.778-1.653-2.474-2.656"/><path d="M55.94 22.432c-.18.73-.48 1.366-.318 2.112.074-.128.18-.248.216-.386.147-.574.27-1.156.408-1.733.026-.107.088-.205.17-.39.293 1.426-.337 3.15-1.246 3.582-.606-.62.104-2.493.77-3.185"/><path d="M62.664 28.862c.57.64 1.17 1.313 1.844 2.073-.376-.196-.68-.338-.967-.507-.157-.094-.276-.126-.473-.073-.25.067-.545.068-.796.002-.194-.05-.315-.027-.473.07-.27.163-.56.298-.86.39.59-.666 1.178-1.332 1.727-1.955"/><path d="M68.943 22.11c.05.106.122.207.148.32.112.498.198 1.004.32 1.5.05.207.167.397.304.58.197-.72-.165-1.358-.3-2.047.666.67 1.338 2.528.752 3.165-.443-.215-.83-.534-.946-1.01-.195-.806-.295-1.637-.436-2.458l.16-.05"/><path d="M61.867 28.668c.487-.42.525-.686.268-1.36-.113-.295-.172-.616-.22-.932-.02-.12.062-.256.123-.476l.574 1.414c.036 0 .072 0 .11.003l.55-1.376c.21.328.2.646.105.972-.032.11-.092.213-.14.32-.237.53-.375 1.046.268 1.454l-.11.08-.73-.462c-.226.143-.486.31-.746.474l-.053-.11"/><path d="M59.097 23.154c-.205-.662-.38-1.233-.56-1.81.304.162.403-.086.428-.322.038-.354.198-.57.547-.656.443.257.57.61.35 1.128-.222.526-.476 1.037-.765 1.66"/><path d="M66.236 23.15c-.294-.635-.57-1.172-.788-1.73-.08-.204-.078-.478-.01-.685.05-.154.266-.253.41-.376.128.157.458.072.458.392 0 .102.036.206.067.305.07.226.146.45.43.28l-.567 1.812"/><path d="M52.222 14.878c.986.28 1.78.77 2.514 1.393-1.076.67-2.066-.033-2.514-1.392"/><path d="M70.577 16.287c.762-.644 1.563-1.14 2.52-1.402-.293 1.04-1.18 2.12-2.52 1.402"/><path d="M58.74 29.71c.628.887 1.228 1.747 1.846 2.594.155.214.162.366-.072.536-.69-.97-1.375-1.938-2.07-2.918l-.346.165v-.984l.887.33-.246.277"/><path d="M70.454 18.967c.752-.023 1.458-.053 2.015.498.12.12.162.318.24.48-.17.057-.337.155-.507.16-.78.026-1.363-.35-1.75-1.138"/><path d="M54.85 18.992c-.266.9-1.33 1.213-1.97 1.092-.283-.052-.333-.202-.17-.407.14-.177.3-.372.494-.466.517-.25 1.07-.332 1.647-.218"/><path d="M58.876 17.213c.05.076.09.142.134.205.243.35.55.457.894.208.34-.247.615-.587.913-.892.072-.073.122-.167.227-.314-.17.74-.443 1.338-.935 1.82-.392.385-.713.438-1.042.182-.35-.272-.435-.757-.192-1.21"/><path d="M64.308 16.49c.242.29.437.55.66.782.143.15.313.284.494.38.378.2.567.114 1.004-.388.23.36.16.842-.16 1.124-.317.278-.616.262-.99-.068-.54-.476-.835-1.09-1.008-1.83"/><path d="M57.888 20.934c.73.782.71 1.822 1.126 2.678-.02.03-.038.063-.058.093-.186-.084-.402-.13-.555-.258-.616-.51-.794-1.743-.512-2.513"/><path d="M52.097 18.436c.282-.41.696-.563 1.166-.56.494.003.908.168 1.08.695-.56.43-1.756.42-2.246-.134"/><path d="M67.47 20.984c.132.74.175 1.466-.26 2.135-.2.308-.44.568-.91.525.446-.882.412-1.925 1.17-2.66"/><path d="M70.99 18.575c.17-.53.583-.696 1.077-.7.47-.002.886.147 1.17.558-.484.562-1.68.564-2.246.142"/><path d="M55.185 26.966c-.005.252-.173.4-.417.322-.584-.188-1-.588-1.27-1.13-.114-.228.04-.465.276-.492.428-.05 1.42.864 1.41 1.3"/><path d="M70.148 26.897c.017-.045.026-.156.087-.213.34-.327.678-.662 1.054-.945.1-.076.38-.03.483.064.08.073.076.344.004.465-.273.46-.643.832-1.166 1.004-.28.094-.472-.054-.462-.377"/><path d="M59.993 28.518l1.658-1.584c.418.493.188.967-.076 1.428-.31.54-.72.955-1.352 1.06l-.092-.096.584-.593c.253-.254.53-.49.75-.768.112-.14.126-.357.137-.573-.58.328-.805 1.117-1.607 1.126"/><path d="M65.26 28.59c-.725-.096-.953-.863-1.52-1.27-.045.415.098.688.316.917.184.192.407.346.603.528.187.177.36.37.607.622-.464.053-.712-.15-.945-.337-.438-.355-.722-.835-.843-1.377-.052-.227.083-.497.14-.79.613.58 1.164 1.102 1.713 1.624l-.072.084"/><path d="M54.723 17.55c-.766.372-1.837.053-2.192-.71.218-.052.422-.143.625-.14.356.006.712.065 1.067.11.06.008.132.055.162.105.12.208.227.423.34.636"/><path d="M70.596 17.558c.05-.08.09-.137.126-.196.113-.182.205-.503.342-.523.505-.08 1.024-.06 1.538-.07.058 0 .116.065.17.098-.262.706-1.3 1.04-2.176.69"/><path d="M62.67 24.25c.562.645.56 1.37.01 2.365-.572-.947-.6-1.73-.01-2.366"/><path d="M68.17 23.1c-.43-.423-.59-1.21-.35-1.693.025-.048.095-.084.152-.103.114-.038.233-.06.36-.092.44.514.385 1.31-.16 1.887"/><path d="M56.983 21.207l.49.132c.188.61.23 1.22-.278 1.753-.54-.42-.632-1.244-.212-1.886"/><path d="M66.47 12.757c.184-.113.372-.22.55-.338.154-.102.343-.19.434-.335.148-.237.364-.24.54-.167.156.063.35.248.364.395.02.19-.112.403-.202.595-.014.03-.17.023-.24-.01-.306-.154-.594-.123-.905 0-.147.06-.337.01-.51.01l-.03-.15"/><path d="M58.832 12.918c-.21-.02-.417-.053-.626-.063-.226-.01-.463-.045-.675.01-.202.053-.37.148-.485-.107-.12-.26-.16-.52.07-.742.203-.2.556-.143.754.066.13.14.305.242.467.35.17.112.35.21.527.314-.01.058-.02.116-.032.172"/><path d="M64.428 21.812c-.62-.992-.604-1.197.097-1.967.166.24.332.47.483.71.03.05.025.147-.004.2-.174.336-.36.665-.576 1.057"/><path d="M60.965 21.71c-.736-.55-.78-1.1-.15-1.846.67.66.705 1.077.15 1.847"/><path d="M57.163 24.652c.048-.265.1-.53.144-.796.04-.247-.11-.546.196-.726.062.678-.19 2.083-.484 2.58-.527-.865-.302-1.775-.342-2.737.36.268.21.572.23.832.024.28.044.56.065.84l.19.007"/><path d="M68.26 25.678c-.344-.82-.38-1.677-.434-2.534.413.418.005 1.08.442 1.517.36-.496-.024-1.124.27-1.665.31.605.127 2.29-.277 2.683"/><path d="M63.86 20.12c-.187-.42-.602-.745-.387-1.235.1-.23.293-.418.453-.636.65.71.627 1.147-.066 1.87"/><path d="M61.513 20.17c-.727-.8-.75-1.11-.174-1.88.336.18.598.444.543.836-.048.337-.227.656-.37 1.043"/><path d="M55.092 22.313c.333-.73.77-1.23 1.55-1.377.17.254.043.5-.112.706-.338.444-.774.722-1.438.67"/><path d="M69.776 20.027c.733-.15 1.42-.098 1.96.513-.486.55-1.7.215-1.96-.513"/><path d="M53.584 20.553c.566-.615 1.242-.682 2.01-.52-.206.403-.563.61-.972.74-.37.12-.73.136-1.038-.22"/><path d="M70.228 22.296c-.896.1-1.693-.626-1.55-1.358.778.136 1.23.634 1.55 1.358"/><path d="M61.8 25.013c-.497-.908-.463-1.25.174-1.908.564.45.504 1.16-.175 1.908"/><path d="M63.533 25.02c-.677-.778-.733-1.383-.198-1.918.634.528.687 1.018.198 1.918"/><path d="M63.34 19.888c.51.663.44 1.48-.183 1.882-.472-.71-.437-1.098.183-1.882"/><path d="M62 19.89c.606.794.638 1.123.198 1.862-.637-.315-.724-1.22-.197-1.863"/><path d="M63.875 21.52c.606.674.588 1.198-.055 1.724-.53-.673-.512-1.25.055-1.724"/><path d="M61.518 23.256c-.656-.57-.666-1.035-.048-1.724.53.484.603 1.02.048 1.724"/><path d="M62.424 17.348h.474c.327.407.33.834 0 1.193-.162.178-.302.18-.463 0-.314-.348-.32-.76-.01-1.192"/><path d="M61.664 16.625c-.298-.468-.223-1.086.224-1.962.585.68.535 1.16-.224 1.962"/><path d="M63.457 14.584c.186.714.636 1.313.242 2.033-.785-.814-.857-.897-.243-2.033"/><path d="M64.945 18.34c.56.538.59 1.108.112 1.775-.492-.528-.54-1.185-.112-1.775"/><path d="M61.883 25.454c-.04.488-.267.93-.695 1.26-.098.077-.235.16-.344.15-.158-.02-.308-.12-.46-.187.074-.13.12-.303.23-.383.41-.296.843-.56 1.27-.84"/><path d="M60.396 18.353c.42.56.38 1.206-.108 1.76-.5-.62-.458-1.303.108-1.76"/><path d="M55.615 20.625c0 .195.074.44-.015.578-.227.356-.585.56-1.026.542-.052-.003-.152-.14-.138-.185.055-.18.104-.4.234-.51.233-.197.523-.326.79-.483.05.02.103.038.155.058"/><path d="M63.448 25.452c.407.266.818.517 1.206.8.13.096.31.322.274.407-.09.214-.32.283-.56.174-.6-.278-.828-.798-.92-1.382"/><path d="M70.866 21.736c-.467.063-.804-.16-1.118-.483-.242-.248.034-.417.03-.626.717.075 1.187.55 1.088 1.11"/><path d="M62.993 32.8c-.336-.707.314-1.01.392-1.493l.088-.015c.252.38.516.755.745 1.15.046.08-.036.235-.06.356-.032.004-.065.01-.1.013-.18-.258-.364-.517-.58-.825l-.485.814"/><path d="M62.664 21.703c.562.763.563 1 .023 1.632-.58-.534-.57-.937-.023-1.632"/><path d="M62.665 20.307c-.16-.245-.296-.446-.424-.65-.128-.207-.11-.402.08-.557.222-.18.452-.206.684-.01.192.163.206.36.09.562-.12.21-.264.406-.43.655"/><path d="M62.348 33.275c.32.682-.315.978-.387 1.45l-.092.022c-.25-.355-.515-.703-.743-1.073-.045-.073.05-.233.1-.434l.638.85.485-.815"/><path d="M62.04 28.96c-.493.772-1.092 1.442-1.885 1.918-.073.044-.194.01-.292.01.044-.076.07-.183.136-.225.638-.404 1.157-.927 1.604-1.534.087-.12.238-.19.36-.284.025.04.05.077.076.115"/><path d="M65.513 30.884c-.09.014-.203.07-.264.034-.833-.482-1.458-1.17-1.966-1.973l.05-.08c.11.056.257.085.32.174.506.695 1.1 1.292 1.852 1.722l.007.122"/><path d="M67.012 24.632l.406-1.476c.127.646-.194 1.75-.62 2.267-.316-.437-.28-1.43.08-1.63v.807c.045.01.09.02.134.032"/><path d="M57.938 23.22l.374 1.407.12-.015v-.78c.37.083.44.972.116 1.632-.51-.674-.62-1.44-.697-2.215l.088-.03"/><path d="M63.634 10.086c-.157-.06-.26-.103-.38-.15.072-.382.127-.75.216-1.108.044-.178.08-.413.38-.334.286.076.284.258.2.482-.133.358-.268.715-.416 1.11"/><path d="M62.09 9.94c-.15.053-.254.09-.4.14-.152-.423-.297-.822-.44-1.223-.075-.208.04-.334.22-.343.11-.005.306.083.33.17.122.405.197.826.29 1.256"/><path d="M64.907 23.128c-.465-.696-.446-1.027.077-1.635.434.516.416 1.028-.077 1.635"/><path d="M62.668 15.396c-.14-.234-.25-.424-.37-.61-.172-.27-.087-.476.136-.668.176-.15.327-.126.49.02.21.186.28.388.116.643-.118.186-.228.377-.372.616"/><path d="M60.44 23.11c-.497-.516-.524-.965-.117-1.624.535.513.57.938.116 1.623"/><path d="M56.37 9.705c.25.763.634 1.503.108 2.315-.036-.185-.108-.36-.096-.53.033-.44-.043-.844-.235-1.247-.18-.373-.13-.43.223-.538"/><path d="M68.84 12.004c-.496-.805-.13-1.546.127-2.304.15.035.372.07.273.31-.24.582-.31 1.185-.32 1.803-.002.062-.05.123-.08.19"/><path d="M59.137 31.463c-.806.124-1.612.256-2.42.365-.093.013-.2-.09-.302-.14.094-.04.185-.1.283-.117.692-.125 1.384-.246 2.077-.358.115-.018.24.017.36.028 0 .074 0 .15.002.223"/><path d="M66.19 31.248c.1-.02.207-.068.303-.053.753.117 1.503.245 2.253.378.064.01.117.076.175.116-.077.048-.162.148-.234.14-.62-.077-1.237-.163-1.852-.265-.214-.036-.42-.125-.627-.19l-.018-.127"/><path d="M67.782 11.095c-.13-.317-.25-.64-.395-.954-.2-.436-.203-.5.05-.79.183.338.38.663.54 1.005.18.38.087.604-.195.74"/><path d="M64.435 34.1l.178-.17.078-.585.105-.006.227.267c.1-.034.202-.068.33-.113v.96l-.917-.355"/><path d="M57.992 9.35c.02.17.078.353.044.514-.043.198-.174.377-.247.57-.082.22-.14.447-.208.667-.294-.114-.402-.356-.23-.733.16-.345.358-.67.54-1.006l.1-.01"/><path d="M64.588 24.49c-.5-.612-.532-.912-.155-1.44.496.37.545.823.155 1.44"/><path d="M60.74 24.47c-.385-.584-.344-.986.146-1.43.386.486.342.916-.147 1.43"/><path d="M59.486 26.315c-.39.583-1.097.862-1.603.66.237-.382.78-.61 1.603-.66"/><path d="M65.873 26.322c.724.022 1.294.25 1.577.632-.474.25-1.284-.076-1.577-.632"/><path d="M60.85 18.48c-.206-.228-.274-.405-.098-.686.224-.36.366-.77.535-1.14.252.302.114.958-.437 1.826"/><path d="M64.436 18.45c-.24-.59-.672-1.135-.43-1.84.23.463.476.906.664 1.37.052.128-.066.324-.106.488-.043-.005-.085-.01-.128-.017"/><path d="M64.206 24.486c.512.44.59.71.318 1.06-.147.19-.266.173-.412.004-.245-.284-.224-.568.094-1.064"/><path d="M61.125 24.447c.376.724.357.922-.102 1.248-.513-.335-.496-.583.102-1.248"/><path d="M64.354 16.057c-.507-.63-.55-.924-.21-1.474.36.24.477 1.054.21 1.474"/><path d="M61.175 14.564c.36.544.295.976-.23 1.498-.204-.552-.104-1.208.23-1.498"/><path d="M63.436 18.385c-.06-.332-.126-.67-.177-1.01-.03-.183-.03-.37-.048-.626.872.812.774 1.28.224 1.635"/><path d="M62.067 16.827c.237.56-.497 1.088-.003 1.638-.753-.408-.776-.983.003-1.638"/><path d="M58.308 13.933c-.175-.31-.102-.583.266-.802.358-.214.49-.176.707.166l-.972.637"/><path d="M62.66 15.9c.463.523.463.764.018 1.148-.455-.34-.463-.6-.02-1.147"/><path d="M67.028 13.936l-.96-.633c.132-.314.27-.373.618-.21.41.19.518.496.342.843"/><path d="M65.197 28.065c.22-.152.463-.23.49-.354.105-.484-.31-.602-.71-.786.144-.032.22-.068.29-.06.376.04.84.686.73 1.045-.034.113-.167.265-.266.273-.167.015-.345-.07-.533-.118"/><path d="M60.337 26.948c-.4.15-.773.288-.7.746.02.123.258.21.438.345-.076.11-.225.22-.455.163-.227-.057-.305-.22-.3-.45.01-.476.564-.962 1.017-.805"/><path d="M59.58 16.96c.353-.27.708-.54 1.03-.788.067.336-.115.808-.418.938-.228.097-.48.02-.613-.15"/><path d="M64.73 16.005c.24.488.585.776 1.097.863-.178.317-.423.308-.657.245-.31-.085-.487-.523-.44-1.108"/><path d="M63.213 10.737c.502-.058.982.208 1.202.664-.53.078-1.034-.2-1.202-.663"/><path d="M58.97 18.87h.72c.038.352.11.7-.286 1.004l-.435-1.004"/><path d="M66.368 18.845l-.428 1.02c-.414-.27-.31-.63-.307-.98l.735-.04"/><path d="M60.91 11.424c.23-.48.702-.742 1.21-.69-.16.453-.576.696-1.21.69"/><path d="M62.628 9.35c-.088-.256-.195-.51-.253-.774-.02-.098.046-.252.124-.32.063-.058.236-.07.304-.02.085.06.173.215.154.307-.056.276-.163.54-.25.81-.026 0-.053 0-.08-.002"/><path d="M70.25 31.397c.295.03.592.047.883.102.07.012.18.18.158.225-.05.112-.206.29-.25.273-.296-.12-.574-.286-.856-.437l.066-.163"/><path d="M60.36 25.132c.067.185.114.312.184.5l-1.15.442-.07-.117 1.035-.825"/><path d="M60.38 15.23c-.373-.482-.226-1.223-.855-1.552.053.01.122.002.157.033.268.24.535.48.787.734.044.046.036.164.024.244-.026.172-.07.34-.114.543"/><path d="M55.142 31.57c-.284.148-.563.31-.86.427-.04.016-.192-.17-.24-.283-.02-.044.103-.206.177-.22.28-.052.566-.065.85-.093l.072.17"/><path d="M65.928 26.072c-.37-.14-.74-.283-1.138-.434l.185-.506c.36.288.696.554 1.03.82-.025.04-.05.08-.077.12"/><path d="M64.942 15.257c-.04-.293-.19-.617-.087-.77.228-.337.583-.59.943-.83-.613.343-.472 1.076-.856 1.6"/><path d="M61.88 10.332c.526-.203 1.054-.202 1.583-.004-.525.187-1.052.168-1.583.004"/><path d="M69.72 31.776c.336-.09.875.133.94.366.018.06-.087.224-.117.22-.17-.027-.355-.056-.49-.15-.132-.094-.21-.267-.333-.436"/><path d="M55.622 31.782c-.16.2-.268.416-.442.524-.12.076-.33.002-.5-.004.06-.12.093-.28.19-.352.194-.142.394-.343.752-.168"/><path d="M61.612 14.386c-.21-.448-.422-.904-.65-1.388.577.185.843.802.65 1.388"/><path d="M63.7 14.348c-.11-.66.08-1.084.682-1.4l-.627 1.4c-.004.006-.037 0-.056 0"/><path d="M67.785 27.453c-.584-.02-1.1.158-1.615.48.07-.093.12-.233.21-.273.38-.164.77-.31 1.166-.435.07-.022.18.09.272.14-.01.03-.022.058-.033.088"/><path d="M57.53 27.32c.117-.026.244-.095.35-.07.88.203 1.2.4 1.228.697-.468-.284-.957-.543-1.557-.478l-.02-.15"/><path d="M62.94 13.84c.1-.55.38-.81.833-.78-.19.36-.386.683-.832.78"/><path d="M61.1 14.15c-.263-.304-.51-.593-.763-.887l.172-.216c.29.142.675.882.59 1.104"/><path d="M61.532 13.04c.51.023.754.258.863.796-.45-.086-.63-.424-.863-.796"/><path d="M64.232 14.156c-.07-.234.302-.95.586-1.114l.18.22-.766.894"/><path d="M60.097 10.346c-.137.477-.328.714-.585.725-.043-.61.175-.88.585-.724"/><path d="M59 11.13c-.406-.15-.47-.492-.628-.78.444-.145.62.067.627.78"/><path d="M60.735 25.852c-.204.23-.396.48-.63.688-.1.088-.284.08-.476.128.247-.5.822-.878 1.105-.816"/><path d="M65.244 10.305c.44-.043.54.088.602.747-.264.036-.524-.28-.602-.747"/><path d="M65.69 26.612c-.268.057-.427.022-.573-.224-.123-.21-.366-.35-.55-.516.28-.097.83.25 1.124.74"/><path d="M66.91 10.327c-.047.394-.29.722-.55.746-.07-.567.135-.846.55-.746"/><path d="M68.714 9.654c-.342.033-.58-.09-1.01-.502.33-.1.708.08 1.01.502"/><path d="M69.877 32.46c-.187-.073-.395-.115-.555-.225-.096-.067-.12-.24-.176-.367.135.02.3-.003.398.066.154.108.262.28.39.424-.02.033-.038.066-.057.1"/><path d="M57.628 9.143c-.308.22-.55.576-1.082.53.34-.35.637-.587 1.082-.53"/><path d="M55.388 32.335c.182-.166.355-.34.55-.49.05-.037.165.013.25.023-.014.085 0 .213-.048.246-.21.138-.435.248-.656.37l-.096-.15"/><path d="M62.293 9.934L61.99 8.39l.106-.024c.12.51.238 1.022.356 1.533-.053.01-.106.022-.16.034"/><path d="M65.9 13.167L64.896 14c.133-.615.57-.724.94-.91.023.025.045.05.066.077"/><path d="M63.345 8.384l-.303 1.55-.156-.035.348-1.54c.037.007.074.016.11.024"/><path d="M66.717 27.163c-.445.318-.445.318-.85-.346l.85.346"/><path d="M59.502 13.095c.383.177.81.303.935.9-.38-.31-.69-.567-1.003-.824l.068-.075"/><path d="M59.472 26.816c-.442.64-.442.64-.868.34l.868-.34"/><path d="M62.633 7.206l.262.383-.26.4-.274-.397.273-.387"/><path d="M66.343 9.49l-.256.384-.282-.387.276-.373.263.376"/><path d="M62.267 30.694h.79l-.39.576-.4-.576"/><path d="M69.14 31.6c.204-.277.456-.338.76-.304-.066.298-.344.416-.76.303"/><path d="M58.958 9.49l.29-.34.285.342-.287.35c-.083-.103-.19-.235-.288-.353"/><path d="M56.136 31.61c-.29.045-.557.032-.78-.288.37-.07.615 0 .78.288"/><path d="M66.054 10.72l-.26-.554h.46c-.03.185-.058.372-.086.558l-.114-.003"/><path d="M59.156 10.717c-.02-.186-.043-.372-.064-.557l.326-.002-.076.562-.186-.003"/><path d="M59.813 19.805c.1.202.177.357.255.51-.023.022-.046.042-.07.062-.136-.1-.273-.198-.43-.312l.245-.26"/><path d="M65.272 20.31l.236-.49.256.237c-.156.12-.286.22-.415.323l-.078-.07"/><path d="M55.618 11.332l.512-.448c.01.188.014.295.02.42-.157.007-.298.015-.532.028"/><path d="M58.84 11.344h.81v.063h-.808l-.002-.063"/><path d="M69.208 10.884l.476.423h-.476v-.423"/><path d="M66.494 11.42h-.803v-.06h.804v.06"/><path d="M66.965 12.164c.02-.195-.12-.47.14-.546.04.02.078.04.117.058-.086.163-.17.326-.257.488"/><path d="M58.286 11.595l.178.526-.083.046-.268-.48.174-.09"/></g></svg>