<svg width="56" height="56" viewBox="0 0 56 56" xmlns="http://www.w3.org/2000/svg"><title>Fill-192-+-NEW-2</title><desc>Created with Sketch.</desc><g fill="none"><path d="M28 0c15.463 0 28 10.97 28 24.5 0 7.733-4.104 14.62-10.5 19.108V56l-12.266-7.443C31.537 48.837 29.79 49 28 49 12.537 49 0 38.03 0 24.5S12.537 0 28 0" fill="#F28A19"/><path d="M18.183 29c-.21-.352-.45-.747-.72-1.185-.272-.437-.564-.892-.878-1.363-.314-.47-.64-.95-.978-1.434-.338-.485-.673-.954-1.006-1.406-.332-.452-.656-.878-.97-1.277-.314-.4-.604-.752-.87-1.057V29h-1.357v-9.89h1.1c.447.475.925 1.03 1.434 1.662.51.632 1.013 1.284 1.513 1.955.5.67.97 1.33 1.413 1.977.442.647.816 1.223 1.12 1.727v-7.32h1.356V29h-1.157zM-.207-9V.11h6.04v1.184h-4.654v2.94h4.138V5.39h-4.14v3.425h5.01V10h-6.394zm13.56-6.708c-.4 1.275-.804 2.455-1.213 3.54-.41 1.084-.818 2.14-1.227 3.168h-1.385c-.504-1.456-.95-2.993-1.334-4.61-.386-1.618-.745-3.378-1.078-5.28h1.456c.133.74.27 1.483.414 2.225.143.743.29 1.463.442 2.163.153.7.305 1.368.457 2.005.152.638.31 1.228.47 1.77.382-1 .786-2.096 1.214-3.29.428-1.194.827-2.43 1.198-3.704h1.2c.37 1.274.775 2.51 1.212 3.703.438 1.194.847 2.29 1.228 3.29.152-.533.304-1.118.457-1.756.152-.637.302-1.306.45-2.005.147-.7.292-1.422.435-2.17.142-.746.28-1.49.413-2.233h1.413c-.342 1.902-.706 3.662-1.09 5.28-.387 1.617-.827 3.154-1.322 4.61H26.78c-.42-1.028-.828-2.084-1.228-3.17-.4-1.083-.8-2.263-1.2-3.538z" fill="#fff"/></g></svg>