<?xml version="1.0" encoding="UTF-8" standalone="no"?>
<svg width="53px" height="51px" viewBox="0 0 53 51" version="1.1" xmlns="http://www.w3.org/2000/svg" xmlns:xlink="http://www.w3.org/1999/xlink" xmlns:sketch="http://www.bohemiancoding.com/sketch/ns">
    <!-- Generator: Sketch 3.2.2 (9983) - http://www.bohemiancoding.com/sketch -->
    <title>курьер</title>
    <desc>Created with Sketch.</desc>
    <defs></defs>
    <g id="Welcome" stroke="none" stroke-width="1" fill="none" fill-rule="evenodd" sketch:type="MSPage">
        <g id="корзина-(оплата)" sketch:type="MSArtboardGroup" transform="translate(-1052.000000, -410.000000)" fill="#074296">
            <g id="контент-+-выбор-доставки" sketch:type="MSLayerGroup" transform="translate(62.000000, 405.000000)">
                <g id="контент" transform="translate(294.000000, 5.000000)" sketch:type="MSShapeGroup">
                    <g id="покупка-3" transform="translate(0.032363, 0.922549)">
                        <g id="--Доставка-по-г.-Рос-+-Курьер-(наличный-пла-+-курьер" transform="translate(583.000000, 0.000000)">
                            <g id="курьер" transform="translate(113.112188, 0.000000)">
                                <path d="M7.9939979,15.6614207 C10.2044836,15.6614207 12.4146342,15.6551115 14.6244498,15.6647413 C15.4770848,15.668394 15.8291946,16.0383122 15.8298647,16.8920463 C15.8318748,20.025393 15.8278545,23.1587398 15.8305347,26.2920865 C15.8318748,27.4997997 15.8499661,28.7068489 15.8516412,29.9145621 C15.8519762,30.683288 15.5293485,30.9864616 14.741038,30.9804844 C13.4042939,30.9705225 12.0672147,30.9489384 10.7304706,30.9502667 C9.273453,30.951927 7.81610038,30.983805 6.35841273,30.9851333 C4.64610716,30.9864616 2.93380159,30.973179 1.22183104,30.9579041 C0.532017462,30.9512629 0.139369814,30.5315352 0.139704837,29.8461571 C0.141044932,25.5974107 0.140374885,21.3489963 0.140709908,17.1005819 C0.140709908,16.9943217 0.143055073,16.8880615 0.145065215,16.7821334 C0.158801182,16.0353237 0.535367698,15.6574359 1.28314035,15.6564398 C3.52009287,15.6537833 5.75738041,15.6557756 7.9939979,15.6557756 L7.9939979,15.6614207" id="Fill-1"></path>
                                <path d="M26.5780915,16.4494063 C26.3365395,16.111034 26.1057083,15.8138376 25.903689,15.4983778 C25.6534264,15.1072075 25.4550924,14.6808386 25.1850634,14.3046112 C24.5143462,13.3715141 23.5578538,13.1599899 22.6388841,13.4847475 C21.5560879,13.8672842 20.9225583,14.9388515 21.1872269,15.9795371 C21.330617,16.5437122 21.6475493,17.079994 21.9604614,17.5840656 C22.8633499,19.040162 23.9729481,20.3298948 25.3016516,21.4260349 C25.5070211,21.5957191 25.5777111,21.7660674 25.5519143,22.0413477 C25.4306357,23.3616303 25.3441996,24.6845694 25.2346469,26.0055161 C25.207845,26.3306058 25.3237632,26.5075954 25.6547665,26.5574049 C26.2356974,26.6447374 26.8149532,26.748009 27.3958841,26.8376661 C28.1228853,26.9499034 28.856587,27.0292664 29.5775577,27.1700612 C30.6342221,27.3766044 31.74047,27.3158368 32.7512362,27.7737517 C33.2557817,28.001879 33.6648455,28.2970831 33.884621,28.8277198 C34.4930239,30.3010835 35.1278936,31.763489 35.730936,33.238513 C36.1922635,34.3661991 36.6224338,35.5068356 37.065,36.641827 C37.2623289,37.1478911 37.4506121,37.6572757 37.6553115,38.1606833 C38.357521,39.8897355 37.1313346,41.9232895 34.9607168,41.6861965 C33.9154432,41.5719668 33.2256296,40.9994901 32.8426976,40.0484616 C32.0711383,38.1321259 31.3086246,36.2128016 30.5387404,34.2961338 C30.3759189,33.8913489 30.1732297,33.5001787 30.0352,33.0874243 C29.951109,32.8367167 29.7936479,32.7759492 29.5698522,32.7297925 C26.7104258,32.1446974 23.8546847,31.5426671 20.9935833,30.967866 C19.7925237,30.7264562 18.902031,30.1865217 18.3596278,29.0146713 C17.908016,28.0400663 17.7602706,27.0319229 17.709012,26.0114933 C17.6356418,24.5550648 17.6286063,23.0896707 17.7080069,21.6342384 C17.7867375,20.1910925 18.1090302,18.7748437 18.5546115,17.3944576 C18.8109046,16.6011591 19.0243146,15.7872726 19.3606783,15.0278444 C20.223364,13.0819551 22.1018413,11.7573557 24.35521,12.0967241 C25.2118653,12.2255645 25.7804003,12.7402622 26.1633323,13.4628314 C26.6283451,14.3418022 26.7643646,15.294159 26.6792686,16.2787259 C26.6762534,16.3119322 26.6427511,16.342814 26.5780915,16.4494063" id="Fill-2"></path>
                                <path d="M30.0231391,45.0048344 C27.3439554,45.0048344 24.6647718,45.0001855 21.9852531,45.0108115 C21.6468793,45.0121398 21.5369915,44.9556891 21.6153871,44.5844426 C21.8760354,43.3475078 21.6194073,42.152413 21.1778463,41.0011504 C20.4716165,39.1598609 19.1965167,37.7967422 17.4172064,36.9400196 C15.9946963,36.2546415 14.4941256,35.9860025 12.8977382,36.2815386 C10.7294655,36.6826708 9.01950512,37.7552343 7.81241512,39.5736115 C6.78590283,41.1203611 6.32424033,42.8181993 6.64586297,44.6770882 C6.68975106,44.9294561 6.6220763,45.0141321 6.36611828,45.0118077 C5.41532132,45.002842 4.46385433,45.0001855 3.51305737,45.0114756 C3.22125183,45.0151283 3.16295772,44.871013 3.2038306,44.6379047 C3.39613414,43.5427609 3.51640761,42.4276932 3.80720809,41.3591144 C4.1851147,39.9687665 4.69770079,38.6146135 5.15735316,37.2468458 C5.23708877,37.0084246 5.3382659,36.7769767 5.4320725,36.5435363 C5.53023442,36.2998021 5.44748359,36.1646524 5.18985045,36.1178315 C4.7972028,36.0461059 4.63371129,35.7970587 4.63136612,35.4135259 C4.62667579,34.6833193 4.61159973,33.9537768 4.60422921,33.2242343 C4.59786376,32.600952 4.83439042,32.3519047 5.47395045,32.3422749 C6.22406827,32.3303206 6.97418609,32.3409466 7.72463894,32.3412787 C10.3066658,32.3416108 12.8886926,32.3416108 15.4707194,32.3416108 C17.809184,32.3419428 20.1479837,32.3409466 22.4864484,32.342939 C23.2891649,32.3436032 23.6352443,32.7118611 23.6218434,33.5164498 C23.6117926,34.1271137 23.6499853,34.73977 23.6054272,35.3471132 C23.588341,35.5838742 23.4024029,35.8080167 23.2965354,36.0388005 C23.21948,36.2061603 23.0610139,36.3904553 23.0871457,36.541876 C23.2854797,37.6874935 23.4771132,38.8377598 23.758533,39.9651138 C23.943466,40.7042861 24.2748043,41.4075956 24.5391379,42.1271762 C24.6741525,42.4954341 24.8731565,42.6870344 25.3328088,42.68471 C29.4448884,42.6641221 33.557303,42.6734199 37.6700526,42.6777367 C38.3736021,42.6780687 38.357856,42.6873665 38.3555108,43.3581338 C38.3538357,43.780518 38.3759473,44.2085472 38.4479773,44.623294 C38.5045963,44.9497119 38.3970538,45.0164566 38.1012279,45.0161245 C35.4086433,45.0098153 32.7157237,45.0121398 30.0231391,45.0121398 L30.0231391,45.0048344" id="Fill-3"></path>
                                <path d="M39.6252502,43.6105017 C39.692255,40.1523973 42.448494,37.4039117 45.9883533,37.4384462 C49.5030858,37.4733128 52.2623401,40.1909167 52.2402285,43.7074641 C52.2174469,47.2343056 49.4859996,49.9987303 45.7658976,49.9213596 C42.3888598,49.8506302 39.6547323,47.2685081 39.6252502,43.6105017 L39.6252502,43.6105017 Z M43.328266,43.6921892 C43.2418299,45.0934952 44.7042079,46.3257811 45.927044,46.2955634 C47.3448638,46.2606968 48.5653548,45.0656019 48.5563091,43.6692769 C48.5469285,42.2752763 47.3602749,41.1143839 45.9853381,41.0858265 C44.4318337,41.0536164 43.2545608,42.4356627 43.328266,43.6921892 L43.328266,43.6921892 Z" id="Fill-4"></path>
                                <path d="M14.1108586,37.4407706 C17.7059968,37.4504005 20.4803271,40.2108404 20.4170077,43.8203656 C20.3577085,47.231317 17.6771848,49.9223558 14.1101886,49.923352 C10.5465426,49.9246802 7.8050446,47.1801793 7.82079071,43.6373988 C7.83586677,40.1334697 10.6011515,37.4523929 14.1108586,37.4407706 L14.1108586,37.4407706 Z M16.7283979,43.7024832 C16.7334233,42.2380852 15.5712265,41.093464 14.0800365,41.0951243 C12.6890185,41.0967846 11.5144258,42.268635 11.5073903,43.6623036 C11.5000198,45.0576324 12.6950489,46.2763037 14.0800365,46.2862656 C15.5149425,46.2965596 16.7233726,45.1177358 16.7283979,43.7024832 L16.7283979,43.7024832 Z" id="Fill-5"></path>
                                <path d="M27.0484646,-0.150756615 C29.7588055,-0.160386443 31.7414751,1.46904684 32.4627809,3.87517555 C32.6028208,4.34404855 32.5378262,4.41776654 32.0436664,4.47089662 C31.1220165,4.56985141 30.2130975,4.72060802 29.4083708,5.22036288 C28.8317952,5.57865889 28.5004569,6.05583346 28.6130248,6.77641023 C28.7215725,7.46942577 28.8217445,8.16675814 28.8649625,8.86575081 C28.914211,9.66203796 28.7791965,9.81744345 27.9895459,9.95690992 C27.6106342,10.0239867 27.2132962,10.0581891 26.8320394,10.0249828 C25.7824105,9.93499376 24.7280912,9.85397039 23.7454671,9.40933799 C22.8961823,9.02547313 22.3648348,8.35470581 22.0669989,7.52355205 C21.7018232,6.50312236 21.5513976,5.44450542 21.7363306,4.351686 C22.0093748,2.73653142 22.8593297,1.50955853 24.2399619,0.642209898 C25.1173887,0.0909852699 26.0852718,-0.182966729 27.0484646,-0.150756615" id="Fill-6"></path>
                                <path d="M40.4487382,38.4558873 C40.0889229,37.4168621 39.7431785,36.4200089 39.3994443,35.4231557 C39.2218818,34.9091221 39.0516899,34.392432 38.8721172,33.8793947 C38.3307191,32.3293244 37.7832905,30.7815787 37.2435675,29.2308443 C36.7554382,27.8292063 36.2723341,26.4252438 35.7905702,25.0212813 C35.6512004,24.6148362 35.5118306,24.5862787 35.1074571,24.7486576 C34.5164755,24.9867467 33.913433,25.2132137 33.2943094,25.3583253 C32.7106984,25.4951352 32.3579185,25.2075687 32.1877265,24.561374 C32.3498779,24.561374 32.5026487,24.5607099 32.6547494,24.5617061 C33.5093946,24.566687 34.36672,24.6125117 35.219355,24.5670191 C36.0492084,24.5235188 36.781235,23.8378087 36.9983303,23.0206015 C37.0077109,22.9863991 37.0385331,22.9578416 37.1145835,22.8432799 C37.2757298,23.2882444 37.4197899,23.670781 37.5527943,24.0573023 C37.8935133,25.0481784 38.2345673,26.0387224 38.5645656,27.0332512 C38.6834989,27.390551 38.8704421,27.6681557 39.2349478,27.8192444 C40.4953065,28.3429078 41.5010473,29.2268596 42.4505042,30.1606208 C42.9661055,30.667681 43.4361436,31.2507837 43.796294,31.874066 C44.1966471,32.5674136 44.4613158,33.3397922 44.7578117,34.0882623 C44.8586538,34.3422905 45.0050591,34.4326117 45.2643673,34.4419094 C46.750197,34.4927151 48.1790726,34.766335 49.492365,35.5025187 C50.897789,36.2895081 51.9397124,37.416198 52.6834647,38.8224849 C52.7534847,38.9553101 52.7886622,39.1406013 52.7551598,39.281396 C52.7280229,39.3946295 52.5816176,39.5374166 52.4693847,39.5560121 C52.3672025,39.5729474 52.2006958,39.4680154 52.1290007,39.3697248 C51.4830752,38.485773 50.6924195,37.7542381 49.7412876,37.2143037 C48.185773,36.3320122 46.5284113,35.9561168 44.7303397,36.2752294 C43.1406528,36.5578151 41.7694012,37.231903 40.6269708,38.3629097 C40.5921283,38.3977763 40.5358444,38.4113909 40.4487382,38.4558873" id="Fill-7"></path>
                                <path d="M34.2568322,24.1021308 C30.0579816,24.0084891 26.6102538,22.3850329 23.9243697,19.2320945 C23.1551555,18.328883 22.5273213,17.2921822 21.9363397,16.2597983 C21.4743421,15.452221 21.8348275,14.4772839 22.6827722,14.1153352 C23.4352352,13.7942303 24.3186924,13.9041432 24.8148624,14.819973 C25.5844115,16.2405386 26.5667007,17.4841147 27.8160037,18.5164986 C29.8268153,20.178142 32.1458486,20.9299327 34.7573575,20.8097259 C35.5583989,20.7725348 36.1865681,21.1965793 36.4096938,21.9191485 C36.6425352,22.6729316 36.3892574,23.4639057 35.687718,23.7916519 C35.2575477,23.9932142 34.736921,24.0051684 34.2568322,24.1021308" id="Fill-8"></path>
                                <path d="M43.9339886,23.9185 C43.8207507,24.5939162 43.7336445,25.2746454 43.5875743,25.9427562 C43.3664587,26.9558805 42.6917212,27.3068711 41.7101021,26.9694951 C40.4011649,26.5188856 39.6091691,25.6186627 39.4436675,24.2601928 C39.2677801,22.8180431 40.1780392,21.3224312 41.7204878,20.9076845 C42.88771,20.594217 43.2619313,20.7589203 43.6435232,22.0981305 C43.7055026,22.3143035 43.7795428,22.5321368 43.8019894,22.7532908 C43.8408521,23.1351633 43.8442023,23.5203564 43.8622936,23.9038892 C43.8860803,23.9088702 43.9095319,23.9138511 43.9339886,23.9185" id="Fill-9"></path>
                                <path d="M24.3860322,10.3543894 C25.2832253,10.4566648 26.1784084,10.6090817 27.0779467,10.6416239 C27.6129794,10.6612156 28.1661033,10.5343675 28.6904153,10.3958972 C29.2157322,10.2567628 29.4415381,9.80880981 29.4793958,9.30440607 C29.5085429,8.91124345 29.4700152,8.51044337 29.4328275,8.11562043 C29.3842491,7.60258305 29.3205946,7.0902098 29.2378438,6.58115717 C29.1651437,6.13121177 29.4026754,5.82172902 29.7591405,5.6962092 C30.4452688,5.45446731 31.1615493,5.29308468 31.8721343,5.12804936 C31.9652709,5.10646526 32.1682952,5.23331334 32.2054828,5.33359637 C32.9951334,7.4521585 32.4513901,9.98447116 30.163179,11.2137685 C28.2716358,12.2298814 26.4085696,12.0253305 24.695594,10.6967464 C24.5629246,10.5941389 24.3990981,10.5307148 24.2500126,10.4490273 C24.2952408,10.4174813 24.340804,10.3859354 24.3860322,10.3543894" id="Fill-10"></path>
                            </g>
                        </g>
                    </g>
                </g>
            </g>
        </g>
    </g>
</svg>