<svg width="50" height="51" viewBox="0 0 50 51" xmlns="http://www.w3.org/2000/svg"><title>Path 138 + фэйс</title><desc>Created with Sketch.</desc><g fill="none"><path d="M16.44.993c9.92-.85 20.816-3.023 29.208 7.38 8.392 10.4 3.972 34.562-8.144 37.638-12.116 3.077-25.87 7.588-31.633.03C.11 38.48-1.194 24.216 1.254 15.63 3.7 7.04 6.516 1.84 16.44.992z" fill="#2969B0"/><path d="M26.002 32.728v-8.23h2.695l.357-2.835h-3.052l.005-1.42c0-.74.083-1.135 1.343-1.135h1.685v-2.836H26.34c-3.237 0-4.376 1.376-4.376 3.69v1.702h-2.018V24.5h2.018v8.228h4.038z" fill="#fff"/></g></svg>