<svg width="147" height="31" viewBox="0 0 147 31" xmlns="http://www.w3.org/2000/svg"><title>Path 138 + мастер кард + виза</title><desc>Created with Sketch.</desc><g fill="none"><g><path d="M121.995 4.847c.228-.186.455-.375.685-.56 2.046-1.636 4.365-2.667 6.952-3.095.523-.086 1.05-.124 1.58-.172.365-.032.73-.065 1.095-.043 1.276.077 2.545.215 3.777.58 4.117 1.216 7.19 3.717 9.21 7.497.874 1.632 1.39 3.382 1.586 5.22.3 2.8-.132 5.486-1.35 8.03-1.446 3.016-3.665 5.3-6.634 6.854-1.58.827-3.262 1.338-5.035 1.554-.952.116-1.907.15-2.865.08-2.755-.206-5.27-1.087-7.536-2.668-.507-.353-.987-.74-1.446-1.15.014-.02.025-.045.043-.06.297-.265.577-.547.848-.837.2-.214.4-.427.59-.687h-.19c-.886 0-1.773 0-2.66.002-.1 0-.17-.024-.233-.106-.343-.436-.672-.882-.97-1.35-.024-.037-.065-.068-.05-.13h.165c1.646 0 3.292-.002 4.938.003.118 0 .186-.037.242-.138.16-.29.33-.573.488-.863.1-.186.19-.378.293-.586h-5.335c-.52 0-1.04 0-1.56.002-.084 0-.138-.014-.177-.103-.184-.413-.353-.832-.506-1.258-.08-.225-.078-.226.166-.226h7.888c.113.002.166-.025.204-.142.132-.406.225-.822.35-1.23.423.59.986.96 1.704 1.08.57.096 1.134.04 1.693-.092.324-.076.323-.077.366-.42.303-.027.49-.167.49-.494l.07.167c.19.43.497.75.965.837.723.135 1.387-.007 1.933-.54.037-.034.063-.087.13-.107-.01.17-.015.326-.027.483-.005.077.016.11.1.11.383-.005.765-.004 1.147-.002.072.002.113-.012.117-.096.005-.117.024-.233.038-.35.096 0 .193-.01.29-.003.094.007.127-.02.14-.12.135-1.065.31-2.123.475-3.182.07-.442.148-.884.12-1.334-.033-.583-.25-1.064-.78-1.366-.25-.142-.524-.22-.81-.257-.718-.094-1.418.02-2.117.183-.26.06-.438.154-.424.45-.094.024-.187.052-.282.07-.094.016-.134.06-.143.16-.013.146-.05.29-.073.436-.043.27-.085.544-.128.824.17-.045.322-.088.475-.125.585-.14 1.176-.192 1.773-.105.245.036.45.136.496.417-.188.002-.377-.004-.565.008-.836.056-1.595.283-2.134.98l-.02.03v-.005c-.02.002-.038.007-.03.035v-.003c-.012 0-.03-.003-.04.005-.364.3-.608.673-.696 1.14-.274.142-.566.228-.868.278-.85.14-1.514-.286-1.73-1.12-.134-.522-.1-1.048.004-1.57.092-.452.25-.878.554-1.238l.024-.03-.002.003c.02-.003.04 0 .057-.01.45-.26.927-.277 1.42-.167.265.06.518.154.756.282.13.07.158.027.173-.094.018-.15.048-.3.073-.45.09.037.18.07.266.113.066.032.1.028.112-.053.077-.486.154-.973.235-1.458.013-.08-.018-.11-.086-.132-.16-.05-.317-.108-.478-.156-.664-.2-1.333-.27-2.017-.107-.456.11-.856.336-1.25.574-.063-.005-.104.038-.15.07-.28.188-.538.407-.735.68-.12.165-.237.227-.423.142-.02-.248-.09-.49-.124-.735-.017-.118-.066-.155-.188-.154-1.193.005-2.385.003-3.577.003l-5.412-.002.002.002c.093-.48.234-.945.37-1.414.04-.135.1-.176.244-.175 2.64.005 5.28.003 7.92.006.13 0 .17-.02.12-.157-.15-.416-.318-.825-.49-1.232-.06-.14-.135-.18-.286-.18-2.216.004-4.433.003-6.65.003-.17 0-.17 0-.1-.147.21-.442.45-.867.696-1.29.066-.114.14-.156.275-.156 1.646.005 3.293.004 4.94.003.043 0 .103.022.13-.016.034-.05-.026-.092-.05-.13-.294-.454-.61-.89-.947-1.312-.067-.085-.134-.12-.242-.12-.89.005-1.783.003-2.675.003-.053 0-.106-.004-.185-.008.22-.27.43-.51.652-.74.277-.283.557-.563.835-.845zm-78.467 8.373c-.025-.003-.05-.006-.033.033h.002c-.07-.035-.098.03-.136.06-.326.245-.582.555-.798.9-.024.04-.03.1-.093.108.105-.487.247-.963.46-1.415.135-.284.115-.312-.206-.288-.025 0-.05.007-.075.01-.335.05-.572.253-.78.498-.11.13-.21.266-.316.4-.02-.083-.01-.156 0-.23.024-.165.05-.33.05-.5.002-.082-.02-.115-.11-.114-.428.004-.855.003-1.283 0-.074 0-.108.025-.114.104-.008.116-.027.232-.042.347-.107 0-.214.005-.32 0-.074-.005-.098.025-.104.093-.018.182-.037.364-.06.546-.234 1.802-.543 3.593-.83 5.388-.018.12.015.136.12.134.356-.005.712-.002 1.07-.002.44 0 .44 0 .485-.445.1-.002.203-.01.304-.004.077.004.103-.026.115-.1.11-.697.217-1.393.337-2.088.09-.524.18-1.05.375-1.55l.023-.02h-.004c.146-.09.288-.19.465-.217.06-.01.134-.05.176-.01.047.048-.02.11-.03.166-.01.04-.03.078-.042.116-.302.944-.414 1.897-.107 2.86.54 1.69 2.324 1.707 3.155.852.027-.028.05-.08.113-.065-.018.126-.032.252-.054.376-.016.096.005.135.114.133.33-.007.662 0 .993-.004.137-.002.316.057.4-.023.094-.092.07-.276.09-.422.036-.002.072-.005.107-.005.29-.003.29-.002.34-.29.01-.074.022-.15.035-.224l.78-4.78c.114-.703.228-1.404.346-2.105.02-.125.01-.18-.144-.175-.387.012-.774.004-1.16.004-.272 0-.27 0-.32.272-.01.06-.024.12-.036.18-.07-.002-.143.005-.212-.005-.14-.02-.19.03-.21.174-.052.396-.126.788-.192 1.18-.017-.01-.035-.02-.05-.032-.407-.347-.877-.467-1.403-.402-.452.056-.817.285-1.163.557-.02 0-.038.002-.032.03l.003-.003zm4.88 5.62c.27.008.492-.195.5-.463.01-.278-.196-.5-.472-.51-.26-.01-.49.21-.497.473-.01.267.2.49.467.5z" id="Fill-1" fill="#F9B31F"/><path d="M121.995 4.847c-.278.282-.558.562-.835.845-.223.23-.432.47-.652.74.08.004.132.01.185.01.892 0 1.784 0 2.675-.003.108-.002.175.033.242.118.338.42.653.858.946 1.31.025.04.085.08.05.133-.026.04-.086.017-.13.017-1.646 0-3.293.002-4.94-.003-.135 0-.208.042-.274.157-.246.423-.486.848-.695 1.29-.07.146-.07.147.1.147 2.216 0 4.433 0 6.65-.004.15 0 .225.042.284.18.174.408.34.817.492 1.233.05.138.01.157-.12.157-2.64-.003-5.28 0-7.92-.006-.144 0-.205.04-.245.175-.135.47-.276.935-.37 1.414-.502 0-1.006-.002-1.51-.006-.073 0-.108.018-.118.098-.014.12-.043.24-.066.36-.086 0-.173.003-.26-.004-.092-.008-.134.024-.15.12-.143.872-.288 1.744-.435 2.615-.08.474-.166.95-.248 1.424-.028-.08-.052-.163-.084-.243-.19-.48-.582-.748-1.03-.955-.187-.088-.378-.17-.552-.286-.144-.097-.213-.226-.184-.4.426-.05.85-.01 1.272.044.217.027.216.03.245-.18.012-.095.03-.19.045-.284.096.01.193.012.288.03.08.013.107-.013.12-.09.06-.407.124-.814.195-1.218.017-.1-.013-.125-.1-.135-.546-.067-1.093-.13-1.644-.09-.713.052-1.362.248-1.8.873-.02.003-.042.01-.043.038l.003-.002c-.075 0-.11.064-.158.105-.21.185-.342.423-.454.674-.027-.253-.06-.505-.17-.738-.287-.604-.815-.838-1.433-.924-.717-.1-1.417.016-2.115.18-.26.062-.437.156-.423.45-.085.022-.168.05-.253.063-.116.018-.167.075-.183.195-.05.368-.11.734-.177 1.1-.024.13.01.132.12.1.42-.127.85-.216 1.29-.23.32-.007.643-.028.956.066.193.058.336.17.362.386-.035 0-.07.002-.106 0-.674-.012-1.326.07-1.93.402-.314.174-.534.446-.776.697-.078.012-.115.077-.166.124-.18.167-.277.39-.417.586-.02-.022-.01-.047-.005-.072l.273-1.652c.197-1.182.39-2.364.593-3.545.025-.14-.01-.166-.147-.165-.64.008-1.282.004-1.924.004-.138 0-.3-.043-.405.017-.113.064-.107.25-.162.38-.007.018-.017.036-.025.054-.077 0-.154.007-.23-.002-.114-.014-.168.027-.202.142-.082.276-.18.548-.273.82l-.706 2.07c-.007-.075-.017-.15-.018-.226-.014-1.032-.027-2.063-.036-3.095 0-.12-.027-.166-.16-.165-.616.008-1.233.004-1.85.004-.328 0-.327 0-.386.316l-.03.134c-.086 0-.174.006-.26-.003-.106-.01-.14.038-.154.135-.048.316-.103.63-.156.947l-.654 3.923-.41 2.42c-.01.07-.044.15.09.15.44-.006.878-.004 1.316 0 .076 0 .11-.024.117-.102.012-.115.037-.23.056-.345.086-.002.173-.013.258-.003.114.013.146-.033.16-.138.05-.336.11-.67.167-1.004l.355-2.05c.01.344.026.69.034 1.034.018.826.036 1.653.05 2.48 0 .1.03.132.13.128.178-.007.356.003.534-.003.15-.006.34.062.442-.03.1-.09.116-.273.168-.415.035-.002.072-.01.106-.004.157.028.228-.035.28-.19.176-.534.372-1.062.562-1.592l.672-1.86c-.004.06-.002.122-.012.18-.2 1.263-.4 2.525-.608 3.786-.018.11.007.13.108.128.356-.004.712 0 1.068-.003.14-.002.318.06.413-.027.1-.09.067-.275.093-.418.096-.002.193-.008.288-.004.08.005.112-.017.126-.104.05-.333.115-.665.174-.997.01.09.023.18.032.27.067.657.477 1.202 1.067 1.33.715.152 1.377.01 1.93-.503.045-.043.085-.094.128-.14.024.147.027.28.01.407-.02.14.008.197.167.19.326-.013.652-.01.978 0 .147.004.233-.02.222-.192-.006-.084.02-.17.03-.257h.356c-.012.08-.015.164-.04.24-.03.11.01.138.112.157.745.143 1.494.195 2.25.11.418-.046.82-.16 1.16-.423.115-.09.242-.172.286-.324.234-.135.416-.324.57-.544l.016.212c.066.704.51 1.108 1.217 1.118.298.004.588-.03.875-.097.35-.08.35-.08.4-.426.096-.03.19-.065.29-.084.1-.02.138-.068.152-.17.044-.32.102-.64.154-.96.01.024.024.046.03.07.26.87.848 1.388 1.73 1.577.744.16 1.486.113 2.22-.073.378-.096.305.005.37-.416.025-.008.05-.022.074-.023.275-.01.378-.16.407-.427.045-.396.13-.787.202-1.202-.28.124-.545.228-.823.29-.543.12-1.088.167-1.625-.02-.327-.115-.553-.334-.613-.692.767 0 1.534 0 2.302-.004.14 0 .323.063.41-.028.084-.086.072-.265.1-.404.093-.002.185-.012.275-.006.084.006.116-.03.13-.106.093-.464.174-.93.173-1.405-.002-.537-.106-1.047-.45-1.472-.586-.72-1.372-.866-2.236-.712-.624.112-1.104.475-1.5.954l-.047.036.003-.002c-.034.01-.06.025-.063.064l.003-.002c-.224.15-.38.36-.52.583-.616.975-.758 2.04-.6 3.162-.143.05-.292.044-.44.037-.35-.015-.507-.185-.458-.533.11-.765.24-1.526.383-2.284.158 0 .316 0 .474.004.074.003.11-.017.118-.098.01-.117.03-.232.046-.348.046-.002.093-.01.137-.004.1.015.13-.034.142-.123.06-.417.12-.834.186-1.25.015-.09-.01-.117-.1-.114-.177.005-.355.002-.534.002-.182 0-.18 0-.144-.185.05-.25.096-.498.144-.746 1.804 0 3.607 0 5.412.002 1.192 0 2.384.002 3.577-.003.122 0 .17.036.188.154.035.246.103.487.124.735-.077-.01-.153-.023-.23-.024-.41-.01-.7.21-.947.504-.118.138-.225.285-.355.453.03-.28.08-.522.092-.77.004-.09-.018-.124-.116-.123-.422.005-.845.006-1.268 0-.094 0-.123.03-.13.118-.007.11-.03.22-.046.33-.102 0-.204.006-.306 0-.088-.008-.11.03-.118.112-.03.298-.062.597-.102.894-.23 1.676-.512 3.345-.78 5.015-.018.106-.002.145.115.143.356-.007.713-.003 1.07-.003.444 0 .444 0 .49-.445.086-.002.173-.012.26-.003.104.01.147-.02.164-.133.096-.65.197-1.295.31-1.94.094-.55.183-1.102.38-1.628.21-.258.507-.27.805-.272.072 0 .066.04.06.09-.025.175-.053.35-.07.527-.087.977-.008 1.924.534 2.782-.127.406-.22.822-.352 1.228-.038.117-.09.144-.204.143h-7.888c-.244 0-.247 0-.166.225.153.426.322.845.506 1.258.04.09.093.103.178.103.52-.003 1.04-.002 1.56-.002H125.517c-.104.208-.192.4-.293.585-.16.29-.33.572-.488.862-.056.1-.124.137-.242.137-1.646-.006-3.292-.004-4.938-.004h-.165c-.015.062.026.093.05.13.298.468.627.914.97 1.35.064.082.134.107.234.106.886-.003 1.773-.002 2.66-.002h.19c-.19.26-.392.473-.59.687-.272.29-.552.572-.85.836-.017.016-.028.04-.042.06-.717.63-1.473 1.206-2.292 1.7-1.83 1.1-3.804 1.805-5.932 2.037-4.63.503-8.678-.815-12.08-3.99-2.446-2.282-3.956-5.107-4.456-8.416-.736-4.87.59-9.14 3.978-12.725 2.247-2.38 5.03-3.814 8.264-4.37.558-.097 1.122-.135 1.684-.193.386-.04.77-.057 1.154-.036 1.622.09 3.214.345 4.747.91 1.83.67 3.472 1.65 4.915 2.957" id="Fill-2" fill="#E10025"/><path d="M145.464 23.74c.276.003.478.21.477.485 0 .276-.22.493-.495.486-.264-.007-.48-.232-.475-.496.003-.262.226-.475.494-.473zm-96.678-.513c.002-.2-.15-.358-.352-.36-.2-.005-.365.15-.37.345-.005.2.162.374.363.375.19.002.357-.165.36-.36z" id="Fill-3" fill="#F9B31F"/><path d="M143.818 12.72c.012-.06.025-.118.036-.178.05-.273.048-.273.32-.273.386 0 .773.007 1.16-.005.153-.005.165.05.144.176-.118.702-.232 1.403-.346 2.105l-.78 4.78c-.014.076-.025.15-.037.226-.048.288-.048.287-.34.29-.034 0-.07.003-.106.005-.322-.002-.643-.01-.963-.002-.144.003-.205-.02-.16-.18.03-.108.03-.225.05-.37-.046.038-.07.055-.09.075-.81.873-2.574.882-3.138-.715-.408-1.153-.242-2.284.252-3.38.173-.383.427-.71.707-1.02h-.003c.023 0 .034-.01.033-.033l-.003.003c.022.002.027-.014.032-.03.345-.272.71-.5 1.16-.557.527-.065.997.055 1.403.402.016.013.034.022.05.033l.34.37.275-1.72zM-51.7 16.25l-.002.003c.238-.093.366-.296.48-.503.27-.502.335-1.05.306-1.608-.012-.213-.058-.422-.165-.612-.134-.242-.343-.374-.615-.387-.415-.02-.717.177-.925.53-.024.03-.053.06-.07.095-.335.666-.43 1.365-.235 2.083.144.538.72.73 1.2.43.014-.004.036-.004.027-.03z" id="Fill-4" fill="#FDFDFD"/><path d="M131.586 16.88c.54-.697 1.298-.924 2.133-.98.187-.012.376-.006.564-.008l.136.015c.313.032.313.032.333-.286.02-.336-.097-.498-.43-.58-.153-.036-.31-.05-.468-.054-.586-.016-1.16.06-1.716.238-.125.04-.135 0-.117-.107.05-.3.096-.602.143-.903-.014-.297.163-.39.424-.45.7-.165 1.4-.278 2.118-.183.285.04.558.116.81.258.53.302.746.783.78 1.366.027.45-.052.892-.12 1.334-.167 1.06-.34 2.117-.477 3.18-.01.102-.044.13-.138.123-.097-.005-.194.003-.29.005-.265-.002-.53-.012-.794-.002-.123.004-.14-.04-.135-.145.01-.15.002-.298.002-.447.003 0-.004 0-.007.002-.015.013-.03.027-.043.042-.528.57-1.197.734-1.934.618-.656-.104-1.11-.7-1.163-1.44-.038-.546.067-1.06.34-1.535l-.002.003c.022 0 .03-.016.032-.035l-.002.004.02-.03zm-94.827.635c.405-.214.762-.9.71-1.353-.008-.066-.044-.068-.09-.072-.332-.028-.662-.02-.983.074-.26.077-.484.21-.594.48-.02.066-.045.133-.057.2-.096.52.217.85.73.772.1-.016.196-.046.283-.1z" id="Fill-5" fill="#FDFDFD"/><path d="M128.044 12.75c.395-.24.795-.465 1.25-.575.685-.164 1.354-.092 2.018.107.16.048.318.106.48.156.067.02.098.052.085.13-.08.486-.158.973-.235 1.46-.013.08-.046.084-.113.05-.087-.042-.178-.075-.267-.113-.22-.11-.453-.18-.693-.218-.718-.115-1.325.08-1.788.658l.002-.003-.024.03c-.303.36-.462.786-.554 1.238-.105.522-.138 1.048-.003 1.57.215.834.878 1.26 1.73 1.12.3-.05.593-.136.867-.277.056-.02.113-.042.17-.064l.022.023c-.007.06-.012.12-.02.18-.053.373-.14.742-.172 1.12 0 .326-.187.466-.49.494-.27.04-.54.09-.815.106-1.418.077-2.483-.652-2.87-1.982-.237-.81-.217-1.637-.07-2.46.19-1.047.614-1.974 1.45-2.676.022-.02.05-.037.04-.075" fill="#FDFDFD"/><path d="M137.086 14.13c.015-.114.034-.23.042-.346.006-.08.04-.103.115-.103.428.003.855.004 1.283 0 .09 0 .112.033.11.116 0 .17-.026.334-.05.5-.01.073-.02.146 0 .228.105-.133.207-.27.316-.4.208-.244.445-.447.78-.496.024-.004.05-.01.074-.01.32-.025.34.003.207.287-.214.452-.356.928-.462 1.416-.007.078-.028.117-.128.116-.402-.007-.688.24-.774.647l.004-.002c-.02-.005-.02.01-.023.023-.195.5-.285 1.025-.376 1.55-.12.694-.228 1.39-.337 2.086-.012.074-.038.104-.116.1-.1-.004-.202.003-.303.005-.367-.002-.733-.008-1.1-.003-.104 0-.122-.026-.106-.127.123-.736.24-1.472.356-2.21.177-1.122.367-2.243.49-3.374" fill="#FDFDFD"/><path d="M128.044 12.75c.01.037-.017.054-.04.074-.835.702-1.26 1.63-1.448 2.677-.148.823-.168 1.65.07 2.46.386 1.33 1.45 2.06 2.87 1.983.274-.015.543-.067.815-.106-.042.342-.04.343-.365.42-.56.13-1.123.187-1.693.09-.718-.12-1.28-.49-1.703-1.078-.543-.86-.622-1.806-.534-2.783.016-.177.044-.352.068-.528.007-.05.013-.09-.06-.09-.297.003-.593.014-.804.272.14-.41.337-.75.852-.71.077.007.07-.055.082-.102.052-.206.1-.414.157-.618.105-.372.268-.72.426-1.07.187.085.305.023.424-.142.197-.273.456-.492.736-.68.045-.032.086-.075.148-.07" fill="#063670"/><path d="M138.598 16.083c.086-.408.372-.654.774-.647.1 0 .12-.038.13-.115.063-.006.068-.067.092-.106.216-.346.472-.656.8-.902.037-.03.066-.094.135-.06-.28.31-.535.638-.708 1.02-.494 1.097-.66 2.228-.253 3.38.563 1.598 2.328 1.59 3.137.716.02-.02.044-.037.09-.075-.02.145-.02.262-.05.37-.045.16.016.183.16.18.32-.01.64 0 .962.002-.02.146.003.33-.09.422-.085.08-.264.02-.4.022-.332.002-.663-.004-.994.003-.11.002-.13-.037-.113-.134.022-.125.036-.25.054-.377-.064-.015-.086.037-.113.065-.83.855-2.615.838-3.155-.852-.308-.963-.196-1.916.106-2.86.012-.038.032-.075.04-.115.013-.055.08-.117.032-.164-.042-.04-.116 0-.175.01-.177.025-.32.127-.465.217" fill="#063670"/><path d="M137.086 14.13c-.123 1.132-.313 2.253-.49 3.376-.115.737-.233 1.473-.355 2.21-.015.1.003.127.108.126.366-.005.732 0 1.1.003-.046.445-.046.445-.487.445-.356 0-.712-.003-1.07.002-.103.002-.136-.015-.117-.134.286-1.795.595-3.586.83-5.39.022-.18.04-.363.06-.545.005-.068.03-.098.103-.094.106.005.213 0 .32 0" fill="#063670"/><path d="M130.8 19.342c.033-.377.12-.746.17-1.12.01-.06.015-.12.022-.18.005-.006.016-.017.014-.02-.01-.017-.023-.012-.036-.003-.057.02-.114.042-.17.063.088-.468.332-.84.697-1.14.008-.01.027-.005.04-.006-.273.476-.378.99-.34 1.535.052.74.507 1.336 1.164 1.44.738.116 1.407-.05 1.935-.618.013-.015.028-.03.043-.042.003-.002.01 0 .007 0 0 .148.007.297-.002.446-.006.106.012.15.135.145.264-.01.53 0 .794.002-.014.116-.033.232-.038.35-.004.083-.045.097-.117.096-.382 0-.764-.002-1.146.002-.084 0-.105-.032-.1-.11.013-.156.02-.313.03-.482-.07.02-.095.073-.132.108-.546.532-1.21.674-1.933.54-.468-.09-.775-.408-.964-.84l-.07-.166" fill="#063670"/><path d="M132.166 14.214c-.047.3-.092.602-.143.903-.018.107-.008.146.116.107.556-.177 1.13-.254 1.715-.238.158.004.315.018.47.055.33.082.45.244.428.58-.02.32-.02.32-.333.287l-.136-.015c-.045-.28-.25-.38-.496-.417-.597-.087-1.188-.035-1.773.104-.153.036-.305.08-.476.124.042-.28.084-.553.127-.825.024-.147.06-.29.074-.437.01-.1.05-.144.144-.16.095-.018.188-.046.282-.07" fill="#063670"/><path d="M128.782 14.405c.463-.58 1.07-.773 1.788-.658.24.038.474.108.693.218-.025.15-.055.3-.074.45-.016.122-.043.164-.174.095-.238-.128-.49-.222-.756-.282-.493-.11-.97-.092-1.42.167-.017.01-.04.007-.058.01" fill="#063670"/><path d="M143.818 12.72c-.09.566-.18 1.132-.276 1.72-.122-.133-.23-.25-.338-.37.066-.392.14-.784.193-1.18.02-.143.07-.192.21-.173.068.01.14.003.21.004" fill="#063670"/><path d="M145.44 19.84c-.268-.01-.477-.233-.47-.5.008-.264.237-.482.498-.473.276.01.482.232.473.51-.008.268-.23.47-.5.462zm-97.01-1.124c.198-.002.356-.163.356-.362 0-.2-.175-.373-.372-.365-.193.006-.356.18-.35.372.006.198.17.356.366.354z" fill="#FDFDFD"/><path fill="#063670" d="M138.58 16.103c.002-.012.002-.028.022-.022l-.023.023"/><path fill="#063670" d="M140.59 14.193c-.006.016-.01.032-.033.03-.006-.028.01-.03.032-.03"/><path fill="#063670" d="M140.56 14.22c0 .023-.01.034-.033.033-.018-.04.008-.036.033-.033"/><path fill="#063670" d="M128.76 14.432l.024-.03-.024.03"/><path fill="#063670" d="M131.586 16.88l-.02.03.02-.03"/><path fill="#063670" d="M131.567 16.905c-.003.02-.01.034-.032.035-.007-.028.01-.033.032-.035"/><path d="M103.548 12.72c.008-.017.018-.035.025-.054.055-.13.05-.315.162-.38.104-.06.267-.017.404-.017.64 0 1.282.003 1.923-.005.136 0 .172.026.148.166-.2 1.182-.395 2.364-.592 3.546l-.273 1.652c-.004.025-.014.05.006.072h.004c-.05.022-.024.067-.03.103-.067.31-.117.62-.154.936-.06.33-.123.663-.174.996-.014.087-.045.11-.125.105-.094-.003-.19.003-.287.005-.36-.002-.722-.01-1.084-.003-.127.003-.15-.033-.13-.15.22-1.36.438-2.718.655-4.076l.225-1.418-.027-.008-.703 2.008c-.224.62-.45 1.24-.672 1.86-.19.53-.386 1.058-.563 1.592-.05.155-.122.218-.28.19-.033-.005-.07.003-.105.005-.23-.002-.458-.007-.687-.004-.08.002-.113-.013-.115-.105-.033-1.462-.07-2.925-.104-4.388-.01-.367 0-.735 0-1.102-.02 0-.036-.003-.053-.004l-.038.23-.36 2.18-.355 2.05c-.057.334-.117.668-.166 1.004-.014.105-.046.15-.16.138-.084-.01-.17 0-.257.003-.34-.002-.682-.006-1.023-.004-.087.002-.11-.016-.094-.11.2-1.165.393-2.33.588-3.497l.584-3.513.03-.134c.06-.317.058-.317.387-.317.616 0 1.233.003 1.85-.005.132 0 .158.044.16.164.008 1.03.02 2.062.034 3.094 0 .075.01.15.017.227-.027.365.01.728.016 1.093.027-.032.04-.064.05-.097.255-.754.51-1.508.763-2.263.196-.587.388-1.175.582-1.762" fill="#FDFDFD"/><path d="M105.934 16.99c.242-.25.462-.522.777-.696.604-.332 1.256-.414 1.93-.4.035 0 .07 0 .105-.002.056.006.112.01.167.017.27.03.27.03.3-.242.038-.376-.085-.548-.454-.632-.045-.01-.09-.02-.135-.024-.68-.077-1.34.01-1.992.2-.165.048-.165.05-.138-.127.045-.29.09-.58.137-.872-.015-.295.162-.39.422-.45.698-.165 1.398-.28 2.115-.18.618.085 1.146.32 1.432.923.11.233.143.485.17.738.003.39-.06.774-.105 1.16-.134.796-.263 1.593-.37 2.393l-.136.92c-.008.05.016.12-.07.128h-.355c-.275-.002-.55-.006-.825-.004-.085.002-.114-.017-.107-.11.012-.157.004-.316.004-.49-.46.534-1.05.72-1.718.704-.52-.014-.933-.234-1.185-.688-.382-.69-.318-1.396-.018-2.098.023-.053.082-.097.047-.167zm-95.667-.347c-.068.13-.08.27-.074.414.014.295.19.52.447.56.205.03.405.007.587-.107.052-.032.108-.058.154-.096.39-.325.51-.77.55-1.248.004-.053-.02-.07-.07-.075-.393-.03-.785-.025-1.156.13-.197.083-.36.21-.437.423z" fill="#FDFDFD"/><path d="M119.502 17.738c.06.358.286.577.613.69.537.19 1.082.14 1.624.02.277-.06.54-.164.822-.287-.072.416-.157.807-.2 1.203-.03.267-.133.416-.408.428-.025.002-.05.016-.073.024-.024.003-.05.005-.074.01-.664.138-1.332.177-2 .042-.92-.186-1.56-.708-1.782-1.63-.293-1.217-.133-2.38.528-3.46.022-.04.084-.064.05-.126l-.002.002c.057.013.06-.026.063-.064l-.003.002c.028.004.036-.018.046-.036.397-.48.877-.842 1.5-.953.865-.153 1.65-.006 2.236.713.345.425.45.935.45 1.472.002.476-.08.94-.17 1.405-.016.076-.048.112-.133.106-.09-.006-.183.004-.275.006-.055-.002-.11-.008-.166-.008h-2.302c-.42 0-.436.02-.346.444zm-95.616-2.697c.15.007.366.072.438-.02.102-.128.043-.34.014-.515-.003-.02-.01-.04-.017-.058-.08-.28-.288-.455-.578-.488-.408-.048-.746.132-.944.5-.1.15-.15.318-.197.49-.017.066-.016.1.07.1.405-.007.81-.007 1.216-.01z" fill="#FDFDFD"/><path d="M114.428 19.062c-.154.22-.336.41-.57.544-.168.087-.34.163-.524.207-.916.223-1.828.138-2.74-.03-.083-.014-.09-.05-.08-.124.044-.256.078-.512.116-.77.025-.15.057-.298.075-.45.01-.082.036-.097.116-.074.192.054.383.11.58.142.41.068.824.12 1.24.02.297-.05.45-.21.466-.475.014-.21-.087-.35-.262-.445-.28-.152-.573-.288-.848-.45-.448-.267-.762-.64-.852-1.17-.047-.273-.032-.546.005-.82.033-.25.146-.47.233-.702l-.002.002c.03.004.035-.02.045-.038.437-.625 1.086-.82 1.8-.873.55-.04 1.097.023 1.643.09.087.01.117.036.1.135-.07.404-.134.81-.196 1.217-.012.077-.04.103-.12.09-.094-.018-.19-.02-.287-.03-.185-.03-.372-.045-.56-.048-.228-.004-.458-.02-.68.06-.19.07-.323.186-.323.407-.03.174.04.303.184.4.174.114.365.197.553.285.446.207.838.474 1.028.956.032.08.056.163.084.244.08.586.063 1.16-.224 1.698" fill="#FDFDFD"/><path d="M115.744 13.207c.023-.12.052-.238.065-.36.01-.08.044-.097.118-.097.503.004 1.007.005 1.51.006l-.002-.002-.144.746c-.037.185-.038.184.144.185.18 0 .357.003.535-.002.09-.003.115.025.1.114-.064.416-.126.833-.185 1.25-.013.09-.042.138-.142.123-.044-.007-.09.002-.137.004-.105-.002-.21-.005-.317-.005-.25-.002-.252-.002-.294.237-.012.07-.02.14-.028.21-.143.757-.274 1.518-.383 2.282-.05.347.11.517.46.532.146.007.295.012.438-.037.053-.008.088 0 .074.07-.013.062-.017.128-.026.192-.05.32-.11.638-.153.958-.014.103-.052.15-.152.17-.1.02-.194.056-.29.084-.272.043-.544.082-.82.075-.64-.016-1.05-.342-1.175-.943-.045-.215-.05-.433-.027-.652.06-.546.16-1.085.248-1.626.192-1.173.39-2.345.584-3.517" fill="#FDFDFD"/><path d="M126.736 13.64c-.158.352-.32.7-.425 1.072-.056.204-.104.412-.156.618-.012.047-.005.11-.082.103-.515-.04-.713.3-.852.71-.197.525-.286 1.077-.38 1.627-.113.645-.214 1.29-.31 1.94-.018.11-.06.14-.166.132-.086-.01-.173 0-.26.003h-1.227l.033-.2c.212-1.338.427-2.678.634-4.018.076-.497.153-.994.192-1.496.016-.11.04-.22.047-.33.006-.088.035-.12.13-.118.422.006.845.005 1.268 0 .1 0 .12.032.117.123-.01.248-.062.49-.092.77.13-.168.237-.315.355-.453.248-.293.538-.515.948-.504.076 0 .152.015.228.023" fill="#FDFDFD"/><path d="M117.53 18.657c.01-.064.014-.13.027-.193.014-.07-.02-.077-.074-.07-.158-1.12-.016-2.186.6-3.16.14-.223.296-.435.52-.584.033.062-.03.087-.05.125-.662 1.08-.822 2.244-.53 3.46.224.923.863 1.445 1.782 1.63.67.136 1.337.097 2-.04.026-.006.05-.008.076-.01-.065.42.008.32-.37.415-.734.186-1.476.233-2.22.073-.882-.19-1.47-.706-1.73-1.577-.006-.024-.02-.046-.03-.07" fill="#063670"/><path d="M115.744 13.207c-.194 1.172-.392 2.344-.583 3.517-.087.54-.187 1.08-.247 1.626-.024.22-.018.437.027.652.125.6.535.927 1.175.943.276.007.548-.032.82-.076-.05.346-.05.344-.4.425-.287.066-.577.1-.874.097-.706-.01-1.15-.414-1.216-1.118l-.016-.212c.287-.538.303-1.112.224-1.698.082-.475.167-.95.247-1.425.146-.872.29-1.744.434-2.616.016-.096.058-.128.15-.12.087.007.174.003.26.003" fill="#063670"/><path d="M99.658 12.72l-.584 3.513c-.195 1.166-.39 2.332-.588 3.498-.016.094.007.112.094.11.34 0 .682.003 1.023.005-.02.115-.044.23-.056.346-.008.08-.04.102-.117.102-.438-.003-.877-.005-1.315 0-.135.002-.102-.078-.09-.15.135-.806.273-1.612.41-2.42l.653-3.923c.053-.317.108-.632.156-.948.015-.097.048-.146.155-.135.084.01.172.002.258.003" fill="#063670"/><path d="M105.934 16.99c.035.07-.024.115-.047.168-.3.702-.364 1.408.018 2.098.252.454.665.674 1.184.688.667.017 1.256-.17 1.717-.705 0 .174.008.333-.004.49-.007.093.022.112.107.11.275 0 .55.003.825.005-.01.086-.036.173-.03.257.01.17-.075.196-.222.19-.326-.008-.652-.01-.978.002-.16.007-.187-.05-.168-.19.018-.128.015-.26-.01-.408-.042.047-.082.098-.128.14-.553.515-1.215.656-1.93.503-.59-.128-1-.673-1.068-1.33-.01-.09-.02-.18-.032-.27.037-.316.087-.628.155-.937.025-.03.043-.063.03-.104h-.004c.14-.195.238-.42.418-.586.05-.047.088-.112.166-.123" fill="#063670"/><path d="M123.736 14.13c-.04.503-.116 1-.192 1.497-.207 1.34-.422 2.68-.634 4.02l-.033.198h1.228c-.046.445-.046.445-.49.445-.357 0-.714-.004-1.07.003-.117.002-.133-.037-.116-.142.268-1.67.55-3.338.78-5.014.04-.297.072-.596.102-.894.008-.08.03-.12.118-.113.102.006.204 0 .306 0" fill="#063670"/><path d="M100.542 16.65l.36-2.18c.012-.076.026-.153.04-.23l.05.005c0 .367-.007.735.002 1.102.033 1.463.07 2.926.104 4.388.002.092.034.107.115.106.23-.002.458.003.687.005-.052.142-.068.326-.168.415-.103.092-.29.024-.442.03-.178.005-.356-.005-.534.002-.1.004-.13-.028-.13-.128-.014-.827-.032-1.654-.05-2.48-.008-.345-.023-.69-.034-1.034" fill="#063670"/><path d="M103.52 16.198l.703-2.008.027.008-.225 1.418c-.217 1.358-.434 2.717-.655 4.075-.02.12.003.155.13.152.36-.007.722 0 1.083.003-.026.143.006.33-.094.418-.096.086-.273.025-.414.026-.356.003-.712-.002-1.068.002-.1 0-.126-.02-.108-.128.207-1.26.407-2.523.608-3.785.01-.06.008-.12.012-.182" fill="#063670"/><path d="M111.383 14.466c-.087.23-.2.452-.234.702-.038.274-.053.547-.006.82.09.53.404.903.852 1.17.275.162.567.298.848.45.175.095.276.234.262.445-.017.266-.17.425-.466.475.022-.226-.084-.38-.278-.48-.23-.12-.464-.234-.692-.357-.522-.28-.898-.68-1.005-1.286.045-.386.108-.77.106-1.16.113-.25.244-.49.455-.673.047-.04.083-.103.158-.104" fill="#063670"/><path d="M106.63 14.213c-.047.29-.093.58-.138.872-.027.176-.027.175.14.127.65-.19 1.312-.277 1.99-.2.046.004.09.014.136.024.37.084.492.256.454.632-.03.273-.03.273-.3.24l-.167-.016c-.026-.217-.17-.328-.362-.386-.313-.094-.636-.073-.956-.065-.44.014-.87.103-1.29.23-.11.032-.144.03-.12-.1.067-.366.126-.732.177-1.1.016-.12.067-.177.183-.195.085-.014.168-.04.252-.062" fill="#063670"/><path d="M110.63 18.89c-.038.258-.072.514-.115.77-.012.074-.004.11.078.124.913.167 1.825.252 2.74.03.185-.045.357-.12.525-.208-.044.152-.17.235-.285.323-.342.262-.743.376-1.162.423-.754.084-1.503.032-2.248-.11-.103-.02-.143-.05-.11-.158.023-.076.026-.16.04-.24.084-.01.06-.08.067-.13l.135-.918.335.094" fill="#063670"/><path d="M103.548 12.72c-.194.588-.386 1.176-.582 1.763-.252.755-.508 1.51-.762 2.263-.01.033-.024.065-.05.097-.006-.365-.044-.728-.017-1.092l.706-2.07c.093-.272.19-.544.273-.82.034-.115.088-.156.203-.142.074.01.15.002.228.003" fill="#063670"/><path fill="#063670" d="M119.502 17.738c-.09-.423-.073-.444.346-.444h2.3c.056 0 .112.006.167.008-.03.14-.017.318-.1.404-.088.09-.27.028-.41.028-.77.004-1.536.003-2.303.004"/><path d="M112.802 15.48c0-.222.134-.34.324-.408.22-.08.45-.064.68-.06.187.003.374.018.56.048-.016.094-.034.19-.047.284-.03.21-.03.207-.246.18-.423-.053-.846-.093-1.272-.045" fill="#063670"/><path fill="#063670" d="M116.968 15.616c.01-.07.016-.14.028-.21.042-.238.043-.238.293-.237.105 0 .21.002.316.004-.016.116-.037.23-.046.348-.007.08-.044.1-.118.098-.158-.004-.316-.003-.474-.004"/><path fill="#063670" d="M118.663 14.588c-.004.038-.006.077-.063.064.002-.04.03-.055.063-.064"/><path fill="#063670" d="M111.425 14.43c-.01.018-.014.042-.044.038.002-.03.023-.035.045-.038"/><path fill="#063670" d="M118.706 14.554c-.01.018-.018.04-.046.036l.046-.036"/><path d="M145.818 24.227c-.002.195-.168.362-.36.36-.2 0-.367-.174-.362-.375.005-.195.17-.35.37-.346.2.003.354.16.352.36zm-97.557-1.002c0 .02-.002.04.002.06.01.05-.033.13.037.144.095.017.048-.075.064-.118.02-.055.05-.04.075-.008.017.024.025.055.036.083.018.048.058.062.097.045.052-.022.01-.06 0-.09-.01-.04-.03-.072-.003-.124.07-.133.026-.197-.12-.208-.19-.015-.19-.015-.19.215z" fill="#FDFDFD"/><path d="M142.336 18.28c-.48.3-1.055.108-1.2-.43-.193-.717-.1-1.416.235-2.082.02-.035.048-.064.072-.096.044-.015.087-.03.13-.043.46-.136.85.06 1.016.508.072.193.096.394.1.598.012.53-.093 1.038-.326 1.517l.002-.003-.028.03" fill="#F9B31F"/><path d="M142.362 18.253c.233-.48.338-.986.326-1.517-.004-.204-.028-.405-.1-.598-.167-.447-.557-.644-1.015-.51-.044.013-.087.03-.13.044.207-.352.51-.548.924-.53.272.014.48.146.616.388.107.19.153.4.165.612.03.56-.035 1.106-.307 1.608-.112.207-.24.41-.478.503" fill="#063670"/><path fill="#063670" d="M142.336 18.28l.028-.03c.01.026-.013.026-.028.03"/><path d="M133.79 18.515c-.086.055-.182.085-.282.1-.513.078-.826-.252-.73-.77.012-.068.038-.135.057-.202.356-.103.717-.143 1.087-.108.096.01.116.044.108.134-.025.297-.11.576-.24.845" fill="#F9B31F"/><path d="M133.79 18.515c.13-.27.215-.548.24-.846.008-.09-.012-.126-.108-.135-.37-.035-.73.005-1.087.108.11-.27.333-.402.594-.48.32-.093.65-.1.98-.073.048.004.084.006.09.072.054.453-.303 1.14-.71 1.353" fill="#063670"/><path fill="#FDFDFD" d="M130.97 18.02c.013-.01.027-.015.036.002.002.003-.01.014-.014.02l-.022-.023"/><path d="M145.462 19.716c-.197.002-.36-.156-.366-.354-.006-.192.157-.366.35-.373.197-.01.372.163.372.364 0 .2-.158.36-.356.362zm-97.2-1.373c0 .035-.004.07 0 .106.005.04-.024.103.043.11.076.01.05-.057.057-.097.004-.025.005-.053.038-.054.03-.002.04.022.05.047.015.032.027.068.05.093.012.014.046.014.07.01.024 0 .032-.026.02-.044-.052-.077-.025-.144.008-.222.028-.07-.017-.127-.09-.15-.18-.056-.247-.002-.247.2z" fill="#F9B31F"/><path fill="#E10025" d="M105.354 17.7c.014.04-.004.072-.03.103.006-.036-.02-.08.03-.104"/><path d="M110.63 18.89c-.112-.03-.223-.06-.335-.093.107-.8.236-1.597.37-2.393.107.606.483 1.005 1.005 1.287.228.124.462.237.692.357.194.1.3.255.278.48-.416.102-.83.05-1.24-.02-.197-.03-.388-.087-.58-.14-.08-.024-.105-.01-.115.074-.018.152-.05.3-.075.45" fill="#E10025"/><path d="M108.26 18.51c-.183.114-.383.137-.588.106-.258-.04-.433-.264-.447-.56-.007-.142.006-.283.074-.413.348-.103.704-.143 1.067-.11.098.01.135.033.124.148-.028.293-.113.565-.23.83" fill="#E10025"/><path d="M108.26 18.51c.117-.265.202-.537.23-.83.012-.114-.025-.138-.123-.147-.363-.033-.72.007-1.068.11.075-.212.24-.34.436-.422.37-.155.763-.16 1.157-.13.05.005.073.023.07.076-.042.478-.16.923-.55 1.248-.046.038-.102.064-.154.096" fill="#063670"/><path d="M119.83 15.46c.198-.368.536-.548.944-.5.29.032.497.206.58.487.005.02.013.038.016.058.03.176.088.387-.014.516-.072.092-.287.027-.438.02-.09-.41-.278-.6-.625-.63-.157-.014-.312 0-.463.05" fill="#063670"/><path d="M119.83 15.46c.15-.05.306-.064.463-.05.347.03.534.22.625.63-.405.003-.81.003-1.216.01-.086 0-.087-.034-.07-.1.047-.172.1-.34.198-.49" fill="#E10025"/><path fill="#FDFDFD" d="M145.293 19.343c0-.2.067-.255.246-.2.073.024.118.082.09.15-.033.08-.06.146-.008.223.012.018.004.043-.02.045-.024.004-.058.004-.07-.01-.023-.025-.035-.06-.05-.093-.01-.025-.02-.05-.05-.048-.033 0-.034.028-.038.053-.006.04.02.107-.057.098-.067-.007-.038-.07-.043-.11-.004-.036 0-.072 0-.107"/><path fill="#FDFDFD" d="M145.522 24.144c-.012.043-.045.052-.082.05-.04 0-.048-.03-.044-.062.004-.04.034-.045.067-.042.033.003.057.016.06.054"/><path d="M121.995 4.847c.228-.186.455-.375.685-.56 2.046-1.636 4.365-2.667 6.952-3.095.523-.086 1.05-.124 1.58-.172.365-.032.73-.065 1.095-.043 1.276.077 2.545.215 3.777.58 4.117 1.216 7.19 3.717 9.21 7.497.874 1.632 1.39 3.382 1.586 5.22.3 2.8-.132 5.486-1.35 8.03-1.446 3.016-3.665 5.3-6.634 6.854-1.58.827-3.262 1.338-5.035 1.554-.952.116-1.907.15-2.865.08-2.755-.206-5.27-1.087-7.536-2.668-.507-.353-.987-.74-1.446-1.15.014-.02.025-.045.043-.06.297-.265.577-.547.848-.837.2-.214.4-.427.59-.687h-.19c-.886 0-1.773 0-2.66.002-.1 0-.17-.024-.233-.106-.343-.436-.672-.882-.97-1.35-.024-.037-.065-.068-.05-.13h.165c1.646 0 3.292-.002 4.938.003.118 0 .186-.037.242-.138.16-.29.33-.573.488-.863.1-.186.19-.378.293-.586h-5.335c-.52 0-1.04 0-1.56.002-.084 0-.138-.014-.177-.103-.184-.413-.353-.832-.506-1.258-.08-.225-.078-.226.166-.226h7.888c.113.002.166-.025.204-.142.132-.406.225-.822.35-1.23.423.59.986.96 1.704 1.08.57.096 1.134.04 1.693-.092.324-.076.323-.077.366-.42.303-.027.49-.167.49-.494l.07.167c.19.43.497.75.965.837.723.135 1.387-.007 1.933-.54.037-.034.063-.087.13-.107-.01.17-.015.326-.027.483-.005.077.016.11.1.11.383-.005.765-.004 1.147-.002.072.002.113-.012.117-.096.005-.117.024-.233.038-.35.096 0 .193-.01.29-.003.094.007.127-.02.14-.12.135-1.065.31-2.123.475-3.182.07-.442.148-.884.12-1.334-.033-.583-.25-1.064-.78-1.366-.25-.142-.524-.22-.81-.257-.718-.094-1.418.02-2.117.183-.26.06-.438.154-.424.45-.094.024-.187.052-.282.07-.094.016-.134.06-.143.16-.013.146-.05.29-.073.436-.043.27-.085.544-.128.824.17-.045.322-.088.475-.125.585-.14 1.176-.192 1.773-.105.245.036.45.136.496.417-.188.002-.377-.004-.565.008-.836.056-1.595.283-2.134.98l-.02.03v-.005c-.02.002-.038.007-.03.035v-.003c-.012 0-.03-.003-.04.005-.364.3-.608.673-.696 1.14-.274.142-.566.228-.868.278-.85.14-1.514-.286-1.73-1.12-.134-.522-.1-1.048.004-1.57.092-.452.25-.878.554-1.238l.024-.03-.002.003c.02-.003.04 0 .057-.01.45-.26.927-.277 1.42-.167.265.06.518.154.756.282.13.07.158.027.173-.094.018-.15.048-.3.073-.45.09.037.18.07.266.113.066.032.1.028.112-.053.077-.486.154-.973.235-1.458.013-.08-.018-.11-.086-.132-.16-.05-.317-.108-.478-.156-.664-.2-1.333-.27-2.017-.107-.456.11-.856.336-1.25.574-.063-.005-.104.038-.15.07-.28.188-.538.407-.735.68-.12.165-.237.227-.423.142-.02-.248-.09-.49-.124-.735-.017-.118-.066-.155-.188-.154-1.193.005-2.385.003-3.577.003l-5.412-.002.002.002c.093-.48.234-.945.37-1.414.04-.135.1-.176.244-.175 2.64.005 5.28.003 7.92.006.13 0 .17-.02.12-.157-.15-.416-.318-.825-.49-1.232-.06-.14-.135-.18-.286-.18-2.216.004-4.433.003-6.65.003-.17 0-.17 0-.1-.147.21-.442.45-.867.696-1.29.066-.114.14-.156.275-.156 1.646.005 3.293.004 4.94.003.043 0 .103.022.13-.016.034-.05-.026-.092-.05-.13-.294-.454-.61-.89-.947-1.312-.067-.085-.134-.12-.242-.12-.89.005-1.783.003-2.675.003-.053 0-.106-.004-.185-.008.22-.27.43-.51.652-.74.277-.283.557-.563.835-.845zm-78.467 8.373c-.025-.003-.05-.006-.033.033h.002c-.07-.035-.098.03-.136.06-.326.245-.582.555-.798.9-.024.04-.03.1-.093.108.105-.487.247-.963.46-1.415.135-.284.115-.312-.206-.288-.025 0-.05.007-.075.01-.335.05-.572.253-.78.498-.11.13-.21.266-.316.4-.02-.083-.01-.156 0-.23.024-.165.05-.33.05-.5.002-.082-.02-.115-.11-.114-.428.004-.855.003-1.283 0-.074 0-.108.025-.114.104-.008.116-.027.232-.042.347-.107 0-.214.005-.32 0-.074-.005-.098.025-.104.093-.018.182-.037.364-.06.546-.234 1.802-.543 3.593-.83 5.388-.018.12.015.136.12.134.356-.005.712-.002 1.07-.002.44 0 .44 0 .485-.445.1-.002.203-.01.304-.004.077.004.103-.026.115-.1.11-.697.217-1.393.337-2.088.09-.524.18-1.05.375-1.55l.023-.02h-.004c.146-.09.288-.19.465-.217.06-.01.134-.05.176-.01.047.048-.02.11-.03.166-.01.04-.03.078-.042.116-.302.944-.414 1.897-.107 2.86.54 1.69 2.324 1.707 3.155.852.027-.028.05-.08.113-.065-.018.126-.032.252-.054.376-.016.096.005.135.114.133.33-.007.662 0 .993-.004.137-.002.316.057.4-.023.094-.092.07-.276.09-.422.036-.002.072-.005.107-.005.29-.003.29-.002.34-.29.01-.074.022-.15.035-.224l.78-4.78c.114-.703.228-1.404.346-2.105.02-.125.01-.18-.144-.175-.387.012-.774.004-1.16.004-.272 0-.27 0-.32.272-.01.06-.024.12-.036.18-.07-.002-.143.005-.212-.005-.14-.02-.19.03-.21.174-.052.396-.126.788-.192 1.18-.017-.01-.035-.02-.05-.032-.407-.347-.877-.467-1.403-.402-.452.056-.817.285-1.163.557-.02 0-.038.002-.032.03l.003-.003zm4.88 5.62c.27.008.492-.195.5-.463.01-.278-.196-.5-.472-.51-.26-.01-.49.21-.497.473-.01.267.2.49.467.5z" fill="#F9B31F"/><path d="M121.995 4.847c-.278.282-.558.562-.835.845-.223.23-.432.47-.652.74.08.004.132.01.185.01.892 0 1.784 0 2.675-.003.108-.002.175.033.242.118.338.42.653.858.946 1.31.025.04.085.08.05.133-.026.04-.086.017-.13.017-1.646 0-3.293.002-4.94-.003-.135 0-.208.042-.274.157-.246.423-.486.848-.695 1.29-.07.146-.07.147.1.147 2.216 0 4.433 0 6.65-.004.15 0 .225.042.284.18.174.408.34.817.492 1.233.05.138.01.157-.12.157-2.64-.003-5.28 0-7.92-.006-.144 0-.205.04-.245.175-.135.47-.276.935-.37 1.414-.502 0-1.006-.002-1.51-.006-.073 0-.108.018-.118.098-.014.12-.043.24-.066.36-.086 0-.173.003-.26-.004-.092-.008-.134.024-.15.12-.143.872-.288 1.744-.435 2.615-.08.474-.166.95-.248 1.424-.028-.08-.052-.163-.084-.243-.19-.48-.582-.748-1.03-.955-.187-.088-.378-.17-.552-.286-.144-.097-.213-.226-.184-.4.426-.05.85-.01 1.272.044.217.027.216.03.245-.18.012-.095.03-.19.045-.284.096.01.193.012.288.03.08.013.107-.013.12-.09.06-.407.124-.814.195-1.218.017-.1-.013-.125-.1-.135-.546-.067-1.093-.13-1.644-.09-.713.052-1.362.248-1.8.873-.02.003-.042.01-.043.038l.003-.002c-.075 0-.11.064-.158.105-.21.185-.342.423-.454.674-.027-.253-.06-.505-.17-.738-.287-.604-.815-.838-1.433-.924-.717-.1-1.417.016-2.115.18-.26.062-.437.156-.423.45-.085.022-.168.05-.253.063-.116.018-.167.075-.183.195-.05.368-.11.734-.177 1.1-.024.13.01.132.12.1.42-.127.85-.216 1.29-.23.32-.007.643-.028.956.066.193.058.336.17.362.386-.035 0-.07.002-.106 0-.674-.012-1.326.07-1.93.402-.314.174-.534.446-.776.697-.078.012-.115.077-.166.124-.18.167-.277.39-.417.586-.02-.022-.01-.047-.005-.072l.273-1.652c.197-1.182.39-2.364.593-3.545.025-.14-.01-.166-.147-.165-.64.008-1.282.004-1.924.004-.138 0-.3-.043-.405.017-.113.064-.107.25-.162.38-.007.018-.017.036-.025.054-.077 0-.154.007-.23-.002-.114-.014-.168.027-.202.142-.082.276-.18.548-.273.82l-.706 2.07c-.007-.075-.017-.15-.018-.226-.014-1.032-.027-2.063-.036-3.095 0-.12-.027-.166-.16-.165-.616.008-1.233.004-1.85.004-.328 0-.327 0-.386.316l-.03.134c-.086 0-.174.006-.26-.003-.106-.01-.14.038-.154.135-.048.316-.103.63-.156.947l-.654 3.923-.41 2.42c-.01.07-.044.15.09.15.44-.006.878-.004 1.316 0 .076 0 .11-.024.117-.102.012-.115.037-.23.056-.345.086-.002.173-.013.258-.003.114.013.146-.033.16-.138.05-.336.11-.67.167-1.004l.355-2.05c.01.344.026.69.034 1.034.018.826.036 1.653.05 2.48 0 .1.03.132.13.128.178-.007.356.003.534-.003.15-.006.34.062.442-.03.1-.09.116-.273.168-.415.035-.002.072-.01.106-.004.157.028.228-.035.28-.19.176-.534.372-1.062.562-1.592l.672-1.86c-.004.06-.002.122-.012.18-.2 1.263-.4 2.525-.608 3.786-.018.11.007.13.108.128.356-.004.712 0 1.068-.003.14-.002.318.06.413-.027.1-.09.067-.275.093-.418.096-.002.193-.008.288-.004.08.005.112-.017.126-.104.05-.333.115-.665.174-.997.01.09.023.18.032.27.067.657.477 1.202 1.067 1.33.715.152 1.377.01 1.93-.503.045-.043.085-.094.128-.14.024.147.027.28.01.407-.02.14.008.197.167.19.326-.013.652-.01.978 0 .147.004.233-.02.222-.192-.006-.084.02-.17.03-.257h.356c-.012.08-.015.164-.04.24-.03.11.01.138.112.157.745.143 1.494.195 2.25.11.418-.046.82-.16 1.16-.423.115-.09.242-.172.286-.324.234-.135.416-.324.57-.544l.016.212c.066.704.51 1.108 1.217 1.118.298.004.588-.03.875-.097.35-.08.35-.08.4-.426.096-.03.19-.065.29-.084.1-.02.138-.068.152-.17.044-.32.102-.64.154-.96.01.024.024.046.03.07.26.87.848 1.388 1.73 1.577.744.16 1.486.113 2.22-.073.378-.096.305.005.37-.416.025-.008.05-.022.074-.023.275-.01.378-.16.407-.427.045-.396.13-.787.202-1.202-.28.124-.545.228-.823.29-.543.12-1.088.167-1.625-.02-.327-.115-.553-.334-.613-.692.767 0 1.534 0 2.302-.004.14 0 .323.063.41-.028.084-.086.072-.265.1-.404.093-.002.185-.012.275-.006.084.006.116-.03.13-.106.093-.464.174-.93.173-1.405-.002-.537-.106-1.047-.45-1.472-.586-.72-1.372-.866-2.236-.712-.624.112-1.104.475-1.5.954l-.047.036.003-.002c-.034.01-.06.025-.063.064l.003-.002c-.224.15-.38.36-.52.583-.616.975-.758 2.04-.6 3.162-.143.05-.292.044-.44.037-.35-.015-.507-.185-.458-.533.11-.765.24-1.526.383-2.284.158 0 .316 0 .474.004.074.003.11-.017.118-.098.01-.117.03-.232.046-.348.046-.002.093-.01.137-.004.1.015.13-.034.142-.123.06-.417.12-.834.186-1.25.015-.09-.01-.117-.1-.114-.177.005-.355.002-.534.002-.182 0-.18 0-.144-.185.05-.25.096-.498.144-.746 1.804 0 3.607 0 5.412.002 1.192 0 2.384.002 3.577-.003.122 0 .17.036.188.154.035.246.103.487.124.735-.077-.01-.153-.023-.23-.024-.41-.01-.7.21-.947.504-.118.138-.225.285-.355.453.03-.28.08-.522.092-.77.004-.09-.018-.124-.116-.123-.422.005-.845.006-1.268 0-.094 0-.123.03-.13.118-.007.11-.03.22-.046.33-.102 0-.204.006-.306 0-.088-.008-.11.03-.118.112-.03.298-.062.597-.102.894-.23 1.676-.512 3.345-.78 5.015-.018.106-.002.145.115.143.356-.007.713-.003 1.07-.003.444 0 .444 0 .49-.445.086-.002.173-.012.26-.003.104.01.147-.02.164-.133.096-.65.197-1.295.31-1.94.094-.55.183-1.102.38-1.628.21-.258.507-.27.805-.272.072 0 .066.04.06.09-.025.175-.053.35-.07.527-.087.977-.008 1.924.534 2.782-.127.406-.22.822-.352 1.228-.038.117-.09.144-.204.143h-7.888c-.244 0-.247 0-.166.225.153.426.322.845.506 1.258.04.09.093.103.178.103.52-.003 1.04-.002 1.56-.002H125.517c-.104.208-.192.4-.293.585-.16.29-.33.572-.488.862-.056.1-.124.137-.242.137-1.646-.006-3.292-.004-4.938-.004h-.165c-.015.062.026.093.05.13.298.468.627.914.97 1.35.064.082.134.107.234.106.886-.003 1.773-.002 2.66-.002h.19c-.19.26-.392.473-.59.687-.272.29-.552.572-.85.836-.017.016-.028.04-.042.06-.717.63-1.473 1.206-2.292 1.7-1.83 1.1-3.804 1.805-5.932 2.037-4.63.503-8.678-.815-12.08-3.99-2.446-2.282-3.956-5.107-4.456-8.416-.736-4.87.59-9.14 3.978-12.725 2.247-2.38 5.03-3.814 8.264-4.37.558-.097 1.122-.135 1.684-.193.386-.04.77-.057 1.154-.036 1.622.09 3.214.345 4.747.91 1.83.67 3.472 1.65 4.915 2.957" fill="#E10025"/><path d="M145.464 23.74c.276.003.478.21.477.485 0 .276-.22.493-.495.486-.264-.007-.48-.232-.475-.496.003-.262.226-.475.494-.473zm-96.678-.513c.002-.2-.15-.358-.352-.36-.2-.005-.365.15-.37.345-.005.2.162.374.363.375.19.002.357-.165.36-.36z" fill="#F9B31F"/><path d="M143.818 12.72c.012-.06.025-.118.036-.178.05-.273.048-.273.32-.273.386 0 .773.007 1.16-.005.153-.005.165.05.144.176-.118.702-.232 1.403-.346 2.105l-.78 4.78c-.014.076-.025.15-.037.226-.048.288-.048.287-.34.29-.034 0-.07.003-.106.005-.322-.002-.643-.01-.963-.002-.144.003-.205-.02-.16-.18.03-.108.03-.225.05-.37-.046.038-.07.055-.09.075-.81.873-2.574.882-3.138-.715-.408-1.153-.242-2.284.252-3.38.173-.383.427-.71.707-1.02h-.003c.023 0 .034-.01.033-.033l-.003.003c.022.002.027-.014.032-.03.345-.272.71-.5 1.16-.557.527-.065.997.055 1.403.402.016.013.034.022.05.033l.34.37.275-1.72zM-51.7 16.25l-.002.003c.238-.093.366-.296.48-.503.27-.502.335-1.05.306-1.608-.012-.213-.058-.422-.165-.612-.134-.242-.343-.374-.615-.387-.415-.02-.717.177-.925.53-.024.03-.053.06-.07.095-.335.666-.43 1.365-.235 2.083.144.538.72.73 1.2.43.014-.004.036-.004.027-.03z" fill="#FDFDFD"/><path d="M131.586 16.88c.54-.697 1.298-.924 2.133-.98.187-.012.376-.006.564-.008l.136.015c.313.032.313.032.333-.286.02-.336-.097-.498-.43-.58-.153-.036-.31-.05-.468-.054-.586-.016-1.16.06-1.716.238-.125.04-.135 0-.117-.107.05-.3.096-.602.143-.903-.014-.297.163-.39.424-.45.7-.165 1.4-.278 2.118-.183.285.04.558.116.81.258.53.302.746.783.78 1.366.027.45-.052.892-.12 1.334-.167 1.06-.34 2.117-.477 3.18-.01.102-.044.13-.138.123-.097-.005-.194.003-.29.005-.265-.002-.53-.012-.794-.002-.123.004-.14-.04-.135-.145.01-.15.002-.298.002-.447.003 0-.004 0-.007.002-.015.013-.03.027-.043.042-.528.57-1.197.734-1.934.618-.656-.104-1.11-.7-1.163-1.44-.038-.546.067-1.06.34-1.535l-.002.003c.022 0 .03-.016.032-.035l-.002.004.02-.03zm-94.827.635c.405-.214.762-.9.71-1.353-.008-.066-.044-.068-.09-.072-.332-.028-.662-.02-.983.074-.26.077-.484.21-.594.48-.02.066-.045.133-.057.2-.096.52.217.85.73.772.1-.016.196-.046.283-.1z" fill="#FDFDFD"/><path d="M128.044 12.75c.395-.24.795-.465 1.25-.575.685-.164 1.354-.092 2.018.107.16.048.318.106.48.156.067.02.098.052.085.13-.08.486-.158.973-.235 1.46-.013.08-.046.084-.113.05-.087-.042-.178-.075-.267-.113-.22-.11-.453-.18-.693-.218-.718-.115-1.325.08-1.788.658l.002-.003-.024.03c-.303.36-.462.786-.554 1.238-.105.522-.138 1.048-.003 1.57.215.834.878 1.26 1.73 1.12.3-.05.593-.136.867-.277.056-.02.113-.042.17-.064l.022.023c-.007.06-.012.12-.02.18-.053.373-.14.742-.172 1.12 0 .326-.187.466-.49.494-.27.04-.54.09-.815.106-1.418.077-2.483-.652-2.87-1.982-.237-.81-.217-1.637-.07-2.46.19-1.047.614-1.974 1.45-2.676.022-.02.05-.037.04-.075" fill="#FDFDFD"/><path d="M137.086 14.13c.015-.114.034-.23.042-.346.006-.08.04-.103.115-.103.428.003.855.004 1.283 0 .09 0 .112.033.11.116 0 .17-.026.334-.05.5-.01.073-.02.146 0 .228.105-.133.207-.27.316-.4.208-.244.445-.447.78-.496.024-.004.05-.01.074-.01.32-.025.34.003.207.287-.214.452-.356.928-.462 1.416-.007.078-.028.117-.128.116-.402-.007-.688.24-.774.647l.004-.002c-.02-.005-.02.01-.023.023-.195.5-.285 1.025-.376 1.55-.12.694-.228 1.39-.337 2.086-.012.074-.038.104-.116.1-.1-.004-.202.003-.303.005-.367-.002-.733-.008-1.1-.003-.104 0-.122-.026-.106-.127.123-.736.24-1.472.356-2.21.177-1.122.367-2.243.49-3.374" fill="#FDFDFD"/><path d="M128.044 12.75c.01.037-.017.054-.04.074-.835.702-1.26 1.63-1.448 2.677-.148.823-.168 1.65.07 2.46.386 1.33 1.45 2.06 2.87 1.983.274-.015.543-.067.815-.106-.042.342-.04.343-.365.42-.56.13-1.123.187-1.693.09-.718-.12-1.28-.49-1.703-1.078-.543-.86-.622-1.806-.534-2.783.016-.177.044-.352.068-.528.007-.05.013-.09-.06-.09-.297.003-.593.014-.804.272.14-.41.337-.75.852-.71.077.007.07-.055.082-.102.052-.206.1-.414.157-.618.105-.372.268-.72.426-1.07.187.085.305.023.424-.142.197-.273.456-.492.736-.68.045-.032.086-.075.148-.07" fill="#063670"/><path d="M138.598 16.083c.086-.408.372-.654.774-.647.1 0 .12-.038.13-.115.063-.006.068-.067.092-.106.216-.346.472-.656.8-.902.037-.03.066-.094.135-.06-.28.31-.535.638-.708 1.02-.494 1.097-.66 2.228-.253 3.38.563 1.598 2.328 1.59 3.137.716.02-.02.044-.037.09-.075-.02.145-.02.262-.05.37-.045.16.016.183.16.18.32-.01.64 0 .962.002-.02.146.003.33-.09.422-.085.08-.264.02-.4.022-.332.002-.663-.004-.994.003-.11.002-.13-.037-.113-.134.022-.125.036-.25.054-.377-.064-.015-.086.037-.113.065-.83.855-2.615.838-3.155-.852-.308-.963-.196-1.916.106-2.86.012-.038.032-.075.04-.115.013-.055.08-.117.032-.164-.042-.04-.116 0-.175.01-.177.025-.32.127-.465.217" fill="#063670"/><path d="M137.086 14.13c-.123 1.132-.313 2.253-.49 3.376-.115.737-.233 1.473-.355 2.21-.015.1.003.127.108.126.366-.005.732 0 1.1.003-.046.445-.046.445-.487.445-.356 0-.712-.003-1.07.002-.103.002-.136-.015-.117-.134.286-1.795.595-3.586.83-5.39.022-.18.04-.363.06-.545.005-.068.03-.098.103-.094.106.005.213 0 .32 0" fill="#063670"/><path d="M130.8 19.342c.033-.377.12-.746.17-1.12.01-.06.015-.12.022-.18.005-.006.016-.017.014-.02-.01-.017-.023-.012-.036-.003-.057.02-.114.042-.17.063.088-.468.332-.84.697-1.14.008-.01.027-.005.04-.006-.273.476-.378.99-.34 1.535.052.74.507 1.336 1.164 1.44.738.116 1.407-.05 1.935-.618.013-.015.028-.03.043-.042.003-.002.01 0 .007 0 0 .148.007.297-.002.446-.006.106.012.15.135.145.264-.01.53 0 .794.002-.014.116-.033.232-.038.35-.004.083-.045.097-.117.096-.382 0-.764-.002-1.146.002-.084 0-.105-.032-.1-.11.013-.156.02-.313.03-.482-.07.02-.095.073-.132.108-.546.532-1.21.674-1.933.54-.468-.09-.775-.408-.964-.84l-.07-.166" fill="#063670"/><path d="M132.166 14.214c-.047.3-.092.602-.143.903-.018.107-.008.146.116.107.556-.177 1.13-.254 1.715-.238.158.004.315.018.47.055.33.082.45.244.428.58-.02.32-.02.32-.333.287l-.136-.015c-.045-.28-.25-.38-.496-.417-.597-.087-1.188-.035-1.773.104-.153.036-.305.08-.476.124.042-.28.084-.553.127-.825.024-.147.06-.29.074-.437.01-.1.05-.144.144-.16.095-.018.188-.046.282-.07" fill="#063670"/><path d="M128.782 14.405c.463-.58 1.07-.773 1.788-.658.24.038.474.108.693.218-.025.15-.055.3-.074.45-.016.122-.043.164-.174.095-.238-.128-.49-.222-.756-.282-.493-.11-.97-.092-1.42.167-.017.01-.04.007-.058.01" fill="#063670"/><path d="M143.818 12.72c-.09.566-.18 1.132-.276 1.72-.122-.133-.23-.25-.338-.37.066-.392.14-.784.193-1.18.02-.143.07-.192.21-.173.068.01.14.003.21.004" fill="#063670"/><path d="M145.44 19.84c-.268-.01-.477-.233-.47-.5.008-.264.237-.482.498-.473.276.01.482.232.473.51-.008.268-.23.47-.5.462zm-97.01-1.124c.198-.002.356-.163.356-.362 0-.2-.175-.373-.372-.365-.193.006-.356.18-.35.372.006.198.17.356.366.354z" fill="#FDFDFD"/><path fill="#063670" d="M138.58 16.103c.002-.012.002-.028.022-.022l-.023.023"/><path fill="#063670" d="M140.59 14.193c-.006.016-.01.032-.033.03-.006-.028.01-.03.032-.03"/><path fill="#063670" d="M140.56 14.22c0 .023-.01.034-.033.033-.018-.04.008-.036.033-.033"/><path fill="#063670" d="M128.76 14.432l.024-.03-.024.03"/><path fill="#063670" d="M131.586 16.88l-.02.03.02-.03"/><path fill="#063670" d="M131.567 16.905c-.003.02-.01.034-.032.035-.007-.028.01-.033.032-.035"/><path d="M103.548 12.72c.008-.017.018-.035.025-.054.055-.13.05-.315.162-.38.104-.06.267-.017.404-.017.64 0 1.282.003 1.923-.005.136 0 .172.026.148.166-.2 1.182-.395 2.364-.592 3.546l-.273 1.652c-.004.025-.014.05.006.072h.004c-.05.022-.024.067-.03.103-.067.31-.117.62-.154.936-.06.33-.123.663-.174.996-.014.087-.045.11-.125.105-.094-.003-.19.003-.287.005-.36-.002-.722-.01-1.084-.003-.127.003-.15-.033-.13-.15.22-1.36.438-2.718.655-4.076l.225-1.418-.027-.008-.703 2.008c-.224.62-.45 1.24-.672 1.86-.19.53-.386 1.058-.563 1.592-.05.155-.122.218-.28.19-.033-.005-.07.003-.105.005-.23-.002-.458-.007-.687-.004-.08.002-.113-.013-.115-.105-.033-1.462-.07-2.925-.104-4.388-.01-.367 0-.735 0-1.102-.02 0-.036-.003-.053-.004l-.038.23-.36 2.18-.355 2.05c-.057.334-.117.668-.166 1.004-.014.105-.046.15-.16.138-.084-.01-.17 0-.257.003-.34-.002-.682-.006-1.023-.004-.087.002-.11-.016-.094-.11.2-1.165.393-2.33.588-3.497l.584-3.513.03-.134c.06-.317.058-.317.387-.317.616 0 1.233.003 1.85-.005.132 0 .158.044.16.164.008 1.03.02 2.062.034 3.094 0 .075.01.15.017.227-.027.365.01.728.016 1.093.027-.032.04-.064.05-.097.255-.754.51-1.508.763-2.263.196-.587.388-1.175.582-1.762" fill="#FDFDFD"/><path d="M105.934 16.99c.242-.25.462-.522.777-.696.604-.332 1.256-.414 1.93-.4.035 0 .07 0 .105-.002.056.006.112.01.167.017.27.03.27.03.3-.242.038-.376-.085-.548-.454-.632-.045-.01-.09-.02-.135-.024-.68-.077-1.34.01-1.992.2-.165.048-.165.05-.138-.127.045-.29.09-.58.137-.872-.015-.295.162-.39.422-.45.698-.165 1.398-.28 2.115-.18.618.085 1.146.32 1.432.923.11.233.143.485.17.738.003.39-.06.774-.105 1.16-.134.796-.263 1.593-.37 2.393l-.136.92c-.008.05.016.12-.07.128h-.355c-.275-.002-.55-.006-.825-.004-.085.002-.114-.017-.107-.11.012-.157.004-.316.004-.49-.46.534-1.05.72-1.718.704-.52-.014-.933-.234-1.185-.688-.382-.69-.318-1.396-.018-2.098.023-.053.082-.097.047-.167zm-95.667-.347c-.068.13-.08.27-.074.414.014.295.19.52.447.56.205.03.405.007.587-.107.052-.032.108-.058.154-.096.39-.325.51-.77.55-1.248.004-.053-.02-.07-.07-.075-.393-.03-.785-.025-1.156.13-.197.083-.36.21-.437.423z" fill="#FDFDFD"/><path d="M119.502 17.738c.06.358.286.577.613.69.537.19 1.082.14 1.624.02.277-.06.54-.164.822-.287-.072.416-.157.807-.2 1.203-.03.267-.133.416-.408.428-.025.002-.05.016-.073.024-.024.003-.05.005-.074.01-.664.138-1.332.177-2 .042-.92-.186-1.56-.708-1.782-1.63-.293-1.217-.133-2.38.528-3.46.022-.04.084-.064.05-.126l-.002.002c.057.013.06-.026.063-.064l-.003.002c.028.004.036-.018.046-.036.397-.48.877-.842 1.5-.953.865-.153 1.65-.006 2.236.713.345.425.45.935.45 1.472.002.476-.08.94-.17 1.405-.016.076-.048.112-.133.106-.09-.006-.183.004-.275.006-.055-.002-.11-.008-.166-.008h-2.302c-.42 0-.436.02-.346.444zm-95.616-2.697c.15.007.366.072.438-.02.102-.128.043-.34.014-.515-.003-.02-.01-.04-.017-.058-.08-.28-.288-.455-.578-.488-.408-.048-.746.132-.944.5-.1.15-.15.318-.197.49-.017.066-.016.1.07.1.405-.007.81-.007 1.216-.01z" fill="#FDFDFD"/><path d="M114.428 19.062c-.154.22-.336.41-.57.544-.168.087-.34.163-.524.207-.916.223-1.828.138-2.74-.03-.083-.014-.09-.05-.08-.124.044-.256.078-.512.116-.77.025-.15.057-.298.075-.45.01-.082.036-.097.116-.074.192.054.383.11.58.142.41.068.824.12 1.24.02.297-.05.45-.21.466-.475.014-.21-.087-.35-.262-.445-.28-.152-.573-.288-.848-.45-.448-.267-.762-.64-.852-1.17-.047-.273-.032-.546.005-.82.033-.25.146-.47.233-.702l-.002.002c.03.004.035-.02.045-.038.437-.625 1.086-.82 1.8-.873.55-.04 1.097.023 1.643.09.087.01.117.036.1.135-.07.404-.134.81-.196 1.217-.012.077-.04.103-.12.09-.094-.018-.19-.02-.287-.03-.185-.03-.372-.045-.56-.048-.228-.004-.458-.02-.68.06-.19.07-.323.186-.323.407-.03.174.04.303.184.4.174.114.365.197.553.285.446.207.838.474 1.028.956.032.08.056.163.084.244.08.586.063 1.16-.224 1.698" fill="#FDFDFD"/><path d="M115.744 13.207c.023-.12.052-.238.065-.36.01-.08.044-.097.118-.097.503.004 1.007.005 1.51.006l-.002-.002-.144.746c-.037.185-.038.184.144.185.18 0 .357.003.535-.002.09-.003.115.025.1.114-.064.416-.126.833-.185 1.25-.013.09-.042.138-.142.123-.044-.007-.09.002-.137.004-.105-.002-.21-.005-.317-.005-.25-.002-.252-.002-.294.237-.012.07-.02.14-.028.21-.143.757-.274 1.518-.383 2.282-.05.347.11.517.46.532.146.007.295.012.438-.037.053-.008.088 0 .074.07-.013.062-.017.128-.026.192-.05.32-.11.638-.153.958-.014.103-.052.15-.152.17-.1.02-.194.056-.29.084-.272.043-.544.082-.82.075-.64-.016-1.05-.342-1.175-.943-.045-.215-.05-.433-.027-.652.06-.546.16-1.085.248-1.626.192-1.173.39-2.345.584-3.517" fill="#FDFDFD"/><path d="M126.736 13.64c-.158.352-.32.7-.425 1.072-.056.204-.104.412-.156.618-.012.047-.005.11-.082.103-.515-.04-.713.3-.852.71-.197.525-.286 1.077-.38 1.627-.113.645-.214 1.29-.31 1.94-.018.11-.06.14-.166.132-.086-.01-.173 0-.26.003h-1.227l.033-.2c.212-1.338.427-2.678.634-4.018.076-.497.153-.994.192-1.496.016-.11.04-.22.047-.33.006-.088.035-.12.13-.118.422.006.845.005 1.268 0 .1 0 .12.032.117.123-.01.248-.062.49-.092.77.13-.168.237-.315.355-.453.248-.293.538-.515.948-.504.076 0 .152.015.228.023" fill="#FDFDFD"/><path d="M117.53 18.657c.01-.064.014-.13.027-.193.014-.07-.02-.077-.074-.07-.158-1.12-.016-2.186.6-3.16.14-.223.296-.435.52-.584.033.062-.03.087-.05.125-.662 1.08-.822 2.244-.53 3.46.224.923.863 1.445 1.782 1.63.67.136 1.337.097 2-.04.026-.006.05-.008.076-.01-.065.42.008.32-.37.415-.734.186-1.476.233-2.22.073-.882-.19-1.47-.706-1.73-1.577-.006-.024-.02-.046-.03-.07" fill="#063670"/><path d="M115.744 13.207c-.194 1.172-.392 2.344-.583 3.517-.087.54-.187 1.08-.247 1.626-.024.22-.018.437.027.652.125.6.535.927 1.175.943.276.007.548-.032.82-.076-.05.346-.05.344-.4.425-.287.066-.577.1-.874.097-.706-.01-1.15-.414-1.216-1.118l-.016-.212c.287-.538.303-1.112.224-1.698.082-.475.167-.95.247-1.425.146-.872.29-1.744.434-2.616.016-.096.058-.128.15-.12.087.007.174.003.26.003" fill="#063670"/><path d="M99.658 12.72l-.584 3.513c-.195 1.166-.39 2.332-.588 3.498-.016.094.007.112.094.11.34 0 .682.003 1.023.005-.02.115-.044.23-.056.346-.008.08-.04.102-.117.102-.438-.003-.877-.005-1.315 0-.135.002-.102-.078-.09-.15.135-.806.273-1.612.41-2.42l.653-3.923c.053-.317.108-.632.156-.948.015-.097.048-.146.155-.135.084.01.172.002.258.003" fill="#063670"/><path d="M105.934 16.99c.035.07-.024.115-.047.168-.3.702-.364 1.408.018 2.098.252.454.665.674 1.184.688.667.017 1.256-.17 1.717-.705 0 .174.008.333-.004.49-.007.093.022.112.107.11.275 0 .55.003.825.005-.01.086-.036.173-.03.257.01.17-.075.196-.222.19-.326-.008-.652-.01-.978.002-.16.007-.187-.05-.168-.19.018-.128.015-.26-.01-.408-.042.047-.082.098-.128.14-.553.515-1.215.656-1.93.503-.59-.128-1-.673-1.068-1.33-.01-.09-.02-.18-.032-.27.037-.316.087-.628.155-.937.025-.03.043-.063.03-.104h-.004c.14-.195.238-.42.418-.586.05-.047.088-.112.166-.123" fill="#063670"/><path d="M123.736 14.13c-.04.503-.116 1-.192 1.497-.207 1.34-.422 2.68-.634 4.02l-.033.198h1.228c-.046.445-.046.445-.49.445-.357 0-.714-.004-1.07.003-.117.002-.133-.037-.116-.142.268-1.67.55-3.338.78-5.014.04-.297.072-.596.102-.894.008-.08.03-.12.118-.113.102.006.204 0 .306 0" fill="#063670"/><path d="M100.542 16.65l.36-2.18c.012-.076.026-.153.04-.23l.05.005c0 .367-.007.735.002 1.102.033 1.463.07 2.926.104 4.388.002.092.034.107.115.106.23-.002.458.003.687.005-.052.142-.068.326-.168.415-.103.092-.29.024-.442.03-.178.005-.356-.005-.534.002-.1.004-.13-.028-.13-.128-.014-.827-.032-1.654-.05-2.48-.008-.345-.023-.69-.034-1.034" fill="#063670"/><path d="M103.52 16.198l.703-2.008.027.008-.225 1.418c-.217 1.358-.434 2.717-.655 4.075-.02.12.003.155.13.152.36-.007.722 0 1.083.003-.026.143.006.33-.094.418-.096.086-.273.025-.414.026-.356.003-.712-.002-1.068.002-.1 0-.126-.02-.108-.128.207-1.26.407-2.523.608-3.785.01-.06.008-.12.012-.182" fill="#063670"/><path d="M111.383 14.466c-.087.23-.2.452-.234.702-.038.274-.053.547-.006.82.09.53.404.903.852 1.17.275.162.567.298.848.45.175.095.276.234.262.445-.017.266-.17.425-.466.475.022-.226-.084-.38-.278-.48-.23-.12-.464-.234-.692-.357-.522-.28-.898-.68-1.005-1.286.045-.386.108-.77.106-1.16.113-.25.244-.49.455-.673.047-.04.083-.103.158-.104" fill="#063670"/><path d="M106.63 14.213c-.047.29-.093.58-.138.872-.027.176-.027.175.14.127.65-.19 1.312-.277 1.99-.2.046.004.09.014.136.024.37.084.492.256.454.632-.03.273-.03.273-.3.24l-.167-.016c-.026-.217-.17-.328-.362-.386-.313-.094-.636-.073-.956-.065-.44.014-.87.103-1.29.23-.11.032-.144.03-.12-.1.067-.366.126-.732.177-1.1.016-.12.067-.177.183-.195.085-.014.168-.04.252-.062" fill="#063670"/><path d="M110.63 18.89c-.038.258-.072.514-.115.77-.012.074-.004.11.078.124.913.167 1.825.252 2.74.03.185-.045.357-.12.525-.208-.044.152-.17.235-.285.323-.342.262-.743.376-1.162.423-.754.084-1.503.032-2.248-.11-.103-.02-.143-.05-.11-.158.023-.076.026-.16.04-.24.084-.01.06-.08.067-.13l.135-.918.335.094" fill="#063670"/><path d="M103.548 12.72c-.194.588-.386 1.176-.582 1.763-.252.755-.508 1.51-.762 2.263-.01.033-.024.065-.05.097-.006-.365-.044-.728-.017-1.092l.706-2.07c.093-.272.19-.544.273-.82.034-.115.088-.156.203-.142.074.01.15.002.228.003" fill="#063670"/><path fill="#063670" d="M119.502 17.738c-.09-.423-.073-.444.346-.444h2.3c.056 0 .112.006.167.008-.03.14-.017.318-.1.404-.088.09-.27.028-.41.028-.77.004-1.536.003-2.303.004"/><path d="M112.802 15.48c0-.222.134-.34.324-.408.22-.08.45-.064.68-.06.187.003.374.018.56.048-.016.094-.034.19-.047.284-.03.21-.03.207-.246.18-.423-.053-.846-.093-1.272-.045" fill="#063670"/><path fill="#063670" d="M116.968 15.616c.01-.07.016-.14.028-.21.042-.238.043-.238.293-.237.105 0 .21.002.316.004-.016.116-.037.23-.046.348-.007.08-.044.1-.118.098-.158-.004-.316-.003-.474-.004"/><path fill="#063670" d="M118.663 14.588c-.004.038-.006.077-.063.064.002-.04.03-.055.063-.064"/><path fill="#063670" d="M111.425 14.43c-.01.018-.014.042-.044.038.002-.03.023-.035.045-.038"/><path fill="#063670" d="M118.706 14.554c-.01.018-.018.04-.046.036l.046-.036"/><path d="M142.336 18.28c-.48.3-1.055.108-1.2-.43-.193-.717-.1-1.416.235-2.082.02-.035.048-.064.072-.096.044-.015.087-.03.13-.043.46-.136.85.06 1.016.508.072.193.096.394.1.598.012.53-.093 1.038-.326 1.517l.002-.003-.028.03" fill="#F9B31F"/><path d="M142.362 18.253c.233-.48.338-.986.326-1.517-.004-.204-.028-.405-.1-.598-.167-.447-.557-.644-1.015-.51-.044.013-.087.03-.13.044.207-.352.51-.548.924-.53.272.014.48.146.616.388.107.19.153.4.165.612.03.56-.035 1.106-.307 1.608-.112.207-.24.41-.478.503" fill="#063670"/><path fill="#063670" d="M142.336 18.28l.028-.03c.01.026-.013.026-.028.03"/><path d="M133.79 18.515c-.086.055-.182.085-.282.1-.513.078-.826-.252-.73-.77.012-.068.038-.135.057-.202.356-.103.717-.143 1.087-.108.096.01.116.044.108.134-.025.297-.11.576-.24.845" fill="#F9B31F"/><path d="M133.79 18.515c.13-.27.215-.548.24-.846.008-.09-.012-.126-.108-.135-.37-.035-.73.005-1.087.108.11-.27.333-.402.594-.48.32-.093.65-.1.98-.073.048.004.084.006.09.072.054.453-.303 1.14-.71 1.353" fill="#063670"/><path fill="#FDFDFD" d="M130.97 18.02c.013-.01.027-.015.036.002.002.003-.01.014-.014.02l-.022-.023"/><path d="M145.462 19.716c-.197.002-.36-.156-.366-.354-.006-.192.157-.366.35-.373.197-.01.372.163.372.364 0 .2-.158.36-.356.362zm-97.2-1.373c0 .035-.004.07 0 .106.005.04-.024.103.043.11.076.01.05-.057.057-.097.004-.025.005-.053.038-.054.03-.002.04.022.05.047.015.032.027.068.05.093.012.014.046.014.07.01.024 0 .032-.026.02-.044-.052-.077-.025-.144.008-.222.028-.07-.017-.127-.09-.15-.18-.056-.247-.002-.247.2z" fill="#F9B31F"/><path fill="#E10025" d="M105.354 17.7c.014.04-.004.072-.03.103.006-.036-.02-.08.03-.104"/><path d="M110.63 18.89c-.112-.03-.223-.06-.335-.093.107-.8.236-1.597.37-2.393.107.606.483 1.005 1.005 1.287.228.124.462.237.692.357.194.1.3.255.278.48-.416.102-.83.05-1.24-.02-.197-.03-.388-.087-.58-.14-.08-.024-.105-.01-.115.074-.018.152-.05.3-.075.45" fill="#E10025"/><path d="M108.26 18.51c-.183.114-.383.137-.588.106-.258-.04-.433-.264-.447-.56-.007-.142.006-.283.074-.413.348-.103.704-.143 1.067-.11.098.01.135.033.124.148-.028.293-.113.565-.23.83" fill="#E10025"/><path d="M108.26 18.51c.117-.265.202-.537.23-.83.012-.114-.025-.138-.123-.147-.363-.033-.72.007-1.068.11.075-.212.24-.34.436-.422.37-.155.763-.16 1.157-.13.05.005.073.023.07.076-.042.478-.16.923-.55 1.248-.046.038-.102.064-.154.096" fill="#063670"/><path d="M119.83 15.46c.198-.368.536-.548.944-.5.29.032.497.206.58.487.005.02.013.038.016.058.03.176.088.387-.014.516-.072.092-.287.027-.438.02-.09-.41-.278-.6-.625-.63-.157-.014-.312 0-.463.05" fill="#063670"/><path d="M119.83 15.46c.15-.05.306-.064.463-.05.347.03.534.22.625.63-.405.003-.81.003-1.216.01-.086 0-.087-.034-.07-.1.047-.172.1-.34.198-.49" fill="#E10025"/><path fill="#FDFDFD" d="M145.293 19.343c0-.2.067-.255.246-.2.073.024.118.082.09.15-.033.08-.06.146-.008.223.012.018.004.043-.02.045-.024.004-.058.004-.07-.01-.023-.025-.035-.06-.05-.093-.01-.025-.02-.05-.05-.048-.033 0-.034.028-.038.053-.006.04.02.107-.057.098-.067-.007-.038-.07-.043-.11-.004-.036 0-.072 0-.107"/></g><g><path d="M61.717.952c.213.047.432.048.648.07.946.1 1.876.283 2.795.522.564.147 1.115.335 1.664.53.094.035.104.09.09.176-.086.516-.168 1.033-.25 1.55l-.45 2.783c-.09.556-.18 1.11-.272 1.667-.023.144-.057.16-.196.096-.335-.154-.666-.315-1.01-.45-.76-.3-1.54-.525-2.34-.68-.75-.146-1.507-.223-2.273-.213-.593.008-1.186-.02-1.775.076-.737.12-1.44.332-2.048.778-.445.327-.766.748-.85 1.312-.067.446.037.85.297 1.22.197.284.446.51.716.723.52.41 1.1.728 1.674 1.052.698.393 1.423.73 2.134 1.098.684.352 1.34.748 1.97 1.187.64.445 1.226.953 1.754 1.523.344.37.645.774.904 1.208.447.75.744 1.55.87 2.41.077.516.087 1.035.065 1.555-.037.905-.2 1.788-.504 2.642-.27.758-.63 1.47-1.11 2.122-.34.466-.713.902-1.13 1.3-.368.353-.766.67-1.186.958-.497.343-1.014.653-1.562.91-.994.463-2.026.816-3.1 1.05-.95.21-1.91.358-2.882.402-.534.024-1.07-.002-1.606.01-1.148.025-2.29-.056-3.425-.225-1.2-.18-2.386-.416-3.54-.793-.385-.126-.763-.265-1.137-.42-.115-.047-.123-.113-.11-.202.042-.285.085-.57.132-.855.183-1.12.368-2.24.55-3.36.107-.647.21-1.295.317-1.943.03-.185.07-.2.238-.116.95.482 1.93.886 2.94 1.218 1.042.343 2.113.54 3.207.61.597.038 1.194.06 1.792.052.812-.01 1.607-.14 2.363-.44.47-.186.916-.43 1.273-.803.597-.622.78-1.517.463-2.302-.098-.24-.245-.446-.418-.638-.434-.484-.967-.834-1.52-1.163-.79-.468-1.623-.847-2.435-1.27-.527-.272-1.043-.567-1.545-.886-.356-.226-.704-.46-1.037-.717-.343-.265-.672-.548-.984-.853-.457-.447-.883-.92-1.232-1.457-.552-.85-.923-1.775-1.002-2.787-.104-1.346.045-2.665.58-3.924.24-.568.528-1.112.888-1.613.245-.34.51-.665.803-.97.18-.19.37-.368.56-.546.38-.36.8-.67 1.236-.96.34-.226.693-.427 1.054-.617.872-.46 1.79-.796 2.742-1.056.972-.267 1.963-.432 2.967-.524.03-.002.065.012.08-.028h3.16" fill="#074296"/><path d="M7.89 5.216c-.584-.312-1.155-.647-1.754-.928-.624-.292-1.25-.58-1.89-.837-.79-.316-1.587-.605-2.398-.86-.54-.17-1.086-.313-1.63-.468-.05-.015-.1-.034-.15-.05v-.214c.057-.085.05-.186.062-.28.013-.112.06-.167.18-.156.116.01.233.002.35.002h11.55c.635 0 1.253.102 1.83.378.72.345 1.184.92 1.445 1.662.22.622.286 1.278.423 1.92.188.88.356 1.763.53 2.646.186.948.366 1.898.552 2.846.13.662.268 1.32.4 1.982l.45 2.27c.103.526.21 1.052.31 1.58.012.073.073.155-.004.23-.157-.283-.276-.584-.4-.882-.46-1.104-1.01-2.163-1.66-3.165-1.084-1.666-2.36-3.178-3.833-4.52-1.1-1.002-2.27-1.913-3.54-2.695-.267-.165-.53-.338-.824-.46" fill="#F3AE01"/><path d="M88.51 30.17c-1.097 0-2.195-.002-3.292.004-.146 0-.187-.054-.214-.183-.263-1.265-.53-2.53-.8-3.797-.068-.318-.072-.318-.4-.32-2.993-.01-5.986-.022-8.98-.036-.113 0-.157.02-.195.14-.138.42-.3.833-.45 1.25-.345.95-.688 1.898-1.028 2.848-.028.08-.074.098-.15.097-.313-.003-.625 0-.937 0H65.4c-.175 0-.187-.018-.117-.183.358-.85.72-1.697 1.075-2.547.288-.686.567-1.375.855-2.06.28-.666.567-1.328.848-1.993.202-.477.397-.957.598-1.435.207-.494.418-.986.626-1.48.2-.474.396-.948.595-1.422.244-.583.49-1.167.736-1.75.2-.478.4-.956.602-1.434l.738-1.75c.195-.462.388-.924.58-1.385.22-.518.438-1.036.655-1.555.302-.72.6-1.44.902-2.157.37-.878.744-1.753 1.113-2.63.3-.71.59-1.424.89-2.133.2-.47.388-.943.696-1.357.402-.538.9-.95 1.54-1.184.52-.193 1.057-.266 1.61-.265 1.968.005 3.935.003 5.903 0 .12 0 .165.03.19.15.162.79.334 1.578.5 2.367.196.937.39 1.874.587 2.81l.617 2.94 1.027 4.893.873 4.15.886 4.228c.296 1.41.596 2.818.893 4.227l.54 2.563c.072.35.04.387-.314.387h-3.13zM82.844 17.92c-.72-3.523-1.48-7.025-2.178-10.552-1.275 3.527-2.58 7.034-3.88 10.552h6.058z" fill="#074296"/><path d="M7.89 5.216c.292.12.556.294.824.46 1.268.78 2.44 1.692 3.54 2.694 1.47 1.342 2.748 2.854 3.83 4.52.65 1.003 1.202 2.062 1.662 3.166.124.298.243.6.4.883.176.378.2.793.283 1.194.178.877.347 1.757.52 2.635.003.01.013.022.028.05.062-.162.12-.312.175-.462.225-.61.448-1.222.676-1.832.254-.684.515-1.366.77-2.05.153-.407.3-.815.45-1.222.258-.688.52-1.375.776-2.063.19-.51.375-1.022.565-1.532.31-.825.62-1.65.928-2.474.184-.494.363-.99.546-1.484.31-.834.625-1.667.935-2.5.18-.486.357-.972.538-1.457.274-.735.552-1.467.824-2.202.032-.086.088-.083.156-.083h7.667c.17 0 .18.013.115.17-.37.9-.742 1.8-1.11 2.703-.313.762-.62 1.526-.933 2.288-.32.782-.646 1.563-.967 2.345-.224.545-.44 1.092-.664 1.637-.296.72-.596 1.44-.89 2.16-.27.656-.533 1.314-.8 1.97-.3.73-.602 1.456-.9 2.185-.254.62-.503 1.24-.755 1.86-.255.626-.513 1.253-.77 1.88-.262.643-.524 1.287-.788 1.93-.322.782-.646 1.563-.967 2.345-.248.602-.49 1.206-.737 1.808-.3.733-.604 1.465-.905 2.198-.143.35-.29.696-.425 1.047-.033.084-.073.116-.163.117-.683.008-1.365.027-2.047.028-1.883.005-3.765 0-5.648.005-.113 0-.155-.04-.182-.14-.415-1.577-.832-3.152-1.25-4.728-.365-1.383-.73-2.766-1.097-4.15l-.885-3.34c-.34-1.275-.678-2.55-1.017-3.826l-.69-2.608c-.4-1.51-.802-3.023-1.204-4.533-.128-.48-.26-.958-.39-1.438-.013-.05-.037-.1-.025-.156" fill="#074296"/><path d="M40.85 1.422h3.56c.19 0 .198.005.17.195-.062.394-.128.788-.192 1.18l-.55 3.375-.498 3.072-.71 4.385c-.165 1.01-.334 2.02-.498 3.032-.192 1.185-.38 2.372-.57 3.56-.137.84-.276 1.68-.412 2.52l-.556 3.453c-.136.836-.275 1.67-.413 2.506l-.2 1.235c-.032.195-.033.195-.233.195-2.382 0-4.764 0-7.146.003-.122 0-.158-.034-.14-.148.047-.316.09-.632.14-.947.174-1.08.35-2.162.526-3.243l.636-3.9.598-3.7.6-3.703c.212-1.305.42-2.61.632-3.914.18-1.103.362-2.205.54-3.308.196-1.203.388-2.407.583-3.61.113-.7.232-1.4.344-2.1.015-.104.055-.14.164-.14 1.208.003 2.417.002 3.626.002" fill="#074296"/></g></g></svg>