<?xml version="1.0" encoding="iso-8859-1"?>
<!-- Generator: Adobe Illustrator 16.0.4, SVG Export Plug-In . SVG Version: 6.00 Build 0)  -->
<!DOCTYPE svg PUBLIC "-//W3C//DTD SVG 1.1//EN" "http://www.w3.org/Graphics/SVG/1.1/DTD/svg11.dtd">
<svg version="1.1" id="&#x421;&#x43B;&#x43E;&#x439;_1"
	 xmlns="http://www.w3.org/2000/svg" xmlns:xlink="http://www.w3.org/1999/xlink" x="0px" y="0px" width="21.716px"
	 height="23.244px" viewBox="0 0 21.716 23.244" enable-background="new 0 0 21.716 23.244" xml:space="preserve">
<g>
	<g>
		<path fill-rule="evenodd" clip-rule="evenodd" fill="#383737" d="M5.709,15.131c0.08,0.169,0.153,0.339,0.181,0.526
			c0.021,0.136-0.024,0.246-0.121,0.337c-0.09,0.086-0.198,0.144-0.313,0.189C5.109,16.32,4.75,16.406,4.375,16.4
			c-0.126-0.002-0.249-0.025-0.365-0.075c-0.054-0.022-0.103-0.054-0.146-0.093c-0.05-0.047-0.071-0.109-0.083-0.176
			c-0.048-0.266-0.108-0.529-0.181-0.789c-0.012-0.044-0.038-0.083-0.042-0.129c0.003-0.023-0.007-0.043-0.015-0.063
			c-0.01-0.027-0.026-0.034-0.05-0.018c-0.021,0.014-0.041,0.027-0.062,0.041c-0.144,0.09-0.293,0.168-0.457,0.219
			c-0.172,0.054-0.345,0.068-0.521,0.021c-0.079-0.021-0.149-0.061-0.226-0.086c-0.152-0.089-0.282-0.205-0.392-0.342
			c-0.121-0.15-0.218-0.313-0.28-0.496c-0.033-0.096-0.052-0.194-0.064-0.294c-0.008-0.072,0.013-0.141,0.024-0.211
			c0.009-0.051,0.018-0.102,0.054-0.138c0.048-0.05,0.094-0.103,0.153-0.142c0.17-0.109,0.349-0.204,0.521-0.309
			c0.117-0.071,0.226-0.152,0.333-0.238c0.11-0.088,0.201-0.197,0.306-0.29c0.051-0.045,0.049-0.047,0.021-0.111
			c-0.114-0.25-0.192-0.51-0.227-0.783c-0.027-0.215-0.021-0.431-0.001-0.647c0.029-0.309,0.086-0.613,0.15-0.916
			c0.012-0.058,0.003-0.101-0.033-0.148C2.522,9.839,2.365,9.44,2.271,9.012C2.178,8.586,2.16,8.156,2.193,7.723
			c0.022-0.295,0.078-0.583,0.144-0.871C2.373,6.696,2.419,6.546,2.48,6.4c0.037-0.089,0.077-0.177,0.145-0.249
			C2.656,6.119,2.679,6.08,2.72,6.053c0.158-0.106,0.33-0.048,0.418,0.104c0.024,0.042,0.038,0.09,0.05,0.138
			c0.04,0.147,0.057,0.299,0.072,0.451C3.3,7.144,3.336,7.542,3.423,7.934c0.095,0.428,0.245,0.833,0.487,1.202
			C3.952,9.199,4,9.258,4.044,9.321c0.021,0.031,0.048,0.042,0.085,0.047c0.25,0.031,0.5,0.034,0.75,0.028
			c0.934-0.023,1.84-0.188,2.715-0.519c0.461-0.174,0.9-0.392,1.302-0.681c0.329-0.237,0.622-0.513,0.849-0.852
			C9.816,7.237,9.888,7.13,9.954,7.02c0.13-0.216,0.238-0.444,0.341-0.674c0.069-0.155,0.124-0.318,0.18-0.479
			c0.034-0.099,0.058-0.201,0.094-0.298c0.046-0.125,0.091-0.25,0.134-0.375c0.02-0.021,0.024-0.045,0.028-0.079
			c-0.029,0.011-0.052,0.018-0.074,0.027c-0.322,0.139-0.648,0.265-0.982,0.371C9.469,5.579,9.262,5.638,9.05,5.681
			c-0.125,0.025-0.25,0.047-0.376,0.059C8.542,5.751,8.411,5.755,8.278,5.738C8.233,5.733,8.188,5.71,8.141,5.724L8.139,5.723
			c-0.008-0.018-0.017-0.016-0.025,0c-0.153-0.046-0.283-0.125-0.386-0.25C7.608,5.327,7.586,5.159,7.616,4.98
			c0.016-0.096,0.04-0.192,0.062-0.287c0.005-0.02,0.018-0.039,0.028-0.057c0.06-0.108,0.122-0.211,0.211-0.301
			c0.108-0.107,0.224-0.203,0.358-0.269c0.207-0.103,0.427-0.17,0.653-0.215C9.243,3.79,9.56,3.76,9.88,3.755
			c0.339-0.005,0.677,0.009,1.015,0.033c0.173,0.013,0.347,0.028,0.52,0.048c0.043,0.022,0.089,0.013,0.134,0.013
			c0.004-0.001,0.009,0,0.013,0.001c0.034,0.022,0.07,0.014,0.106,0.012c0.223,0.021,0.448,0.011,0.671,0.031
			C12.38,3.897,12.42,3.911,12.46,3.92c0.018,0.005,0.035,0.005,0.048-0.01c0.042-0.012,0.084-0.023,0.126-0.036
			c0.066-0.02,0.074-0.029,0.064-0.097c-0.025-0.165-0.053-0.33-0.08-0.495c-0.056-0.344-0.113-0.688-0.166-1.032
			c-0.019-0.129-0.01-0.26-0.01-0.39c0.002-0.335,0.029-0.667,0.105-0.994c0.023-0.102,0.04-0.205,0.085-0.3
			c0.044-0.093,0.091-0.184,0.157-0.266c0.056-0.069,0.114-0.134,0.188-0.18c0.175-0.109,0.368-0.146,0.571-0.106
			c0.146,0.028,0.278,0.092,0.377,0.207c0.079,0.092,0.135,0.198,0.168,0.314c0.067,0.24,0.076,0.484,0.058,0.73
			c-0.031,0.426-0.126,0.84-0.234,1.251c-0.09,0.342-0.195,0.679-0.311,1.013c-0.036,0.102-0.07,0.205-0.108,0.305
			c-0.013,0.034,0,0.049,0.025,0.064c0.224,0.134,0.447,0.27,0.671,0.403c0.014,0.009,0.033,0.012,0.046,0.021
			c0.028,0.02,0.05,0.013,0.071-0.01c0.079-0.083,0.182-0.112,0.29-0.121c0.083-0.006,0.159,0.029,0.226,0.075
			c0.102,0.069,0.192,0.152,0.253,0.262c0.033,0.058,0.062,0.119,0.038,0.188c-0.011,0.033,0.014,0.037,0.034,0.045
			c0.122,0.055,0.245,0.106,0.371,0.151c0.162,0.058,0.324,0.117,0.487,0.171c0.41,0.136,0.828,0.244,1.25,0.336
			c0.427,0.093,0.857,0.167,1.289,0.239c0.404,0.067,0.81,0.128,1.209,0.219c0.183,0.042,0.365,0.088,0.539,0.16
			c0.185,0.076,0.357,0.173,0.479,0.339c0.046,0.062,0.077,0.13,0.093,0.207c0.04,0.194,0.044,0.39,0.034,0.587
			c-0.019,0.37-0.098,0.729-0.201,1.084c-0.055,0.19-0.11,0.38-0.186,0.563c-0.014,0.009-0.016,0.023-0.021,0.037
			c-0.158,0.411-0.34,0.811-0.548,1.198c-0.296,0.551-0.631,1.075-1.018,1.566c-0.251,0.319-0.519,0.622-0.82,0.894
			c-0.209,0.188-0.428,0.36-0.669,0.504c-0.249,0.148-0.508,0.268-0.805,0.278c-0.258,0.008-0.516,0.011-0.773-0.016
			c-0.183-0.02-0.364-0.047-0.544-0.085c-0.298-0.062-0.591-0.141-0.878-0.243c-0.158-0.056-0.312-0.119-0.466-0.183
			c-0.057-0.024-0.058-0.023-0.093,0.03c-0.043,0.065-0.09,0.128-0.14,0.189c-0.059,0.072-0.115,0.143-0.154,0.231
			c-0.148,0.338-0.376,0.613-0.688,0.814c-0.056,0.036-0.115,0.055-0.182,0.038c-0.013-0.003-0.024-0.005-0.032,0.008
			c-0.026,0.003-0.045-0.013-0.065-0.025c-0.179-0.103-0.306-0.257-0.43-0.418c-0.121-0.157-0.198-0.334-0.283-0.51
			c-0.044-0.092-0.055-0.194-0.1-0.292c-0.197,0.237-0.396,0.466-0.64,0.652c0.021,0.061,0.056,0.111,0.096,0.158
			c0.15,0.175,0.34,0.295,0.548,0.39c0.132,0.06,0.269,0.108,0.403,0.16c0.037,0.014,0.073,0.03,0.109,0.044
			c0.172,0.067,0.245,0.203,0.257,0.378c0.007,0.104-0.016,0.206-0.047,0.304c-0.121,0.379-0.349,0.68-0.687,0.891
			c-0.249,0.155-0.521,0.177-0.803,0.107c-0.335-0.082-0.641-0.23-0.937-0.403c-0.055-0.032-0.109-0.067-0.17-0.091
			c-0.05,0.071-0.086,0.148-0.13,0.222c-0.09,0.152-0.189,0.297-0.309,0.43c-0.133,0.146-0.3,0.208-0.49,0.22
			c-0.303,0.019-0.598-0.024-0.886-0.118c-0.096-0.032-0.184-0.08-0.271-0.13c-0.06-0.034-0.092-0.1-0.136-0.151
			c-0.009-0.114-0.04-0.227-0.012-0.343c0.024-0.102,0.063-0.198,0.099-0.295c0.026-0.038,0.043-0.08,0.052-0.132
			c-0.186,0.034-0.367,0.063-0.55,0.075c-0.181,0.012-0.361,0.024-0.543,0.017c-0.184-0.008-0.367-0.021-0.549-0.049
			c-0.18-0.028-0.354-0.079-0.536-0.119C5.681,15.092,5.692,15.113,5.709,15.131z M5.29,14.722c0.014-0.016,0.028-0.013,0.045-0.005
			c0.028,0.013,0.054,0.034,0.087,0.033c0.025,0.021,0.057,0.029,0.086,0.04c0.346,0.133,0.706,0.207,1.075,0.233
			c0.408,0.029,0.814-0.002,1.216-0.077c0.394-0.073,0.777-0.186,1.151-0.329C8.974,14.609,9,14.606,9.016,14.585
			c0.047,0.009,0.084-0.026,0.129-0.03c0.011,0.01,0.022,0.02,0.034,0.029c0.372,0.334,0.771,0.632,1.214,0.866
			c0.222,0.117,0.45,0.219,0.696,0.276c0.28,0.065,0.537,0.017,0.764-0.163c0.102-0.081,0.194-0.17,0.269-0.28
			c0.077-0.115,0.149-0.23,0.199-0.36c0.034-0.087,0.056-0.177,0.059-0.272c0.002-0.114-0.04-0.193-0.152-0.232
			c-0.116-0.041-0.229-0.087-0.344-0.132c-0.215-0.085-0.421-0.188-0.601-0.337c-0.161-0.134-0.286-0.296-0.373-0.487
			c-0.015-0.032-0.016-0.051,0.02-0.071c0.102-0.057,0.189-0.132,0.274-0.211c0.179-0.165,0.338-0.35,0.49-0.54
			c0.033-0.042,0.07-0.082,0.097-0.131c-0.032-0.032-0.068-0.057-0.108-0.077c-0.069-0.036-0.142-0.068-0.209-0.108
			c-0.073-0.043-0.145-0.063-0.228-0.027c-0.024,0.01-0.052,0.012-0.079,0.016c-0.292,0.043-0.583,0.037-0.873-0.015
			c-0.15-0.027-0.295-0.07-0.429-0.148c-0.07-0.041-0.116-0.09-0.088-0.178c0.002-0.007,0.001-0.015,0.002-0.022
			c0.018-0.212,0.078-0.408,0.211-0.579c0.065-0.083,0.129-0.167,0.198-0.247c0.016-0.018,0.032-0.036,0.043-0.059
			c0.146-0.333,0.373-0.604,0.651-0.833c0.06-0.049,0.073-0.05,0.138-0.014c0.108,0.061,0.204,0.136,0.287,0.228
			c0.252,0.282,0.4,0.615,0.478,0.981c0.019,0.089,0.037,0.169,0.106,0.238c0.089,0.089,0.188,0.155,0.305,0.199
			c0.027,0.01,0.046,0.007,0.061-0.021c0.021-0.039,0.043-0.077,0.069-0.113c0.024-0.032,0.017-0.055-0.007-0.083
			c-0.159-0.197-0.31-0.4-0.456-0.606c-0.271-0.384-0.526-0.777-0.733-1.2c-0.084-0.172-0.161-0.348-0.209-0.534
			c0.006-0.006,0.013-0.012,0.019-0.018c0.106,0.299,0.266,0.569,0.438,0.833c0.281,0.431,0.599,0.833,0.937,1.221
			c0.103,0.118,0.198,0.244,0.312,0.353c0.198,0.186,0.416,0.345,0.646,0.488c0.446,0.278,0.92,0.495,1.42,0.655
			c0.606,0.194,1.226,0.293,1.864,0.268c0.173-0.007,0.341-0.035,0.5-0.11c0.082-0.039,0.164-0.078,0.243-0.122
			c0.016,0.002,0.028-0.006,0.042-0.013c0.091-0.048,0.095-0.054,0.031-0.131c-0.077-0.094-0.112-0.2-0.104-0.32
			c0.001-0.015,0.009-0.034-0.016-0.049c-0.1,0.062-0.215,0.087-0.333,0.096c-0.381,0.028-0.741-0.052-1.083-0.215
			c-0.39-0.186-0.703-0.462-0.952-0.812c-0.085-0.12-0.159-0.248-0.221-0.381c-0.009-0.018-0.038-0.04-0.004-0.063
			c0.01,0.017,0.02,0.034,0.03,0.051c0.237,0.396,0.543,0.727,0.94,0.968c0.356,0.216,0.739,0.342,1.161,0.317
			c0.292-0.017,0.552-0.111,0.76-0.327c0.01-0.01,0.02-0.025,0.045-0.025c-0.015,0.031-0.028,0.058-0.041,0.083
			c-0.046,0.093-0.085,0.188-0.103,0.291c-0.02,0.117-0.018,0.231,0.062,0.33c0.034,0.043,0.037,0.043,0.082,0.011
			c0.188-0.135,0.363-0.286,0.527-0.448c0.198-0.195,0.389-0.395,0.555-0.619c0.071-0.097,0.15-0.188,0.222-0.285
			c0.663-0.897,1.192-1.865,1.542-2.927c0.134-0.407,0.231-0.822,0.257-1.252c0.001-0.022,0-0.044,0-0.067
			c-0.018,0.021-0.026,0.043-0.035,0.066c-0.113,0.301-0.262,0.583-0.471,0.828c-0.07,0.083-0.146,0.16-0.247,0.207
			c-0.067,0.031-0.135,0.047-0.205,0.011c-0.503-0.258-0.871-0.64-1.072-1.174c-0.128-0.338-0.174-0.689-0.162-1.049
			c0.001-0.036,0.022-0.081-0.001-0.107c-0.025-0.027-0.073-0.021-0.111-0.028c-0.521-0.087-1.04-0.184-1.553-0.31
			c-0.859-0.211-1.689-0.501-2.476-0.909c-0.026-0.013-0.05-0.031-0.081-0.008c-0.017,0.012-0.04,0.005-0.038-0.015
			c0.004-0.048-0.031-0.056-0.06-0.072c-0.212-0.115-0.42-0.235-0.619-0.371c-0.112-0.077-0.235-0.125-0.364-0.153
			c-0.11-0.023-0.221-0.028-0.334,0.005c-0.144,0.042-0.285,0.094-0.435,0.108c-0.016,0.001-0.028,0.008-0.038,0.02
			c-0.017,0.019-0.039,0.029-0.061,0.041c-0.209,0.113-0.418,0.229-0.628,0.339c-0.139,0.073-0.274,0.154-0.421,0.21
			c-0.084,0.032-0.146,0.086-0.195,0.16c-0.048,0.074-0.095,0.149-0.133,0.229c-0.107,0.23-0.177,0.474-0.254,0.714
			c-0.154,0.484-0.357,0.945-0.625,1.378C9.807,7.65,9.468,8.029,9.046,8.335C8.641,8.631,8.198,8.858,7.732,9.04
			c-0.02,0.007-0.042,0.01-0.056,0.029c0.083,0.24,0.039,0.42-0.117,0.587c-0.191,0.206-0.398,0.394-0.609,0.578
			c-0.087,0.076-0.188,0.134-0.294,0.18c-0.3,0.129-0.611,0.156-0.931,0.095c-0.208-0.04-0.401-0.114-0.571-0.242
			c-0.127-0.095-0.217-0.219-0.275-0.367c-0.04-0.102-0.035-0.196,0.039-0.282c0.002-0.003,0-0.009,0-0.013
			C4.916,9.603,4.914,9.601,4.912,9.601C4.649,9.603,4.387,9.6,4.125,9.57C4.087,9.565,4.072,9.579,4.066,9.615
			C4.055,9.678,4.047,9.742,4.013,9.798c-0.096,0.156-0.211,0.296-0.366,0.398c-0.116,0.076-0.242,0.118-0.381,0.116
			c-0.077-0.001-0.15-0.02-0.219-0.042c-0.017,0.012-0.018,0.027-0.021,0.042c-0.027,0.14-0.058,0.279-0.082,0.419
			c-0.056,0.327-0.104,0.654-0.086,0.988c0.009,0.175,0.036,0.347,0.085,0.515c0.07,0.236,0.176,0.458,0.292,0.675
			c0.031,0.06,0.038,0.046-0.011,0.107c-0.055,0.069-0.127,0.115-0.202,0.158c-0.041,0.023-0.078,0.051-0.099,0.096
			c-0.021,0.045-0.023,0.083,0.013,0.127c0.19,0.237,0.337,0.501,0.465,0.775c0.272,0.582,0.45,1.193,0.567,1.823
			c0.013,0.073,0.048,0.114,0.111,0.141c0.082,0.036,0.168,0.05,0.257,0.055c0.161,0.009,0.318-0.015,0.476-0.045
			c0.235-0.044,0.463-0.108,0.678-0.218c0.053-0.027,0.103-0.058,0.146-0.098c0.041-0.038,0.06-0.081,0.051-0.144
			c-0.024-0.16-0.077-0.31-0.152-0.452c-0.062-0.117-0.129-0.231-0.192-0.348C5.312,14.837,5.285,14.784,5.29,14.722z
			 M13.031,12.124c0.001-0.004,0.002-0.009,0.003-0.013c-0.09-0.071-0.181-0.141-0.271-0.212c-0.018-0.014-0.036-0.012-0.056-0.009
			c-0.097,0.016-0.194,0.03-0.289,0.059c-0.055,0.016-0.105,0.035-0.157-0.007c-0.01-0.008-0.028-0.007-0.042-0.012
			c-0.151-0.047-0.285-0.12-0.382-0.249c-0.01-0.014-0.021-0.03-0.039-0.033c-0.035-0.005-0.042-0.026-0.042-0.057
			c0-0.022-0.004-0.044-0.007-0.065c-0.042-0.268-0.136-0.518-0.271-0.751c-0.117-0.203-0.265-0.377-0.469-0.499
			c-0.036-0.021-0.061-0.025-0.097,0.005c-0.251,0.208-0.458,0.451-0.602,0.745c-0.035,0.072-0.078,0.135-0.129,0.194
			c-0.035,0.041-0.069,0.083-0.103,0.125c-0.106,0.137-0.197,0.282-0.224,0.458c-0.009,0.063-0.011,0.128-0.025,0.189
			c-0.012,0.051,0.009,0.078,0.046,0.103c0.085,0.057,0.18,0.091,0.277,0.118c0.13,0.036,0.264,0.055,0.399,0.066
			c0.261,0.022,0.52,0.01,0.775-0.053c0.042-0.01,0.079-0.028,0.105,0.023c0.003,0.007,0.017,0.008,0.026,0.013
			c0.086,0.043,0.171,0.086,0.257,0.129c0.086,0.043,0.146,0.121,0.228,0.17c0.019,0.011,0.013,0.03,0.013,0.046
			c0.001,0.066,0.013,0.132,0.028,0.196c0.072,0.307,0.219,0.577,0.411,0.824c0.075,0.097,0.159,0.187,0.265,0.253
			c0.058,0.037,0.111,0.043,0.17,0.001c0.279-0.194,0.49-0.444,0.618-0.761c0.021-0.051,0.046-0.097,0.082-0.139
			c0.049-0.058,0.098-0.116,0.145-0.176c0.048-0.062,0.086-0.131,0.121-0.202c0.016-0.032,0.009-0.05-0.022-0.063
			c-0.012-0.005-0.022-0.011-0.033-0.017c-0.209-0.108-0.419-0.215-0.613-0.351c-0.035-0.024-0.076-0.036-0.118-0.038
			c-0.187-0.006-0.373-0.014-0.56,0.009c-0.074,0.009-0.148,0.016-0.222,0.024c0.013-0.089,0.074-0.109,0.148-0.112
			c0.012,0,0.024-0.001,0.037-0.002c0.143-0.005,0.284,0.009,0.425,0.035C12.902,12.1,12.966,12.112,13.031,12.124z M2.345,8.1
			c0.001,0.035,0.004,0.069,0.004,0.103c0.004,0.341,0.05,0.676,0.145,1.003c0.102,0.351,0.259,0.673,0.494,0.955
			c0.026,0.032,0.056,0.054,0.094,0.066c0.157,0.053,0.31,0.044,0.458-0.029c0.151-0.075,0.263-0.194,0.364-0.327
			c0.058-0.077,0.089-0.163,0.104-0.256c0.006-0.036,0-0.065-0.026-0.094c-0.037-0.039-0.07-0.082-0.103-0.125
			c-0.268-0.348-0.442-0.74-0.561-1.16C3.195,7.804,3.14,7.361,3.098,6.915c-0.016-0.164-0.029-0.328-0.06-0.49
			C3.025,6.358,3.012,6.29,2.976,6.23C2.935,6.165,2.871,6.156,2.813,6.206C2.784,6.232,2.762,6.265,2.74,6.298
			c-0.093,0.146-0.151,0.31-0.202,0.473C2.403,7.203,2.351,7.648,2.345,8.1z M3.105,12.847c-0.038,0.023-0.056,0.06-0.082,0.088
			c-0.223,0.242-0.476,0.446-0.761,0.611c-0.149,0.086-0.299,0.169-0.442,0.264c-0.083,0.055-0.122,0.131-0.128,0.228
			c-0.005,0.087,0.006,0.171,0.032,0.254C1.809,14.57,1.967,14.8,2.19,14.984c0.22,0.183,0.467,0.239,0.743,0.14
			c0.214-0.077,0.409-0.189,0.592-0.324c0.032-0.023,0.036-0.046,0.021-0.082c-0.042-0.102-0.079-0.206-0.123-0.308
			c-0.151-0.353-0.325-0.693-0.567-0.995c-0.024-0.03-0.032-0.062-0.025-0.102c0.017-0.092,0.067-0.156,0.146-0.201
			c0.039-0.021,0.079-0.041,0.111-0.072c0.1-0.097,0.099-0.062,0.027-0.19C3.115,12.851,3.112,12.851,3.105,12.847z M6.076,10.487
			c0.062,0.004,0.159-0.013,0.256-0.03c0.225-0.04,0.429-0.129,0.601-0.277c0.191-0.165,0.377-0.337,0.553-0.52
			c0.044-0.046,0.084-0.096,0.118-0.15C7.679,9.39,7.676,9.26,7.639,9.128C7.625,9.082,7.616,9.08,7.569,9.095
			C7.455,9.132,7.342,9.173,7.227,9.209C6.95,9.295,6.67,9.365,6.386,9.422C6.125,9.475,5.861,9.517,5.595,9.543
			C5.435,9.559,5.274,9.58,5.112,9.584C4.976,9.588,4.883,9.709,4.916,9.842c0.007,0.026,0.018,0.051,0.028,0.076
			c0.086,0.2,0.24,0.332,0.433,0.422C5.586,10.439,5.808,10.485,6.076,10.487z M8.848,16.092c0.054,0,0.108,0.002,0.162,0
			c0.133-0.005,0.248-0.05,0.34-0.151c0.044-0.049,0.088-0.098,0.128-0.151c0.12-0.157,0.209-0.332,0.3-0.506
			c0.054-0.104,0.053-0.087-0.042-0.155c-0.191-0.138-0.377-0.283-0.55-0.442c-0.044-0.041-0.081-0.05-0.137-0.028
			c-0.262,0.104-0.53,0.192-0.804,0.261c-0.032,0.008-0.05,0.026-0.067,0.052c-0.076,0.121-0.143,0.246-0.2,0.377
			c-0.042,0.097-0.072,0.198-0.087,0.303c-0.018,0.127,0.013,0.197,0.124,0.264c0.027,0.016,0.056,0.031,0.085,0.043
			C8.339,16.058,8.59,16.094,8.848,16.092z M20.181,6.608c-0.042,0-0.083,0-0.125,0c-0.012,0-0.026-0.001-0.033,0.011
			c-0.009,0.016,0.004,0.027,0.014,0.038c0.045,0.049,0.104,0.071,0.167,0.086c0.066,0.016,0.165-0.028,0.195-0.086
			c0.013-0.024,0.001-0.039-0.021-0.044c-0.019-0.004-0.039-0.004-0.058-0.001C20.274,6.617,20.228,6.615,20.181,6.608z
			 M20.151,6.855c0.008,0.033,0.028,0.043,0.045,0.056c0.051,0.037,0.064,0.032,0.09-0.039C20.242,6.875,20.201,6.859,20.151,6.855z
			"/>
		<path fill-rule="evenodd" clip-rule="evenodd" fill="#8D7961" d="M12.685,14.084c0.008-0.014,0.019-0.011,0.032-0.008
			c0.066,0.017,0.126-0.002,0.182-0.038c0.312-0.201,0.54-0.476,0.688-0.814c0.039-0.088,0.095-0.16,0.154-0.231
			c0.05-0.061,0.096-0.124,0.14-0.189c0.035-0.054,0.036-0.054,0.093-0.03c0.154,0.064,0.308,0.127,0.466,0.183
			c0.287,0.102,0.58,0.181,0.878,0.243c0.18,0.038,0.362,0.065,0.544,0.085c0.257,0.027,0.515,0.024,0.773,0.016
			c0.296-0.01,0.556-0.13,0.805-0.278c0.241-0.144,0.46-0.316,0.669-0.504c0.302-0.272,0.569-0.575,0.82-0.894
			c0.387-0.491,0.722-1.016,1.018-1.566c0.208-0.387,0.39-0.787,0.548-1.198c0.005-0.014,0.008-0.028,0.021-0.037
			c0.016,0.001,0.022,0.007,0.015,0.023c-0.065,0.164-0.127,0.329-0.196,0.49c-0.066,0.153-0.132,0.305-0.209,0.453
			c-0.049,0.093-0.091,0.19-0.141,0.283c-0.079,0.143-0.164,0.283-0.244,0.426c-0.067,0.119-0.139,0.235-0.21,0.352
			c-0.084,0.138-0.182,0.267-0.273,0.4c-0.134,0.194-0.275,0.381-0.424,0.564c-0.088,0.108-0.179,0.214-0.271,0.32
			c-0.165,0.192-0.346,0.368-0.535,0.537c-0.117,0.104-0.241,0.201-0.369,0.291c-0.224,0.157-0.46,0.29-0.726,0.361
			c-0.097,0.026-0.197,0.039-0.298,0.039c-0.091,0-0.182,0-0.273,0.001c-0.213,0.003-0.425-0.014-0.637-0.042
			c-0.172-0.023-0.343-0.052-0.512-0.093c-0.205-0.05-0.408-0.104-0.607-0.173c-0.183-0.063-0.363-0.133-0.542-0.206
			c-0.084-0.034-0.119-0.033-0.175,0.039c-0.108,0.139-0.232,0.267-0.307,0.429c-0.072,0.157-0.158,0.306-0.271,0.436
			c-0.121,0.137-0.241,0.281-0.415,0.358C12.824,14.14,12.75,14.142,12.685,14.084z"/>
		<path fill-rule="evenodd" clip-rule="evenodd" fill="#8D7961" d="M5.709,15.131c-0.017-0.018-0.028-0.039-0.031-0.077
			c0.182,0.04,0.356,0.091,0.536,0.119c0.182,0.028,0.365,0.042,0.549,0.049c0.182,0.008,0.362-0.004,0.543-0.017
			c0.183-0.012,0.364-0.042,0.55-0.075c-0.009,0.053-0.026,0.094-0.052,0.132c-0.002-0.042-0.034-0.036-0.059-0.032
			c-0.077,0.012-0.155,0.019-0.232,0.032c-0.072,0.013-0.146,0.016-0.218,0.021c-0.139,0.009-0.278,0.027-0.417,0.018
			c-0.268-0.018-0.535-0.035-0.798-0.092c-0.105-0.023-0.207-0.057-0.312-0.078C5.747,15.128,5.729,15.126,5.709,15.131z"/>
		<path fill-rule="evenodd" clip-rule="evenodd" fill="#8D7961" d="M8.141,5.724C8.188,5.71,8.233,5.733,8.278,5.738
			c0.132,0.017,0.263,0.013,0.396,0.001C8.801,5.728,8.926,5.706,9.05,5.681c0.211-0.043,0.418-0.102,0.624-0.167
			c0.334-0.106,0.661-0.231,0.982-0.371c0.022-0.009,0.045-0.016,0.074-0.027c-0.004,0.033-0.008,0.058-0.028,0.079
			c-0.122,0.049-0.244,0.098-0.366,0.148c-0.14,0.058-0.283,0.11-0.426,0.159C9.611,5.604,9.308,5.698,8.994,5.755
			C8.805,5.789,8.616,5.8,8.425,5.798c-0.082,0-0.159-0.021-0.239-0.035C8.167,5.76,8.141,5.754,8.141,5.724z"/>
		<path fill-rule="evenodd" clip-rule="evenodd" fill="#8D7961" d="M2.228,15.251c0.077,0.025,0.147,0.064,0.226,0.086
			c0.177,0.048,0.349,0.034,0.521-0.021c0.163-0.051,0.313-0.128,0.457-0.219c0.021-0.013,0.042-0.027,0.062-0.041
			c0.024-0.017,0.04-0.01,0.05,0.018c0.008,0.021,0.018,0.04,0.015,0.063c-0.037-0.002-0.064,0.018-0.094,0.037
			c-0.173,0.113-0.357,0.203-0.561,0.248c-0.239,0.053-0.455-0.004-0.655-0.135C2.235,15.279,2.229,15.267,2.228,15.251z"/>
		<path fill-rule="evenodd" clip-rule="evenodd" fill="#8D7961" d="M11.549,3.849c-0.045,0-0.091,0.01-0.134-0.013
			C11.46,3.834,11.505,3.83,11.549,3.849z"/>
		<path fill-rule="evenodd" clip-rule="evenodd" fill="#8D7961" d="M11.668,3.862c-0.036,0.002-0.073,0.011-0.106-0.012
			C11.598,3.85,11.635,3.844,11.668,3.862z"/>
		<path fill-rule="evenodd" clip-rule="evenodd" fill="#8D7961" d="M12.508,3.91c-0.014,0.016-0.03,0.016-0.048,0.01
			C12.474,3.909,12.491,3.907,12.508,3.91z"/>
		<path fill-rule="evenodd" clip-rule="evenodd" fill="#8D7961" d="M8.114,5.723c0.008-0.016,0.017-0.018,0.025,0
			C8.13,5.729,8.122,5.728,8.114,5.723z"/>
		<path fill-rule="evenodd" clip-rule="evenodd" fill="#FFFFFF" d="M17.302,12.876c-0.079,0.044-0.161,0.083-0.243,0.122
			c-0.159,0.075-0.326,0.103-0.5,0.11c-0.638,0.026-1.258-0.074-1.864-0.268c-0.5-0.16-0.975-0.376-1.42-0.655
			c-0.229-0.144-0.448-0.302-0.646-0.488c-0.115-0.108-0.209-0.234-0.312-0.353c-0.338-0.387-0.656-0.79-0.937-1.221
			c-0.172-0.264-0.332-0.534-0.438-0.833c-0.008-0.033-0.015-0.066-0.026-0.098c-0.011-0.032-0.008-0.071-0.043-0.111
			c0.011,0.087,0.019,0.159,0.05,0.226c0.048,0.186,0.125,0.362,0.209,0.534c0.207,0.423,0.462,0.816,0.733,1.2
			c0.146,0.207,0.297,0.41,0.456,0.606c0.023,0.029,0.031,0.051,0.007,0.083c-0.026,0.036-0.048,0.074-0.069,0.113
			c-0.015,0.027-0.034,0.031-0.061,0.021c-0.117-0.044-0.216-0.11-0.305-0.199c-0.069-0.069-0.087-0.149-0.106-0.238
			c-0.078-0.366-0.226-0.7-0.478-0.981c-0.083-0.092-0.179-0.167-0.287-0.228c-0.065-0.037-0.078-0.036-0.138,0.014
			c-0.279,0.229-0.505,0.5-0.651,0.833c-0.011,0.023-0.027,0.041-0.043,0.059c-0.069,0.08-0.133,0.164-0.198,0.247
			c-0.133,0.171-0.193,0.367-0.211,0.579c-0.001,0.007,0,0.015-0.002,0.022c-0.028,0.088,0.018,0.137,0.088,0.178
			c0.133,0.079,0.279,0.122,0.429,0.148c0.29,0.052,0.581,0.058,0.873,0.015c0.027-0.004,0.055-0.005,0.079-0.016
			c0.083-0.036,0.154-0.017,0.228,0.027c0.067,0.04,0.14,0.072,0.209,0.108c0.04,0.02,0.076,0.045,0.108,0.077
			c-0.027,0.05-0.063,0.089-0.097,0.131c-0.152,0.19-0.311,0.375-0.49,0.54c-0.085,0.079-0.172,0.154-0.274,0.211
			c-0.036,0.02-0.035,0.039-0.02,0.071c0.087,0.191,0.212,0.353,0.373,0.487c0.18,0.149,0.386,0.252,0.601,0.337
			c0.114,0.045,0.228,0.092,0.344,0.132c0.112,0.04,0.154,0.119,0.152,0.232c-0.002,0.095-0.025,0.185-0.059,0.272
			c-0.05,0.129-0.122,0.245-0.199,0.36c-0.074,0.11-0.167,0.199-0.269,0.28c-0.228,0.18-0.484,0.229-0.764,0.163
			c-0.246-0.057-0.474-0.159-0.696-0.276c-0.443-0.234-0.842-0.532-1.214-0.866c-0.011-0.01-0.022-0.02-0.034-0.029
			c-0.004-0.008-0.006-0.019-0.013-0.025c-0.131-0.128-0.237-0.274-0.302-0.447c-0.004-0.011-0.002-0.03-0.027-0.03
			c0.001,0.013,0,0.025,0.003,0.037c0.028,0.114,0.061,0.228,0.111,0.334c0.027,0.057,0.048,0.119,0.099,0.162
			C9,14.606,8.974,14.609,8.952,14.617C8.578,14.76,8.194,14.873,7.8,14.946c-0.402,0.074-0.808,0.105-1.216,0.077
			c-0.369-0.026-0.729-0.1-1.075-0.233c-0.029-0.011-0.061-0.02-0.086-0.04c0.009-0.024-0.012-0.035-0.022-0.051
			c-0.085-0.127-0.084-0.259,0.004-0.384c0.04-0.057,0.093-0.101,0.145-0.146c0.134-0.115,0.268-0.231,0.388-0.361
			c0.272-0.296,0.459-0.636,0.542-1.031c0.005-0.025,0.012-0.049,0.005-0.079c-0.005,0.008-0.008,0.012-0.009,0.016
			c-0.005,0.017-0.01,0.033-0.014,0.05c-0.08,0.285-0.21,0.544-0.399,0.773c-0.157,0.191-0.343,0.351-0.539,0.5
			c-0.07,0.054-0.143,0.105-0.206,0.167c-0.13,0.127-0.16,0.297-0.082,0.46c0.012,0.025,0.026,0.047,0.054,0.058
			c-0.005,0.062,0.022,0.115,0.051,0.167c0.063,0.116,0.131,0.23,0.192,0.348c0.075,0.142,0.128,0.292,0.152,0.452
			c0.009,0.062-0.01,0.105-0.051,0.144c-0.043,0.041-0.094,0.071-0.146,0.098c-0.214,0.11-0.443,0.173-0.678,0.218
			c-0.157,0.03-0.314,0.054-0.476,0.045c-0.089-0.005-0.175-0.019-0.257-0.055c-0.063-0.027-0.098-0.068-0.111-0.141
			c-0.117-0.63-0.295-1.241-0.567-1.823c-0.128-0.274-0.274-0.539-0.465-0.775c-0.036-0.045-0.033-0.083-0.013-0.127
			c0.021-0.045,0.058-0.072,0.099-0.096c0.075-0.043,0.147-0.089,0.202-0.158c0.049-0.062,0.042-0.048,0.011-0.107
			c-0.115-0.217-0.221-0.438-0.292-0.675c-0.05-0.168-0.077-0.34-0.085-0.515c-0.017-0.334,0.031-0.662,0.086-0.988
			c0.024-0.141,0.055-0.28,0.082-0.419c0.003-0.014,0.003-0.029,0.021-0.042c0.069,0.022,0.142,0.041,0.219,0.042
			c0.14,0.001,0.266-0.04,0.381-0.116c0.155-0.103,0.27-0.242,0.366-0.398c0.034-0.056,0.042-0.12,0.053-0.183
			c0.006-0.036,0.021-0.05,0.059-0.045C4.387,9.6,4.649,9.603,4.912,9.601c0.002,0,0.004,0.002,0.006,0.003
			c0,0.004,0.002,0.01,0,0.013c-0.074,0.086-0.079,0.18-0.039,0.282c0.058,0.148,0.148,0.271,0.275,0.367
			c0.17,0.128,0.364,0.203,0.571,0.242c0.319,0.062,0.63,0.034,0.931-0.095c0.106-0.046,0.207-0.104,0.294-0.18
			c0.211-0.184,0.418-0.372,0.609-0.578c0.155-0.167,0.2-0.347,0.117-0.587C7.689,9.05,7.712,9.047,7.732,9.04
			c0.466-0.182,0.909-0.409,1.314-0.705c0.421-0.306,0.76-0.686,1.035-1.128c0.268-0.433,0.471-0.894,0.625-1.378
			c0.077-0.241,0.146-0.484,0.254-0.714c0.038-0.081,0.084-0.155,0.133-0.229c0.049-0.074,0.111-0.128,0.195-0.16
			c0.147-0.056,0.282-0.137,0.421-0.21c0.21-0.11,0.419-0.226,0.628-0.339c0.021-0.012,0.044-0.022,0.061-0.041
			c0.01-0.012,0.022-0.019,0.038-0.02c0.15-0.014,0.292-0.067,0.435-0.108c0.113-0.033,0.225-0.028,0.334-0.005
			c0.129,0.028,0.252,0.076,0.364,0.153c0.199,0.136,0.407,0.256,0.619,0.371c0.029,0.016,0.064,0.024,0.06,0.072
			c-0.002,0.021,0.021,0.027,0.038,0.015c0.031-0.023,0.055-0.005,0.081,0.008c0.787,0.408,1.617,0.698,2.476,0.909
			c0.513,0.126,1.032,0.223,1.553,0.31c0.038,0.006,0.086,0,0.111,0.028c0.023,0.026,0.003,0.071,0.001,0.107
			c-0.012,0.36,0.034,0.711,0.162,1.049c0.201,0.534,0.569,0.916,1.072,1.174c0.07,0.036,0.138,0.02,0.205-0.011
			c0.101-0.046,0.177-0.124,0.247-0.207c0.209-0.246,0.358-0.527,0.471-0.828c0.008-0.022,0.017-0.044,0.035-0.066
			c0,0.022,0.001,0.044,0,0.067c-0.026,0.43-0.123,0.845-0.257,1.252c-0.35,1.062-0.879,2.03-1.542,2.927
			c-0.072,0.097-0.151,0.188-0.222,0.285c-0.166,0.224-0.357,0.424-0.555,0.619c-0.165,0.163-0.339,0.313-0.527,0.448
			c-0.044,0.032-0.047,0.032-0.082-0.011c-0.079-0.099-0.082-0.213-0.062-0.33c0.018-0.103,0.057-0.198,0.103-0.291
			c0.013-0.025,0.025-0.052,0.041-0.083c-0.026,0-0.035,0.015-0.045,0.025c-0.208,0.215-0.468,0.31-0.76,0.327
			c-0.422,0.025-0.805-0.101-1.161-0.317c-0.397-0.241-0.703-0.571-0.94-0.968c-0.01-0.017-0.021-0.034-0.03-0.051
			c0-0.016-0.01-0.027-0.017-0.04c-0.042-0.08-0.09-0.158-0.127-0.241c-0.111-0.247-0.193-0.504-0.245-0.771
			c-0.004-0.021-0.009-0.042-0.014-0.063c0,0.152,0.021,0.3,0.049,0.448c0.072,0.384,0.195,0.751,0.399,1.087
			c0.342,0.564,0.827,0.945,1.467,1.12c0.215,0.059,0.435,0.079,0.657,0.064c0.106-0.007,0.208-0.031,0.306-0.075
			c0.015-0.007,0.027-0.023,0.051-0.012c0,0.039-0.002,0.081,0.001,0.122C17.197,12.722,17.242,12.802,17.302,12.876z M14.225,5.225
			C13.915,5,13.566,4.908,13.193,4.846c0.048-0.015,0.084-0.019,0.121-0.02c0.11-0.004,0.221-0.01,0.331-0.016
			c0.028-0.002,0.06,0.003,0.084-0.025c-0.04-0.05-0.096-0.075-0.153-0.093c-0.159-0.052-0.321-0.069-0.487-0.045
			c-0.095,0.014-0.179,0.052-0.238,0.132c-0.021,0.028-0.043,0.039-0.079,0.041c-0.167,0.007-0.331,0.039-0.489,0.099
			c-0.272,0.103-0.509,0.264-0.733,0.445c-0.047,0.039-0.09,0.083-0.127,0.133c-0.134,0.182-0.16,0.386-0.119,0.603
			c0.036,0.192,0.104,0.374,0.173,0.555c0.1,0.265,0.191,0.531,0.239,0.811c0.031,0.185,0.091,0.361,0.186,0.525
			c0.139,0.242,0.344,0.413,0.588,0.541c0.291,0.152,0.6,0.257,0.915,0.343c0.223,0.061,0.439,0.034,0.641-0.082
			c0.125-0.072,0.228-0.17,0.32-0.28c0.146-0.176,0.263-0.373,0.384-0.567c0.096-0.154,0.196-0.305,0.32-0.44
			c0.107-0.117,0.159-0.257,0.157-0.417c-0.001-0.154-0.051-0.294-0.115-0.431c-0.081-0.172-0.184-0.33-0.282-0.492
			c-0.066-0.109-0.133-0.218-0.177-0.339c-0.04-0.111-0.084-0.22-0.15-0.318c-0.001-0.003,0.001-0.009,0.002-0.014
			c0.167-0.024,0.26-0.097,0.291-0.226c0.025-0.107-0.01-0.213-0.086-0.265c-0.033,0.079-0.082,0.111-0.143,0.093
			C14.5,5.077,14.481,5.024,14.5,4.921C14.342,4.924,14.243,5.03,14.225,5.225z M7.293,10.502c-0.049,0.005-0.094,0.007-0.137,0.014
			c-0.132,0.02-0.258,0.06-0.371,0.133c-0.062,0.04-0.11,0.09-0.132,0.162c-0.055,0.179,0.034,0.424,0.181,0.498
			c0.03,0.015,0.057,0.039,0.083,0.06c0.147,0.115,0.288,0.238,0.44,0.345c0.093,0.065,0.186,0.128,0.296,0.161
			c0.067,0.021,0.13,0.018,0.188-0.027c0.043-0.033,0.088-0.062,0.132-0.093s0.07-0.074,0.09-0.123
			c0.025-0.062,0.027-0.125,0.018-0.188c-0.018-0.128-0.016-0.254,0.014-0.38c0.022-0.092-0.001-0.176-0.063-0.247
			c-0.029-0.033-0.061-0.065-0.098-0.089C7.739,10.597,7.519,10.533,7.293,10.502z M15.44,10.077
			c0.172-0.002,0.505-0.071,0.667-0.14c0.061-0.026,0.118-0.06,0.161-0.113c0.053-0.066,0.069-0.14,0.04-0.221
			c-0.026-0.073-0.069-0.135-0.132-0.182c-0.169-0.124-0.355-0.209-0.562-0.245c-0.153-0.026-0.3-0.008-0.417,0.108
			c-0.114,0.112-0.185,0.246-0.205,0.406c-0.021,0.156,0.062,0.294,0.21,0.349C15.279,10.068,15.359,10.076,15.44,10.077z
			 M4.77,10.802c-0.04,0.002-0.079,0.002-0.118,0.006c-0.115,0.012-0.194,0.077-0.245,0.177c-0.021,0.042-0.035,0.087-0.04,0.134
			c-0.01,0.087-0.02,0.176-0.025,0.264c-0.005,0.087,0.024,0.164,0.086,0.227c0.042,0.042,0.088,0.078,0.139,0.109
			c0.08,0.049,0.16,0.096,0.238,0.147c0.138,0.092,0.276,0.088,0.416,0.006c0.09-0.053,0.165-0.125,0.229-0.207
			c0.044-0.056,0.059-0.123,0.043-0.194c-0.016-0.073-0.049-0.139-0.084-0.204c-0.028-0.052-0.061-0.104-0.069-0.162
			c-0.018-0.123-0.099-0.188-0.203-0.231C5.019,10.828,4.897,10.802,4.77,10.802z M16.017,11.14c0.144-0.004,0.27-0.041,0.383-0.114
			c0.17-0.108,0.22-0.295,0.129-0.475c-0.101-0.199-0.34-0.278-0.556-0.183c-0.165,0.072-0.249,0.207-0.287,0.376
			c-0.043,0.195,0.055,0.348,0.251,0.386C15.966,11.137,15.995,11.137,16.017,11.14z M17.379,10.23
			c0.027-0.001,0.054-0.002,0.081-0.005c0.23-0.025,0.323-0.137,0.311-0.369c-0.005-0.107-0.058-0.18-0.146-0.231
			c-0.072-0.042-0.151-0.061-0.234-0.042c-0.177,0.041-0.293,0.156-0.357,0.32c-0.044,0.114,0.001,0.214,0.11,0.272
			C17.218,10.214,17.296,10.234,17.379,10.23z M17.375,10.781c-0.077-0.001-0.14,0.062-0.14,0.14c0,0.08,0.059,0.141,0.138,0.141
			c0.078,0.001,0.14-0.061,0.141-0.139C17.515,10.845,17.453,10.782,17.375,10.781z M17.175,11.411
			c-0.058,0.001-0.101,0.046-0.099,0.105c0.002,0.058,0.048,0.1,0.107,0.097c0.053-0.002,0.096-0.047,0.096-0.101
			C17.278,11.454,17.233,11.41,17.175,11.411z M17.705,11.277c-0.043,0.001-0.079,0.042-0.075,0.083
			c0.003,0.04,0.04,0.073,0.08,0.073c0.044,0,0.08-0.037,0.079-0.08C17.787,11.309,17.75,11.275,17.705,11.277z"/>
		<path fill-rule="evenodd" clip-rule="evenodd" fill="#F28A19" d="M13.031,12.124c-0.064-0.012-0.129-0.023-0.193-0.035
			c-0.141-0.025-0.282-0.04-0.425-0.035c-0.013,0-0.025,0.001-0.037,0.002c-0.074,0.003-0.135,0.023-0.148,0.112
			c0.074-0.008,0.148-0.015,0.222-0.024c0.187-0.023,0.373-0.016,0.56-0.009c0.042,0.001,0.083,0.013,0.118,0.038
			c0.194,0.135,0.404,0.243,0.613,0.351c0.011,0.006,0.021,0.012,0.033,0.017c0.031,0.013,0.038,0.032,0.022,0.063
			c-0.035,0.071-0.073,0.14-0.121,0.202c-0.047,0.06-0.096,0.118-0.145,0.176c-0.035,0.042-0.061,0.088-0.082,0.139
			c-0.128,0.316-0.338,0.566-0.618,0.761c-0.06,0.042-0.112,0.035-0.17-0.001c-0.106-0.066-0.19-0.156-0.265-0.253
			c-0.192-0.247-0.339-0.517-0.411-0.824c-0.015-0.064-0.026-0.13-0.028-0.196c0-0.016,0.006-0.035-0.013-0.046
			c-0.082-0.049-0.142-0.126-0.228-0.17c-0.085-0.043-0.171-0.086-0.257-0.129c-0.009-0.004-0.022-0.006-0.026-0.013
			c-0.026-0.051-0.064-0.033-0.105-0.023c-0.255,0.062-0.514,0.075-0.775,0.053c-0.135-0.011-0.269-0.03-0.399-0.066
			c-0.097-0.027-0.192-0.061-0.277-0.118c-0.038-0.025-0.059-0.051-0.046-0.103c0.014-0.062,0.016-0.126,0.025-0.189
			c0.027-0.176,0.118-0.321,0.224-0.458c0.033-0.042,0.067-0.084,0.103-0.125c0.051-0.06,0.094-0.123,0.129-0.194
			c0.144-0.294,0.351-0.537,0.602-0.745c0.036-0.03,0.062-0.026,0.097-0.005c0.205,0.122,0.353,0.296,0.469,0.499
			c0.135,0.234,0.229,0.483,0.271,0.751c0.003,0.021,0.007,0.043,0.007,0.065c0,0.031,0.006,0.052,0.042,0.057
			c0.018,0.002,0.028,0.019,0.039,0.033c0.098,0.129,0.231,0.202,0.382,0.249c0.014,0.004,0.032,0.003,0.042,0.012
			c0.051,0.042,0.102,0.023,0.157,0.007c0.094-0.028,0.191-0.043,0.289-0.059c0.02-0.003,0.039-0.004,0.056,0.009
			c0.09,0.071,0.181,0.142,0.271,0.212C13.033,12.115,13.032,12.119,13.031,12.124z M11.464,12.068
			c-0.352,0.037-0.702,0.05-1.053-0.008c0.004,0.024,0.018,0.024,0.029,0.028c0.142,0.051,0.289,0.078,0.438,0.086
			c0.164,0.009,0.328,0.009,0.492-0.013C11.436,12.153,11.44,12.151,11.464,12.068z M12.454,13.336
			c-0.186-0.275-0.292-0.585-0.396-0.897c-0.053,0.035-0.056,0.076-0.04,0.126c0.062,0.2,0.139,0.393,0.256,0.568
			C12.325,13.208,12.378,13.281,12.454,13.336z M11.628,11.802c0.074-0.069,0.074-0.069,0.041-0.153
			c-0.055-0.141-0.142-0.262-0.229-0.383c-0.049-0.069-0.099-0.138-0.165-0.194C11.415,11.305,11.532,11.547,11.628,11.802z"/>
		<path fill-rule="evenodd" clip-rule="evenodd" fill="#FFFFFF" d="M2.345,8.1c0.005-0.452,0.058-0.897,0.193-1.329
			C2.589,6.607,2.647,6.444,2.74,6.298c0.021-0.033,0.043-0.066,0.073-0.092c0.058-0.05,0.122-0.041,0.162,0.024
			c0.037,0.06,0.05,0.128,0.062,0.195c0.031,0.162,0.044,0.326,0.06,0.49c0.042,0.446,0.098,0.889,0.22,1.321
			c0.119,0.42,0.293,0.812,0.561,1.16c0.033,0.043,0.066,0.086,0.103,0.125c0.027,0.028,0.032,0.058,0.026,0.094
			C3.993,9.708,3.962,9.794,3.904,9.871c-0.101,0.132-0.213,0.251-0.364,0.327c-0.148,0.073-0.301,0.082-0.458,0.029
			c-0.038-0.013-0.068-0.035-0.094-0.066C2.753,9.878,2.596,9.556,2.494,9.206C2.399,8.878,2.353,8.543,2.349,8.203
			C2.349,8.168,2.347,8.134,2.345,8.1z"/>
		<path fill-rule="evenodd" clip-rule="evenodd" fill="#8D7961" d="M3.105,12.847c0.006,0.003,0.01,0.003,0.011,0.005
			c0.072,0.127,0.072,0.093-0.027,0.19c-0.032,0.031-0.072,0.05-0.111,0.072c-0.079,0.045-0.13,0.109-0.146,0.201
			c-0.007,0.04,0,0.072,0.025,0.102c0.242,0.301,0.417,0.642,0.567,0.995c0.043,0.102,0.08,0.206,0.123,0.308
			c0.015,0.035,0.01,0.059-0.021,0.082c-0.183,0.134-0.378,0.247-0.592,0.324c-0.275,0.099-0.522,0.042-0.743-0.14
			C1.967,14.8,1.809,14.57,1.724,14.292c-0.025-0.083-0.037-0.167-0.032-0.254c0.006-0.097,0.045-0.173,0.128-0.228
			c0.144-0.094,0.293-0.178,0.442-0.264c0.285-0.165,0.538-0.369,0.761-0.611C3.05,12.907,3.068,12.87,3.105,12.847z"/>
		<path fill-rule="evenodd" clip-rule="evenodd" fill="#8D7961" d="M6.076,10.487c-0.268-0.002-0.49-0.048-0.699-0.147
			c-0.192-0.09-0.346-0.223-0.433-0.422c-0.011-0.025-0.021-0.05-0.028-0.076c-0.033-0.133,0.06-0.254,0.196-0.258
			C5.274,9.58,5.435,9.559,5.595,9.543c0.266-0.026,0.529-0.069,0.791-0.122C6.67,9.365,6.95,9.295,7.227,9.209
			c0.115-0.036,0.228-0.077,0.342-0.114c0.047-0.015,0.057-0.013,0.07,0.034C7.676,9.26,7.679,9.39,7.603,9.511
			c-0.034,0.054-0.074,0.104-0.118,0.15c-0.175,0.183-0.361,0.354-0.553,0.52c-0.172,0.148-0.376,0.238-0.601,0.277
			C6.235,10.475,6.138,10.491,6.076,10.487z"/>
		<path fill-rule="evenodd" clip-rule="evenodd" fill="#8D7961" d="M8.848,16.092C8.59,16.094,8.339,16.058,8.1,15.959
			c-0.029-0.012-0.058-0.027-0.085-0.043c-0.11-0.066-0.142-0.136-0.124-0.264c0.015-0.105,0.045-0.206,0.087-0.303
			c0.057-0.131,0.124-0.256,0.2-0.377c0.017-0.026,0.035-0.044,0.067-0.052c0.273-0.069,0.542-0.157,0.804-0.261
			c0.056-0.022,0.092-0.013,0.137,0.028c0.173,0.159,0.359,0.305,0.55,0.442c0.094,0.068,0.095,0.05,0.042,0.155
			c-0.09,0.174-0.18,0.349-0.3,0.506c-0.04,0.053-0.084,0.102-0.128,0.151c-0.092,0.101-0.207,0.146-0.34,0.151
			C8.956,16.094,8.901,16.092,8.848,16.092z"/>
		<path fill-rule="evenodd" clip-rule="evenodd" fill="#8D7961" d="M17.302,12.876c-0.06-0.074-0.105-0.154-0.113-0.25
			c-0.003-0.041-0.001-0.083-0.001-0.122c-0.024-0.012-0.037,0.005-0.051,0.012c-0.097,0.044-0.2,0.068-0.306,0.075
			c-0.222,0.015-0.441-0.005-0.657-0.064c-0.641-0.175-1.125-0.556-1.467-1.12c-0.204-0.336-0.327-0.703-0.399-1.087
			c-0.028-0.147-0.05-0.295-0.049-0.448c0.005,0.021,0.01,0.042,0.014,0.063c0.052,0.266,0.133,0.523,0.245,0.771
			c0.037,0.083,0.085,0.161,0.127,0.241c0.006,0.013,0.017,0.024,0.017,0.04c-0.034,0.023-0.004,0.045,0.004,0.063
			c0.062,0.133,0.136,0.261,0.221,0.381c0.249,0.351,0.562,0.626,0.952,0.812c0.343,0.164,0.703,0.244,1.083,0.215
			c0.117-0.009,0.232-0.034,0.333-0.096c0.024,0.015,0.017,0.034,0.016,0.049c-0.007,0.121,0.028,0.226,0.104,0.32
			c0.063,0.077,0.06,0.083-0.031,0.131C17.33,12.87,17.317,12.878,17.302,12.876z"/>
		<path fill-rule="evenodd" clip-rule="evenodd" fill="#8D7961" d="M5.29,14.722c-0.028-0.01-0.042-0.032-0.054-0.058
			c-0.078-0.163-0.048-0.333,0.082-0.46c0.063-0.062,0.136-0.113,0.206-0.167c0.196-0.149,0.382-0.309,0.539-0.5
			c0.188-0.229,0.319-0.488,0.399-0.773c0.004-0.017,0.009-0.033,0.014-0.05c0.001-0.004,0.004-0.008,0.009-0.016
			c0.007,0.03,0,0.054-0.005,0.079c-0.083,0.395-0.27,0.735-0.542,1.031c-0.12,0.13-0.253,0.246-0.388,0.361
			c-0.052,0.045-0.105,0.089-0.145,0.146c-0.088,0.125-0.09,0.257-0.004,0.384c0.01,0.016,0.031,0.027,0.022,0.051
			c-0.033,0.001-0.059-0.02-0.087-0.033C5.318,14.709,5.304,14.706,5.29,14.722z"/>
		<path fill-rule="evenodd" clip-rule="evenodd" fill="#8D7961" d="M9.016,14.585c-0.05-0.043-0.071-0.105-0.099-0.162
			c-0.051-0.107-0.083-0.22-0.111-0.334c-0.003-0.012-0.002-0.024-0.003-0.037c0.024,0,0.023,0.02,0.027,0.03
			c0.065,0.173,0.171,0.319,0.302,0.447c0.006,0.006,0.009,0.017,0.013,0.025C9.101,14.559,9.063,14.594,9.016,14.585z"/>
		<path fill-rule="evenodd" clip-rule="evenodd" fill="#FFFFFF" d="M20.181,6.608c0.047,0.007,0.093,0.009,0.14,0.003
			c0.019-0.002,0.04-0.003,0.058,0.001c0.021,0.005,0.033,0.02,0.021,0.044c-0.031,0.059-0.129,0.103-0.195,0.086
			c-0.062-0.015-0.122-0.037-0.167-0.086c-0.009-0.01-0.023-0.021-0.014-0.038c0.007-0.012,0.021-0.011,0.033-0.011
			C20.098,6.608,20.14,6.608,20.181,6.608z"/>
		<path fill-rule="evenodd" clip-rule="evenodd" fill="#8D7961" d="M10.923,9.309c-0.031-0.067-0.039-0.139-0.05-0.226
			c0.035,0.04,0.032,0.079,0.043,0.111c0.011,0.032,0.018,0.065,0.026,0.098C10.936,9.297,10.929,9.303,10.923,9.309z"/>
		<path fill-rule="evenodd" clip-rule="evenodd" fill="#8D7961" d="M20.151,6.855c0.05,0.004,0.091,0.021,0.135,0.017
			c-0.026,0.07-0.039,0.076-0.09,0.039C20.18,6.898,20.159,6.888,20.151,6.855z"/>
		<path fill-rule="evenodd" clip-rule="evenodd" fill="#383737" d="M14.225,5.225c0.018-0.195,0.117-0.301,0.275-0.304
			c-0.019,0.103,0,0.155,0.066,0.174c0.061,0.018,0.11-0.014,0.143-0.093c0.076,0.051,0.111,0.157,0.086,0.265
			c-0.03,0.129-0.123,0.202-0.291,0.226c0,0.005-0.003,0.011-0.002,0.014c0.066,0.099,0.111,0.207,0.15,0.318
			c0.043,0.121,0.111,0.229,0.177,0.339c0.098,0.162,0.202,0.32,0.282,0.492c0.064,0.137,0.113,0.277,0.115,0.431
			c0.001,0.16-0.05,0.3-0.157,0.417c-0.124,0.135-0.224,0.286-0.32,0.44c-0.121,0.194-0.237,0.391-0.384,0.567
			c-0.092,0.11-0.194,0.208-0.32,0.28c-0.202,0.116-0.418,0.143-0.641,0.082C13.09,8.787,12.781,8.682,12.49,8.53
			c-0.244-0.127-0.449-0.298-0.588-0.541c-0.094-0.164-0.154-0.341-0.186-0.525c-0.048-0.28-0.14-0.546-0.239-0.811
			c-0.068-0.181-0.137-0.363-0.173-0.555c-0.041-0.217-0.015-0.42,0.119-0.603c0.037-0.05,0.08-0.095,0.127-0.133
			c0.224-0.182,0.461-0.343,0.733-0.445c0.158-0.06,0.321-0.091,0.489-0.099c0.036-0.002,0.059-0.013,0.079-0.041
			c0.059-0.08,0.143-0.119,0.238-0.132c0.166-0.024,0.329-0.007,0.487,0.045c0.057,0.019,0.114,0.043,0.153,0.093
			c-0.025,0.028-0.056,0.023-0.084,0.025c-0.11,0.006-0.221,0.012-0.331,0.016c-0.037,0.001-0.073,0.005-0.121,0.02
			C13.566,4.908,13.915,5,14.225,5.225z M12.77,4.904c-0.011-0.003-0.018-0.008-0.024-0.007c-0.129,0.014-0.257,0.033-0.381,0.076
			c-0.206,0.07-0.393,0.179-0.57,0.303c-0.094,0.066-0.188,0.133-0.267,0.219c-0.09,0.1-0.145,0.215-0.157,0.349
			c-0.012,0.133,0.009,0.264,0.045,0.393c0.059,0.21,0.147,0.411,0.218,0.617c0.063,0.183,0.117,0.369,0.151,0.56
			c0.024,0.143,0.065,0.282,0.123,0.416c0.121,0.278,0.327,0.475,0.589,0.616c0.293,0.158,0.607,0.265,0.927,0.352
			c0.187,0.051,0.375,0.038,0.551-0.055c0.144-0.076,0.258-0.186,0.357-0.312c0.122-0.155,0.223-0.323,0.327-0.489
			c0.103-0.164,0.204-0.33,0.338-0.472c0.043-0.046,0.08-0.099,0.106-0.158c0.062-0.14,0.056-0.281,0.014-0.424
			c-0.059-0.198-0.165-0.372-0.271-0.545c-0.117-0.19-0.234-0.38-0.307-0.594c-0.042-0.121-0.115-0.226-0.206-0.319
			c-0.168-0.173-0.371-0.288-0.596-0.369c-0.199-0.072-0.405-0.111-0.614-0.144c-0.087-0.014-0.141,0.011-0.187,0.077
			c-0.022,0.033-0.041,0.067-0.054,0.104c-0.024,0.067-0.034,0.138-0.05,0.207c-0.007,0.029-0.013,0.058-0.031,0.082
			c-0.025,0.034-0.055,0.033-0.075-0.003c-0.02-0.037-0.03-0.078-0.028-0.121c0.003-0.079,0.015-0.156,0.034-0.232
			C12.745,4.989,12.757,4.947,12.77,4.904z M14.438,5.001c-0.099,0.028-0.151,0.115-0.144,0.234c0.011-0.044,0.03-0.085,0.054-0.124
			C14.372,5.073,14.426,5.059,14.438,5.001z"/>
		<path fill-rule="evenodd" clip-rule="evenodd" fill="#383737" d="M7.293,10.502c0.226,0.031,0.446,0.095,0.642,0.225
			c0.037,0.024,0.069,0.056,0.098,0.089c0.062,0.071,0.085,0.155,0.063,0.247c-0.03,0.126-0.032,0.252-0.014,0.38
			c0.009,0.063,0.007,0.127-0.018,0.188c-0.02,0.049-0.046,0.092-0.09,0.123s-0.089,0.06-0.132,0.093
			c-0.058,0.044-0.121,0.047-0.188,0.027c-0.11-0.033-0.204-0.096-0.296-0.161c-0.152-0.107-0.293-0.23-0.44-0.345
			c-0.027-0.021-0.053-0.044-0.083-0.06c-0.147-0.074-0.236-0.319-0.181-0.498c0.022-0.072,0.071-0.122,0.132-0.162
			c0.113-0.073,0.239-0.113,0.371-0.133C7.199,10.509,7.244,10.507,7.293,10.502z M6.693,10.93c0.008,0.143,0.047,0.269,0.186,0.342
			c0.028,0.015,0.052,0.037,0.077,0.057c0.143,0.116,0.283,0.234,0.433,0.341c0.085,0.061,0.172,0.122,0.276,0.15
			c0.054,0.015,0.105,0.016,0.153-0.021c0.031-0.024,0.065-0.043,0.098-0.066c0.076-0.053,0.114-0.125,0.112-0.219
			c-0.001-0.064-0.007-0.127-0.015-0.19c-0.011-0.094,0.013-0.186,0.031-0.276c0.016-0.076-0.004-0.139-0.054-0.196
			c-0.082-0.094-0.188-0.149-0.302-0.19c-0.171-0.061-0.34-0.127-0.529-0.09c-0.119,0.023-0.232,0.057-0.337,0.12
			C6.73,10.747,6.687,10.823,6.693,10.93z"/>
		<path fill-rule="evenodd" clip-rule="evenodd" fill="#383737" d="M15.44,10.077c-0.082-0.001-0.162-0.009-0.239-0.038
			c-0.147-0.055-0.23-0.193-0.21-0.349c0.021-0.16,0.091-0.294,0.205-0.406c0.118-0.116,0.264-0.134,0.417-0.108
			c0.207,0.035,0.393,0.121,0.562,0.245c0.063,0.046,0.106,0.109,0.132,0.182c0.029,0.081,0.013,0.155-0.04,0.221
			c-0.043,0.053-0.1,0.087-0.161,0.113C15.945,10.006,15.613,10.075,15.44,10.077z M15.453,10.012c0.049,0,0.099,0.006,0.146-0.001
			c0.16-0.024,0.316-0.064,0.469-0.118c0.062-0.021,0.113-0.057,0.156-0.106c0.04-0.046,0.054-0.097,0.033-0.157
			c-0.026-0.074-0.072-0.132-0.135-0.178c-0.078-0.057-0.163-0.101-0.25-0.139c-0.131-0.057-0.267-0.095-0.413-0.084
			c-0.086,0.006-0.162,0.035-0.224,0.096c-0.097,0.095-0.157,0.21-0.185,0.344c-0.031,0.148,0.047,0.283,0.191,0.327
			C15.311,10.017,15.382,10.017,15.453,10.012z"/>
		<path fill-rule="evenodd" clip-rule="evenodd" fill="#383737" d="M4.77,10.802c0.127,0,0.249,0.025,0.366,0.073
			c0.104,0.043,0.185,0.108,0.203,0.231c0.008,0.058,0.041,0.11,0.069,0.162c0.035,0.065,0.068,0.13,0.084,0.204
			c0.016,0.072,0.001,0.138-0.043,0.194c-0.064,0.082-0.138,0.153-0.229,0.207c-0.14,0.082-0.278,0.085-0.416-0.006
			c-0.078-0.052-0.158-0.099-0.238-0.147c-0.05-0.031-0.097-0.067-0.139-0.109c-0.062-0.063-0.091-0.14-0.086-0.227
			c0.005-0.088,0.015-0.176,0.025-0.264c0.005-0.046,0.019-0.092,0.04-0.134c0.051-0.101,0.13-0.165,0.245-0.177
			C4.691,10.805,4.73,10.804,4.77,10.802z M4.395,11.374c-0.002,0.084,0.02,0.146,0.072,0.198c0.037,0.037,0.076,0.069,0.121,0.096
			c0.079,0.049,0.161,0.094,0.236,0.148c0.129,0.091,0.255,0.083,0.384,0.003c0.076-0.047,0.136-0.113,0.193-0.179
			c0.042-0.049,0.054-0.108,0.034-0.173c-0.021-0.069-0.051-0.132-0.086-0.194c-0.031-0.056-0.057-0.114-0.069-0.177
			c-0.011-0.057-0.042-0.098-0.091-0.127c-0.162-0.096-0.336-0.119-0.522-0.106c-0.134,0.01-0.223,0.129-0.241,0.232
			C4.411,11.19,4.405,11.289,4.395,11.374z"/>
		<path fill-rule="evenodd" clip-rule="evenodd" fill="#383737" d="M16.017,11.14c-0.021-0.002-0.051-0.003-0.08-0.009
			c-0.196-0.038-0.294-0.19-0.251-0.386c0.038-0.17,0.122-0.304,0.287-0.376c0.216-0.095,0.456-0.017,0.556,0.183
			c0.091,0.179,0.041,0.367-0.129,0.475C16.286,11.099,16.16,11.135,16.017,11.14z M16.174,10.392c-0.052,0.002-0.098,0-0.144,0.015
			c-0.2,0.063-0.305,0.273-0.295,0.453c0.005,0.078,0.04,0.141,0.109,0.18c0.059,0.034,0.125,0.05,0.19,0.046
			c0.134-0.009,0.26-0.048,0.369-0.129c0.087-0.065,0.128-0.156,0.113-0.264C16.492,10.526,16.353,10.376,16.174,10.392z"/>
		<path fill-rule="evenodd" clip-rule="evenodd" fill="#383737" d="M17.379,10.23c-0.083,0.003-0.161-0.017-0.234-0.055
			c-0.109-0.058-0.155-0.158-0.11-0.272c0.064-0.165,0.18-0.28,0.357-0.32c0.083-0.019,0.162,0,0.234,0.042
			c0.088,0.051,0.14,0.124,0.146,0.231c0.012,0.231-0.081,0.344-0.311,0.369C17.433,10.229,17.406,10.229,17.379,10.23z
			 M17.714,9.891c-0.003-0.03,0.008-0.07-0.011-0.107c-0.051-0.099-0.177-0.167-0.29-0.146c-0.152,0.029-0.251,0.126-0.316,0.261
			c-0.048,0.101-0.019,0.184,0.082,0.233c0.129,0.063,0.262,0.059,0.394,0.015c0.091-0.03,0.137-0.1,0.142-0.195
			C17.715,9.934,17.714,9.917,17.714,9.891z"/>
		<circle fill-rule="evenodd" clip-rule="evenodd" fill="#383737" cx="17.374" cy="10.921" r="0.14"/>
		<path fill-rule="evenodd" clip-rule="evenodd" fill="#383737" d="M17.175,11.411c0.058-0.001,0.104,0.043,0.104,0.101
			c0,0.054-0.042,0.099-0.096,0.101c-0.059,0.003-0.105-0.039-0.107-0.097C17.074,11.458,17.117,11.413,17.175,11.411z"/>
		<path fill-rule="evenodd" clip-rule="evenodd" fill="#383737" d="M17.705,11.277c0.045-0.002,0.082,0.032,0.083,0.076
			c0.001,0.043-0.035,0.08-0.079,0.08c-0.04,0-0.076-0.033-0.08-0.073C17.625,11.319,17.662,11.279,17.705,11.277z"/>
		<path fill-rule="evenodd" clip-rule="evenodd" fill="#383737" d="M11.464,12.068c-0.024,0.083-0.028,0.085-0.095,0.094
			c-0.164,0.022-0.328,0.021-0.492,0.013c-0.149-0.008-0.296-0.036-0.438-0.086c-0.011-0.004-0.025-0.004-0.029-0.028
			C10.762,12.119,11.112,12.105,11.464,12.068z"/>
		<path fill-rule="evenodd" clip-rule="evenodd" fill="#383737" d="M12.454,13.336c-0.076-0.055-0.129-0.128-0.18-0.204
			c-0.117-0.175-0.194-0.368-0.256-0.568c-0.016-0.05-0.013-0.091,0.04-0.126C12.163,12.751,12.268,13.061,12.454,13.336z"/>
		<path fill-rule="evenodd" clip-rule="evenodd" fill="#383737" d="M11.628,11.802c-0.096-0.255-0.213-0.497-0.353-0.729
			c0.066,0.056,0.116,0.125,0.165,0.194c0.087,0.121,0.174,0.242,0.229,0.383C11.702,11.733,11.702,11.732,11.628,11.802z"/>
		<path fill-rule="evenodd" clip-rule="evenodd" fill="#8D7961" d="M12.77,4.904c-0.012,0.043-0.024,0.084-0.036,0.127
			c-0.02,0.076-0.031,0.153-0.034,0.232c-0.001,0.042,0.008,0.083,0.028,0.121c0.02,0.037,0.05,0.038,0.075,0.003
			c0.018-0.024,0.024-0.053,0.031-0.082c0.016-0.069,0.025-0.14,0.05-0.207c0.013-0.038,0.031-0.072,0.054-0.104
			c0.045-0.066,0.099-0.091,0.187-0.077c0.209,0.033,0.415,0.072,0.614,0.144c0.225,0.081,0.428,0.195,0.596,0.369
			c0.09,0.093,0.164,0.198,0.206,0.319c0.073,0.214,0.189,0.404,0.307,0.594c0.107,0.173,0.213,0.348,0.271,0.545
			c0.042,0.143,0.048,0.284-0.014,0.424c-0.026,0.06-0.063,0.112-0.106,0.158c-0.134,0.142-0.235,0.308-0.338,0.472
			c-0.104,0.166-0.206,0.334-0.327,0.489c-0.1,0.126-0.214,0.236-0.357,0.312c-0.176,0.093-0.364,0.105-0.551,0.055
			c-0.32-0.086-0.633-0.194-0.927-0.352c-0.262-0.141-0.468-0.338-0.589-0.616c-0.058-0.133-0.098-0.273-0.123-0.416
			c-0.034-0.191-0.087-0.377-0.151-0.56c-0.071-0.206-0.159-0.406-0.218-0.617c-0.036-0.129-0.057-0.259-0.045-0.393
			c0.012-0.134,0.066-0.25,0.157-0.349c0.078-0.086,0.172-0.153,0.267-0.219c0.177-0.125,0.364-0.233,0.57-0.303
			c0.124-0.042,0.252-0.062,0.381-0.076C12.751,4.896,12.759,4.901,12.77,4.904z M14.173,5.382
			c-0.071-0.059-0.145-0.107-0.243-0.099c-0.047-0.04-0.099-0.015-0.146-0.004c-0.233,0.055-0.378,0.287-0.327,0.515
			c0.044,0.199,0.201,0.32,0.361,0.341c0.229,0.03,0.398-0.093,0.472-0.261C14.369,5.695,14.296,5.461,14.173,5.382z"/>
		<path fill-rule="evenodd" clip-rule="evenodd" fill="#FFFFFF" d="M14.438,5.001c-0.012,0.058-0.066,0.072-0.09,0.11
			c-0.024,0.039-0.043,0.079-0.054,0.124C14.287,5.116,14.339,5.029,14.438,5.001z"/>
		<path fill-rule="evenodd" clip-rule="evenodd" fill="#8D7961" d="M6.693,10.93c-0.006-0.107,0.038-0.184,0.129-0.239
			c0.105-0.063,0.218-0.097,0.337-0.12c0.188-0.037,0.358,0.029,0.529,0.09c0.114,0.041,0.22,0.096,0.302,0.19
			c0.05,0.057,0.07,0.12,0.054,0.196c-0.018,0.091-0.042,0.183-0.031,0.276c0.007,0.063,0.013,0.126,0.015,0.19
			c0.002,0.094-0.036,0.166-0.112,0.219c-0.032,0.023-0.066,0.042-0.098,0.066c-0.047,0.037-0.099,0.036-0.153,0.021
			c-0.104-0.028-0.191-0.089-0.276-0.15c-0.15-0.106-0.291-0.225-0.433-0.341c-0.025-0.02-0.049-0.042-0.077-0.057
			C6.74,11.199,6.701,11.073,6.693,10.93z"/>
		<path fill-rule="evenodd" clip-rule="evenodd" fill="#8D7961" d="M15.453,10.012c-0.071,0.005-0.142,0.005-0.211-0.016
			c-0.144-0.044-0.222-0.179-0.191-0.327c0.028-0.133,0.088-0.249,0.185-0.344c0.062-0.061,0.138-0.09,0.224-0.096
			c0.146-0.011,0.282,0.027,0.413,0.084c0.088,0.039,0.173,0.083,0.25,0.139c0.063,0.046,0.109,0.104,0.135,0.178
			c0.021,0.06,0.007,0.111-0.033,0.157c-0.042,0.049-0.094,0.084-0.156,0.106c-0.153,0.054-0.31,0.093-0.469,0.118
			C15.552,10.018,15.502,10.012,15.453,10.012z"/>
		<path fill-rule="evenodd" clip-rule="evenodd" fill="#8D7961" d="M4.395,11.374c0.01-0.085,0.016-0.183,0.032-0.279
			c0.018-0.103,0.106-0.222,0.241-0.232c0.186-0.013,0.36,0.01,0.522,0.106c0.049,0.029,0.08,0.07,0.091,0.127
			c0.012,0.063,0.038,0.121,0.069,0.177c0.035,0.062,0.065,0.125,0.086,0.194c0.02,0.065,0.008,0.124-0.034,0.173
			c-0.058,0.066-0.117,0.132-0.193,0.179c-0.128,0.079-0.255,0.088-0.384-0.003c-0.076-0.054-0.157-0.099-0.236-0.148
			c-0.044-0.027-0.084-0.06-0.121-0.096C4.415,11.52,4.393,11.458,4.395,11.374z"/>
		<path fill-rule="evenodd" clip-rule="evenodd" fill="#8D7961" d="M16.174,10.392c0.179-0.016,0.318,0.134,0.342,0.301
			c0.015,0.108-0.025,0.199-0.113,0.264c-0.109,0.082-0.235,0.121-0.369,0.129c-0.065,0.004-0.132-0.012-0.19-0.046
			c-0.069-0.04-0.104-0.102-0.109-0.18c-0.01-0.18,0.095-0.39,0.295-0.453C16.076,10.393,16.122,10.395,16.174,10.392z"/>
		<path fill-rule="evenodd" clip-rule="evenodd" fill="#8D7961" d="M17.714,9.891c0,0.026,0.001,0.043,0,0.061
			c-0.005,0.095-0.051,0.165-0.142,0.195c-0.132,0.044-0.265,0.048-0.394-0.015c-0.1-0.049-0.13-0.132-0.082-0.233
			c0.064-0.135,0.164-0.232,0.316-0.261c0.113-0.021,0.239,0.047,0.29,0.146C17.722,9.82,17.711,9.861,17.714,9.891z"/>
		<path fill-rule="evenodd" clip-rule="evenodd" fill="#383737" d="M14.173,5.382c0.123,0.079,0.195,0.312,0.117,0.492
			c-0.074,0.167-0.243,0.291-0.472,0.261c-0.16-0.021-0.317-0.142-0.361-0.341c-0.051-0.228,0.094-0.46,0.327-0.515
			c0.047-0.011,0.099-0.036,0.146,0.004c-0.011,0.014-0.023,0.026-0.032,0.041c-0.03,0.054-0.03,0.108,0.005,0.16
			c0.035,0.051,0.087,0.072,0.147,0.059c0.057-0.012,0.098-0.041,0.108-0.104C14.162,5.42,14.172,5.402,14.173,5.382z M13.544,5.764
			c0.02-0.021,0.019-0.042,0.02-0.065c0.003-0.136,0.074-0.229,0.191-0.291c0.013-0.007,0.027-0.012,0.04-0.02
			c0.008-0.005,0.014-0.014,0.012-0.025c-0.003-0.012-0.014-0.013-0.023-0.012c-0.052,0.002-0.095,0.023-0.132,0.058
			c-0.085,0.079-0.127,0.178-0.132,0.293C13.518,5.724,13.516,5.747,13.544,5.764z"/>
		<path fill-rule="evenodd" clip-rule="evenodd" fill="#FFFFFF" d="M14.173,5.382c-0.001,0.02-0.011,0.038-0.014,0.056
			c-0.01,0.063-0.051,0.093-0.108,0.104c-0.061,0.013-0.112-0.008-0.147-0.059c-0.035-0.051-0.035-0.106-0.005-0.16
			c0.008-0.015,0.021-0.027,0.032-0.041C14.028,5.275,14.103,5.324,14.173,5.382z"/>
		<path fill-rule="evenodd" clip-rule="evenodd" fill="#FFFFFF" d="M13.544,5.764c-0.028-0.017-0.026-0.041-0.025-0.062
			c0.004-0.115,0.047-0.214,0.132-0.293c0.037-0.034,0.081-0.056,0.132-0.058c0.01,0,0.021,0,0.023,0.012
			c0.002,0.011-0.003,0.02-0.012,0.025c-0.013,0.008-0.026,0.013-0.04,0.02c-0.117,0.062-0.188,0.154-0.191,0.291
			C13.563,5.722,13.563,5.744,13.544,5.764z"/>
	</g>
	<g>
		<path fill="#292929" d="M1.309,18.393l-0.124,3.503c-0.031,0.854-0.262,1.34-1.085,1.348H0v-0.547c0.5,0,0.585-0.254,0.601-0.77
			l0.146-4.081h2.194v5.39H2.341v-4.843H1.309z"/>
		<path fill="#292929" d="M4.974,20.934c-0.5,0-0.785,0.192-0.785,0.801v0.847c0,0.362-0.031,0.5-0.1,0.654H3.48
			c0.092-0.185,0.108-0.408,0.108-0.647V21.75c0-0.578,0.185-0.978,0.67-1.125c-0.455-0.146-0.662-0.516-0.662-1.108v-0.439
			c0-0.801,0.354-1.232,1.201-1.232h1.201v5.39H5.397v-2.302H4.974z M4.812,18.393c-0.447,0-0.624,0.254-0.624,0.739v0.516
			c0,0.585,0.285,0.739,0.754,0.739h0.454v-1.995H4.812z"/>
		<path fill="#292929" d="M7.761,18.393l-0.123,3.503c-0.031,0.854-0.262,1.34-1.085,1.348h-0.1v-0.547
			c0.5,0,0.585-0.254,0.601-0.77l0.146-4.081h2.194v5.39H8.792v-4.843H7.761z"/>
		<path fill="#292929" d="M11.426,20.934c-0.5,0-0.786,0.192-0.786,0.801v0.847c0,0.362-0.031,0.5-0.1,0.654H9.932
			c0.092-0.185,0.107-0.408,0.107-0.647V21.75c0-0.578,0.185-0.978,0.67-1.125c-0.454-0.146-0.662-0.516-0.662-1.108v-0.439
			c0-0.801,0.354-1.232,1.201-1.232h1.201v5.39h-0.601v-2.302H11.426z M11.264,18.393c-0.447,0-0.624,0.254-0.624,0.739v0.516
			c0,0.585,0.285,0.739,0.755,0.739h0.454v-1.995H11.264z"/>
	</g>
	<path fill="#292929" d="M14.083,18.393v4.843H13.49v-5.39h2.148v0.546H14.083z"/>
	<path fill="#292929" d="M16.604,22.15l-0.208,1.086h-0.555l1.032-5.39h0.87l1.032,5.39h-0.601l-0.208-1.086H16.604z M16.681,21.635
		h1.201l-0.608-3.11L16.681,21.635z"/>
	<path fill="#292929" d="M20.454,17.847c0.839,0,1.17,0.4,1.17,1.193v0.254c0,0.57-0.162,0.924-0.631,1.07
		c0.523,0.146,0.724,0.562,0.724,1.155v0.454c0,0.808-0.393,1.263-1.232,1.263h-1.24v-5.39H20.454z M20.307,20.133
		c0.478,0,0.724-0.154,0.724-0.716v-0.316c0-0.477-0.162-0.708-0.593-0.708h-0.593v1.74H20.307z M20.484,22.689
		c0.439,0,0.639-0.231,0.639-0.731v-0.477c0-0.601-0.239-0.801-0.755-0.801h-0.523v2.009H20.484z"/>
</g>
</svg>
