<svg xmlns="http://www.w3.org/2000/svg" width="21.716" height="23.244" viewBox="0 0 21.716 23.244"><g fill-rule="evenodd" clip-rule="evenodd"><path fill="#383737" d="M5.71 15.13c.08.17.152.34.18.527.02.136-.024.246-.12.337-.09.086-.2.144-.314.19-.347.136-.706.222-1.08.216-.127-.002-.25-.025-.366-.075-.054-.022-.103-.054-.146-.093-.05-.047-.07-.11-.083-.176-.047-.266-.107-.53-.18-.79-.012-.043-.038-.082-.042-.128.003-.023-.007-.043-.015-.063-.01-.027-.026-.034-.05-.018-.02.014-.04.027-.062.04-.143.09-.292.17-.456.22-.172.054-.345.068-.52.02-.08-.02-.15-.06-.227-.085-.152-.09-.282-.205-.392-.342-.12-.15-.218-.313-.28-.496-.033-.096-.052-.194-.064-.294-.007-.072.014-.14.025-.21.01-.052.018-.103.054-.14.047-.05.093-.102.152-.14.17-.11.35-.205.52-.31.118-.07.227-.152.334-.238.11-.088.2-.197.306-.29.05-.045.05-.047.02-.11-.113-.25-.19-.51-.226-.784-.027-.215-.02-.43 0-.647.028-.308.085-.612.15-.915.01-.058.002-.1-.034-.148-.27-.348-.427-.747-.52-1.175-.094-.426-.112-.856-.08-1.29.023-.294.08-.582.145-.87.036-.156.082-.306.143-.452.037-.09.077-.177.145-.25.03-.03.054-.07.095-.097.158-.106.33-.048.418.104.024.042.038.09.05.138.04.147.057.3.072.45.04.4.076.797.163 1.19.095.427.245.832.487 1.2.042.064.09.123.134.186.02.032.048.043.085.048.25.03.5.034.75.028.933-.023 1.84-.188 2.714-.52.46-.173.9-.39 1.302-.68.33-.237.622-.513.85-.852.07-.107.142-.214.208-.324.13-.216.238-.444.34-.674.07-.155.125-.318.18-.48.035-.098.06-.2.095-.297.045-.126.09-.25.133-.376.02-.02.024-.045.028-.08-.028.012-.05.02-.073.028-.322.14-.648.265-.982.37-.206.067-.413.126-.625.17-.125.024-.25.046-.376.058-.132.01-.263.015-.396-.002-.045-.005-.09-.028-.137-.014-.01-.02-.018-.017-.026 0-.153-.047-.283-.126-.386-.25-.12-.147-.142-.315-.112-.494.016-.096.04-.192.062-.287.005-.02.018-.04.028-.057.06-.108.122-.21.21-.3.11-.108.225-.204.36-.27.206-.103.426-.17.652-.215.315-.06.632-.09.952-.095.34-.005.677.01 1.015.033.173.013.347.028.52.048.043.022.09.013.134.013.003-.002.008 0 .012 0 .034.022.07.014.106.012.223.02.448.01.67.03.042.005.082.02.122.028.018.005.035.005.048-.01l.126-.036c.066-.02.074-.03.064-.097-.025-.165-.053-.33-.08-.495-.056-.344-.113-.688-.166-1.032-.02-.13-.01-.26-.01-.39.002-.335.03-.667.105-.994.023-.102.04-.205.085-.3.044-.093.09-.184.157-.266.055-.07.113-.134.187-.18.175-.11.368-.146.57-.106.147.028.28.092.378.207.08.093.135.2.168.315.067.24.076.484.058.73-.03.426-.125.84-.233 1.25-.09.343-.195.68-.31 1.014-.037.1-.07.204-.11.304-.012.034 0 .05.026.064l.67.403c.015.01.034.013.047.022.028.02.05.013.07-.01.08-.083.183-.112.29-.12.084-.007.16.028.227.074.102.07.192.152.253.262.033.058.062.12.038.188-.01.033.014.037.034.045.122.056.245.107.37.152.163.058.325.117.488.17.41.137.828.245 1.25.337.427.092.857.166 1.29.238.403.067.81.128 1.208.22.183.04.365.087.54.16.184.075.356.172.478.338.046.062.077.13.093.207.04.194.043.39.033.587-.02.37-.098.73-.2 1.084-.056.19-.11.38-.187.563-.014.01-.016.023-.02.037-.16.41-.34.81-.55 1.198-.295.55-.63 1.075-1.017 1.566-.252.32-.52.622-.82.894-.21.188-.43.36-.67.504-.25.148-.508.268-.805.278-.258.008-.516.01-.773-.016-.183-.02-.364-.047-.544-.085-.298-.062-.59-.14-.878-.243-.158-.056-.312-.12-.466-.183-.057-.024-.058-.023-.093.03-.042.065-.09.128-.14.19-.058.07-.114.142-.153.23-.148.338-.376.613-.688.814-.057.037-.116.056-.183.04-.013-.004-.024-.006-.032.007-.026.003-.045-.013-.065-.025-.18-.103-.306-.257-.43-.418-.12-.157-.198-.334-.283-.51-.044-.092-.055-.194-.1-.292-.197.237-.396.466-.64.652.02.06.056.11.096.158.15.175.34.295.548.39.133.06.27.108.404.16l.11.044c.17.067.244.203.256.378.007.104-.016.206-.047.304-.12.38-.35.68-.687.89-.25.156-.52.178-.803.108-.335-.082-.64-.23-.937-.403-.055-.032-.11-.067-.17-.09-.05.07-.086.147-.13.22-.09.153-.19.298-.31.43-.132.147-.3.21-.49.22-.302.02-.597-.023-.885-.117-.095-.032-.183-.08-.27-.13-.06-.034-.092-.1-.136-.15-.01-.115-.04-.228-.012-.344.024-.102.063-.198.1-.295.025-.038.042-.08.05-.132-.185.034-.366.063-.55.075-.18.012-.36.024-.542.017-.184-.008-.367-.02-.55-.05-.18-.027-.353-.078-.535-.118.006.042.017.063.034.08zm-.42-.408c.014-.016.028-.013.045-.005.028.013.054.034.087.033.025.02.057.03.086.04.346.133.706.207 1.075.233.408.03.814-.002 1.216-.077.393-.073.776-.186 1.15-.33.024-.007.05-.01.066-.03.047.008.084-.027.13-.03.01.01.02.02.033.028.37.334.77.632 1.213.866.222.117.45.22.696.276.28.065.536.017.763-.163.102-.08.194-.17.27-.28.076-.115.148-.23.198-.36.035-.087.057-.177.06-.272.002-.113-.04-.192-.152-.23-.116-.042-.23-.088-.344-.133-.215-.085-.42-.188-.6-.337-.162-.134-.287-.296-.374-.487-.015-.032-.016-.05.02-.07.102-.058.19-.133.274-.212.18-.164.338-.35.49-.54.033-.04.07-.08.097-.13-.03-.032-.067-.057-.107-.077-.07-.036-.142-.068-.21-.108-.072-.043-.144-.063-.227-.027-.024.01-.052.012-.08.016-.29.043-.582.037-.872-.015-.15-.028-.295-.07-.43-.15-.07-.04-.115-.09-.087-.177.002-.007 0-.015.002-.022.017-.21.077-.407.21-.578.065-.083.13-.167.198-.247.016-.018.032-.036.043-.06.147-.332.374-.603.652-.832.06-.05.073-.05.138-.014.108.06.204.135.287.227.252.282.4.615.478.98.02.09.037.17.106.24.09.088.19.154.306.198.027.01.046.007.06-.02.022-.04.044-.078.07-.114.024-.03.017-.054-.007-.082-.16-.197-.31-.4-.457-.606-.27-.384-.526-.777-.733-1.2-.084-.172-.16-.348-.21-.534l.02-.018c.106.3.266.57.438.833.28.43.6.833.937 1.22.103.12.198.245.312.354.198.186.416.345.646.488.446.278.92.495 1.42.655.606.194 1.226.293 1.864.268.173-.007.34-.035.5-.11.082-.04.164-.078.243-.122.016.002.028-.006.042-.013.09-.048.095-.054.03-.13-.076-.095-.11-.2-.103-.32 0-.016.008-.035-.017-.05-.1.062-.215.087-.333.096-.38.027-.74-.053-1.083-.216-.39-.186-.703-.462-.952-.812-.085-.12-.16-.248-.22-.38-.01-.02-.04-.04-.005-.064l.03.05c.237.397.543.728.94.97.356.215.74.34 1.16.316.293-.017.553-.11.76-.327.01-.01.02-.025.046-.025l-.04.083c-.047.093-.086.188-.104.29-.02.118-.018.232.062.33.034.044.037.044.082.012.188-.135.363-.286.527-.448.198-.196.39-.396.555-.62.07-.097.15-.188.222-.285.663-.897 1.192-1.865 1.542-2.927.134-.407.23-.822.257-1.252V7.09c-.02.02-.027.042-.036.065-.113.3-.262.583-.47.828-.07.083-.147.16-.248.207-.067.03-.135.047-.205.01-.502-.257-.87-.64-1.07-1.173-.13-.338-.175-.69-.163-1.05 0-.035.022-.08 0-.106-.026-.026-.074-.02-.112-.027-.52-.087-1.04-.184-1.553-.31-.86-.21-1.69-.5-2.476-.91-.026-.012-.05-.03-.08-.007-.018.012-.04.005-.04-.015.005-.047-.03-.055-.06-.07-.21-.116-.42-.236-.618-.372-.112-.077-.235-.125-.364-.153-.11-.023-.22-.028-.334.005-.144.042-.285.094-.435.108-.016 0-.028.008-.038.02-.017.02-.04.03-.06.04-.21.114-.42.23-.63.34-.138.073-.273.154-.42.21-.084.032-.146.086-.195.16-.048.074-.095.15-.133.23-.108.23-.178.473-.255.713-.154.485-.357.946-.625 1.38-.273.44-.612.82-1.034 1.125-.405.296-.848.523-1.314.705-.02.007-.042.01-.056.03.083.24.04.42-.117.586-.192.206-.4.394-.61.578-.087.076-.188.134-.294.18-.3.13-.61.156-.93.095-.21-.04-.402-.115-.572-.243-.127-.095-.217-.22-.275-.367-.04-.102-.036-.196.038-.282.002-.003 0-.01 0-.013-.002-.002-.004-.004-.006-.004-.263.003-.525 0-.787-.03-.038-.005-.053.01-.06.045-.01.063-.018.127-.052.183-.096.156-.21.296-.366.398-.116.076-.242.118-.38.116-.078 0-.15-.02-.22-.042-.017.012-.018.027-.02.042-.028.14-.06.28-.083.42-.056.326-.104.653-.086.987.01.174.036.346.085.514.07.236.176.458.292.675.03.06.038.045-.01.106-.056.07-.128.115-.203.158-.04.023-.078.05-.1.096-.02.045-.022.083.014.127.19.237.337.5.465.775.273.582.45 1.193.568 1.823.013.073.048.114.11.14.083.037.17.05.258.056.16.01.318-.014.476-.044.235-.044.463-.108.678-.218.053-.027.103-.058.146-.098.04-.038.06-.08.05-.144-.023-.16-.076-.31-.15-.452-.063-.117-.13-.23-.193-.348-.03-.05-.058-.102-.053-.164zm7.74-2.598l.004-.013-.27-.21c-.02-.015-.037-.013-.057-.01-.097.016-.194.03-.29.06-.054.015-.104.034-.156-.008-.01-.008-.027-.007-.04-.012-.152-.047-.286-.12-.383-.25-.01-.013-.02-.03-.04-.032-.034-.005-.04-.026-.04-.057 0-.02-.005-.043-.008-.064-.043-.268-.137-.518-.272-.75-.117-.204-.265-.378-.47-.5-.035-.02-.06-.025-.096.005-.25.21-.458.452-.602.746-.035.072-.078.135-.13.194-.034.04-.068.083-.102.125-.106.137-.197.282-.224.458-.01.063-.01.128-.025.19-.013.05.008.077.045.102.085.057.18.09.277.118.13.036.264.055.4.066.26.02.52.01.774-.054.042-.01.08-.028.105.023.004.006.018.007.027.012l.257.13c.086.042.146.12.228.17.02.01.013.03.013.045 0 .066.013.132.028.196.072.307.22.577.41.824.076.097.16.187.266.253.057.037.11.043.17 0 .278-.193.49-.443.617-.76.02-.05.046-.097.082-.14.048-.057.097-.115.144-.175.048-.062.086-.13.12-.202.017-.032.01-.05-.02-.063-.013-.005-.023-.01-.034-.017-.21-.108-.42-.215-.613-.35-.035-.025-.076-.037-.118-.04-.188-.005-.374-.013-.56.01-.075.01-.15.016-.223.024.013-.09.074-.11.148-.112.012 0 .024 0 .037-.002.143-.005.284.01.425.035l.194.036zM2.346 8.1c0 .035.004.07.004.103.003.34.05.676.144 1.003.102.35.26.673.494.955.026.033.056.055.094.067.157.053.31.044.458-.03.15-.074.263-.193.364-.326.058-.076.09-.162.104-.255.006-.036 0-.065-.026-.094-.037-.038-.07-.08-.103-.124-.27-.348-.443-.74-.562-1.16-.123-.432-.178-.875-.22-1.32-.016-.165-.03-.33-.06-.49-.013-.068-.026-.136-.062-.196-.04-.065-.105-.074-.163-.024-.03.026-.05.06-.073.092-.093.146-.15.31-.202.473-.135.433-.187.878-.193 1.33zm.76 4.747c-.038.023-.056.06-.082.088-.223.242-.476.446-.76.61-.15.087-.3.17-.443.265-.083.055-.122.13-.128.228-.005.087.006.17.032.254.085.278.243.508.466.692.22.183.467.24.743.14.214-.077.41-.19.592-.324.032-.023.036-.046.02-.082-.04-.102-.078-.206-.122-.308-.15-.353-.325-.693-.567-.995-.024-.03-.032-.062-.025-.102.018-.092.068-.156.147-.2.04-.022.08-.042.11-.073.1-.097.1-.062.028-.19l-.01-.003zm2.97-2.36c.063.004.16-.013.257-.03.225-.04.43-.13.6-.277.192-.165.378-.337.554-.52.044-.046.084-.096.118-.15.075-.12.072-.25.035-.382-.015-.046-.024-.048-.07-.033-.115.037-.228.078-.343.114-.277.085-.557.155-.84.212-.262.053-.526.095-.792.12-.16.017-.32.038-.483.042-.136.004-.23.125-.196.258.007.026.018.05.028.076.086.2.24.332.433.422.21.1.43.145.7.147zm2.773 5.605c.054 0 .108.002.162 0 .133-.005.248-.05.34-.15.044-.05.088-.1.128-.152.12-.157.21-.332.3-.506.054-.104.053-.087-.042-.155-.19-.14-.377-.284-.55-.443-.044-.04-.08-.05-.137-.028-.263.103-.53.19-.805.26-.032.008-.05.026-.067.052-.076.12-.143.246-.2.377-.042.096-.072.197-.087.302-.017.127.014.197.125.264.027.016.056.03.085.043.24.098.49.134.748.132zM20.18 6.608h-.124c-.012 0-.026 0-.033.01-.01.017.004.028.014.04.045.048.104.07.167.085.066.016.165-.028.195-.086.012-.024 0-.04-.022-.044-.02-.004-.04-.004-.058 0-.046.004-.092.002-.14-.005zm-.03.247c.01.033.03.043.046.056.05.038.064.033.09-.038-.044.003-.085-.013-.135-.017z"/><path fill="#8D7961" d="M12.685 14.084c.008-.014.02-.01.032-.008.066.017.126-.002.182-.038.31-.2.54-.476.687-.814.04-.088.095-.16.154-.23.05-.062.097-.125.14-.19.036-.054.037-.054.094-.03.154.064.308.127.466.183.287.102.58.18.878.243.18.038.362.065.544.085.257.027.515.024.773.016.296-.01.556-.13.805-.277.24-.144.46-.316.67-.504.3-.273.568-.576.82-.895.386-.49.72-1.016 1.017-1.566.208-.388.39-.788.548-1.2.005-.013.008-.027.02-.036.017 0 .023.007.016.023-.064.164-.126.33-.195.49-.066.153-.132.305-.21.453-.048.093-.09.19-.14.283-.08.143-.164.283-.244.426-.066.118-.138.234-.21.35-.083.14-.18.268-.272.4-.134.195-.275.382-.424.565-.088.108-.18.214-.27.32-.166.192-.347.368-.536.537-.117.104-.24.2-.37.29-.223.158-.46.29-.725.362-.097.026-.197.04-.298.04h-.273c-.213.003-.425-.014-.637-.042-.172-.023-.343-.052-.512-.093-.205-.05-.408-.105-.607-.174-.183-.063-.363-.133-.542-.206-.084-.034-.12-.033-.175.04-.11.138-.233.266-.308.428-.072.157-.158.306-.27.436-.122.137-.242.28-.416.358-.072.028-.146.03-.21-.028zM5.71 15.13c-.018-.017-.03-.038-.032-.076.182.04.356.09.536.12.182.027.365.04.55.048.18.008.36-.004.542-.017.183-.012.364-.042.55-.075-.01.053-.026.094-.052.132-.002-.042-.034-.036-.06-.032-.076.012-.154.02-.23.032-.073.013-.147.016-.22.02-.138.01-.277.028-.416.02-.268-.02-.535-.036-.798-.093-.105-.024-.207-.058-.312-.08-.02-.002-.04-.004-.06 0zM8.14 5.724c.048-.014.093.01.138.014.132.017.263.013.396 0 .127-.01.252-.032.376-.057.21-.042.418-.1.624-.166.334-.106.66-.23.982-.37.022-.01.045-.017.074-.028-.004.033-.008.058-.028.08l-.366.147c-.14.058-.283.11-.426.16-.3.1-.602.195-.916.252-.19.034-.378.045-.57.043-.08 0-.158-.02-.238-.035-.02-.003-.045-.01-.045-.04zM2.228 15.25c.077.026.147.065.226.087.177.048.35.034.52-.02.164-.052.314-.13.458-.22l.062-.04c.024-.018.04-.01.05.017.008.02.018.04.015.063-.038-.002-.065.018-.095.037-.173.113-.357.203-.56.248-.24.053-.456-.004-.656-.135-.015-.008-.02-.02-.022-.036zM11.55 3.85c-.046 0-.092.01-.135-.014.045-.002.09-.006.134.013zM11.668 3.862c-.036.002-.073.01-.106-.012.036 0 .073-.006.106.012zM12.508 3.91c-.014.016-.03.016-.048.01.014-.01.03-.013.048-.01zM8.114 5.723c.008-.016.017-.018.025 0-.01.006-.018.005-.026 0z"/><path fill="#fff" d="M17.302 12.876c-.08.044-.16.083-.243.122-.16.075-.327.103-.5.11-.64.026-1.26-.074-1.865-.268-.5-.16-.975-.376-1.42-.655-.23-.144-.448-.302-.646-.488-.116-.108-.21-.234-.313-.353-.338-.387-.656-.79-.937-1.22-.172-.265-.332-.535-.438-.834-.008-.033-.015-.066-.026-.098-.01-.032-.008-.07-.043-.11.01.086.02.158.05.225.048.186.125.362.21.534.206.424.46.817.732 1.2.146.208.297.41.456.607.024.03.032.05.008.083-.026.036-.048.074-.07.113-.014.027-.033.03-.06.02-.117-.043-.216-.11-.305-.198-.07-.07-.087-.15-.106-.238-.078-.366-.226-.7-.478-.98-.084-.093-.18-.168-.288-.23-.065-.036-.078-.035-.138.015-.28.23-.505.5-.65.833-.012.023-.028.04-.044.06-.07.08-.133.163-.198.246-.133.172-.193.368-.21.58-.002.007 0 .015-.003.022-.03.088.017.137.087.178.133.08.28.122.43.148.29.052.58.058.872.015.026-.004.054-.005.078-.016.083-.036.154-.017.228.027.067.04.14.072.21.108.04.02.075.045.107.077-.027.05-.063.088-.097.13-.152.19-.31.375-.49.54-.085.08-.172.154-.274.21-.036.02-.035.04-.02.072.087.19.212.353.373.487.18.148.386.25.6.336.115.045.23.092.345.132.112.04.154.12.152.232-.002.095-.025.185-.06.272-.05.13-.12.245-.198.36-.074.11-.167.2-.27.28-.227.18-.483.23-.763.163-.245-.057-.473-.16-.695-.276-.443-.235-.842-.533-1.214-.867-.01-.01-.02-.02-.033-.03-.004-.007-.006-.018-.013-.024-.13-.13-.237-.275-.302-.448-.004-.01-.002-.03-.027-.03 0 .013 0 .025.003.037.028.113.06.227.11.333.028.057.05.12.1.162-.018.02-.044.024-.066.032-.374.143-.758.256-1.152.33-.402.073-.808.104-1.216.076-.37-.026-.73-.1-1.075-.233-.03-.01-.062-.02-.087-.04.01-.024-.012-.035-.022-.05-.084-.128-.083-.26.005-.385.04-.057.093-.1.145-.146.134-.116.268-.232.388-.362.272-.296.46-.636.542-1.03.005-.026.012-.05.005-.08l-.01.016c-.004.017-.01.033-.013.05-.08.285-.21.544-.4.773-.156.19-.342.35-.538.5-.07.054-.143.105-.206.167-.13.127-.16.297-.082.46.012.025.026.047.054.058-.005.062.022.115.05.167.064.115.132.23.193.347.075.142.128.292.152.452.01.06-.01.104-.05.143-.044.04-.095.07-.147.098-.214.11-.443.174-.678.22-.157.03-.314.053-.476.044-.09-.005-.175-.02-.257-.055-.063-.028-.098-.07-.11-.142-.118-.63-.296-1.24-.568-1.823-.13-.274-.275-.54-.466-.775-.036-.045-.033-.083-.013-.127.022-.045.06-.072.1-.096.075-.043.147-.09.202-.158.05-.063.042-.05.01-.108-.114-.217-.22-.438-.29-.675-.05-.168-.078-.34-.086-.515-.017-.334.03-.662.086-.988.024-.14.055-.28.082-.42.003-.013.003-.028.02-.04.07.02.143.04.22.04.14.002.266-.04.38-.115.156-.104.27-.243.367-.4.035-.055.043-.12.054-.182.006-.036.02-.05.06-.045.263.027.525.03.788.028.002 0 .004.003.006.004 0 .004.002.01 0 .013-.074.086-.08.18-.04.282.06.147.15.27.276.366.17.128.364.203.57.242.32.062.63.034.932-.095.106-.046.207-.104.294-.18.21-.184.418-.372.61-.578.154-.167.2-.347.116-.587.013-.018.036-.02.056-.028.466-.182.91-.41 1.314-.705.42-.306.76-.686 1.035-1.128.27-.433.472-.894.626-1.378.077-.242.146-.485.254-.715.038-.08.084-.155.133-.23.05-.073.11-.127.195-.16.147-.055.282-.136.42-.21.21-.11.42-.225.63-.338.02-.012.043-.022.06-.04.01-.013.022-.02.038-.02.15-.015.292-.068.435-.11.114-.032.226-.027.335-.004.13.028.252.076.364.153.198.136.406.256.618.37.03.017.064.025.06.073-.002.02.02.026.038.014.03-.023.055-.005.08.008.788.408 1.618.698 2.477.91.513.125 1.032.222 1.553.31.038.005.086 0 .11.027.024.025.004.07.002.106-.012.36.034.71.162 1.05.2.533.57.915 1.072 1.173.07.035.138.02.205-.012.1-.046.177-.124.247-.207.21-.245.358-.526.47-.827.01-.022.018-.044.036-.066v.067c-.026.43-.123.845-.257 1.252-.35 1.062-.88 2.03-1.542 2.927-.07.097-.15.188-.22.285-.167.224-.358.424-.556.62-.165.162-.34.312-.527.447-.044.032-.047.032-.082-.01-.08-.1-.082-.214-.062-.33.018-.104.057-.2.103-.292l.04-.083c-.025 0-.034.015-.044.025-.208.215-.468.31-.76.327-.422.025-.805-.1-1.16-.317-.398-.24-.704-.57-.94-.968-.01-.017-.022-.034-.03-.05 0-.017-.01-.028-.018-.04-.042-.08-.09-.16-.127-.242-.11-.247-.193-.504-.245-.77l-.014-.064c0 .153.02.3.05.45.07.383.194.75.398 1.086.342.564.827.945 1.467 1.12.215.06.435.08.657.064.106-.007.208-.03.306-.075.015-.007.027-.023.05-.012 0 .04 0 .08.002.122.01.097.054.177.114.25zm-3.077-7.65c-.31-.226-.66-.318-1.032-.38.048-.015.084-.02.12-.02.11-.004.222-.01.332-.016.028-.002.06.003.084-.025-.04-.05-.097-.075-.154-.093-.16-.052-.32-.07-.487-.045-.096.014-.18.052-.24.132-.02.027-.042.038-.078.04-.167.007-.33.04-.49.1-.27.102-.508.263-.732.444-.047.04-.09.083-.127.133-.134.182-.16.386-.12.603.037.192.105.374.174.555.1.265.19.53.24.81.03.186.09.362.185.526.14.243.344.414.588.542.29.152.6.257.915.343.223.06.44.034.64-.082.126-.072.23-.17.32-.28.147-.176.264-.373.385-.567.096-.154.196-.305.32-.44.107-.117.16-.257.157-.417 0-.155-.05-.295-.115-.432-.08-.172-.184-.33-.282-.492-.066-.11-.133-.218-.177-.34-.04-.11-.084-.22-.15-.317 0-.004 0-.01.002-.015.167-.024.26-.097.29-.226.026-.108-.01-.214-.085-.266-.033.08-.082.11-.143.093-.067-.02-.086-.073-.067-.176-.158.004-.257.11-.275.305zM7.293 10.5c-.05.005-.094.007-.137.014-.132.02-.258.06-.37.133-.063.04-.11.09-.133.16-.055.18.034.425.18.5.03.014.058.038.084.06.147.114.288.237.44.344.093.065.186.128.296.16.067.022.13.02.188-.026.044-.033.09-.062.133-.093s.07-.074.09-.123c.025-.062.027-.125.018-.188-.017-.128-.015-.254.015-.38.022-.092 0-.176-.063-.247-.03-.033-.06-.065-.098-.09-.195-.13-.415-.194-.64-.225zm8.147-.425c.172-.002.505-.07.667-.14.06-.026.118-.06.16-.113.054-.066.07-.14.04-.22-.025-.074-.068-.136-.13-.183-.17-.123-.356-.208-.563-.244-.153-.026-.3-.008-.417.108-.114.112-.185.246-.205.406-.02.156.062.294.21.35.077.028.157.036.238.037zm-10.67.725c-.04.002-.08.002-.118.006-.115.012-.194.077-.245.177-.02.042-.035.087-.04.134-.01.086-.02.175-.025.263-.005.087.024.164.086.227.042.042.088.078.14.11.08.048.16.095.237.146.138.092.276.088.416.006.09-.053.166-.125.23-.207.044-.056.06-.123.043-.194-.016-.072-.05-.138-.084-.203-.03-.052-.062-.104-.07-.162-.018-.123-.1-.188-.203-.23-.118-.047-.24-.073-.367-.073zm11.247.338c.144-.004.27-.04.383-.114.17-.108.22-.295.13-.475-.102-.198-.34-.277-.557-.182-.165.072-.25.207-.287.376-.043.195.055.348.25.386.03.007.06.007.08.01zm1.362-.91c.026 0 .053-.002.08-.005.23-.025.323-.137.31-.37-.004-.106-.057-.18-.145-.23-.072-.042-.15-.06-.234-.042-.176.04-.292.156-.356.32-.044.114 0 .214.11.272.074.04.152.06.235.055zm-.005.55c-.077 0-.14.063-.14.14 0 .08.06.142.138.142.078 0 .14-.06.14-.14.002-.077-.06-.14-.138-.14zm-.2.63c-.058.002-.1.047-.1.106.003.058.05.1.108.097.053-.002.096-.047.096-.1-.002-.06-.047-.103-.105-.102zm.53-.133c-.043 0-.08.042-.075.083.003.04.04.073.08.073.044 0 .08-.037.08-.08-.003-.044-.04-.078-.085-.076z"/><path fill="#F28A19" d="M13.03 12.124l-.192-.035c-.14-.026-.282-.04-.425-.036-.013 0-.025 0-.037.002-.074.003-.135.023-.148.112l.222-.024c.187-.023.373-.016.56-.01.042.002.083.014.118.04.194.134.404.242.613.35l.034.017c.03.014.038.033.022.064-.035.07-.073.14-.12.202-.048.06-.097.118-.146.176-.035.042-.06.088-.082.14-.128.315-.338.565-.618.76-.06.042-.112.035-.17 0-.106-.067-.19-.157-.265-.254-.192-.247-.34-.517-.41-.824-.016-.064-.027-.13-.03-.196 0-.016.007-.035-.012-.046-.082-.05-.142-.126-.228-.17l-.257-.13c-.01-.003-.022-.005-.026-.012-.026-.05-.064-.033-.105-.023-.255.062-.514.075-.775.053-.135-.01-.27-.03-.4-.066-.096-.027-.19-.06-.276-.118-.038-.025-.06-.05-.046-.103.014-.062.016-.126.025-.19.027-.175.118-.32.224-.457.032-.042.066-.084.102-.125.05-.06.094-.122.13-.193.143-.294.35-.537.6-.745.037-.03.063-.026.098-.005.205.122.353.296.47.5.134.233.228.482.27.75.003.02.007.043.007.065 0 .03.006.052.042.057.017 0 .027.018.038.032.098.13.23.202.382.25.014.003.032.002.042.01.05.043.102.024.157.008.093-.028.19-.043.288-.06.02-.002.04-.003.056.01l.27.212-.003.012zm-1.566-.056c-.352.037-.702.05-1.053-.008.005.024.02.024.03.028.142.05.29.078.438.086.164.01.328.01.492-.013.066-.007.07-.01.094-.092zm.99 1.268c-.186-.275-.292-.585-.396-.897-.053.034-.056.075-.04.125.062.2.14.393.256.568.05.075.104.148.18.203zm-.826-1.534c.074-.07.074-.07.04-.153-.054-.142-.14-.263-.228-.384-.05-.07-.1-.138-.165-.194.14.233.257.475.353.73z"/><path fill="#fff" d="M2.345 8.1c.005-.452.058-.897.193-1.33.05-.163.11-.326.202-.472.02-.033.043-.066.073-.092.058-.05.122-.04.162.024.037.06.05.128.062.195.03.162.044.326.06.49.042.446.098.89.22 1.32.12.42.293.813.56 1.16.034.044.067.087.104.126.028.03.033.06.027.095-.014.093-.045.18-.103.256-.1.133-.213.252-.364.328-.148.073-.3.082-.458.03-.038-.014-.068-.036-.094-.067-.235-.282-.392-.604-.494-.954-.095-.328-.14-.663-.145-1.003 0-.035-.003-.07-.005-.103z"/><path fill="#8D7961" d="M3.105 12.847c.006.003.01.003.01.005.073.127.073.093-.026.19-.033.03-.073.05-.112.072-.08.045-.13.11-.146.2-.007.04 0 .073.025.103.242.3.417.642.567.995.043.102.08.206.123.308.015.035.01.06-.02.082-.184.134-.38.247-.593.324-.275.1-.522.042-.743-.14-.223-.186-.38-.416-.466-.694-.025-.083-.037-.167-.032-.254.006-.097.045-.173.128-.228.144-.094.293-.178.442-.264.285-.165.538-.37.76-.61.028-.03.046-.066.083-.09zM6.076 10.487c-.268-.002-.49-.048-.7-.147-.19-.09-.345-.223-.432-.422-.01-.025-.02-.05-.028-.076-.033-.133.06-.254.196-.258.162-.004.323-.025.483-.04.266-.027.53-.07.79-.123.285-.055.565-.125.842-.21.115-.037.228-.078.342-.115.046-.015.056-.013.07.034.036.13.04.26-.037.38-.034.055-.074.105-.118.15-.175.184-.36.355-.553.52-.172.15-.376.24-.6.278-.097.017-.194.033-.256.03zM8.848 16.092c-.258.002-.51-.034-.748-.133-.03-.013-.058-.028-.085-.044-.11-.066-.142-.136-.124-.264.016-.105.046-.206.088-.303.057-.132.124-.257.2-.378.017-.026.035-.044.067-.052.273-.07.542-.157.804-.26.055-.023.09-.014.136.027.173.16.36.305.55.442.094.067.095.05.042.154-.09.174-.18.35-.3.506-.04.053-.084.102-.128.15-.092.102-.207.147-.34.152-.054.002-.11 0-.162 0zM17.302 12.876c-.06-.074-.105-.154-.113-.25-.004-.04-.002-.083-.002-.122-.024-.012-.037.005-.05.012-.098.044-.2.068-.307.075-.22.016-.44-.004-.656-.063-.64-.175-1.125-.556-1.467-1.12-.204-.336-.327-.703-.4-1.087-.027-.147-.05-.295-.048-.448.004.02.01.042.013.063.052.266.133.523.245.77.037.084.085.162.127.242.006.013.017.024.017.04-.034.023-.004.045.004.063.062.133.136.26.22.38.25.352.563.627.953.813.342.164.702.244 1.082.215.117-.01.232-.034.333-.096.024.015.017.034.016.05-.006.12.03.225.105.32.063.076.06.082-.03.13-.015.008-.028.016-.043.014zM5.29 14.722c-.028-.01-.042-.032-.054-.058-.078-.163-.048-.333.082-.46.063-.062.136-.113.206-.167.196-.15.382-.31.54-.5.187-.23.318-.488.398-.773l.014-.05c0-.004.004-.008.01-.016.006.03 0 .054-.006.08-.083.394-.27.734-.542 1.03-.12.13-.253.246-.388.36-.052.046-.105.09-.145.147-.088.125-.09.257-.004.384.01.015.032.026.023.05-.033 0-.06-.02-.087-.033-.018-.008-.032-.01-.046.005zM9.016 14.585c-.05-.043-.07-.105-.1-.162-.05-.107-.082-.22-.11-.334-.003-.013-.002-.025-.003-.038.024 0 .023.02.027.03.065.173.17.32.302.447.006.005.01.016.013.024-.044.005-.082.04-.13.03z"/><path fill="#fff" d="M20.18 6.608c.048.007.094.01.14.003.02 0 .04-.002.06.002.02.005.032.02.02.044-.03.06-.13.103-.195.086-.062-.015-.122-.037-.167-.086-.01-.01-.023-.02-.014-.038.007-.012.02-.01.033-.01h.124z"/><path fill="#8D7961" d="M10.923 9.31c-.03-.068-.04-.14-.05-.227.035.04.032.08.043.11.01.033.018.066.026.1l-.02.016zM20.15 6.855c.05.004.092.02.136.017-.026.07-.04.076-.09.04-.016-.014-.037-.024-.045-.057z"/><path fill="#383737" d="M14.225 5.225c.018-.195.117-.3.275-.304-.02.104 0 .156.066.175.06.018.11-.014.143-.093.075.05.11.157.085.265-.03.13-.123.202-.29.226 0 .005-.004.01-.003.014.066.1.11.207.15.318.043.12.11.23.177.34.097.16.2.32.28.49.065.138.114.278.116.432 0 .16-.05.3-.157.417-.125.135-.225.286-.32.44-.122.194-.238.39-.385.567-.092.11-.194.21-.32.28-.202.117-.418.144-.64.083-.315-.086-.624-.19-.915-.343-.244-.127-.45-.298-.588-.54-.094-.165-.154-.342-.186-.526-.048-.28-.14-.546-.24-.81-.067-.182-.136-.364-.172-.556-.04-.217-.015-.42.12-.603.036-.05.08-.095.126-.133.224-.182.46-.343.733-.445.158-.06.32-.09.49-.1.035 0 .058-.012.078-.04.06-.08.144-.12.24-.132.165-.024.328-.007.486.045.057.02.114.043.153.093-.026.028-.057.023-.085.025-.11.006-.22.012-.33.016-.038 0-.074.005-.122.02.373.064.722.156 1.032.38zm-1.455-.32c-.01-.004-.018-.01-.024-.008-.13.014-.257.033-.38.076-.207.07-.394.18-.57.303-.095.066-.19.133-.268.22-.09.1-.145.214-.157.348-.01.133.01.264.046.393.06.21.147.41.218.617.063.183.117.37.15.56.025.143.066.282.124.416.12.278.327.475.59.616.292.158.606.265.926.352.187.05.375.038.55-.055.145-.076.26-.186.358-.312.122-.154.223-.322.327-.488.102-.164.203-.33.337-.472.043-.046.08-.1.106-.158.062-.14.056-.28.014-.424-.06-.198-.165-.372-.27-.545-.118-.19-.235-.38-.308-.594-.043-.122-.116-.227-.207-.32-.168-.173-.37-.288-.596-.37-.2-.07-.405-.11-.614-.143-.087-.014-.14.01-.187.077-.022.033-.04.067-.054.104-.024.067-.034.138-.05.207-.007.03-.013.058-.03.082-.026.034-.056.033-.076-.003-.02-.037-.03-.078-.028-.12.003-.08.015-.157.034-.233l.038-.126zM14.438 5c-.1.03-.15.116-.144.235.01-.044.03-.085.054-.124.024-.037.078-.05.09-.11zM7.293 10.502c.226.03.446.095.642.225.037.024.07.056.098.09.062.07.085.154.063.246-.03.126-.032.252-.014.38.01.063.007.127-.018.188-.02.05-.046.093-.09.124s-.09.06-.132.093c-.058.044-.12.047-.188.027-.11-.033-.204-.096-.296-.16-.152-.108-.293-.23-.44-.346-.027-.02-.053-.044-.083-.06-.147-.074-.236-.32-.18-.498.02-.072.07-.122.13-.162.114-.073.24-.113.372-.133.042-.006.087-.008.136-.013zm-.6.428c.008.143.047.27.186.342.027.015.05.037.076.057.143.115.283.233.433.34.084.06.17.122.275.15.054.015.105.016.153-.02.03-.025.065-.044.098-.067.076-.053.114-.125.112-.22 0-.063-.007-.126-.015-.19-.01-.093.013-.185.03-.275.017-.076-.003-.14-.053-.196-.082-.094-.188-.15-.302-.19-.17-.06-.34-.127-.53-.09-.118.023-.23.057-.336.12-.092.055-.135.13-.13.238zM15.44 10.077c-.082 0-.162-.01-.24-.038-.146-.056-.23-.194-.21-.35.022-.16.092-.294.206-.406.118-.116.264-.134.417-.108.207.035.393.12.562.245.063.047.106.11.132.183.03.08.013.155-.04.22-.043.054-.1.088-.16.114-.162.07-.494.138-.667.14zm.013-.065c.05 0 .1.006.146 0 .16-.025.315-.065.468-.12.062-.02.113-.056.156-.105.04-.046.054-.097.033-.157-.026-.074-.072-.132-.135-.178-.078-.057-.163-.1-.25-.14-.13-.056-.267-.094-.413-.083-.087.005-.163.034-.225.095-.097.095-.157.21-.185.344-.03.147.047.282.19.326.07.02.142.02.213.016zM4.77 10.802c.127 0 .25.025.366.073.104.043.185.108.203.23.007.06.04.11.068.163.035.065.068.13.084.204.016.072 0 .138-.043.194-.065.082-.14.153-.23.207-.14.082-.278.085-.416-.006-.078-.052-.158-.1-.238-.147-.05-.03-.097-.067-.14-.11-.06-.062-.09-.14-.085-.226.006-.088.016-.176.026-.264.005-.046.02-.092.04-.134.05-.1.13-.165.245-.177.04-.005.08-.006.12-.008zm-.375.572c-.002.084.02.146.072.198.037.037.076.07.12.096.08.05.162.094.237.148.13.09.255.083.384.003.076-.048.136-.114.193-.18.043-.05.055-.108.035-.173-.02-.07-.05-.132-.086-.194-.032-.056-.058-.114-.07-.177-.01-.057-.042-.098-.09-.127-.163-.097-.337-.12-.523-.107-.134.01-.223.13-.24.232-.016.095-.022.194-.032.28zM16.017 11.14c-.02-.002-.05-.003-.08-.01-.196-.037-.294-.19-.25-.385.037-.17.12-.304.286-.376.216-.096.456-.018.556.182.09.18.04.367-.13.475-.114.072-.24.108-.383.113zm.157-.748c-.052.002-.098 0-.144.015-.2.063-.305.273-.295.453.005.078.04.14.11.18.058.034.124.05.19.046.133-.01.26-.048.368-.13.087-.064.128-.155.113-.263-.024-.167-.163-.317-.342-.3zM17.38 10.23c-.084.003-.162-.017-.235-.055-.11-.058-.155-.158-.11-.272.064-.165.18-.28.357-.32.083-.02.162 0 .234.042.088.05.14.124.146.23.012.232-.08.345-.31.37-.03.004-.056.004-.083.005zm.334-.34c-.003-.03.008-.07-.01-.106-.052-.1-.178-.167-.29-.146-.153.03-.252.126-.317.26-.048.102-.02.185.082.234.128.063.26.06.393.015.09-.03.137-.1.142-.195v-.06z"/><circle fill="#383737" cx="17.374" cy="10.921" r=".14"/><path fill="#383737" d="M17.175 11.41c.058 0 .104.044.104.102 0 .054-.043.1-.097.1-.06.004-.105-.038-.107-.096-.002-.058.04-.103.1-.105zM17.705 11.277c.045-.002.082.032.083.076 0 .043-.035.08-.08.08-.04 0-.075-.033-.08-.073-.003-.04.034-.08.077-.083zM11.464 12.068c-.024.083-.028.085-.095.094-.165.022-.33.02-.493.013-.15-.008-.296-.036-.438-.086-.012-.005-.026-.005-.03-.03.352.06.702.045 1.054.008zM12.454 13.336c-.076-.055-.13-.128-.18-.204-.117-.175-.194-.368-.256-.568-.016-.05-.013-.09.04-.126.105.313.21.623.396.898zM11.628 11.802c-.096-.255-.213-.497-.353-.73.066.057.116.126.165.195.087.12.174.242.23.383.032.083.032.082-.042.152z"/><path fill="#8D7961" d="M12.77 4.904l-.036.127c-.02.077-.03.154-.034.233 0 .042.008.083.028.12.02.038.05.04.075.004.018-.024.024-.053.03-.082.017-.07.026-.14.05-.207.014-.038.032-.072.055-.104.045-.066.1-.09.187-.077.21.033.415.072.614.144.224.082.427.196.595.37.09.093.164.198.206.32.074.213.19.403.308.593.107.173.213.348.27.545.043.143.05.284-.013.424-.026.06-.063.112-.106.158-.135.142-.236.308-.34.472-.103.166-.205.334-.326.49-.1.125-.214.235-.357.31-.176.094-.364.106-.55.056-.32-.086-.634-.194-.928-.352-.263-.14-.47-.338-.59-.616-.058-.133-.098-.273-.123-.416-.034-.19-.087-.377-.15-.56-.072-.206-.16-.406-.22-.617-.035-.13-.056-.26-.044-.393.012-.134.066-.25.157-.35.078-.085.172-.152.267-.218.177-.125.364-.233.57-.303.124-.042.252-.062.38-.076.004 0 .012.004.023.007zm1.403.478c-.07-.06-.145-.107-.243-.1-.047-.04-.1-.014-.146-.003-.233.054-.378.286-.327.514.044.2.2.32.36.34.23.03.4-.092.473-.26.08-.18.006-.413-.117-.492z"/><path fill="#fff" d="M14.438 5c-.012.06-.066.073-.09.11-.024.04-.043.08-.054.125-.007-.12.045-.206.144-.234z"/><path fill="#8D7961" d="M6.693 10.93c-.006-.107.038-.184.13-.24.104-.062.217-.096.336-.12.187-.036.357.03.528.09.114.042.22.097.302.19.05.058.07.12.054.197-.018.09-.042.183-.03.276.006.063.012.126.014.19.002.094-.036.166-.112.22-.032.022-.066.04-.098.065-.047.037-.1.036-.153.02-.104-.027-.19-.088-.276-.15-.15-.105-.292-.224-.434-.34-.025-.02-.05-.042-.077-.057-.14-.07-.18-.197-.187-.34zM15.453 10.012c-.07.005-.142.005-.21-.016-.145-.044-.223-.18-.192-.327.03-.134.09-.25.186-.345.062-.06.138-.09.224-.096.146-.012.282.026.413.083.088.04.173.083.25.14.063.045.11.103.135.177.02.06.007.11-.033.157-.042.05-.094.084-.156.106-.154.054-.31.093-.47.118-.048.008-.098.002-.147.002zM4.395 11.374c.01-.085.016-.183.032-.28.018-.102.106-.22.24-.23.187-.014.36.01.523.105.05.028.08.07.09.126.013.063.04.12.07.177.035.062.065.125.086.194.02.065.008.124-.034.173-.058.066-.117.132-.193.18-.13.078-.256.087-.385-.004-.076-.054-.157-.1-.236-.148-.045-.027-.085-.06-.122-.096-.053-.052-.075-.114-.073-.198zM16.174 10.392c.18-.016.318.134.342.3.015.11-.025.2-.113.265-.11.082-.235.12-.37.13-.064.003-.13-.013-.19-.047-.068-.04-.103-.102-.108-.18-.01-.18.095-.39.295-.453.046-.014.092-.012.144-.015zM17.714 9.89v.062c-.005.095-.05.165-.142.195-.132.044-.265.048-.394-.015-.1-.05-.13-.132-.082-.233.064-.136.164-.233.316-.262.113-.02.24.047.29.146.02.036.01.077.012.107z"/><path fill="#383737" d="M14.173 5.382c.123.08.195.312.117.492-.074.167-.243.29-.472.26-.16-.02-.317-.14-.36-.34-.052-.228.093-.46.326-.515.047-.012.1-.037.146.003-.01.014-.023.026-.032.04-.03.055-.03.11.005.16.035.052.087.073.147.06.057-.012.098-.04.108-.104.004-.02.014-.038.015-.058zm-.63.382c.02-.02.02-.042.02-.065.004-.137.075-.23.192-.292.013-.007.027-.012.04-.02.008-.005.014-.014.012-.025-.003-.012-.014-.013-.023-.012-.052.003-.095.024-.132.06-.085.078-.127.177-.132.292-.002.022-.004.045.024.062z"/><path fill="#fff" d="M14.173 5.382c0 .02-.01.038-.014.056-.01.063-.052.093-.11.104-.06.013-.11-.008-.146-.06-.035-.05-.035-.105-.005-.16.007-.014.02-.026.03-.04.098-.007.173.042.243.1zM13.544 5.764c-.028-.017-.026-.04-.025-.062.003-.115.046-.214.13-.293.038-.035.082-.057.133-.06.01 0 .02 0 .023.013.002.01-.003.02-.012.025-.013.008-.026.013-.04.02-.117.062-.188.154-.19.29 0 .024 0 .046-.02.066z"/></g><g fill="#292929"><path d="M1.31 18.393l-.125 3.503c-.03.854-.262 1.34-1.085 1.348H0v-.547c.5 0 .585-.254.6-.77l.147-4.08H2.94v5.39h-.6v-4.844H1.31zM4.974 20.934c-.5 0-.785.192-.785.8v.848c0 .362-.032.5-.1.654h-.61c.092-.185.108-.408.108-.647v-.84c0-.578.185-.978.67-1.125-.455-.146-.662-.516-.662-1.108v-.44c0-.8.354-1.23 1.2-1.23H6v5.39h-.6v-2.303h-.424zm-.162-2.54c-.447 0-.624.253-.624.738v.516c0 .585.285.74.754.74h.454V18.39h-.584zM7.76 18.393l-.122 3.503c-.03.854-.262 1.34-1.085 1.348h-.1v-.547c.5 0 .585-.254.6-.77l.147-4.08h2.194v5.39h-.602v-4.844h-1.03zM11.426 20.934c-.5 0-.786.192-.786.8v.848c0 .362-.03.5-.1.654h-.608c.092-.185.107-.408.107-.647v-.84c0-.578.184-.978.67-1.125-.455-.146-.663-.516-.663-1.108v-.44c0-.8.354-1.23 1.2-1.23h1.202v5.39h-.602v-2.303h-.422zm-.162-2.54c-.447 0-.624.253-.624.738v.516c0 .585.285.74.755.74h.454V18.39h-.586z"/></g><path fill="#292929" d="M14.083 18.393v4.843h-.593v-5.39h2.148v.546h-1.555zM16.604 22.15l-.208 1.086h-.555l1.033-5.39h.87l1.032 5.39h-.6l-.21-1.086h-1.36zm.077-.515h1.202l-.608-3.11-.593 3.11zM20.454 17.847c.84 0 1.17.4 1.17 1.193v.254c0 .57-.162.924-.63 1.07.522.146.723.562.723 1.155v.453c0 .808-.393 1.263-1.232 1.263h-1.24v-5.39h1.21zm-.147 2.286c.478 0 .724-.154.724-.716V19.1c0-.476-.16-.707-.592-.707h-.593v1.74h.462zm.177 2.556c.44 0 .64-.232.64-.732v-.477c0-.6-.24-.8-.756-.8h-.523v2.01h.64z"/></svg>