<?xml version="1.0" standalone="no"?>
<!DOCTYPE svg PUBLIC "-//W3C//DTD SVG 1.1//EN" "http://www.w3.org/Graphics/SVG/1.1/DTD/svg11.dtd" >
<svg xmlns="http://www.w3.org/2000/svg" xmlns:xlink="http://www.w3.org/1999/xlink" version="1.1">
<metadata></metadata>
<defs>
<font id="novitoregular" horiz-adv-x="1014" >
<font-face units-per-em="2048" ascent="1638" descent="-410" />
<missing-glyph horiz-adv-x="508" />
<glyph horiz-adv-x="0" />
<glyph unicode="&#xd;" horiz-adv-x="508" />
<glyph unicode=" "  horiz-adv-x="508" />
<glyph unicode="&#x09;" horiz-adv-x="508" />
<glyph unicode="&#xa0;" horiz-adv-x="508" />
<glyph unicode="!" horiz-adv-x="209" d="M63 12q4 -13 17 -13q11 0 21 10q30 26 20 56q-1 3 -1 2v5q0 4 1 11q-2 -9 0 -3q2 7 -2 -4q18 39 -3 50q-11 6 -25 -5q-12 -8 -18 -21q-23 -50 -10 -88zM75 197q-2 -34 29 -12q30 22 31 48q24 470 11 1175q0 36 -30 13q-30 -22 -30 -48q13 -705 -11 -1176z" />
<glyph unicode="&#x22;" horiz-adv-x="322" d="M50 1242q0 -18 13 -26q13 -7 29 2q17 10 29 30q11 19 11 39q0 34 4 101q3 66 4 100q0 18 -13 25q-13 8 -29 -1q-18 -10 -29 -30q-11 -19 -11 -39q0 -34 -4 -101t-4 -100zM183 1242q-1 -18 12 -26q13 -7 29 2q18 10 29 30q11 19 11 39q1 34 4 101q4 66 4 100q0 18 -13 25 q-13 8 -29 -1q-17 -10 -28 -30q-11 -19 -12 -39q0 -34 -3 -101q-4 -67 -4 -100z" />
<glyph unicode="#" horiz-adv-x="847" d="M53 593q3 -14 17 -14q70 0 165 -3q-39 -148 -67 -252q-6 -21 2 -28q7 -6 21 0q36 14 45 45q26 97 61 233l159 -5q-56 -180 -86 -279q-7 -22 0 -34q5 -10 18 -10t25 10q13 11 18 28q29 97 87 283q84 -3 149 -3q29 0 46 44q8 18 5 31t-18 13q-67 1 -155 3q45 144 78 256 q67 6 129 13q29 4 40 48q5 18 0 29q-6 12 -24 10q-55 -7 -119 -12q35 119 61 215q6 21 -2 28q-7 6 -22 0q-35 -14 -44 -46q-24 -89 -57 -201q-96 -5 -180 -3q35 131 64 233q7 22 0 34q-5 10 -18 10t-25 -10q-13 -11 -18 -28q-30 -104 -65 -236q-81 5 -155 17q-13 2 -27 -10 q-13 -12 -20 -29q-7 -18 -5 -32q3 -15 18 -17q78 -13 166 -18q-18 -67 -63 -241q-86 2 -153 3q-29 0 -47 -44q-7 -18 -4 -31zM320 663q48 186 62 241q83 -2 177 3q-32 -107 -76 -250q-2 0 -163 6z" />
<glyph unicode="$" horiz-adv-x="821" d="M84 1140q35 -122 225 -185q12 -198 16 -315q13 -412 18 -609q-55 -11 -98 11q-56 29 -53 115q3 72 38 129q15 25 -1 34q-17 10 -33 -15q-88 -143 -32 -258q50 -104 180 -67q3 -163 3 -283q0 -27 23 -11q24 16 23 36q0 119 -3 274q22 10 42 21q19 11 40 25q3 -122 4 -231 q0 -27 23 -11q23 17 23 37q0 111 -4 241q134 116 193 299t16 350q-45 171 -255 244q-11 224 -14 407q137 -53 126 -181q-3 -30 20 -21q22 10 25 32q8 96 -43 159q-46 56 -129 77q-1 115 1 214q0 27 -23 11q-23 -17 -24 -37q-1 -79 -1 -180q-39 3 -79 -1q-3 110 -2 193 q1 27 -23 10q-23 -16 -23 -36q-1 -74 1 -176q-111 -27 -169 -102q-65 -84 -31 -200zM117 1243q-2 62 48 103q46 38 120 49q4 -134 19 -370q-181 70 -187 218zM332 1399q40 0 79 -8q2 -178 13 -405q-50 15 -70 22q-18 275 -22 391zM358 939q40 -13 70 -24q42 -811 42 -818 q-40 -32 -81 -50q-3 89 -9 291q-6 189 -8 292q-3 122 -14 309zM476 895q196 -87 221 -281q34 -259 -181 -476q-3 70 -40 757z" />
<glyph unicode="%" horiz-adv-x="893" d="M53 18q3 -19 16 -27q14 -8 30 0q18 8 30 33q83 161 702 1357q12 24 10 45q-3 18 -17 26q-13 8 -29 1q-18 -9 -31 -34q-620 -1197 -701 -1356q-13 -25 -10 -45zM70 1089q12 -69 55 -105q48 -41 111 -12q120 55 121 208q0 61 -27 106q-32 52 -88 58q-2 1 -6 0q-8 4 -22 -4 q-63 -36 -107 -106q-49 -78 -37 -145zM148 1183q18 46 61 73q54 -6 73 -71q18 -61 -7 -109q-15 -30 -69 -27q-28 1 -53 42q-25 42 -5 92zM478 242q7 -69 54 -109q48 -42 114 -25q61 16 110 70q45 51 62 114q20 77 -22 143q-37 57 -113 94q-14 7 -30 -5q-15 -10 -24 -30 q-67 -25 -113 -106q-44 -77 -38 -146zM561 242q-32 59 9 122q41 65 108 47q6 -2 14 1q66 -50 63 -116q-3 -60 -79 -96q-34 -16 -66 -4q-30 13 -49 46z" />
<glyph unicode="&#x26;" horiz-adv-x="991" d="M77 301q14 -115 96 -205q81 -89 194 -117q114 -29 217 51q76 -40 155 -33q126 12 192 218q10 33 -14 33q-23 -1 -32 -29q-34 -106 -104 -138q-61 -28 -139 6q16 19 28 38q71 111 59 255q-12 143 -98 241q-15 18 -36 -10q-21 -27 -7 -43q81 -92 84 -234q3 -139 -71 -225 q-70 44 -123 119q-131 184 -199 560q-71 390 75 576q53 67 79 -34q20 -78 14 -136q-19 -181 -70 -218q-21 -15 -17 -42q4 -28 31 -8q62 44 99 230q38 190 -35 275q-31 38 -80 10q-37 -21 -65 -64q-91 -134 -100 -312q-8 -146 12 -299q-172 -240 -145 -465zM132 336 q-16 185 99 368q60 -352 233 -572q33 -42 75 -73q-80 -41 -185 -6q-204 69 -222 283z" />
<glyph unicode="'" horiz-adv-x="190" d="M50 1242q0 -18 13 -26q13 -7 29 2q17 10 29 30q11 19 11 39q0 34 4 101q3 66 4 100q0 18 -13 25q-13 8 -29 -1q-18 -10 -29 -30q-11 -19 -11 -39q0 -34 -4 -101t-4 -100z" />
<glyph unicode="(" horiz-adv-x="347" d="M56 675q-6 -424 154 -837q11 -30 42 -1t22 53q-156 402 -153 809q3 431 186 817q18 39 -11 39q-29 -1 -44 -33q-190 -401 -196 -847z" />
<glyph unicode=")" horiz-adv-x="362" d="M27 -129q11 -24 40 5q126 131 182 344q40 152 51 385q12 249 -16 440q-15 102 -67 246q-73 200 -84 238q-9 28 -38 1t-22 -50q16 -56 66 -183q45 -116 62 -185q42 -167 40 -453q-4 -533 -202 -740q-24 -25 -12 -48z" />
<glyph unicode="*" horiz-adv-x="472" d="M53 1332q-3 -14 3 -27q8 -14 24 -9q47 17 116 34q1 -4 1 -7q-17 -20 -35 -33q-36 -25 -36 -62q1 -15 12 -23q12 -8 25 2q19 13 37 30q0 -2 1 -9v-9q0 -21 11 -24q10 -3 25 7t25 26q12 17 11 31v6v6q15 -13 26 -23q12 -12 28 -6q14 5 26 21t15 33q3 18 -7 27 q-15 15 -38 35q16 3 17 3q13 3 26 19q11 15 16 34q4 19 -1 29q-6 13 -24 9q-3 -1 -9 -2q-8 -2 -10 -2q22 30 49 48q16 10 25 26q11 17 10 35q0 16 -11 23q-12 7 -26 -2q-68 -43 -120 -132v-1q-5 95 -1 159q1 16 -11 22q-12 7 -26 -1q-33 -18 -35 -62q-3 -40 -2 -87 q-1 0 -3 3l-3 3q-9 13 -24 8q-13 -5 -26 -21q-12 -16 -16 -33q-4 -19 4 -30q-1 1 7 -9q-31 -10 -32 -10q-17 -6 -29 -22q-12 -14 -15 -33z" />
<glyph unicode="+" horiz-adv-x="758" d="M52 704q2 -11 14 -11q45 0 122 -2q89 -1 122 -2q-3 -165 18 -281q3 -13 12 -12q8 1 19 11q26 25 22 46q-19 100 -18 236q182 0 311 20q10 2 19 14q8 10 12 24t0 23q-5 9 -19 7q-129 -20 -321 -19q1 25 6 141q4 86 4 140q0 16 -8 18q-7 3 -19 -5q-27 -20 -27 -43 q0 -18 -9 -251q-14 1 -110 2q-67 2 -110 2q-23 0 -36 -34q-6 -14 -4 -24z" />
<glyph unicode="," horiz-adv-x="219" d="M51 -149q-1 -13 4 -23q5 -9 14 -8q11 1 23 16q44 57 54 128q10 74 -21 137q-5 11 -15 7q-10 -2 -21 -15q-9 -12 -13 -26q-5 -16 0 -26q18 -38 15 -84q-4 -47 -29 -80q-9 -11 -11 -26z" />
<glyph unicode="-" horiz-adv-x="460" d="M56 598q-6 -15 1 -25q6 -11 28 -9q90 9 261 9q16 0 32 12q15 11 24 26q8 16 5 27q-3 12 -21 12q-177 0 -281 -10q-16 -2 -31 -14q-13 -12 -18 -28z" />
<glyph unicode="." horiz-adv-x="229" d="M50 51q0 31 19 53q19 23 45 23q27 0 46 -23q19 -22 19 -53q0 -32 -19 -54t-46 -22q-26 0 -45 22t-19 54z" />
<glyph unicode="/" horiz-adv-x="569" />
<glyph unicode="0" horiz-adv-x="666" d="M69 898q-19 -224 6 -480q23 -247 136 -377q79 -92 182 -54q92 33 143 138q49 100 61 257q5 53 6 135q2 117 2 132q11 310 -27 516q-47 259 -202 286q-164 19 -243 -203q-45 -125 -64 -350zM126 514q-6 86 4 330q7 211 32 318q52 221 183 206q146 -26 184 -285 q15 -99 13 -377q-1 -60 -6 -169q-6 -118 -7 -170q-4 -232 -102 -296q-62 -40 -132 17q-46 37 -90 111q-68 114 -79 315z" />
<glyph unicode="1" horiz-adv-x="404" d="M65 1029q7 -11 17 -10q12 1 26 19q74 102 159 239q-96 -783 -98 -1278q0 -19 11 -22q9 -3 23 7q35 24 35 54q1 510 112 1386q4 35 -20 33q-23 -1 -38 -27q-125 -213 -219 -342q-23 -31 -8 -59z" />
<glyph unicode="2" horiz-adv-x="618" d="M50 19q0 -23 18 -25q81 -5 210 3q166 11 209 12q28 0 45 44q8 17 5 29q-3 14 -17 14q-48 -1 -200 -11q-124 -8 -200 -4q12 350 249 673q110 150 147 248q52 140 13 283q-32 115 -136 157q-107 43 -200 -37q-79 -68 -110 -180q-31 -109 -3 -213q4 -16 16 -16q11 1 25 14 q32 32 25 59q-30 115 27 219q64 115 185 71q129 -45 120 -223q-8 -153 -87 -258q-335 -437 -341 -859z" />
<glyph unicode="3" horiz-adv-x="797" d="M60 232q-10 -117 39 -187q54 -79 167 -72q101 6 201 71q94 62 151 151q73 116 102 273q27 150 7 292q-17 116 -99 184q-76 64 -185 68q75 78 89 165q17 99 -51 187q-91 119 -214 71q-112 -45 -160 -178q-8 -21 -3 -33q5 -10 19 -10q31 1 45 38q32 89 104 104 q71 14 139 -53q84 -83 40 -178q-38 -80 -144 -134q-22 -10 -31 -51t23 -32q125 39 221 -8q99 -48 135 -172q30 -105 5 -249q-24 -134 -81 -238q-39 -69 -116 -118q-72 -46 -155 -61q-97 -18 -145 50q-42 59 -34 158q2 20 -8 23q-9 2 -24 -8q-35 -24 -37 -53z" />
<glyph unicode="4" horiz-adv-x="662" d="M53 615q-3 -11 1 -21q4 -13 15 -13q49 -2 160 -6q103 -5 160 -6q-27 -368 -27 -586q0 -19 10 -22q9 -3 23 7q33 23 33 52q1 201 26 547q63 -2 107 -2q27 0 44 42q7 17 5 29q-3 14 -17 14q-59 0 -133 2q3 40 5 77q38 536 64 712q3 22 -6 29q-7 6 -21 0q-33 -13 -38 -45 q-24 -164 -62 -680q-3 -41 -6 -91q-49 2 -136 5q-95 4 -135 6q71 308 111 760q2 19 -8 21q-8 3 -22 -7q-34 -23 -37 -51q-40 -456 -116 -773z" />
<glyph unicode="5" horiz-adv-x="749" d="M54 270q-4 -121 37 -197q51 -93 162 -97q205 -7 322 302q124 328 11 552q-44 87 -135 123q-86 34 -181 12q51 224 72 387h284q27 0 43 41q6 16 4 27q-3 13 -16 13h-325q-16 0 -31 -16q-13 -15 -15 -32q-21 -191 -88 -478q-3 -12 3 -23q7 -13 21 -8q163 57 274 -61 q116 -124 55 -419q-68 -330 -268 -339q-93 -4 -136 81q-33 66 -30 167q1 18 -9 21q-8 3 -22 -7q-32 -22 -32 -49z" />
<glyph unicode="6" horiz-adv-x="719" d="M123 274q15 -115 59 -191q58 -102 155 -108q115 -7 198 148q66 122 77 250q12 135 -12 256q-30 154 -111 224q-135 115 -307 -125q19 213 77 398q55 175 131 225q42 28 98 10q130 -42 89 -194q-6 -20 2 -26q6 -6 19 0q33 13 41 42q30 108 -21 190q-55 87 -169 75 q-112 -12 -207 -215q-192 -406 -119 -959zM175 620q178 291 297 120q110 -159 72 -422q-25 -180 -135 -249q-54 -34 -115 15q-47 38 -76 101q-33 75 -42 250q-5 90 -1 185z" />
<glyph unicode="7" horiz-adv-x="672" d="M52 1357q3 -13 17 -13q81 2 221 3q161 0 222 1q-173 -219 -261 -533q-79 2 -124 2q-28 0 -44 -42q-7 -17 -4 -28q2 -14 16 -14q48 0 134 -2q-74 -308 -77 -727q0 -19 10 -22q9 -2 22 7q33 23 34 52q3 401 70 689q78 -2 123 -2q27 0 44 42q7 17 4 29q-3 13 -16 13 q-49 0 -133 2q94 336 292 554q11 12 15 37q5 29 -16 28q-84 -2 -251 -3q-167 0 -250 -2q-27 -1 -43 -43q-7 -17 -5 -28z" />
<glyph unicode="8" horiz-adv-x="688" d="M52 183q2 -115 65 -172q68 -62 171 -54q90 7 176 60q136 84 157 266q17 149 -45 316q-52 141 -145 244q74 125 102 232q65 249 -61 339q-22 16 -45 -23t0 -55q90 -64 61 -213q-20 -105 -95 -240q-146 136 -176 178q-68 94 -34 212q16 56 55 83q44 31 108 19q26 -5 43 36 q18 41 -12 47q-92 17 -167 -51q-66 -59 -95 -155q-54 -181 145 -371q54 -52 83 -81q-226 -349 -257 -431q-36 -94 -34 -186zM143 364q20 63 151 267q16 25 43 65q32 50 42 65q76 -84 118 -175q98 -213 50 -378q-31 -109 -154 -153q-123 -45 -215 20q-104 72 -35 289z" />
<glyph unicode="9" horiz-adv-x="645" d="M67 1103q-17 -122 5 -237q19 -103 72 -159q62 -67 158 -55q120 15 214 164q0 -15 -2 -70q-2 -41 -3 -65q-8 -293 -63 -472q-22 -70 -71 -111q-53 -43 -124 -38q-70 6 -73 87q-3 65 29 121q22 38 -3 53q-25 14 -47 -24q-55 -96 -48 -186q8 -107 109 -139q84 -26 202 81 q63 58 108 223q65 241 53 675q3 13 -1 21v2v2q-10 309 -115 428q-66 74 -172 37q-92 -33 -149 -116q-60 -86 -79 -222zM143 897q-39 155 20 335q30 94 118 122q91 28 150 -52q83 -114 87 -357q-71 -178 -200 -206q-67 -15 -117 41q-39 44 -58 117z" />
<glyph unicode=":" horiz-adv-x="229" d="M50 475q0 31 19 53q19 23 45 23q27 0 46 -23q19 -22 19 -53q0 -32 -19 -54t-46 -22q-26 0 -45 22t-19 54zM50 949q0 32 19 54t45 22q27 0 46 -22t19 -54q0 -31 -19 -54q-19 -22 -46 -22q-26 0 -45 22q-19 23 -19 54z" />
<glyph unicode=";" horiz-adv-x="253" d="M52 171q-2 -19 5 -33q8 -13 21 -12q15 1 32 23q64 82 78 185q15 106 -30 198q-7 15 -22 10q-14 -4 -29 -22q-14 -18 -20 -38q-7 -23 0 -37q27 -55 22 -121q-5 -68 -42 -116q-13 -16 -15 -37zM54 949q0 32 19 54t46 22q26 0 45 -22t19 -54q0 -31 -19 -54q-19 -22 -45 -22 q-27 0 -46 22q-19 23 -19 54z" />
<glyph unicode="&#x3c;" />
<glyph unicode="=" horiz-adv-x="582" d="M51 822q2 -7 10 -7q71 -1 211 -10q140 -10 211 -10q7 0 15 7q6 7 10 17t3 17q-2 8 -10 8q-70 0 -211 10q-140 9 -210 10q-8 0 -15 -8q-7 -7 -11 -17t-3 -17zM52 649q1 -8 9 -8q74 1 221 8t221 7q7 0 14 8q7 7 11 17t3 17q-2 7 -10 7q-74 0 -221 -7t-220 -8q-8 0 -15 -7 t-11 -17t-2 -17z" />
<glyph unicode="&#x3e;" />
<glyph unicode="?" horiz-adv-x="613" d="M91 1253q-18 -107 34 -178q8 -12 21 -7q12 4 23 18q27 35 11 56q-34 48 -25 120q9 78 66 97q49 16 112 -10q52 -22 95 -62q89 -87 57 -251q-29 -152 -122 -233q-203 -178 -234 -238q-79 -152 -29 -350q3 -16 15 -15q10 1 23 13q30 29 24 55q-28 112 -2 211 q27 104 111 177q175 150 191 172q72 97 86 235q15 137 -35 247q-38 84 -148 122q-114 38 -187 -20q-69 -55 -87 -159zM157 65q7 -14 39 -60q15 -22 40 10t11 52q-32 47 -39 61q-6 11 -21 4q-12 -5 -19 -14q-23 -28 -11 -53z" />
<glyph unicode="@" horiz-adv-x="850" d="M59 549q-9 -302 15 -412q28 -130 148 -158q53 -12 94 -3q53 11 70 57q-2 -4 6 17q12 32 -11 32q-24 -1 -34 -28q-14 -38 -117 -5q-65 22 -99 102q-26 65 -28 172q0 35 2 90q3 68 3 86q9 541 25 702q10 103 79 153q62 46 167 43q151 -3 250 -154q72 -110 93 -281 q13 -106 9 -298q-10 -386 -50 -511q-31 -94 -65 -96q-47 -4 -79 119q-17 65 -10 308q1 28 0 297q0 208 -37 270q-51 83 -125 64q-69 -16 -110 -101q-14 -28 5 -39q18 -11 32 18q32 67 84 60q49 -7 77 -73q23 -56 23 -193q-93 72 -179 -54q-68 -101 -84 -222 q-31 -234 57 -304q56 -44 111 -42q57 2 94 56q8 -97 43 -165q20 -41 55 -57q39 -18 72 13q76 73 102 209q11 54 22 236q31 493 -37 711q-49 158 -163 235q-121 82 -279 49q-136 -27 -184 -173q-28 -84 -31 -269q-2 -85 -8 -230q-6 -170 -8 -231zM262 524q13 100 59 171 q61 95 135 17q8 -9 21 -3q0 -109 -4 -367q-1 -37 0 -66q-15 -1 -25 -20q-32 -56 -97 -18q-55 33 -76 80q-30 69 -13 206z" />
<glyph unicode="A" horiz-adv-x="581" d="M55 28q-5 -34 22 -23q26 10 30 36q24 182 52 507q27 0 104 4q65 4 103 5q7 -36 55 -269q33 -163 54 -269q5 -26 31 -1q25 24 21 46q-21 105 -55 270q-46 229 -55 271q2 10 -3 16q-98 487 -142 800q-3 24 -27 5q-23 -18 -25 -34q-67 -423 -93 -633q-10 -81 -20 -186 q-2 -8 -1 -14q-41 -457 -51 -531zM165 615q5 67 8 101q16 180 70 510q39 -250 110 -602q-22 -1 -94 -5q-59 -3 -94 -4z" />
<glyph unicode="B" horiz-adv-x="579" d="M62 784q3 -93 4 -148q4 -271 15 -447v-38q1 -34 3 -58q6 -78 29 -86l6 -2q34 -5 66 -5q145 0 239 112q96 115 96 288q0 17 -1 34q-13 229 -131 353q-64 67 -190 67h-11q177 150 205 334q3 22 3 41q0 94 -74 150q-73 55 -190 55h-16q-14 0 -26 -13q-11 -13 -13 -28 q-18 -131 -18 -357q0 -105 4 -230q-5 -15 0 -22zM115 863q-3 114 -3 209q0 181 12 293q206 -8 216 -163v-16q0 -167 -225 -323zM118 783q24 2 46 2q93 0 154 -37q71 -44 119 -208q26 -89 26 -167q0 -92 -36 -168q-65 -135 -219 -135q-28 0 -58 4q-7 6 -17 192 q-9 158 -13 422q-1 40 -2 95z" />
<glyph unicode="C" horiz-adv-x="645" d="M65 1021q5 -66 53 -323q61 -327 69 -358q56 -209 162 -317q53 -53 98 -53q47 0 85 58q58 87 59 202q0 9 -1 18q-2 33 -30 13q-29 -20 -28 -45q1 -15 1 -28q0 -64 -16 -99q-16 -37 -48 -38q-22 0 -51 18q-78 46 -137 212q-16 45 -96 415q-56 260 -58 425q0 3 -1 7 q0 92 28 157q37 89 116 112q11 3 22 3q43 0 82 -46q35 -42 56 -106q9 -27 35 -1q27 26 20 49q-47 142 -152 173q-14 4 -29 4q-85 0 -179 -140q-63 -91 -63 -247q0 -30 3 -65z" />
<glyph unicode="D" horiz-adv-x="1042" d="M50 1388q7 -235 13 -684q7 -465 12 -684v-1v-1q-1 -18 14 -18q351 0 536 68q281 104 332 382q13 71 13 140q0 119 -38 234q-55 169 -185 307q-125 133 -296 214q-173 81 -360 93q-16 1 -29 -17q-12 -16 -12 -33zM107 1365q265 -29 496 -197q304 -220 307 -645v-6 q0 -276 -268 -380q-173 -66 -512 -67q-6 213 -12 647q-6 430 -11 648z" />
<glyph unicode="E" horiz-adv-x="490" d="M71 25q1 -18 15 -20q37 -5 81 -5q99 0 232 25q23 5 32 40q9 34 -19 29q-135 -26 -226 -26q-18 0 -33 1q-31 2 -33 79q-1 24 1 60q2 39 2 42v58q0 110 2 365q1 49 1 129h10q33 0 81 5q77 8 91 9q23 1 36 36q14 35 -10 33q-205 -12 -208 -12q0 335 7 498h28q58 0 209 -2 q23 0 36 35q14 34 -10 35q-114 2 -183 2t-93 -2q-17 -1 -29 -17q-10 -15 -11 -33q-18 -355 -18 -765q0 -286 9 -599z" />
<glyph unicode="F" horiz-adv-x="478" d="M72 -10q1 -32 29 -13q28 20 27 44q-9 340 -9 651v112h20q33 0 78 4q86 9 96 9q23 2 37 37q14 36 -10 35q-195 -12 -218 -12h-2q3 261 14 507h29q59 0 213 -2q24 0 38 35q14 36 -11 36q-116 2 -186 2t-95 -2q-18 -1 -30 -17q-11 -15 -12 -34q-17 -355 -17 -764 q0 -300 9 -628z" />
<glyph unicode="G" horiz-adv-x="602" d="M100 1052q-24 -177 -24 -355q0 -188 27 -376q22 -159 90 -264q57 -87 126 -87q48 0 102 42q114 90 129 304v13q0 61 -12 333q-1 21 -15 21h-191q-23 0 -38 -36q-14 -37 11 -37h114q7 0 21 3q15 2 20 2q21 1 22 -18q6 -112 7 -124q1 -37 1 -71q0 -132 -21 -224 q-17 -77 -74 -111q-27 -16 -55 -16q-35 0 -71 26q-65 49 -104 245q-30 152 -30 364q0 86 5 181q9 175 27 277q18 98 61 172q39 67 95 67q12 0 24 -3q66 -15 108 -93q12 -22 36 8q25 31 14 52q-50 92 -127 106q-12 2 -24 2q-66 0 -128 -63q-93 -95 -126 -340z" />
<glyph unicode="H" horiz-adv-x="587" d="M50 1396q0 -102 15 -709q4 -187 4 -346q0 -206 -7 -363q-2 -32 27 -12t30 44q8 158 8 361q0 141 -4 303q-13 -1 355 36q-1 0 2 1v-708q0 -33 29 -13q28 20 28 45v1392q0 33 -28 13q-29 -20 -29 -44v-616q-327 -34 -359 -34q-13 555 -14 681q0 33 -28 13q-29 -20 -29 -44z " />
<glyph unicode="I" horiz-adv-x="288" d="M112 1408q1 -127 10 -350q9 -249 11 -350q1 -44 1 -98q0 -108 -3 -254q-4 -268 -5 -352q0 -32 28 -13q28 20 28 44q0 93 4 352q3 177 4 296q0 30 -1 56q-2 111 -11 350q-10 228 -10 350q0 32 -28 13q-28 -20 -28 -44z" />
<glyph unicode="J" horiz-adv-x="519" d="M53 366q4 -28 4 -82v-23q0 -81 3 -115q12 -136 103 -173q32 -13 63 -13q45 0 89 26q69 40 100 119q40 102 48 252q3 51 3 130q0 116 1 128q1 64 1 143q0 118 -2 269q-3 338 -3 412q0 33 -29 12q-28 -20 -28 -44v-434q0 -568 -2 -634q-4 -147 -41 -224q-39 -80 -111 -80 q-32 0 -71 16q-62 25 -70 164q-1 17 -1 44.5t1 66.5v24q0 45 -3 64q-4 27 -31 1t-24 -49z" />
<glyph unicode="K" horiz-adv-x="584" d="M54 1405q-1 -97 -1 -217q0 -210 4 -490q7 -533 7 -707q0 -32 28 -12q28 19 28 43v31q0 -4 0 2q-1 155 -8 705q12 1 23 1q144 0 195 -121q33 -76 33 -236q0 -25 -1 -53q-3 -102 -3 -169q0 -90 5 -119q20 -118 112 -118q8 0 16 1q23 2 32 37q10 35 -19 32q-4 0 -8 -1 q-86 0 -90 200v16q0 59 6 146q7 88 7 108q0 326 -244 344q230 237 254 608q2 31 -26 12q-28 -20 -30 -43q-22 -353 -263 -571q-3 226 -3 404q0 107 1 198q1 32 -27 12q-28 -19 -28 -43z" />
<glyph unicode="L" horiz-adv-x="593" d="M51 1404q6 -125 14 -333q9 -249 13 -333q3 -80 22 -359q15 -222 16 -359q0 -20 14 -20h362q23 0 37 36q14 35 -11 35h-172q-11 0 -55 -3q-37 -3 -57 -1q-62 6 -63 61q-1 42 -29 475q-11 162 -20 416q-12 358 -15 416q-1 33 -29 13t-27 -44z" />
<glyph unicode="M" horiz-adv-x="1169" d="M50 1429q16 -898 50 -1464q2 -34 31 -13q28 20 27 45q-33 539 -48 1341q185 -253 438 -577q8 -10 21 -5q11 4 18 15q68 93 226 293q149 189 224 295q-2 -132 -2 -265q0 -534 26 -1096q1 -34 30 -14q28 21 27 46q-26 561 -26 1091q0 171 3 340q1 25 -20 18q-19 -6 -29 -22 q-82 -124 -229 -310q-189 -240 -236 -304q-285 365 -477 632q-14 20 -35 -5q-19 -23 -19 -41z" />
<glyph unicode="N" horiz-adv-x="627" d="M50 1398q15 -856 48 -1397q2 -31 29 -12t26 43q-30 484 -44 1175q36 -109 214 -605q133 -369 199 -608q7 -26 31 -3q24 22 23 41q-42 845 -61 1417q-1 32 -28 13t-26 -43q15 -491 47 -1157q-55 174 -204 586q-136 374 -200 588q-8 26 -31 3q-23 -22 -23 -41z" />
<glyph unicode="O" horiz-adv-x="662" d="M151 273q33 -225 112 -294q24 -21 53 -21q37 0 82 33q55 40 103 109q100 146 101 428q0 31 -2 63q-8 249 -44 439q-41 212 -107 325q-63 107 -140 107q-56 0 -119 -55v-1q-12 -9 -17 -24q-68 -235 -68 -546q0 -256 46 -563zM194 410q-29 258 -30 469q0 287 55 484 q37 28 71 28q130 0 211 -408q14 -72 35 -305q9 -98 9 -181q0 -214 -58 -330q-42 -85 -102 -116q-23 -12 -43 -12q-44 0 -75 56q-47 81 -73 315z" />
<glyph unicode="P" horiz-adv-x="465" d="M50 1392q1 -239 10 -696q10 -473 11 -697q0 -31 27 -12q26 19 26 42q-1 214 -8 575q135 23 210 144q64 104 75 260q2 30 2 59q0 144 -59 240q-81 131 -254 134q-17 1 -29 -16q-11 -16 -11 -33zM104 1370q195 -22 236 -234q12 -63 12 -122q0 -91 -29 -172 q-58 -159 -208 -174q-10 471 -11 702z" />
<glyph unicode="Q" horiz-adv-x="1517" d="M74 618q25 -291 180 -471q149 -173 369 -173q36 0 74 5q211 25 394 161q132 -131 203 -158q25 -10 47 -10q69 0 111 96q15 36 -12 35t-40 -30q-11 -25 -37 -25q-61 0 -211 142q251 225 266 527q1 16 1 32q0 132 -51 266q-56 149 -159 255q-177 184 -484 184q-30 0 -62 -2 q-49 -3 -128 -16q-242 -51 -369 -302q-96 -189 -96 -419q0 -48 4 -97zM150 566q-15 92 -15 179q0 160 52 304q96 264 335 314q87 15 167 15q195 0 351 -90q231 -133 299 -422q17 -72 17 -143q0 -108 -40 -213q-61 -162 -203 -282q-21 22 -57 59q-28 28 -35 34 q-122 111 -212 111q-81 0 -137 -91q-19 -31 2 -43q21 -13 40 19q30 49 77 49q31 0 70 -21q59 -34 189 -164q-124 -85 -269 -119q-60 -14 -120 -14q-63 0 -126 16q-122 32 -214 119q-125 117 -171 383z" />
<glyph unicode="R" horiz-adv-x="577" d="M54 1391q-2 -105 -2 -237q0 -199 4 -461q8 -526 8 -698q0 -31 28 -12q27 19 27 43v30v2q0 156 -8 696q12 1 23 1q142 0 192 -119q33 -75 33 -233q0 -25 -1 -52q-3 -100 -3 -167q0 -89 5 -118q20 -116 109 -116q8 0 17 1q23 2 32 37q9 34 -19 31h-8q-85 0 -89 196v16 q0 58 6 144q8 97 8 110q-8 320 -242 337q80 67 102 105q42 72 50 212q1 15 1 28q0 109 -49 178q-59 82 -184 96q-16 2 -29 -17q-11 -16 -11 -33zM108 1365q159 -37 164 -227v-16q0 -143 -67 -205q-7 -7 -48 -43q-29 -26 -47 -44q-3 205 -3 375q0 84 1 160z" />
<glyph unicode="S" horiz-adv-x="632" d="M69 1111q17 -109 83 -211q29 -45 195 -221q120 -128 152 -249q12 -45 12 -93q0 -54 -15 -111q-30 -119 -107 -168q-26 -17 -57 -11q-28 6 -50 30q-20 23 -20 55q0 42 35 101q17 30 -2 41q-20 11 -37 -18q-46 -78 -46 -154v-9q5 -97 99 -115q12 -2 24 -2q86 0 151 117 q54 97 73 214q5 33 5 65q0 114 -63 223q-54 94 -190 229q-141 140 -182 279q-11 38 -11 80q0 24 4 50q10 71 46 122q33 47 84 47q58 0 141 -61q18 -14 37 18t1 46q-77 57 -148 57q-19 0 -37 -4q-87 -19 -143 -125q-39 -73 -39 -159q0 -31 5 -63z" />
<glyph unicode="T" horiz-adv-x="598" d="M63 1388q18 -25 115 -25q22 0 48 1q-1 -3 -1 -4q1 -309 31 -1367q1 -31 28 -12t26 42q-30 1040 -31 1342q28 1 110 4q69 2 110 2q22 0 35 35q14 34 -10 34q-41 -1 -110 -3q-82 -3 -110 -3q-5 -1 -41 -3q-36 -3 -60 -3h-16q-67 0 -78 16q-14 20 -36 -9q-23 -29 -10 -47z " />
<glyph unicode="U" horiz-adv-x="544" d="M70 456q15 -198 49 -315q53 -180 147 -180q26 0 54 14q81 38 125 199q39 138 46 431q1 31 0 67q0 143 -9 357q-15 306 -16 423q0 33 -29 13q-28 -20 -28 -44q1 -118 12 -342q12 -232 13 -341v-65q0 -203 -16 -352q-12 -116 -20 -150q-23 -98 -71 -127q-20 -12 -39 -13 q-81 0 -128 233q-31 153 -40 344q-3 66 -3 168q0 236 16 664q2 32 -27 12t-30 -44q-15 -387 -15 -640q0 -195 9 -312z" />
<glyph unicode="V" horiz-adv-x="604" d="M54 1397q234 -1185 268 -1422q3 -25 28 -5q23 19 26 35q70 444 97 664q15 119 37 383q21 249 39 382q5 36 -23 25t-32 -39q-23 -172 -69 -706q-16 -189 -73 -534q-24 153 -243 1263q-6 28 -32 2q-27 -26 -23 -48z" />
<glyph unicode="W" horiz-adv-x="1301" d="M56 1409q73 -276 196 -702q173 -600 201 -702q6 -23 28 -8q19 13 26 30q72 187 144 406q19 -51 80 -214q50 -133 80 -214q9 -25 32 -5q21 17 24 37q55 282 174 690q13 43 102 342q61 207 99 342q9 36 -20 24q-30 -12 -37 -38q-13 -48 -184 -626q-111 -379 -166 -631 q-16 44 -75 200q-47 124 -75 200q27 86 53 176q5 18 30 99q21 64 31 106q23 90 23 158q0 28 -4 52q-4 28 -32 1q-27 -26 -24 -49q1 -5 1 -12q0 -43 -28 -165q-23 -99 -72 -264q-1 -4 -3 -11q-3 -8 -4 -12q-92 257 -147 452q-8 29 -35 2t-21 -50q61 -217 169 -514 q-61 -196 -132 -386l-378 1335q-7 28 -35 1q-27 -26 -21 -50z" />
<glyph unicode="X" horiz-adv-x="713" d="M61 1413q59 -118 123 -310q96 -292 106 -318q-151 -450 -188 -780q-4 -37 24 -25q29 11 32 40q35 301 161 692q259 -631 282 -718q8 -28 35 -2q27 27 21 50q-21 79 -286 727q-9 21 -18 45q34 99 104 294q70 196 103 294q13 36 -14 36q-26 0 -37 -31q-32 -96 -91 -259 q-68 -190 -92 -259q-186 527 -215 584q-11 23 -36 -8t-14 -52z" />
<glyph unicode="Y" horiz-adv-x="709" d="M58 1390q42 -112 134 -332q92 -221 134 -332q0 -1 16 -721q1 -34 30 -14q29 21 28 46q-16 716 -16 718q179 467 260 653q15 35 -12 35q-26 -1 -39 -30q-83 -192 -233 -582q-34 89 -124 303q-80 193 -122 304q-10 28 -37 1t-19 -49z" />
<glyph unicode="Z" horiz-adv-x="694" d="M58 16q-8 -25 7 -35t32 12q52 68 118 68q21 0 43 -7q28 -9 82 -39q59 -33 87 -44q23 -9 44 -9q85 0 141 148q13 36 -13 35t-37 -30q-28 -73 -81 -73q-16 0 -33 6q-24 9 -71 37q-51 31 -74 40q-33 14 -64 13q-53 0 -104 -37q233 764 502 1290q7 13 6 32q-1 22 -20 15 q-194 -75 -264 -87q-16 -3 -32 -3q-97 0 -221 96q-15 12 -33 -12q-17 -22 -15 -38q6 -61 29 -117q12 -28 38 -1q26 26 17 48l-1 2q0 1 -1 2q80 -42 168 -42q19 0 38 2q78 9 217 61q-271 -546 -505 -1333z" />
<glyph unicode="[" horiz-adv-x="758" />
<glyph unicode="\" horiz-adv-x="569" />
<glyph unicode="]" horiz-adv-x="758" />
<glyph unicode="^" />
<glyph unicode="_" horiz-adv-x="1024" />
<glyph unicode="`" horiz-adv-x="1024" />
<glyph unicode="a" horiz-adv-x="922" />
<glyph unicode="b" horiz-adv-x="995" />
<glyph unicode="c" horiz-adv-x="905" />
<glyph unicode="d" horiz-adv-x="1040" />
<glyph unicode="e" horiz-adv-x="909" />
<glyph unicode="f" horiz-adv-x="559" />
<glyph unicode="g" horiz-adv-x="899" />
<glyph unicode="h" horiz-adv-x="1104" />
<glyph unicode="i" horiz-adv-x="514" />
<glyph unicode="j" horiz-adv-x="510" />
<glyph unicode="k" horiz-adv-x="1026" />
<glyph unicode="l" horiz-adv-x="522" />
<glyph unicode="m" horiz-adv-x="1569" />
<glyph unicode="n" horiz-adv-x="1108" />
<glyph unicode="o" horiz-adv-x="1010" />
<glyph unicode="p" horiz-adv-x="1010" />
<glyph unicode="q" horiz-adv-x="1024" />
<glyph unicode="r" horiz-adv-x="692" />
<glyph unicode="s" horiz-adv-x="702" />
<glyph unicode="t" horiz-adv-x="674" />
<glyph unicode="u" horiz-adv-x="1059" />
<glyph unicode="v" horiz-adv-x="993" />
<glyph unicode="w" horiz-adv-x="1415" />
<glyph unicode="x" horiz-adv-x="1010" />
<glyph unicode="y" horiz-adv-x="868" />
<glyph unicode="z" horiz-adv-x="727" />
<glyph unicode="{" />
<glyph unicode="|" />
<glyph unicode="}" />
<glyph unicode="~" />
<glyph unicode="&#xa2;" horiz-adv-x="1139" />
<glyph unicode="&#xa3;" />
<glyph unicode="&#xa5;" horiz-adv-x="1262" />
<glyph unicode="&#xa8;" horiz-adv-x="1024" />
<glyph unicode="&#xa9;" horiz-adv-x="1674" />
<glyph unicode="&#xab;" horiz-adv-x="477" d="M53 731q-3 -102 55 -239q18 -41 111 -222q5 -10 16 -7q9 3 19 15q23 30 13 50q-115 223 -153 387q-9 39 18 90q9 17 26 43q21 30 26 39q78 129 85 142q24 13 26 36q1 9 1 14q3 19 -7 26q-2 1 -3 2q-9 6 -23 -3q-11 -8 -16 -19q-24 -45 -67 -116q-54 -89 -69 -115 q-5 -9 -17 -28q-14 -20 -19 -30q-21 -36 -22 -65zM193 645q-2 -95 53 -195q28 -50 119 -168q7 -10 19 -6q10 3 19 16q23 30 9 48q-102 133 -128 190q-52 112 -14 220q18 52 77 170q53 106 72 172q5 17 -2 23q-5 5 -17 0q-28 -11 -35 -36q-14 -50 -100 -214 q-69 -133 -72 -220z" />
<glyph unicode="&#xad;" horiz-adv-x="460" d="M56 598q-6 -15 1 -25q6 -11 28 -9q90 9 261 9q16 0 32 12q15 11 24 26q8 16 5 27q-3 12 -21 12q-177 0 -281 -10q-16 -2 -31 -14q-13 -12 -18 -28z" />
<glyph unicode="&#xae;" horiz-adv-x="1674" />
<glyph unicode="&#xb4;" horiz-adv-x="1024" />
<glyph unicode="&#xb8;" horiz-adv-x="1024" />
<glyph unicode="&#xbb;" horiz-adv-x="631" />
<glyph unicode="&#x2c6;" horiz-adv-x="1024" />
<glyph unicode="&#x2da;" horiz-adv-x="1024" />
<glyph unicode="&#x2dc;" horiz-adv-x="1024" />
<glyph unicode="&#x401;" horiz-adv-x="516" d="M81 17q-1 -21 15 -21q23 0 164 4q99 3 163 1q24 0 39 36q14 37 -11 38q-51 2 -286 -5q-25 -1 -26 7q1 -6 3 32q1 33 3 92q4 139 7 395q0 11 2 194q58 16 224 16q24 0 39 37q14 36 -11 36q-187 0 -252 -20q3 388 4 499h207q24 0 39 37q14 37 -11 37h-250q-18 0 -31 -18 q-12 -17 -12 -35q-12 -1208 -19 -1362zM168 1592q0 -54 12 -80q15 -32 47 0t20 58q-10 20 -10 60q0 16 -11 22t-24 -1q-34 -19 -34 -59zM299 1527q0 -15 11 -21q11 -7 25 1q34 19 34 59v70q0 15 -11 22q-11 6 -25 -2q-34 -19 -34 -59v-70z" />
<glyph unicode="&#x410;" horiz-adv-x="581" d="M55 28q-5 -34 22 -23q26 10 30 36q24 182 52 507q27 0 104 4q65 4 103 5q7 -36 55 -269q33 -163 54 -269q5 -26 31 -1q25 24 21 46q-21 105 -55 270q-46 229 -55 271q2 10 -3 16q-98 487 -142 800q-3 24 -27 5q-23 -18 -25 -34q-67 -423 -93 -633q-10 -81 -20 -186 q-2 -8 -1 -14q-41 -457 -51 -531zM165 615q5 67 8 101q16 180 70 510q39 -250 110 -602q-22 -1 -94 -5q-59 -3 -94 -4z" />
<glyph unicode="&#x411;" horiz-adv-x="631" d="M93 738q5 -515 31 -686q9 -61 72 -67q38 -4 118 16q91 22 154 107q54 73 77 175q24 106 -2 235q-26 121 -86 220q-79 130 -308 107v82q-1 363 6 437q141 -3 268 -3q23 0 37 35q14 34 -11 34q-154 0 -303 4q-14 0 -26 -14q-12 -13 -13 -28q-20 -146 -14 -654zM150 778 q192 15 271 -115q59 -97 74 -224q16 -129 -22 -233q-40 -111 -170 -143q-34 -8 -68 -9q-50 -1 -55 21q-9 41 -17 200q-11 212 -13 503z" />
<glyph unicode="&#x412;" horiz-adv-x="626" d="M93 784q3 -93 4 -148q4 -271 15 -447v-38q1 -34 3 -58q6 -78 29 -86l6 -2q191 -30 305 107q105 126 95 322q-13 229 -131 353q-67 70 -201 67q177 150 205 334q19 124 -71 191q-78 59 -206 55q-14 0 -26 -13q-11 -13 -13 -28q-26 -191 -14 -587q-5 -15 0 -22zM146 863 q-10 331 9 502q206 -8 216 -163q11 -176 -225 -339zM149 783q125 11 200 -35q71 -44 119 -208q57 -193 -10 -335q-77 -160 -277 -131q-7 6 -17 192q-9 158 -13 422q-1 40 -2 95z" />
<glyph unicode="&#x413;" horiz-adv-x="563" d="M93 -7q-2 -33 26 -12q28 20 30 43q9 231 1 1339h321q22 0 37 36q14 35 -10 35h-363q-18 0 -31 -17q-11 -17 -11 -34q6 -1210 0 -1390z" />
<glyph unicode="&#x414;" horiz-adv-x="724" d="M57 -3q36 -95 35 -174q0 -32 28 -13q28 20 28 44q1 66 -19 134q193 13 483 -4q-4 -19 -16 -81q-11 -49 -14 -80q-5 -36 23 -25q27 11 31 38q4 33 17 95q13 63 17 95q4 28 -13 28q-23 1 -58 1q1 3 1 5q0 161 8 677q6 421 3 677q-1 20 -15 20h-345q-17 0 -30 -18 q-12 -16 -11 -33q5 -99 16 -261q12 -200 16 -262q12 -196 25 -425q8 -158 4 -207q-13 -135 -89 -168q-48 -2 -85 -5q-18 -1 -32 -21q-15 -20 -8 -37zM264 61q67 91 67 284q0 64 -7 155q-11 129 -11 130q-7 129 -22 367q-16 253 -22 366h288q-1 0 -1 -101q0 -94 -4 -263 q-7 -323 -8 -940v-3q-209 6 -280 5z" />
<glyph unicode="&#x415;" horiz-adv-x="490" d="M92 25q1 -18 15 -20q120 -16 313 20q23 5 32 40q9 34 -19 29q-161 -31 -259 -25q-31 2 -33 79q-1 24 1 60q2 39 2 42q-1 83 2 423q1 49 1 129q35 -1 91 5q77 8 91 9q23 1 36 36q14 35 -10 33q-205 -12 -208 -12q0 335 7 498q36 1 237 -2q23 0 36 35q14 34 -10 35 q-227 4 -276 0q-17 -1 -29 -17q-10 -15 -11 -33q-30 -604 -9 -1364z" />
<glyph unicode="&#x416;" horiz-adv-x="985" d="M49 7q-14 -34 11 -37q117 -13 142 115q11 60 2 288q-8 201 27 286q53 126 217 109q13 -1 25 11q8 -625 8 -764q0 -31 28 -12q27 19 27 42v31q0 -3 0 2q-1 158 -8 692q160 10 214 -117q37 -87 32 -284q-7 -233 2 -284q21 -126 125 -114q23 2 32 36q9 35 -19 32 q-93 -10 -96 195q-1 62 6 159t7 110q-7 318 -240 335q226 233 249 596q2 32 -25 12q-28 -19 -29 -42q-22 -346 -259 -561q-5 355 -2 591q1 32 -26 13q-28 -19 -28 -43q-3 -228 1 -561q-254 226 -277 591q-2 32 -29 13t-26 -43q22 -348 236 -570q-100 -19 -158 -103 q-54 -78 -65 -201q-5 -52 2 -307q3 -99 0 -118q-12 -72 -69 -66q-23 3 -37 -32z" />
<glyph unicode="&#x417;" horiz-adv-x="563" d="M77 257q0 -126 38 -208q52 -113 164 -92q94 18 153 135q44 87 59 203q24 190 0 387q-34 283 -165 331q82 75 107 165q28 102 -26 197q-71 123 -183 64q-95 -51 -143 -168q-15 -36 12 -35q27 0 40 31q34 83 93 105q64 25 121 -46q66 -81 21 -176q-38 -80 -131 -133 q-18 -10 -26 -42q-9 -33 20 -28q215 31 209 -552q-2 -255 -104 -343q-95 -82 -155 41q-45 93 -45 197q1 34 -29 13q-29 -21 -30 -46z" />
<glyph unicode="&#x418;" horiz-adv-x="641" d="M86 -11q0 -31 25 -14q25 16 30 36q56 243 174 619q158 505 190 616q16 -735 6 -1240q-1 -31 27 -12t28 43q11 543 -10 1404q-1 31 -25 14q-24 -16 -29 -36q-56 -218 -177 -602q-133 -420 -182 -600q5 716 0 1228q0 32 -27 13q-28 -20 -28 -43q6 -577 -2 -1426z" />
<glyph unicode="&#x419;" horiz-adv-x="626" d="M76 5q0 -31 25 -14q25 16 29 36q57 238 175 608q159 495 190 604q15 -732 4 -1234q0 -32 27 -13q28 20 28 43q12 540 -7 1396q-1 31 -26 14q-23 -16 -28 -36q-56 -214 -178 -591q-133 -413 -182 -589q7 711 3 1223q0 32 -28 12q-27 -19 -27 -43q4 -571 -5 -1416z M170 1574q84 -67 171 -59q90 8 149 95q20 29 0 40t-39 -17q-42 -61 -119 -51q-63 9 -124 58q-18 14 -38 -18q-19 -33 0 -48z" />
<glyph unicode="&#x41a;" horiz-adv-x="584" d="M80 1405q-4 -266 3 -707q7 -533 7 -707q0 -32 28 -12q28 19 28 43v31q0 -4 0 2q-1 155 -8 705q163 10 218 -120q38 -88 32 -289q-6 -237 2 -288q22 -128 128 -117q23 2 32 37q10 35 -19 32q-94 -10 -98 199q-1 63 6 162q8 99 7 112q-7 323 -244 340q230 237 254 608 q2 31 -26 12q-28 -20 -30 -43q-22 -353 -263 -571q-5 361 -2 602q1 32 -27 12q-28 -19 -28 -43z" />
<glyph unicode="&#x41b;" horiz-adv-x="594" d="M44 -23q-9 -35 17 -26q149 49 168 286q3 37 -15 363q-7 135 -22 382q-16 265 -22 383h128h162q-11 0 -11 -64q-1 -19 1 -46l1 -27q0 -91 -4 -257q-7 -318 -8 -945v-31q0 -31 27 -12q28 19 28 42q0 171 7 695q7 434 3 695q0 19 -14 19h-337q-17 0 -29 -17q-12 -16 -12 -32 q6 -100 16 -263q12 -204 15 -263q13 -212 25 -449q9 -171 4 -219q-14 -144 -99 -172q-21 -7 -29 -42z" />
<glyph unicode="&#x41c;" horiz-adv-x="1204" d="M70 1429q16 -898 50 -1464q2 -34 31 -13q28 20 27 45q-33 539 -48 1341q185 -253 438 -577q8 -10 21 -5q11 4 18 15q68 93 226 293q149 189 224 295q-8 -658 24 -1361q1 -34 30 -14q28 21 27 46q-34 743 -23 1431q1 25 -20 18q-19 -6 -29 -22q-82 -124 -229 -310 q-189 -240 -236 -304q-285 365 -477 632q-14 20 -35 -5q-19 -23 -19 -41z" />
<glyph unicode="&#x41d;" horiz-adv-x="626" d="M70 1396q0 -102 15 -709q10 -431 -3 -709q-2 -32 27 -12t30 44q13 267 4 664q-13 -1 355 36q-1 0 2 1v-708q0 -33 29 -13q28 20 28 45v1392q0 33 -28 13q-29 -20 -29 -44v-616q-327 -34 -359 -34q-13 555 -14 681q0 33 -28 13q-29 -20 -29 -44z" />
<glyph unicode="&#x41e;" horiz-adv-x="620" d="M111 273q33 -225 112 -294q54 -47 135 12q55 40 103 109q111 162 99 491q-8 249 -44 439q-41 212 -107 325q-108 184 -259 52v-1q-12 -9 -17 -24q-123 -428 -22 -1109zM154 410q-69 610 25 953q180 134 282 -380q14 -72 35 -305q31 -350 -49 -511q-42 -85 -102 -116 q-72 -37 -118 44q-47 81 -73 315z" />
<glyph unicode="&#x41f;" horiz-adv-x="568" d="M80 1381q3 47 6 -1399q0 -34 29 -13q29 20 29 46q0 73 -12 673q-9 408 4 674q110 3 203 2q-2 0 20 1q20 1 35 0q47 -2 46 -17q-2 -35 -5 -97q-9 -180 -11 -384q-2 -205 13 -874q1 -34 30 -14q29 21 28 46q-21 936 6 1389q1 20 -15 21q-178 7 -363 0q-18 -1 -31 -19 q-11 -15 -12 -35z" />
<glyph unicode="&#x420;" horiz-adv-x="465" d="M70 1392q1 -239 10 -696q10 -473 11 -697q0 -31 27 -12q26 19 26 42q-1 214 -8 575q135 23 210 144q64 104 75 260q14 184 -57 299q-81 131 -254 134q-17 1 -29 -16q-11 -16 -11 -33zM124 1370q195 -22 236 -234q31 -161 -17 -294q-58 -159 -208 -174q-10 471 -11 702z " />
<glyph unicode="&#x421;" horiz-adv-x="645" d="M65 1021q5 -66 53 -323q61 -327 69 -358q56 -209 162 -317q108 -108 183 5q63 94 58 220q-2 33 -30 13q-29 -20 -28 -45q4 -85 -15 -127q-27 -63 -99 -20q-78 46 -137 212q-16 45 -96 415q-56 260 -58 425q-1 96 27 164q37 89 116 112q55 15 104 -43q35 -42 56 -106 q9 -27 35 -1q27 26 20 49q-47 142 -152 173q-98 28 -208 -136q-75 -111 -60 -312z" />
<glyph unicode="&#x422;" horiz-adv-x="563" d="M43 1388q22 -31 163 -24q-1 -3 -1 -4q1 -309 31 -1367q1 -31 28 -12t26 42q-30 1040 -31 1342q28 1 110 4q69 2 110 2q22 0 35 35q14 34 -10 34q-41 -1 -110 -3q-82 -3 -110 -3q-5 -1 -41 -3q-36 -3 -60 -3q-81 -2 -94 16q-14 20 -36 -9q-23 -29 -10 -47z" />
<glyph unicode="&#x423;" horiz-adv-x="641" d="M47 1392q34 -118 250 -762q4 -14 15 -13q-97 -352 -162 -619q-9 -35 20 -23q28 11 35 37q71 293 386 1416q10 34 -19 23q-29 -12 -36 -37q-27 -98 -99 -350q-62 -222 -98 -350q-194 574 -238 725q-8 27 -35 1q-26 -26 -19 -48z" />
<glyph unicode="&#x424;" horiz-adv-x="1545" d="M59 1067q-9 -109 42 -214q50 -101 140 -166t212 -64q128 1 205 75q34 34 58 84q3 -357 2 -804q0 -34 30 -13t30 47q1 464 -2 838q79 -168 229 -204q125 -30 257 52q119 74 180 195q53 105 29 217q-22 104 -101 184q-79 79 -182 104q-112 26 -216 -22q-133 -62 -201 -184 q-3 188 -4 236q-1 35 -30 14q-30 -21 -30 -47q1 -20 1 -53q1 -39 1 -52q-205 199 -411 134q-104 -33 -170 -143q-59 -96 -69 -214zM119 1100q3 112 82 189q79 78 190 75q156 -4 315 -188q2 -3 5 -5q3 -140 3 -168q-26 -156 -54 -206q-53 -95 -182 -95q-160 0 -263 121 q-100 115 -96 277zM780 1050q2 10 4 23q23 129 132 203q107 72 238 53q114 -17 200 -140q71 -103 55 -210t-112 -187q-75 -62 -173 -72q-99 -10 -180 40q-104 63 -164 290z" />
<glyph unicode="&#x425;" horiz-adv-x="693" d="M51 1413q59 -118 123 -310q96 -292 106 -318q-151 -450 -188 -780q-4 -37 24 -25q29 11 32 40q35 301 161 692q259 -631 282 -718q8 -28 35 -2q27 27 21 50q-21 79 -286 727q-9 21 -18 45q34 99 104 294q70 196 103 294q13 36 -14 36q-26 0 -37 -31q-32 -96 -91 -259 q-68 -190 -92 -259q-186 527 -215 584q-11 23 -36 -8t-14 -52z" />
<glyph unicode="&#x426;" horiz-adv-x="792" d="M70 1411q0 -945 22 -1424q1 -25 19 -25q16 -1 412 22h142q-19 -52 -42 -170q-3 -15 4 -27q7 -13 23 -9q34 9 43 54q27 139 50 182q9 17 10 36q1 25 -19 25h-160q-19 264 -12 680q8 567 7 681q-1 42 -36 17q-36 -26 -36 -56q2 -128 -7 -663q-6 -408 10 -663 q-266 -20 -337 -19q-21 472 -21 1399q0 41 -36 16t-36 -56z" />
<glyph unicode="&#x427;" horiz-adv-x="636" d="M72 1399q0 -303 8 -430q6 -102 9 -120q12 -71 50 -106q67 -63 180 -59q108 5 180 66q4 -161 21 -775q1 -35 31 -14t30 47q-30 1038 -31 1443q0 35 -30 14t-30 -47q0 -264 7 -594q-3 -4 -4 -5q-38 -47 -102 -53q-43 -4 -117 11q-65 13 -93 45q-27 31 -33 97 q-16 156 -15 514q0 35 -30 13q-31 -21 -31 -47z" />
<glyph unicode="&#x428;" horiz-adv-x="964" d="M92 713q-5 -423 3 -700q0 -20 15 -21q166 -10 384 -4q4 -1 8 0q79 3 348 15q19 1 32 19q12 16 13 36q8 635 -32 1377q-2 35 -31 14q-30 -21 -29 -47q38 -710 32 -1325q-189 -9 -290 -12q-1 104 -2 328q-2 214 -2 327q0 82 -21 381q-16 234 -3 380q4 39 -26 27t-32 -41 q-11 -115 19 -695q8 -135 7 -709q-64 -1 -102 -2q6 0 -48 -2q-45 -1 -78 0q-103 2 -103 29q-4 115 -4 293q-1 190 4 533q5 372 5 532q0 35 -30 14t-30 -47q0 -70 -7 -700z" />
<glyph unicode="&#x429;" horiz-adv-x="1241" d="M80 1399q0 -933 45 -1405q2 -20 15 -21q-11 0 836 22h146q-20 -52 -44 -173q-7 -37 22 -25q30 11 35 39q28 140 51 184q7 14 8 29q1 21 -15 21h-162q-40 261 -27 673q18 564 15 674q-1 35 -30 14q-30 -21 -29 -46q4 -126 -13 -659q-13 -405 21 -658q-71 -2 -343 -13 q4 229 -18 686q-21 457 -17 685q0 34 -29 14q-30 -21 -30 -46q-4 -228 17 -671q21 -451 18 -671l-37 -1q-124 -5 -264 -4q-43 0 -56 9q-15 11 -19 52q-5 59 -12 164q-25 370 -25 1160q0 34 -30 13q-29 -20 -29 -46z" />
<glyph unicode="&#x42a;" horiz-adv-x="940" d="M71 1392q123 -89 237 -31q-3 -1248 0 -1356q0 -21 15 -21q432 5 515 321q52 200 -60 309q-132 128 -405 156q-5 0 -11 -2q1 62 3 330q2 203 2 330q0 13 -9 19q-10 6 -21 -1q-61 -39 -115 -33q-48 5 -110 50q-20 14 -41 -21t0 -50zM362 618v38v37q164 -20 278 -78 q156 -81 154 -212q-4 -296 -330 -338q-60 -8 -74 -3q-24 9 -25 60q-1 73 -2 190q-2 108 -1 306z" />
<glyph unicode="&#x42b;" horiz-adv-x="657" d="M80 6q0 -20 14 -19q154 3 240 98q79 88 96 246q20 183 -42 320q-74 164 -241 181q7 369 8 605q0 31 -27 12t-27 -42q-1 -226 -11 -701q-9 -460 -10 -700zM131 80q-2 10 1 33q3 29 3 39q2 123 11 608q124 -23 185 -144q51 -102 50 -247q-3 -194 -91 -268q-33 -28 -109 -42 q-46 -8 -50 21zM494 1378q0 -123 9 -340q9 -240 11 -339q2 -128 -2 -341q-4 -259 -5 -341q0 -31 27 -12t27 42q0 90 5 341q3 215 2 341q-1 107 -11 339q-9 222 -10 340q0 31 -27 12t-26 -42z" />
<glyph unicode="&#x42c;" horiz-adv-x="506" d="M80 19q0 -19 14 -19q151 3 236 97q78 86 95 243q20 180 -41 315q-74 162 -238 178q7 361 8 596q0 31 -27 12q-26 -18 -26 -41q-2 -222 -11 -691q-9 -453 -10 -690zM130 92q-1 10 1 32q3 29 3 39q2 112 11 600q122 -23 183 -143q50 -100 48 -244q-2 -190 -89 -264 q-33 -27 -108 -41q-45 -8 -49 21z" />
<glyph unicode="&#x42d;" horiz-adv-x="1298" d="M50 235q0 -131 311 -228q259 -82 522 30q198 85 289 293q76 174 71 414q3 13 -1 23q-1 33 -4 64q-19 226 -155 378q-130 144 -354 210q-187 56 -377 4q-222 -61 -263 -240q-8 -36 20 -24q28 11 34 37q31 135 299 175q143 22 331 -47q344 -125 403 -478q3 -13 5 -30 q-137 83 -300 10q-257 -116 -248 -113q-114 -31 -293 21q-22 7 -37 -28t10 -43q221 -64 410 16q17 7 118 59q71 36 124 48q112 26 226 -73q8 -194 -54 -343q-72 -171 -227 -255q-180 -98 -459 -53q-92 15 -202 67q-143 68 -143 137q0 32 -28 12q-28 -19 -28 -43z" />
<glyph unicode="&#x42e;" horiz-adv-x="1736" d="M80 1407q1 -127 9 -352q10 -249 12 -352q2 -133 -2 -353q-4 -269 -5 -353q0 -33 28 -13q28 19 29 43q0 97 3 339q4 215 3 338q124 1 181 -10q1 -317 159 -526q176 -233 467 -198q278 34 489 245q216 217 229 493q8 147 -49 296q-56 150 -159 256q-194 201 -545 181 q-49 -3 -127 -16q-207 -44 -332 -236q-113 -175 -130 -420q-44 6 -177 6q-3 -1 -7 -2q-1 96 -11 333q-8 211 -9 332q0 32 -28 13q-28 -20 -28 -44zM418 557q-45 260 36 482q97 263 334 314q298 50 518 -76q230 -133 298 -421q65 -276 -109 -512q-165 -224 -448 -290 q-125 -29 -245 3q-122 30 -214 118q-125 117 -170 382z" />
<glyph unicode="&#x42f;" horiz-adv-x="594" d="M44 -17q-14 -34 11 -37q118 -13 143 116q11 59 2 289q-8 202 27 287q53 126 218 110l5 1q-8 -587 -9 -726v-32q0 -31 28 -12q27 19 27 43q0 171 8 697q6 436 3 698q-1 21 -21 19q-108 -12 -173 -74q-67 -65 -76 -171q-13 -161 29 -260q20 -46 105 -118 q-100 -19 -158 -103q-53 -78 -65 -201q-4 -52 3 -309q2 -99 -1 -118q-11 -73 -69 -66q-23 2 -37 -33zM293 1078q-16 165 33 235q27 38 126 52q3 -222 -1 -521q-105 105 -101 100q-50 60 -57 134z" />
<glyph unicode="&#x2000;" horiz-adv-x="837" />
<glyph unicode="&#x2001;" horiz-adv-x="1674" />
<glyph unicode="&#x2002;" horiz-adv-x="837" />
<glyph unicode="&#x2003;" horiz-adv-x="1674" />
<glyph unicode="&#x2004;" horiz-adv-x="558" />
<glyph unicode="&#x2005;" horiz-adv-x="418" />
<glyph unicode="&#x2006;" horiz-adv-x="279" />
<glyph unicode="&#x2007;" horiz-adv-x="279" />
<glyph unicode="&#x2008;" horiz-adv-x="209" />
<glyph unicode="&#x2009;" horiz-adv-x="334" />
<glyph unicode="&#x200a;" horiz-adv-x="93" />
<glyph unicode="&#x2010;" horiz-adv-x="460" d="M56 598q-6 -15 1 -25q6 -11 28 -9q90 9 261 9q16 0 32 12q15 11 24 26q8 16 5 27q-3 12 -21 12q-177 0 -281 -10q-16 -2 -31 -14q-13 -12 -18 -28z" />
<glyph unicode="&#x2011;" horiz-adv-x="460" d="M56 598q-6 -15 1 -25q6 -11 28 -9q90 9 261 9q16 0 32 12q15 11 24 26q8 16 5 27q-3 12 -21 12q-177 0 -281 -10q-16 -2 -31 -14q-13 -12 -18 -28z" />
<glyph unicode="&#x2012;" horiz-adv-x="460" d="M56 598q-6 -15 1 -25q6 -11 28 -9q90 9 261 9q16 0 32 12q15 11 24 26q8 16 5 27q-3 12 -21 12q-177 0 -281 -10q-16 -2 -31 -14q-13 -12 -18 -28z" />
<glyph unicode="&#x2013;" horiz-adv-x="587" d="M58 761q-8 -15 1 -25q9 -11 38 -9q122 9 353 9q22 0 44 12q20 11 32 26q11 16 7 27q-5 12 -29 12q-239 0 -380 -10q-21 -2 -41 -14q-18 -12 -25 -28z" />
<glyph unicode="&#x2014;" horiz-adv-x="710" d="M52 739q3 -11 14 -11q358 18 549 0q11 -1 23 10q10 10 16 25t4 25q-3 13 -15 14q-123 11 -274 10q-100 -1 -275 -10q-11 -1 -22 -13q-10 -10 -16 -25t-4 -25z" />
<glyph unicode="&#x2018;" horiz-adv-x="557" />
<glyph unicode="&#x2019;" horiz-adv-x="557" />
<glyph unicode="&#x201a;" horiz-adv-x="557" />
<glyph unicode="&#x201c;" horiz-adv-x="910" />
<glyph unicode="&#x201d;" horiz-adv-x="910" />
<glyph unicode="&#x201e;" horiz-adv-x="910" />
<glyph unicode="&#x2026;" horiz-adv-x="2048" />
<glyph unicode="&#x202f;" horiz-adv-x="334" />
<glyph unicode="&#x2039;" horiz-adv-x="631" />
<glyph unicode="&#x203a;" horiz-adv-x="631" />
<glyph unicode="&#x205f;" horiz-adv-x="418" />
<glyph unicode="&#x20a3;" />
<glyph unicode="&#x20a4;" />
<glyph unicode="&#x20a7;" horiz-adv-x="2028" />
<glyph unicode="&#x20ac;" horiz-adv-x="1497" d="M59 679q9 -35 32 -40q76 -18 175 -23q36 -435 353 -571q261 -111 519 -30q309 97 309 226q0 24 -28 44t-28 -13q0 -68 -142 -135q-109 -52 -201 -67q-276 -44 -455 52q-257 139 -279 492q51 -1 152 1q102 2 151 0q558 -12 654 -20q23 -2 9 33q-13 36 -36 38 q-96 8 -613 19q-53 1 -158 -1q-108 -2 -160 -1q0 58 7 115q53 -1 186 -10q118 -9 185 -7q461 11 612 -14q28 -4 19 31t-32 39q-160 25 -587 16q-69 -2 -185 6q-143 9 -186 10q66 334 397 455q186 68 329 46q266 -40 296 -173q6 -26 34 -37q29 -12 21 23q-41 179 -262 239 q-189 51 -375 -4q-213 -63 -340 -198q-134 -141 -161 -350q-73 -2 -132 -11q-25 -4 -11 -39q15 -35 37 -32q46 8 99 10q-3 -58 -2 -113q-104 5 -184 23q-28 6 -19 -29z" />
<glyph unicode="&#x2122;" horiz-adv-x="1497" />
<glyph unicode="&#x25fc;" horiz-adv-x="500" d="M0 0z" />
</font>
</defs>
</svg>
