<?xml version="1.0" encoding="utf-8"?>
<!-- Generator: Adobe Illustrator 16.0.4, SVG Export Plug-In . SVG Version: 6.00 Build 0)  -->
<!DOCTYPE svg PUBLIC "-//W3C//DTD SVG 1.1//EN" "http://www.w3.org/Graphics/SVG/1.1/DTD/svg11.dtd">
<svg version="1.1" id="Слой_1" xmlns="http://www.w3.org/2000/svg" xmlns:xlink="http://www.w3.org/1999/xlink" x="0px" y="0px"
	 width="1156px" height="265.521px" viewBox="0 0 1156 265.521" enable-background="new 0 0 1156 265.521"
	 xml:space="preserve">
<rect x="0.005" y="-0.276" fill="#FFFFFF" width="1156" height="266.071"/>
<path fill="#FFE9BF" d="M0,265.208c-0.035-13.407,0.698-27.668,1.866-41.031c1.868-21.371,5.71-42.398,12.285-62.874
	c7.345-22.867,17.935-44.038,32.861-62.944c15.76-19.962,35.047-35.759,57.104-48.273c19.975-11.333,41.228-19.534,63.277-25.753
	c14.3-4.035,28.758-7.413,43.498-9.392c9.493-1.272,19.028-2.263,28.561-3.218c9.375-0.938,18.77-1.701,28.162-2.485
	c5.093-0.426,10.191-0.8,15.295-1.088c13.877-0.782,27.753-1.567,41.634-2.233c18.51-0.888,37.021-1.781,55.54-2.455
	c17.402-0.631,34.815-1.021,52.224-1.434c22.998-0.543,45.996-1.08,68.997-1.467c15.495-0.265,30.996-0.308,46.494-0.364
	c15.339-0.059,30.679-0.013,46.019-0.013c0-0.062,0-0.122,0-0.186c29.08,0.135,58.161,0.098,87.238,0.455
	c27.476,0.341,54.949,0.963,82.415,1.723c25.39,0.698,50.771,1.67,76.153,2.662c15.962,0.622,31.92,1.409,47.873,2.305
	c11.798,0.661,23.586,1.563,35.376,2.448c8.918,0.667,17.842,1.306,26.737,2.241c29.439,3.102,58.536,7.921,86.488,18.126
	c17.517,6.394,33.912,14.861,48.663,26.365c19.271,15.033,33.686,33.926,44.257,55.842c7.949,16.48,13.441,33.805,17.383,51.636
	c3.276,14.833,5.495,29.824,6.948,44.946c1.808,18.79,2.741,37.61,2.644,56.459L0,265.208L0,265.208z"/>
</svg>
