<?xml version="1.0" encoding="UTF-8" standalone="no"?>
<svg width="31px" height="24px" viewBox="0 0 31 24" version="1.1" xmlns="http://www.w3.org/2000/svg" xmlns:xlink="http://www.w3.org/1999/xlink" xmlns:sketch="http://www.bohemiancoding.com/sketch/ns">
    <!-- Generator: Sketch 3.2.2 (9983) - http://www.bohemiancoding.com/sketch -->
    <title>Imported Layers</title>
    <desc>Created with Sketch.</desc>
    <defs></defs>
    <g id="Welcome" stroke="none" stroke-width="1" fill="none" fill-rule="evenodd" sketch:type="MSPage">
        <g id="Home-4" sketch:type="MSArtboardGroup" transform="translate(-1168.000000, -77.000000)" fill="#FFFFFF">
            <g id="menu" sketch:type="MSLayerGroup" transform="translate(62.000000, 37.000000)">
                <g id="Imported-Layers" transform="translate(1107.000000, 41.000000)" sketch:type="MSShapeGroup">
                    <path d="M8.97806494,8.07510491 C7.41107792,8.07510491 5.84409091,8.07454018 4.27766234,8.07566964 C4.04479221,8.07623437 3.69632468,8.03952679 3.61088312,8.32076339 C3.51874026,8.62571875 3.58351948,9.02554911 3.64494805,9.32655134 C3.83761039,10.2651362 4.28827273,11.1455536 4.79757143,11.9519911 C5.29402597,12.7375335 6.01609091,13.4502254 6.8437013,13.8636094 C7.65064935,14.2662634 8.56816883,14.4763437 9.4667013,14.4836853 C9.97209091,14.4870737 10.505961,14.4469777 11.0018571,14.3447612 C12.3315065,14.0703013 13.7873636,13.4502254 14.7981429,12.5246295 C16.2104416,11.2308281 16.8984416,9.26330134 17.6322338,7.53409152 C18.3135325,5.92912277 18.8524286,4.29309375 19.7643636,2.7988125 C21.0085714,0.761258929 23.6505584,0.0135535714 25.8848831,-0.0677678571 C27.3697792,-0.121417411 29.7157922,-0.238316964 29.9347013,1.76591741 C30.0826883,3.12296875 28.7547143,3.7808817 27.6160519,3.52223437 C25.8664545,3.12522768 23.2864545,3.33417857 22.335987,5.13115625 C21.911013,5.93364062 21.5374156,6.75702009 21.2414416,7.61880134 C21.0186234,8.26711384 20.7204156,8.88888393 20.486987,9.53380804 C20.1547143,10.450933 19.7291818,11.32175 19.2751688,12.1807076 C17.8265714,14.9207879 15.3085584,16.8572545 12.3192208,17.5428393 C11.4966364,17.7314598 10.6288182,17.8602187 9.78557143,17.8957969 C9.01994805,17.9274219 8.23701299,17.8884554 7.482,17.750096 C6.3411039,17.5405804 5.2688961,16.9775424 4.31619481,16.3252768 C3.20824675,15.5674062 2.35550649,14.4763437 1.64014286,13.3530915 C0.932038961,12.2411339 0.553415584,10.9428147 0.276428571,9.64788393 C0.0368571429,8.52858482 -0.307142857,6.99872545 0.165857143,5.90766295 C0.63774026,4.81998884 1.37655844,4.70139509 2.40911688,4.65508705 C3.14235065,4.62176786 4.46864935,4.63701562 5.20132468,4.63701562 C6.84984416,4.63701562 8.49780519,4.63870982 10.1463247,4.64040402 C10.9733766,4.64153348 11.8004286,4.64266295 12.6274805,4.64322768 C13.2948182,4.64435714 14.0531818,4.50938616 14.6691429,4.84257812 C15.2141818,5.1373683 15.6302208,5.81504687 15.6218442,6.44811161 C15.6073247,7.49456027 14.6484805,8.09543527 13.6784675,8.08357589 C12.1114805,8.06493973 10.5444935,8.07623437 8.97806494,8.07510491" id="Fill-1"></path>
                    <path d="M7.74502597,20.5071183 C7.74502597,21.8867589 6.63931169,23.0054933 5.27503896,23.0054933 C3.91076623,23.0054933 2.80505195,21.8867589 2.80505195,20.5071183 C2.80505195,19.1280424 3.91076623,18.0098728 5.27503896,18.0098728 C6.63931169,18.0098728 7.74502597,19.1280424 7.74502597,20.5071183" id="Fill-2"></path>
                    <path d="M16.345026,20.5071183 C16.345026,21.8867589 15.2393117,23.0054933 13.875039,23.0054933 C12.5107662,23.0054933 11.4044935,21.8867589 11.4044935,20.5071183 C11.4044935,19.1280424 12.5107662,18.0098728 13.875039,18.0098728 C15.2393117,18.0098728 16.345026,19.1280424 16.345026,20.5071183" id="Fill-3"></path>
                </g>
            </g>
        </g>
    </g>
</svg>