<?xml version="1.0" encoding="UTF-8" standalone="no"?>
<svg width="83px" height="42px" viewBox="0 0 83 42" version="1.1" xmlns="http://www.w3.org/2000/svg" xmlns:xlink="http://www.w3.org/1999/xlink" xmlns:sketch="http://www.bohemiancoding.com/sketch/ns">
    <!-- Generator: Sketch 3.2.2 (9983) - http://www.bohemiancoding.com/sketch -->
    <title>почта России</title>
    <desc>Created with Sketch.</desc>
    <defs></defs>
    <g id="Welcome" stroke="none" stroke-width="1" fill="none" fill-rule="evenodd" sketch:type="MSPage">
        <g id="корзина-(оплата)" sketch:type="MSArtboardGroup" transform="translate(-746.000000, -415.000000)" fill="#074296">
            <g id="контент-+-выбор-доставки" sketch:type="MSLayerGroup" transform="translate(62.000000, 405.000000)">
                <g id="контент" transform="translate(294.000000, 5.000000)" sketch:type="MSShapeGroup">
                    <g id="покупка-3" transform="translate(0.032363, 0.922549)">
                        <g id="Наложенный-платеж-+---Доставка-по-всей-Р-+-почта-России" transform="translate(292.000000, 4.000000)">
                            <g id="почта-России" transform="translate(97.967637, 0.077451)">
                                <path d="M40.017983,41.101017 L0.0324214987,41.101017 L0.0324214987,0.920479479 L40.017983,0.920479479 C40.013533,1.06067831 40.0052687,1.20055778 40.0052687,1.34043725 C40.0043152,14.4539779 40.0043152,27.5675186 40.0052687,40.6810593 C40.0052687,40.8209387 40.013533,40.9611376 40.017983,41.101017 L40.017983,41.101017 Z M32.0457908,19.0476453 C32.0546908,18.9604601 32.065498,18.8933946 32.067723,18.8266485 C32.1144481,17.6466151 32.1659411,16.4665816 32.2002697,15.2859095 C32.2072626,15.0559706 32.253352,14.9410012 32.5085918,14.950582 C32.9392892,14.9652725 33.3699865,14.9623983 33.8013196,14.9518594 C34.0416201,14.9457916 34.1121846,15.0467092 34.1344346,15.2820772 C34.2412348,16.4445458 34.3648815,17.605737 34.4952032,18.7659702 C34.5072818,18.8707201 34.6035928,19.0479646 34.6674822,19.0508389 C35.1493547,19.0751102 35.6328164,19.064252 36.1506068,19.064252 C36.0533423,18.2134782 35.9621171,17.426257 35.8731169,16.638397 C35.7205452,15.2811191 35.5450877,13.9260766 35.4249374,12.5665631 C35.3286265,11.4727568 34.6074071,10.6666934 33.5225583,10.5986698 C32.7333173,10.549169 31.940262,10.5734404 31.1500674,10.5363947 C30.8032845,10.5207461 30.7146022,10.6587094 30.71047,10.9809431 C30.6968022,12.0335521 30.6621557,13.0858417 30.6271913,14.137812 C30.5966769,15.0604416 30.545184,15.9830713 30.5219804,16.906659 C30.504816,17.6146791 30.5191196,18.324296 30.5191196,19.0476453 L32.0457908,19.0476453 L32.0457908,19.0476453 Z M8.6517723,19.0508389 C8.6600366,18.8841332 8.67370449,18.7343536 8.67402235,18.5842546 C8.67592949,17.309052 8.67497592,16.0335301 8.67497592,14.7583275 C8.67497592,13.4709893 8.67306877,12.1842898 8.67529378,10.8969516 C8.67592949,10.6909647 8.6600366,10.5379915 8.38318243,10.5395883 C6.88098632,10.548211 5.37879021,10.5453367 3.87659411,10.5421431 C3.67729725,10.5415044 3.57939703,10.6044182 3.58003275,10.824457 C3.5841649,13.4802507 3.5841649,16.1366832 3.57971489,18.7921577 C3.57939703,19.0086834 3.66076864,19.0795812 3.8683298,19.0719166 C4.18237334,19.0597809 4.49864188,19.0479646 4.81077827,19.0751102 C5.13626469,19.1028945 5.22176845,18.9840927 5.21954344,18.6640945 C5.20651127,16.6045449 5.21286843,14.5453147 5.21286843,12.4867233 L5.21286843,12.0600589 L7.08727605,12.0600589 L7.08727605,19.0508389 L8.6517723,19.0508389 L8.6517723,19.0508389 Z M16.1964458,14.7698245 C16.1741957,13.7264769 16.0435562,12.7038877 15.5562801,11.7544319 C15.1033327,10.8707641 14.4056348,10.3387111 13.4021576,10.3387111 C12.4123483,10.3387111 11.7416683,10.8924805 11.3446638,11.7672063 C10.5141013,13.5996912 10.5592371,15.4826349 11.1240705,17.3706884 C11.2880851,17.9206255 11.5741572,18.422978 12.0404546,18.7921577 C13.1752071,19.6911547 14.8312464,19.2462869 15.5378443,17.861544 C16.0333847,16.8894136 16.1684743,15.8447886 16.1964458,14.7698245 L16.1964458,14.7698245 Z M29.6075034,22.5992425 C29.5773069,22.5816777 29.5464747,22.5644323 29.5156425,22.5478256 C28.5004045,23.6100154 27.4845309,24.6725245 26.4012714,25.8059315 C26.4012714,24.8714855 26.3945964,24.044025 26.4050857,23.2168838 C26.4082643,22.9802384 26.3421499,22.8716562 26.0904065,22.889221 C25.8469274,22.906147 25.5993161,22.9122148 25.3571085,22.8879435 C25.0373435,22.8553688 24.9670969,22.9920547 24.969004,23.2906559 C24.9807648,25.0809854 24.9747255,26.8719535 24.9747255,28.6632411 C24.9747255,29.4587657 24.969004,30.2552483 24.9829898,31.0507729 C24.9855327,31.1558422 25.0882007,31.3442643 25.1543152,31.3487353 C25.5554517,31.3771583 25.959449,31.3627871 26.4012714,31.3627871 C26.4012714,30.6499767 26.4664323,29.9774055 26.38665,29.3230379 C26.2601426,28.2915066 26.5614718,27.4931078 27.3716914,26.849279 C27.7016278,26.5877236 27.9632248,26.2396217 28.3030148,25.8800229 C28.3125506,26.0250121 28.3192256,26.0911195 28.3211327,26.1572269 C28.3500578,27.1520318 28.3770757,28.146198 28.4082258,29.1400449 C28.4276151,29.771738 28.4450973,30.4031118 28.4826045,31.0338468 C28.4895974,31.145942 28.5846369,31.3429868 28.6494799,31.3468192 C29.062695,31.3758809 29.4787709,31.3615097 29.9374398,31.3615097 C29.8261896,28.4106277 29.7168465,25.5047754 29.6075034,22.5992425 L29.6075034,22.5992425 Z M36.0708245,22.5778454 C36.0399923,22.5682646 36.0094779,22.5586839 35.9789636,22.5491031 C34.9624542,23.6116122 33.945627,24.6741213 32.9214891,25.7442951 C32.8839819,25.6868104 32.8610961,25.6679682 32.8607783,25.6494453 C32.8560104,25.064698 32.8598247,24.4799507 32.8483818,23.8952034 C32.8417068,23.5736084 32.9246677,23.1482215 32.7565209,22.9620349 C32.6099884,22.7988422 32.1656232,22.9214763 31.8563475,22.8882629 C31.5302254,22.8534527 31.4463109,22.9792803 31.4475824,23.2983205 C31.4599788,25.8605419 31.4545752,28.422444 31.4555288,30.9846655 C31.4555288,31.0980381 31.4682431,31.2114107 31.4749181,31.3330867 L32.8512425,31.3330867 C32.8512425,30.2830326 32.8483818,29.2655532 32.8541033,28.2483931 C32.854739,28.1129846 32.8506068,27.934782 32.928482,27.848555 C33.5085725,27.2024907 34.109006,26.5739911 34.7587074,25.8806616 C34.828954,27.7600924 34.8957041,29.5510606 34.9627721,31.3401126 L36.4045752,31.3401126 C36.2923714,28.4004082 36.1817569,25.4891268 36.0708245,22.5778454 L36.0708245,22.5778454 Z M13.2912252,27.1041279 C13.2540358,26.6385017 13.2394144,26.1703207 13.1758428,25.7088462 C13.0645926,24.9027827 12.8268349,24.1388748 12.3338374,23.4726908 C11.5824215,22.4580856 10.0897611,22.4223173 9.37203814,23.4413936 C9.10185899,23.824625 8.89207282,24.2710896 8.74649393,24.7194704 C8.36315739,25.8947134 8.35298594,27.1127506 8.48712194,28.329191 C8.57961857,29.1691066 8.76016182,29.9936929 9.2525236,30.7042678 C9.69688885,31.3452224 10.3106723,31.6278555 11.0932383,31.5064989 C11.9050472,31.38131 12.3738875,30.8435086 12.6996918,30.145708 C13.1491427,29.182839 13.2743787,28.1567369 13.2912252,27.1041279 L13.2912252,27.1041279 Z M4.99799653,29.0075107 C6.1228954,29.5162504 6.84761125,29.2390463 7.22617993,28.116817 C7.64130225,26.8888796 7.67086303,25.6385871 7.18930842,24.410011 C6.80787902,23.4359645 6.08761318,22.9329732 5.04662878,22.9035921 C4.69730302,22.8933726 4.34575226,22.9217956 3.99865151,22.8943307 C3.6572722,22.8678239 3.56763629,22.9939709 3.56922558,23.3296177 C3.58225775,25.869484 3.5759006,28.4096696 3.57717203,30.9495359 C3.57717203,31.0740861 3.58861491,31.1992751 3.59528992,31.3381965 L4.99799653,31.3381965 L4.99799653,29.0075107 L4.99799653,29.0075107 Z M22.7417742,19.0511582 C22.7573493,18.9828153 22.7716529,18.9496019 22.7716529,18.9163885 C22.7732421,16.2133295 22.7729243,13.5096318 22.7783279,10.8059341 C22.7789636,10.6021827 22.693142,10.5395883 22.5071951,10.5424625 C22.1578694,10.548211 21.8075901,10.5510852 21.4585822,10.5415044 C21.244346,10.5360753 21.1785494,10.6277315 21.1807744,10.8356345 C21.1893566,11.5845326 21.1845887,12.3334307 21.1829994,13.0826481 C21.1829994,13.2071983 21.1715565,13.3317486 21.1648815,13.4773765 C20.8168272,13.4773765 20.5040551,13.4898315 20.1922366,13.4741829 C19.6642747,13.4479954 19.46466,13.2381762 19.4583028,12.7093169 C19.4503564,12.1006176 19.4474957,11.491599 19.4589385,10.8832191 C19.4637064,10.6242185 19.3670776,10.5274526 19.1099306,10.5395883 C18.7847621,10.5549175 18.4580042,10.5520433 18.1322,10.5405463 C17.9049316,10.5328817 17.8283279,10.6213443 17.8318243,10.8503251 C17.8439029,11.5870875 17.8308707,12.3244886 17.8404065,13.0622091 C17.8464458,13.5249611 18.0228569,13.9247992 18.3403968,14.2614041 C18.7882585,14.7369305 19.3448276,14.9668693 19.9894433,14.9844341 C20.379137,14.9952923 20.7691485,14.9863502 21.195078,14.9863502 L21.195078,19.0511582 L22.7417742,19.0511582 L22.7417742,19.0511582 Z M23.6918513,23.4669423 C23.6918513,22.6723758 23.6918513,22.6723758 22.8940281,22.7474253 C22.8708245,22.7496608 22.8469852,22.7483834 22.8240994,22.7512576 C21.5138894,22.9396798 20.5050087,23.5700955 19.9401753,24.8018651 C19.3836062,26.01607 19.3426026,27.2957436 19.6477461,28.5709462 C20.0867078,30.4047086 21.4147178,31.4911697 23.2710075,31.6230651 C23.7141013,31.654043 23.7284049,31.641588 23.7306299,31.2053429 C23.7322192,30.994885 23.7315835,30.7841077 23.7312657,30.5736498 C23.7296764,30.0859878 23.7293585,30.0936524 23.2576575,30.055968 C22.5459738,30.0003994 21.9484011,29.698924 21.5599788,29.093099 C20.8184165,27.9354208 20.8155558,26.7065253 21.3686284,25.4843364 C21.6947505,24.7629033 22.3272876,24.3863784 23.0965036,24.2688541 C23.6896263,24.178156 23.6918513,24.194124 23.6918513,23.6074605 L23.6918513,23.4669423 L23.6918513,23.4669423 Z M18.5193508,23.4854652 C18.5037758,22.6720565 18.5040936,22.6720565 17.691649,22.7477447 C17.6681275,22.7496608 17.6449239,22.7487028 17.6217203,22.7518964 C16.3270853,22.942554 15.3312368,23.5697761 14.7594105,24.7801487 C14.2981988,25.7573888 14.2511558,26.7930717 14.329031,27.8594132 C14.4825563,29.9732539 16.0661241,31.5524867 18.1554036,31.6297717 C18.4150934,31.6393525 18.5498652,31.5911292 18.5231651,31.2922087 C18.4996436,31.0255435 18.4948757,30.7521717 18.5241187,30.4864646 C18.5609902,30.1498597 18.4077827,30.0687424 18.1083606,30.0550099 C17.3369197,30.0189223 16.7329898,29.6637945 16.3102389,29.0154947 C15.7355519,28.1340624 15.7320555,27.1641675 15.9189559,26.178624 C16.1083992,25.1787094 16.837565,24.4646215 17.82356,24.2768381 C18.0371605,24.2365988 18.3473897,24.2851414 18.4446542,24.1602719 C18.5625795,24.0085761 18.5021865,23.7166815 18.5193508,23.4854652 L18.5193508,23.4854652 Z M27.4832595,19.0489227 L27.4832595,12.0309972 C27.8538817,12.0309972 28.188586,12.0271649 28.5223367,12.032594 C28.6882585,12.0348295 28.7867945,11.9907579 28.7820266,11.7975454 C28.7740801,11.4583856 28.794423,11.1185871 28.7696301,10.7813434 C28.7635908,10.6976712 28.6310441,10.5568337 28.5557118,10.5558756 C27.3103448,10.5415044 26.0649778,10.5405463 24.8202466,10.556195 C24.7347428,10.557153 24.5885282,10.7085295 24.5793103,10.8008244 C24.548796,11.113158 24.5726353,11.4309207 24.5646889,11.7464479 C24.559921,11.9559477 24.6438355,12.0412167 24.8542574,12.0345102 C25.1867367,12.0239713 25.5188981,12.0316359 25.8917453,12.0316359 L25.8917453,19.0489227 L27.4832595,19.0489227 L27.4832595,19.0489227 Z" id="Fill-1"></path>
                                <path d="M42.6053458,0.920479479 L82.6668754,0.920479479 C82.6602003,1.06003959 82.6468503,1.1995997 82.6468503,1.33979853 C82.6458967,14.4536586 82.6458967,27.5678379 82.6468503,40.6820173 C82.6468503,40.8215774 82.6602003,40.9617763 82.6668754,41.101017 L42.6053458,41.101017 C42.6155172,40.9620956 42.6349066,40.8231742 42.6349066,40.6842528 C42.6368137,27.568796 42.6368137,14.4527005 42.6349066,1.33756301 C42.6349066,1.19832226 42.6155172,1.05940087 42.6053458,0.920479479 L42.6053458,0.920479479 Z M44.9813331,20.97498 L44.9813331,38.2900145 C44.9813331,38.7696925 44.9826045,38.7716087 45.4641591,38.7716087 L79.8614621,38.7716087 C80.3509632,38.7716087 80.3522346,38.7703312 80.3522346,38.262869 L80.3522346,3.73818854 C80.3522346,3.23871025 80.3503275,3.23743281 79.8519264,3.23743281 L45.4895877,3.23743281 C44.9822866,3.23743281 44.9813331,3.23871025 44.9813331,3.7653341 L44.9813331,20.97498 L44.9813331,20.97498 Z" id="Fill-2"></path>
                                <path d="M32.2781449,13.4534245 L32.2781449,12.0999789 C33.4879118,11.8400202 33.8226161,12.3075626 33.8683876,13.4534245 L32.2781449,13.4534245" id="Fill-3"></path>
                                <path d="M14.630996,14.7742955 C14.5156136,15.4491022 14.4272491,16.1670224 14.2622809,16.8664197 C14.1246484,17.4502089 13.7696012,17.779788 13.4018397,17.7529618 C12.8748314,17.7146386 12.690156,17.292126 12.5690522,16.8760005 C12.1644192,15.488064 12.1555192,14.0883113 12.56047,12.6968618 C12.6847525,12.2698782 12.8821422,11.8706787 13.403429,11.8352298 C13.8017049,11.8074456 14.1796378,12.1370246 14.3099595,12.7153847 C14.4577634,13.3716685 14.5216529,14.0474332 14.630996,14.7742955" id="Fill-4"></path>
                                <path d="M11.9193508,27.064208 C11.7934791,27.8274772 11.6939896,28.5779721 11.5382393,29.316012 C11.4575034,29.6982853 11.2610672,30.0955686 10.8068484,30.101317 C10.3446831,30.1077042 10.1832113,29.6925368 10.0675111,29.3236766 C9.76649971,28.3633625 9.69879599,27.3714318 9.80368908,26.3766269 C9.86090349,25.8356319 9.9791466,25.2968724 10.1164612,24.7696098 C10.2041899,24.4333242 10.4069832,24.125781 10.8090734,24.1308908 C11.2165671,24.1353618 11.4575034,24.4301306 11.5331535,24.7862165 C11.6917646,25.5351146 11.7928434,26.2971064 11.9193508,27.064208" id="Fill-5"></path>
                                <path d="M5.04217877,24.2787542 C5.34636872,24.2107307 5.55710846,24.3755202 5.66518012,24.6092913 C5.808534,24.9209862 5.9547486,25.2607848 5.97095935,25.5951542 C6.00020227,26.1913984 5.9585629,26.7956266 5.8876806,27.389316 C5.8695627,27.5413311 5.6298979,27.6668394 5.49258332,27.804164 C5.37147948,27.6623684 5.22240416,27.535902 5.13912541,27.3746254 C5.06728954,27.2373008 5.04758235,27.060695 5.04599306,26.9010153 C5.03772876,26.0294831 5.04217877,25.157951 5.04217877,24.2787542" id="Fill-6"></path>
                                <path d="M67.4252745,20.6256007 C67.1903776,20.8041226 66.9570699,20.9823253 66.6303121,21.2314257 C66.5848584,20.8638429 66.5533905,20.608994 66.5171547,20.3186962 C66.3960509,20.2944248 66.2228183,20.2602534 66.006675,20.2171398 C66.1662396,19.9134289 66.3041899,19.6512348 66.3960509,19.4762258 C66.9996629,19.4493996 67.5540069,19.4669643 68.0937295,19.3871244 C68.5654306,19.3171847 68.7059237,19.0377451 68.5721056,18.5676479 C68.4707089,18.210604 68.3321229,17.8628214 68.1890869,17.51951 C67.9150934,16.8593938 68.0098151,16.5531281 68.5562127,16.0862244 C69.1207282,15.6043109 69.6560008,15.0863098 70.1900019,14.5702248 C70.3206415,14.4450359 70.3981988,14.2642784 70.574292,14.11386 C70.545367,14.4360938 70.5596706,14.7698245 70.4767097,15.0770483 C70.3905702,15.3960885 70.2453092,15.7128932 70.0615874,15.987223 C69.8778655,16.2621915 69.6146793,16.483827 69.4045752,16.7610311 C69.8537083,16.6687362 70.2707378,16.3800352 70.7367174,16.6415906 C70.7042959,17.0676162 70.6308707,17.1733242 70.0120015,17.6903673 C70.3343094,17.78873 70.6645637,17.889967 71.0145251,17.9969524 C70.8015604,18.5385862 70.3851666,18.6567492 69.9678193,18.7685251 C70.1642554,19.0604197 70.3527451,19.3401786 70.5533134,19.638141 C70.0946446,19.9102353 69.7278366,19.6940289 69.3162107,19.6062051 C69.5294934,20.0437276 69.711308,20.4518691 69.4182431,20.8836432 C69.0336351,20.8504298 69.0336351,20.8504298 68.3775766,20.2960216 C68.3009728,20.5483157 68.2230977,20.8038033 68.1197939,21.1432825 C67.8330861,20.9299503 67.6175785,20.7693125 67.4252745,20.6256007" id="Fill-7"></path>
                                <path d="M58.8682238,19.3587014 C59.0239742,19.6429314 59.1625602,19.8958642 59.3345213,20.2097946 C59.1358601,20.2525887 58.9661241,20.2889957 58.8094202,20.3222091 C58.7820844,20.5821678 58.753795,20.8475555 58.7124735,21.230787 C58.3822192,20.9842414 58.147958,20.8092324 57.8895396,20.616978 C57.7919572,20.7044825 57.6702177,20.824881 57.5373531,20.9312277 C57.3208919,21.1040012 57.1559237,21.0739814 57.08377,20.7868772 C57.0449913,20.6297523 57.0195627,20.4694339 56.9890484,20.3196542 C56.6661048,20.5342638 56.3326719,20.7558994 55.9916105,20.9823253 C55.6311597,20.4732662 55.7865922,20.0533084 56.0033712,19.6557058 C55.6174918,19.7032904 55.2538625,19.7470426 54.8908688,19.791753 C54.8578116,19.739378 54.8244365,19.687003 54.7910615,19.6343087 C54.9751011,19.3561466 55.1594587,19.0773457 55.3380948,18.8065288 C55.0997014,18.682298 54.8149008,18.5797836 54.5847717,18.4047746 C54.2513389,18.1515225 54.2910711,17.9988686 54.6807648,17.8609053 C54.7901079,17.8229015 54.9048546,17.800227 55.0183298,17.7769137 C55.1187729,17.7564747 55.2217588,17.7449778 55.4131092,17.7165548 C54.9547582,17.4569155 54.640079,17.154482 54.5739646,16.6540457 C55.051387,16.3966419 55.4712772,16.6249839 55.894346,16.8153222 C55.9118282,16.7891347 55.9293103,16.7629473 55.9474282,16.7367598 C55.8050279,16.5821898 55.6727991,16.4164422 55.5199095,16.2736885 C54.8851474,15.6844702 54.7309863,14.9410012 54.7996436,14.0295491 C55.2964554,14.9601628 56.0348391,15.5398003 56.7916586,16.1069828 C57.3383741,16.5160823 57.4133886,16.8807909 57.1505201,17.5124841 C57.0030341,17.8669731 56.8561838,18.2246558 56.7500193,18.5928773 C56.6244654,19.0275256 56.7875265,19.275668 57.2344346,19.3979827 C57.7747929,19.5461655 58.3145155,19.5346685 58.8682238,19.3587014" id="Fill-8"></path>
                                <path d="M53.1712579,15.0352122 C52.7071855,14.7369305 52.1928915,14.4938979 51.7904835,14.1275925 C51.1032749,13.5022865 50.4507128,12.8306735 49.8490079,12.1220147 C48.9199095,11.0275696 48.818195,9.7440637 49.1532171,8.3909374 C50.2876517,9.12642238 52.7046427,12.633948 52.6417068,13.492067 C51.79398,12.5761439 51.2046715,11.4574275 50.1903872,10.731204 C50.16178,10.7468526 50.1328549,10.7618625 50.1042477,10.7771917 C50.1986515,10.9892465 50.2832017,11.2064109 50.3890484,11.4127172 C50.8623387,12.3302371 51.6515797,12.9600141 52.3899634,13.6380143 C52.5606531,13.7951392 52.6928819,14.0027229 52.8139857,14.2042388 C52.9617896,14.4495069 53.079397,14.7126591 53.2097187,14.9678274 C53.1970044,14.9905019 53.1836544,15.0128571 53.1712579,15.0352122" id="Fill-9"></path>
                                <path d="M76.1752649,8.40530858 C76.5865729,9.90246602 76.2820651,11.2121594 75.3056059,12.3848476 C74.5538721,13.2883157 73.7363417,14.1097084 72.7160181,14.7056332 C72.5961857,14.7758923 72.4684069,14.8330577 72.3431709,14.8940553 C72.2932672,14.9173686 72.2398671,14.9323785 72.1604026,14.9263106 C72.5100462,14.4680297 72.5631285,13.8666758 73.0901368,13.4767378 C73.8256598,12.9328685 74.4985648,12.2858461 74.9283086,11.4417789 C75.0354267,11.2306823 75.1276055,11.0122404 75.1825949,10.7708046 C74.129214,11.4603018 73.5443556,12.5665631 72.6616644,13.4444825 C72.6890002,13.2975771 72.6829609,13.1334263 72.7481217,13.0063212 C73.5907629,11.3680069 74.5834329,9.8363586 75.9356001,8.56562706 C75.9861395,8.51772313 76.0395396,8.47237408 76.094529,8.42957991 C76.1104219,8.41680553 76.1358505,8.41616681 76.1752649,8.40530858" id="Fill-10"></path>
                                <path d="M48.7377769,13.0749835 C49.0613562,13.3953011 49.3467925,13.7711873 49.7161433,14.0257168 C50.4424485,14.5255145 51.2173859,14.9544143 51.9681661,15.4190824 C52.1191485,15.5123354 52.2526488,15.6340113 52.3940955,15.7419549 C52.3743884,15.7825135 52.3556348,15.8227528 52.3359276,15.8633115 C51.8626373,15.7042704 51.3772683,15.5730137 50.9170102,15.3810786 C49.900183,14.9572885 48.9799846,14.3747768 48.1634078,13.6239625 C47.3697168,12.8939067 47.1847236,11.9719157 47.2565594,10.8273312 C47.7514641,11.1556328 48.2152186,11.3986654 48.6014159,11.7323961 C49.6687825,12.6540677 50.7084955,13.6079945 51.7434406,14.5667118 C51.8804373,14.6931782 51.9246195,14.9212009 51.9846947,15.1166489 C50.9112888,14.4130999 50.0034868,13.4891928 48.8312271,12.9664013 C48.7997592,13.0021695 48.768927,13.0382572 48.7377769,13.0749835" id="Fill-11"></path>
                                <path d="M72.9416972,15.751855 C73.0891832,15.638163 73.2287228,15.5104192 73.3866981,15.4123758 C74.118089,14.958566 74.8704585,14.5382888 75.58246,14.0554172 C75.9705644,13.7925843 76.2928723,13.43075 76.6441052,13.1129873 C76.6015122,13.0631672 76.5589193,13.0136665 76.5172799,12.9641658 C75.3335773,13.475141 74.4276825,14.4118225 73.3228087,15.1003616 C73.4105375,14.9196041 73.4556733,14.6919008 73.59267,14.5647957 C74.6196687,13.6134237 75.6527066,12.6674808 76.7108553,11.7515576 C77.1002312,11.414314 77.5646215,11.1642555 78.0725583,10.8215827 C78.1456656,11.7959486 78.0604797,12.6198962 77.4711713,13.2915093 C76.5586014,14.3323019 75.3876132,15.0010408 74.1184069,15.5030739 C73.7550954,15.6467857 73.3711231,15.7374838 72.9963687,15.8527726 C72.9782508,15.8189205 72.9598151,15.7857071 72.9416972,15.751855" id="Fill-12"></path>
                                <path d="M72.7633789,17.4534025 C72.8981506,16.9868183 73.2322192,16.8689746 73.6606916,16.7706119 C74.4035253,16.5994352 75.1237912,16.3254247 75.8500963,16.0852664 C75.9788287,16.0434303 76.0916683,15.9546483 76.2035542,15.8051881 C76.0439896,15.813172 75.8774321,15.791775 75.7274032,15.8332917 C74.9667694,16.0408754 74.2080428,16.2567624 73.4534483,16.4867013 C73.1282797,16.5860221 72.8158255,16.7571988 72.4973319,16.4237874 C74.6937295,15.6094207 76.8701021,14.6561325 79.349711,14.6296257 C79.0890676,15.1466687 78.7047775,15.4564475 78.2852052,15.7294998 C77.56335,16.1992777 76.7610769,16.4672203 75.9321036,16.6687362 C74.8745906,16.9255013 73.8189848,17.190889 72.7633789,17.4534025" id="Fill-13"></path>
                                <path d="M45.9984781,14.6286676 C48.4720478,14.6577293 50.6484203,15.6158079 52.8775573,16.4365618 C52.5244173,16.7064206 52.2091023,16.5959222 51.8667694,16.4847851 C51.12775,16.2452655 50.376334,16.0434303 49.6265074,15.8384014 C49.4650356,15.7943298 49.2892603,15.80423 49.1195242,15.7898588 C49.1077634,15.8297787 49.0960027,15.8693793 49.0836062,15.9096186 C49.5365537,16.0942084 49.980601,16.3053051 50.4443556,16.4557234 C50.9182816,16.609016 51.4061934,16.7447438 51.8976016,16.8076576 C52.314949,16.8609906 52.4096706,17.1768372 52.6413889,17.5067356 C50.9211424,16.9255013 49.1455885,16.7958413 47.5531208,16.0162847 C46.801387,15.6477438 46.284868,15.1974469 45.9984781,14.6286676" id="Fill-14"></path>
                                <path d="M61.8872375,31.2510113 C62.4193315,32.2135609 62.9247255,33.1282066 63.4688981,34.1134307 C64.531179,32.6159539 65.5588133,31.1682972 66.5940763,29.7097823 C66.5101618,29.6190842 66.4411867,29.5453121 66.3448757,29.4415203 C66.6414371,29.3268702 66.9182913,29.2198847 67.2329705,29.0988475 L67.2329705,30.0697004 C67.1293489,30.0259482 67.0295415,29.983154 66.8909555,29.9243919 C65.756203,31.5208701 64.6170006,33.1246936 63.437748,34.7831276 C62.9072433,33.8362266 62.3993065,32.9298843 61.8554517,31.9593507 C61.4218937,32.616912 61.0267964,33.2169885 60.6059526,33.8563463 C60.6962242,33.9240505 60.779503,33.9860062 60.9130033,34.0859658 C60.591649,34.2165838 60.310027,34.3309145 59.9905798,34.4608939 L59.9905798,33.5082444 C60.0884801,33.5404997 60.1886053,33.5733937 60.323377,33.6177847 C60.8338567,32.8455734 61.3446542,32.0717653 61.8872375,31.2510113" id="Fill-15"></path>
                                <path d="M70.7411674,27.588277 C71.1756791,27.2162231 71.6031978,26.8502371 72.0408881,26.4759477 C72.2096706,27.0808147 72.4432961,27.7172982 72.5561356,28.3742207 C72.6928145,29.1777293 72.3072529,29.8477456 71.8323733,30.4650675 C71.6769409,30.6669027 71.5386727,30.8821511 71.3915045,31.0906928 C71.359083,31.1363612 71.3228472,31.2174786 71.2882007,31.2174786 C70.9315642,31.2177979 70.5752456,31.206301 70.2192448,31.1925685 C70.2036698,31.1916104 70.1903198,31.1360419 70.1439125,31.0399147 C71.1537469,31.0280984 71.6813909,30.5675819 71.4693797,29.5338152 C71.3619437,29.0097462 70.8476498,28.6530216 70.303795,28.6479118 C69.6617222,28.6415247 69.2554999,28.998888 69.0326816,29.7653508 C68.9977172,29.7663089 68.9633886,29.7669476 68.9293778,29.767267 C68.926517,29.5928967 68.8664419,29.3929776 68.9293778,29.2470303 C69.3600751,28.2471156 70.7526103,28.0775357 71.4544404,28.9276708 C71.5046619,28.9886685 71.5517049,29.0528597 71.6108264,29.1301447 C71.6734444,28.5818044 71.2789829,27.9149817 70.7411674,27.588277" id="Fill-16"></path>
                                <path d="M53.3127047,26.491277 C53.725602,26.8454467 54.1531208,27.2120714 54.5838181,27.5806123 C54.0177134,27.8737844 53.7885379,28.4562961 53.6502697,29.1489869 C53.8276344,28.978449 53.9598632,28.8337791 54.1095743,28.711145 C54.8238008,28.1232042 55.9175496,28.3394105 56.3666827,29.1477095 C56.4903294,29.3687063 56.540551,29.5766093 56.3113755,29.8030352 C56.287854,29.718405 56.2681468,29.6494233 56.249711,29.5801223 C56.0701214,28.9107447 55.3835484,28.503242 54.7348006,28.6824027 C54.0383741,28.8746571 53.6499518,29.5817191 53.8610094,30.2728131 C53.9957812,30.7135292 54.2945675,30.9453842 54.78534,30.9952043 C54.9131189,31.0079787 55.0389906,31.0332081 55.1763051,31.1373193 C55.1146407,31.1730876 55.0529763,31.2395144 54.9916297,31.239195 C54.5094394,31.2366401 53.9744847,31.4090943 53.721152,30.7425909 C53.6222982,30.4810355 53.3686477,30.2830326 53.2087652,30.0406387 C52.7675785,29.3715805 52.6369389,28.6450376 52.869293,27.8693133 C53.0126469,27.3918708 53.1747544,26.9192188 53.3127047,26.491277" id="Fill-17"></path>
                                <path d="M79.2410037,17.1062587 C77.8672221,18.1543967 74.0230495,18.8426165 73.3390195,18.1336383 C73.8644385,18.0860538 74.3590252,18.0608244 74.8482084,17.9918427 C75.3348488,17.9238191 75.8164034,17.8130014 76.293508,17.67408 C75.1400019,17.3981533 74.0128781,17.6747187 72.8813042,17.8433405 C73.8927278,17.1557595 78.0420439,16.6949237 79.2410037,17.1062587" id="Fill-18"></path>
                                <path d="M51.9818339,18.1732389 C51.147775,18.8521972 47.2807166,18.1320415 46.0674533,17.0625065 C48.2911867,16.7744442 50.3979484,17.0666582 52.4595743,17.8145982 C51.3276825,17.6798284 50.2024658,17.397834 49.0581776,17.6245792 C49.0518205,17.6686509 49.0467347,17.7120838 49.0410133,17.7564747 C50.0117511,17.8937993 50.9821711,18.0314433 51.9818339,18.1732389" id="Fill-19"></path>
                                <path d="M51.9564053,18.7183856 C51.1573107,18.8483649 50.3591697,18.9780249 49.5607108,19.1086429 C49.5667501,19.1575049 49.5721537,19.207325 49.578193,19.2568258 C50.038769,19.2568258 50.5012522,19.2833326 50.9596032,19.2488418 C51.3502504,19.218822 51.7348584,19.1044913 52.12487,19.0543518 C52.352774,19.0249707 52.5873531,19.0495614 52.8190715,19.0495614 C52.8317858,19.0910782 52.844818,19.1332336 52.8568966,19.1753891 C52.6852533,19.2635323 52.5218744,19.3970246 52.3406954,19.4305573 C51.599451,19.5672432 50.8562994,19.7282004 50.1074263,19.7770624 C49.1598921,19.8383794 48.2066365,19.804208 47.2556059,19.8003757 C47.0852341,19.7994176 46.9142265,19.7454458 46.6526296,19.7000968 C47.5092564,19.1856086 48.3550761,18.8745524 49.2695531,18.7943932 C50.1611443,18.7171082 51.0568677,18.6944336 51.9506839,18.6481265 C51.952591,18.6714398 51.9544982,18.694753 51.9564053,18.7183856" id="Fill-20"></path>
                                <path d="M78.6389809,19.690516 C77.7817184,19.9249259 76.941938,19.9210936 76.1155076,19.8527506 C75.0757946,19.7671623 74.0418031,19.5921533 73.009083,19.4331122 C72.8253612,19.4046892 72.6572144,19.2692808 72.4823926,19.1836924 C72.4925641,19.138024 72.5040069,19.0923556 72.5148141,19.0470066 C72.7436717,19.0470066 72.9807937,19.0086834 73.2010692,19.0537131 C74.0446638,19.227764 74.8885764,19.3558272 75.7572818,19.2328738 C75.0144481,18.8397422 74.1749856,18.8844526 73.3876517,18.6937949 C75.1682913,18.7854511 77.002331,18.5919192 78.6389809,19.690516" id="Fill-21"></path>
                                <path d="M52.2160952,19.780256 C51.5034579,20.0842863 50.7425063,20.4081168 49.9815546,20.7325861 C50.0009439,20.7948612 50.0193797,20.8571363 50.038769,20.9194114 C50.477095,20.8252004 50.9198709,20.7463186 51.3531112,20.6326266 C51.632826,20.5585352 51.8941052,20.4154621 52.1728665,20.3378577 C52.3855134,20.2787762 52.6127817,20.2739858 52.8457715,20.3097541 C51.1779715,20.8561782 49.7310826,22.0707025 47.8554036,21.9723398 C48.0451647,20.84532 50.3318339,19.7237294 52.2160952,19.780256" id="Fill-22"></path>
                                <path d="M72.5065498,20.2602534 C72.7112502,20.2794149 72.924215,20.2701535 73.1203333,20.3225285 C73.7350703,20.4879567 74.3424966,20.6798918 74.9550087,20.8529846 C75.0684839,20.8846012 75.193402,20.8740624 75.3218166,20.8465975 C74.6511366,20.3126283 73.854267,20.0734281 73.0392795,19.7994176 C74.4906184,19.6582607 76.4438547,20.434943 77.2423136,21.459129 C77.3481603,21.5938987 77.4320747,21.7459139 77.5512714,21.9282682 C76.9769023,22.0441957 76.4654691,21.9528588 75.9769216,21.7816821 C75.3640917,21.5670725 74.7674725,21.3061558 74.167357,21.0557779 C73.6101522,20.8232842 73.0586688,20.5799323 72.5040069,20.340732 C72.5052784,20.3139058 72.5055962,20.2867602 72.5065498,20.2602534" id="Fill-23"></path>
                                <path d="M51.024764,24.6555985 C51.1309285,23.5716923 51.6925833,22.8010777 52.4185706,22.1281872 C52.7179927,21.8509832 53.0485648,21.6076312 53.3460798,21.3278723 C53.6146696,21.0755782 53.8912059,20.9398504 54.3063283,21.1634021 C54.1922173,21.2566551 54.0876421,21.3435209 53.9821133,21.4287899 C53.44843,21.8567316 52.909661,22.2779668 52.3851955,22.7164475 C52.2787132,22.8052294 52.2240416,22.9572445 52.1789058,23.109579 C52.9795897,22.8036326 53.5485552,22.1936559 54.2227317,21.6769322 C54.1763244,21.7829596 54.1502601,21.9049549 54.0816028,21.9927788 C53.6509054,22.5449514 53.2049509,23.0853077 52.7755249,23.6387578 C52.3356097,24.2056209 51.7927085,24.5799103 51.024764,24.6555985" id="Fill-24"></path>
                                <path d="M71.0107108,21.1605279 C71.4267867,20.9618862 71.6941052,21.0730234 71.9785879,21.3150979 C72.7249181,21.950304 73.5093913,22.5494224 73.9562994,23.4525712 C74.133664,23.8099345 74.2255249,24.2094532 74.3761896,24.6488919 C73.7175881,24.6166366 73.2249085,24.3863784 72.8574648,23.9705723 C72.280235,23.3168434 71.7490946,22.620959 71.2065113,21.9362521 C71.153429,21.869506 71.1581969,21.755814 71.1337218,21.6532996 C71.7983626,22.190143 72.4347139,22.7043118 73.0713832,23.2184806 C73.109844,23.1830317 73.1483048,23.1482215 73.1861298,23.113092 C73.1184261,22.9910966 73.0780582,22.8365266 72.9785687,22.7518964 C72.4496532,22.303835 71.9051628,21.8723802 71.3651223,21.4364545 C71.2576864,21.3499081 71.1464361,21.2662359 71.0107108,21.1605279" id="Fill-25"></path>
                                <path d="M71.8663841,20.7220472 C72.6727894,21.3358562 73.4191196,21.8995258 74.3301002,22.235492 C74.1842034,21.6817226 73.742381,21.3531017 72.0930168,20.4905116 C72.4337604,20.6227264 72.7808611,20.7412088 73.1146118,20.8903497 C73.8539491,21.2202481 74.656858,21.430706 75.2394914,22.056012 C75.6260065,22.47086 75.9082643,22.9374442 76.096754,23.515485 C75.3675881,23.5621115 74.7588904,23.3548471 74.2468214,22.9249892 C73.4601233,22.2658312 72.7048931,21.5689887 71.9375843,20.8871561 C71.9169235,20.8686333 71.9127914,20.8319069 71.8663841,20.7220472" id="Fill-26"></path>
                                <path d="M49.2412637,23.5193173 C49.5314679,22.6171266 50.0235118,21.9180487 50.821335,21.5089491 C51.5609902,21.12955 52.3473704,20.8437232 53.1312079,20.5492737 C52.3244847,20.9698702 51.46309,21.308072 51.000289,22.1853526 C51.9201695,21.9199648 52.652514,21.3227625 53.4449335,20.8137034 C53.4032942,20.8609686 53.3657869,20.9127049 53.3190618,20.9539023 C52.614371,21.5836792 51.9157195,22.2204821 51.2008573,22.8384428 C50.6550954,23.3091787 50.0222404,23.5570017 49.2412637,23.5193173" id="Fill-27"></path>
                                <path d="M54.2596032,30.6161246 C54.508168,30.2220349 55.035812,30.1520952 55.3714699,30.4075828 C55.8434887,30.7668623 56.1003179,30.7422716 56.4394722,30.0693811 C56.7910229,29.3722192 57.1578309,28.6830414 57.5262281,27.9938635 C57.6495569,27.7645634 57.8561645,27.6789751 58.1384223,27.7271983 C58.1609902,27.8460001 58.1841938,27.966718 58.208351,28.0941424 C58.431805,28.1113879 58.6790984,27.7227273 58.8933346,28.1490723 C57.3876421,28.6584507 56.8638124,29.9413179 56.3790792,31.3266995 C55.6785205,31.0922896 54.9719226,30.8550055 54.2596032,30.6161246" id="Fill-28"></path>
                                <path d="M68.9605278,31.3270189 C68.4659411,29.9598408 67.96754,28.6584507 66.4634367,28.1669564 C66.5810441,27.934782 66.5810441,27.934782 67.1360239,28.0890327 C67.144606,28.031548 67.1541418,27.9750213 67.1614525,27.9188141 C67.1687632,27.8622874 67.1741668,27.8060801 67.1824311,27.734863 C67.4468888,27.6729072 67.6585822,27.7409308 67.7847717,27.9683148 C68.1232903,28.5786108 68.4484589,29.1965715 68.7764882,29.8122967 C68.8422847,29.9358888 68.8921884,30.0674649 68.957985,30.1907377 C69.2211713,30.6831901 69.418561,30.7362038 69.896937,30.4465447 C70.3842131,30.1511371 70.7100173,30.1916958 71.0815931,30.6145278 C70.3740416,30.8524506 69.6772972,31.0865412 68.9605278,31.3270189" id="Fill-29"></path>
                                <path d="M64.8379118,12.752111 L64.8379118,12.6706744 C64.7098151,12.5969023 64.5995184,12.532711 64.4536217,12.4490388 C64.1634175,12.7051652 63.8032845,12.9507527 63.3020227,12.7562627 C63.5566269,12.6007346 63.7943845,12.4557454 64.0985745,12.2698782 C63.956492,12.1753477 63.8703525,12.1175437 63.7600559,12.0444103 C63.8395203,11.9549897 63.8954633,11.8923952 63.9580813,11.8221361 C63.8973704,11.7585836 63.8369775,11.6934342 63.8150453,11.6707597 L66.7615874,11.6707597 C66.706598,12.1641701 66.5324119,12.6163832 65.9586785,12.8399349 C65.926257,12.7696758 65.8957426,12.7038877 65.8512425,12.6077605 C65.5470526,12.8121506 65.2466769,13.0583768 64.8379118,12.752111 L64.8379118,12.752111 Z M66.3378829,12.0198196 C65.9640821,11.9936322 65.6630707,11.9722351 65.3614236,11.9517961 C65.3591986,11.9655285 65.3563379,11.9786223 65.353795,11.9926741 C65.6058563,12.1022144 65.8575997,12.2117547 66.1538432,12.3410953 C66.1897611,12.2785009 66.2479291,12.1769445 66.3378829,12.0198196 L66.3378829,12.0198196 Z" id="Fill-30"></path>
                                <path d="M60.844346,12.4155061 C60.6739742,12.6192575 60.4301772,12.6869617 60.2556733,12.8220508 C59.8691582,13.1200132 59.7645829,12.6087186 59.4657966,12.6687582 C59.4499037,12.698778 59.4165286,12.7648854 59.379975,12.8370607 C58.8049701,12.6266027 58.6345983,12.1708767 58.5703911,11.6797018 L61.4854652,11.6797018 C61.4015508,11.7739128 61.2909362,11.9182633 61.5979869,11.9795803 C61.4717973,12.0990208 61.3907436,12.1763058 61.2699576,12.2906365 C61.5188403,12.4442484 61.7419765,12.5818924 61.9590734,12.7153847 C61.7101907,12.9389363 61.3567328,12.8523899 60.844346,12.4155061 L60.844346,12.4155061 Z M59.0014063,12.0214164 C59.0827779,12.1641701 59.1444423,12.2730717 59.1822674,12.3398179 C59.4851859,12.2098386 59.7391543,12.100937 59.9937584,11.9926741 C59.990262,11.9779835 59.9870834,11.9629737 59.983587,11.9479638 C59.6752649,11.9709576 59.3672606,11.9939515 59.0014063,12.0214164 L59.0014063,12.0214164 Z" id="Fill-31"></path>
                                <path d="M54.8768831,15.9198381 C53.5787517,15.3255101 52.6013389,14.0563753 53.0085147,12.8686773 C53.6054517,13.0880772 54.0517241,13.471628 54.2745425,14.0659561 C54.4986322,14.662839 54.6709112,15.2792029 54.8768831,15.9198381" id="Fill-32"></path>
                                <path d="M72.316153,12.8680385 C72.729686,13.9008472 71.8924485,15.2638737 70.4487382,15.947303 C70.6604315,15.2868675 70.8327105,14.6181287 71.0911289,13.9838807 C71.3133115,13.438734 71.7510017,13.0705125 72.316153,12.8680385" id="Fill-33"></path>
                                <path d="M52.9090252,25.2575912 C52.746282,24.137278 54.0479098,22.0416408 54.9884512,21.9701043 C54.6674148,22.3338547 54.3587748,22.6541723 54.0854171,23.0035517 C53.8088808,23.3567633 53.5517338,23.7310527 53.5158158,24.3215484 C53.7392699,24.1289746 53.9150453,24.0162407 54.0393277,23.8626288 C54.3101426,23.5288981 54.5634752,23.1791994 54.8075901,22.8253491 C54.9817762,22.5733744 54.9696976,22.565071 55.3361876,22.5966876 C54.6566076,23.6065024 54.3126854,24.8967149 52.9090252,25.2575912" id="Fill-34"></path>
                                <path d="M70.0005587,22.6078652 C70.2910807,22.5034347 70.406781,22.6436335 70.5393277,22.8378041 C70.8142747,23.2421132 71.1200539,23.625664 71.4258332,24.007618 C71.5072048,24.1094937 71.6337122,24.1752817 71.8082161,24.3116483 C71.7900982,23.7390366 71.5332691,23.3663441 71.2589578,23.0156873 C70.9827394,22.6627951 70.6712387,22.3389645 70.3749952,22.0026789 C70.3981988,21.9701043 70.4217203,21.9381683 70.444606,21.9052743 C70.6219707,22.0090661 70.8311212,22.0806026 70.9703429,22.2220789 C71.6311693,22.8943307 72.1912348,23.6377997 72.4080139,24.5837426 C72.4563283,24.7948392 72.4518783,25.0177522 72.4750819,25.2652558 C71.0301002,24.9187507 70.697303,23.6109735 70.0005587,22.6078652" id="Fill-35"></path>
                                <path d="M55.9385282,22.4318981 C55.7586207,23.1625927 55.4601522,23.7984375 55.6219418,24.5444614 C55.6960027,24.4163982 55.8028029,24.296319 55.8380851,24.1583557 C55.9846176,23.5835086 56.1069929,23.0019549 56.2455789,22.4245529 C56.2716432,22.3175674 56.3342612,22.219524 56.4169043,22.0352536 C56.7093335,23.4611939 56.0793392,25.1850966 55.1702658,25.6165513 C54.5644288,24.9969938 55.2735696,23.1242696 55.9385282,22.4318981" id="Fill-36"></path>
                                <path d="M62.6643999,28.8615634 C63.2336833,29.5009211 63.8331632,30.1754084 64.5079753,30.934526 C64.1322674,30.7393974 63.8287132,30.5972824 63.5410518,30.4277025 C63.3833943,30.3341301 63.2641976,30.3018748 63.0668079,30.3545691 C62.816336,30.4222733 62.5219996,30.4225927 62.2705741,30.357124 C62.0760451,30.3060265 61.9552591,30.3302978 61.796648,30.426425 C61.526151,30.5899371 61.2381718,30.7250262 60.938114,30.8173211 C61.526151,30.1511371 62.1145059,29.4849532 62.6643999,28.8615634" id="Fill-37"></path>
                                <path d="M68.9430457,22.1096644 C68.9935851,22.2156917 69.0654209,22.3172481 69.0905317,22.4293432 C69.2024176,22.9281828 69.2882393,23.4337289 69.4102967,23.9306524 C69.4611539,24.1366392 69.577172,24.3269775 69.7141688,24.5099705 C69.9106049,23.7885374 69.5488827,23.1523732 69.4134752,22.4631954 C70.0800231,23.1322536 70.7522924,24.9912453 70.1658447,25.6283676 C69.7233866,25.4131193 69.3356001,25.0943985 69.2202177,24.6188721 C69.0247351,23.8118506 68.9246099,22.9805578 68.7841167,22.1598038 C68.837199,22.1425584 68.8902813,22.1259517 68.9430457,22.1096644" id="Fill-38"></path>
                                <path d="M61.8668946,28.6683509 C62.353535,28.2483931 62.3923136,27.9817279 62.1351666,27.3091567 C62.0220092,27.0127911 61.9632055,26.6915154 61.9145733,26.3759882 C61.8961375,26.2555897 61.9771913,26.1198619 62.0375843,25.9004619 C62.2537276,26.4321955 62.4329994,26.8729116 62.6119534,27.3139471 C62.6481892,27.3145858 62.684425,27.3152246 62.7206608,27.3168214 C62.8992969,26.8716342 63.0776151,26.426447 63.272462,25.9407012 C63.4812945,26.2677253 63.4727124,26.5861268 63.377355,26.9118735 C63.3446157,27.0223719 63.2848584,27.1248863 63.2374976,27.231233 C63.0000578,27.7616892 62.8621075,28.2777742 63.5054517,28.6855963 C63.4688981,28.7121031 63.4326623,28.73861 63.3957908,28.7657555 C63.1529474,28.6121436 62.9094683,28.4582123 62.6650356,28.3036423 C62.4390387,28.4473541 62.1787132,28.6127823 61.9190233,28.7782105 C61.9015411,28.7411648 61.8840589,28.7044385 61.8668946,28.6683509" id="Fill-39"></path>
                                <path d="M59.0973993,23.1536506 C58.892381,22.4916184 58.7162878,21.9212422 58.5379696,21.3451177 C58.8412059,21.5057555 58.9397419,21.2579325 58.9651705,21.0216065 C59.0033134,20.6683948 59.1625602,20.4528272 59.5122038,20.365642 C59.9546619,20.6230458 60.0811693,20.9756187 59.8618474,21.4942586 C59.6403005,22.019605 59.3860143,22.5312189 59.0973993,23.1536506" id="Fill-40"></path>
                                <path d="M66.2355327,23.1485409 C65.9421499,22.5149316 65.6665671,21.9784076 65.4475631,21.4185704 C65.3687343,21.2160964 65.3700058,20.9417666 65.4377095,20.7348216 C65.4872953,20.5812097 65.7040744,20.4822082 65.8467925,20.3592548 C65.9758428,20.5166991 66.3057792,20.4317494 66.3057792,20.752067 C66.3057792,20.8539427 66.3416972,20.9580539 66.3725294,21.0573747 C66.4421402,21.2828426 66.518744,21.5067136 66.8035446,21.3377724 C66.6210942,21.9209229 66.4402331,22.4954507 66.2355327,23.1485409" id="Fill-41"></path>
                                <path d="M52.2218166,14.8784067 C53.2078116,15.1568882 54.0034097,15.6483825 54.736072,16.2708142 C53.6598054,16.9411499 52.6699961,16.2366428 52.2218166,14.8784067" id="Fill-42"></path>
                                <path d="M70.5771528,16.2874209 C71.339058,15.6429534 72.1400597,15.1479462 73.0955404,14.8847939 C72.8040647,15.925906 71.9175592,17.0050218 70.5771528,16.2874209" id="Fill-43"></path>
                                <path d="M58.7385379,29.7097823 C59.3678964,30.5972824 59.9680119,31.4569982 60.5856097,32.304259 C60.7407243,32.5175912 60.7483529,32.670245 60.5144096,32.8398249 C59.8249759,31.868972 59.1390387,30.9019513 58.4432479,29.921837 C58.3272298,29.9770862 58.2274225,30.0249901 58.0983722,30.0869458 L58.0983722,29.1029992 C58.3920728,29.2128588 58.668927,29.316012 58.9848777,29.4338556 C58.8949239,29.5350926 58.8240416,29.6139744 58.7385379,29.7097823" id="Fill-44"></path>
                                <path d="M70.4544596,18.9668473 C71.2055577,18.9441728 71.9115199,18.9144724 72.4693604,19.4647288 C72.5901464,19.5835306 72.6317858,19.7834496 72.7099788,19.9460036 C72.5411963,20.0015722 72.3733674,20.0999349 72.2033134,20.105364 C71.423926,20.1305934 70.8397033,19.7559847 70.4544596,18.9668473" id="Fill-45"></path>
                                <path d="M54.8505009,18.9920767 C54.584136,19.8913931 53.5186766,20.2046848 52.8788287,20.0842863 C52.5972067,20.031592 52.5469852,19.8818123 52.7094105,19.6767835 C52.8502215,19.4998584 53.0094683,19.305049 53.2043152,19.2105186 C53.7205163,18.9591827 54.273271,18.8780654 54.8505009,18.9920767" id="Fill-46"></path>
                                <path d="M58.8761703,17.2129248 C58.9254383,17.2892517 58.9651705,17.3553592 59.0096706,17.418273 C59.2531497,17.7670136 59.5611539,17.8752765 59.9044404,17.6264954 C60.245184,17.3793111 60.5194953,17.0388739 60.8173281,16.7338855 C60.8888461,16.6607522 60.9390676,16.5665412 61.0436428,16.4196358 C60.8751782,17.1599111 60.6011847,17.7583909 60.1091408,18.2409431 C59.7184935,18.6248133 59.3974571,18.6775076 59.0681564,18.42202 C58.7169235,18.1496063 58.6326912,17.6654573 58.8761703,17.2129248" id="Fill-47"></path>
                                <path d="M64.3083606,16.4914917 C64.5496147,16.7801927 64.7450973,17.039832 64.9682335,17.271687 C65.1109516,17.4208279 65.2810056,17.5562363 65.4618667,17.6517248 C65.8397997,17.8506858 66.0289251,17.7663749 66.4656617,17.2643417 C66.6948372,17.6245792 66.6268156,18.1064928 66.3064149,18.3875291 C65.9891928,18.6656913 65.6904065,18.6500427 65.3156521,18.3201443 C64.7746581,17.8442986 64.4806396,17.2304896 64.3083606,16.4914917" id="Fill-48"></path>
                                <path d="M57.8879503,20.9337826 C58.6193412,21.7158941 58.5970911,22.7557287 59.0141206,23.6119316 C58.9950491,23.6429094 58.9756598,23.674526 58.9562705,23.7051845 C58.7696879,23.621193 58.5535446,23.5736084 58.4012907,23.4474614 C57.7840108,22.9384023 57.6063283,21.7037584 57.8879503,20.9337826" id="Fill-49"></path>
                                <path d="M52.0968985,18.4363911 C52.3785205,18.0247367 52.7926893,17.873041 53.2631189,17.8762345 C53.7567521,17.8791088 54.1709208,18.0442177 54.3422462,18.5711609 C53.7834521,19.0000607 52.5873531,18.991438 52.0968985,18.4363911" id="Fill-50"></path>
                                <path d="M67.4697746,20.9842414 C67.6020035,21.72292 67.6449143,22.4501016 67.2107205,23.1188405 C67.0101522,23.4282998 66.7711231,23.6882585 66.3013292,23.6448256 C66.7463302,22.7630739 66.7116837,21.7197264 67.4697746,20.9842414" id="Fill-51"></path>
                                <path d="M70.9913215,18.5753125 C71.1588326,18.0464532 71.5730013,17.8791088 72.0669524,17.8762345 C72.5376999,17.873041 72.9534579,18.0221819 73.237305,18.4325588 C72.7525718,18.9946316 71.5577442,18.9965477 70.9913215,18.5753125" id="Fill-52"></path>
                                <path d="M55.1848873,26.9661646 C55.1804373,27.2181393 55.0122905,27.3660027 54.7678578,27.2877596 C54.1836351,27.1002956 53.7678771,26.6998188 53.4973801,26.1569076 C53.3839048,25.929843 53.5367945,25.6931976 53.7739164,25.6657326 C54.2020709,25.6165513 55.1931516,26.5296001 55.1848873,26.9661646" id="Fill-53"></path>
                                <path d="M70.1483626,26.8968636 C70.1648912,26.8521533 70.1744269,26.7413355 70.234502,26.6841701 C70.5755635,26.357146 70.9134463,26.0221379 71.2888364,25.7391853 C71.3886438,25.6644552 71.6689944,25.7101236 71.7732518,25.8043347 C71.8536698,25.8771486 71.8485841,26.1482849 71.7770661,26.2686834 C71.5043441,26.7288805 71.1340397,27.1018924 70.6114814,27.2743465 C70.3289058,27.3675995 70.1378732,27.2203748 70.1483626,26.8968636" id="Fill-54"></path>
                                <path d="M59.9931227,28.5176132 C60.5458775,27.9900312 61.0976787,27.4627687 61.6510692,26.9342287 C62.0684165,27.4270004 61.8379696,27.9012493 61.5735118,28.3620851 C61.2642362,28.9005252 60.855471,29.3172894 60.2216625,29.4229974 C60.1908303,29.3907421 60.1603159,29.3581674 60.1301194,29.3259121 C60.3246484,29.1282286 60.5188596,28.9292676 60.7143421,28.7325421 C60.9670391,28.4786513 61.2429397,28.2439221 61.4651223,27.9651212 C61.5760547,27.8261998 61.5900405,27.6083966 61.6011655,27.3918708 C61.0210749,27.7201724 60.795078,28.5089905 59.9931227,28.5176132" id="Fill-55"></path>
                                <path d="M65.2606627,28.5907465 C64.5346754,28.4936612 64.3070892,27.7271983 63.739713,27.320015 C63.6952129,27.7351823 63.837931,28.0082347 64.0556636,28.2365768 C64.2400212,28.4291506 64.4634752,28.5827625 64.65864,28.7654362 C64.8468118,28.9417226 65.0209979,29.1336577 65.2673377,29.3872291 C64.8032653,29.4396041 64.5550183,29.2374495 64.3220285,29.0496661 C63.8837026,28.6948577 63.5995377,28.214541 63.4790695,27.6732266 C63.4282123,27.4455232 63.5626662,27.1759838 63.6214699,26.8821731 C64.2333462,27.4627687 64.7838759,27.9849215 65.3334521,28.5073937 C65.3092949,28.5351779 65.2851377,28.5626429 65.2606627,28.5907465" id="Fill-56"></path>
                                <path d="M54.7233577,17.5511266 C53.9566846,17.9215836 52.8855038,17.6028628 52.5307744,16.8399129 C52.7478713,16.7881767 52.9522539,16.6974786 53.1547293,16.7006722 C53.511048,16.7057819 53.8670487,16.7645441 54.2220959,16.8105318 C54.2805818,16.8181965 54.3543248,16.8648229 54.3835677,16.9152817 C54.5046715,17.1225461 54.6111539,17.3384331 54.7233577,17.5511266" id="Fill-57"></path>
                                <path d="M70.5955885,17.5581525 C70.6470815,17.4786319 70.6855423,17.4211472 70.7217781,17.3623851 C70.8352533,17.1797114 70.9267964,16.8593938 71.064111,16.8386355 C71.5688692,16.7603924 72.087931,16.7785959 72.6019071,16.7709312 C72.6597573,16.7699732 72.7179253,16.8351225 72.7732325,16.8683359 C72.5100462,17.5741204 71.473194,17.9078511 70.5955885,17.5581525" id="Fill-58"></path>
                                <path d="M62.6701214,24.2487344 C63.2324119,24.8947988 63.229869,25.6203836 62.6790214,26.6148691 C62.1081487,25.6679682 62.0798594,24.8842599 62.6701214,24.2487344" id="Fill-59"></path>
                                <path d="M68.170969,23.0993595 C67.7399538,22.6771662 67.5791177,21.8909031 67.8203718,21.4070734 C67.844529,21.3585308 67.9154113,21.3227625 67.97199,21.3036009 C68.0861009,21.2662359 68.2052976,21.2435613 68.3327586,21.2122641 C68.7726739,21.7261136 68.7173666,22.5219575 68.170969,23.0993595" id="Fill-60"></path>
                                <path d="M56.9830091,21.2065156 C57.1514737,21.2518647 57.2995955,21.2917846 57.4737815,21.3393692 C57.6613177,21.9509427 57.702957,22.5609194 57.1947024,23.0932917 C56.6537083,22.6730146 56.5631189,21.849067 56.9830091,21.2065156" id="Fill-61"></path>
                                <path d="M66.4701117,12.7565821 C66.6541514,12.6444869 66.8416875,12.5381401 67.0209594,12.4186997 C67.173849,12.3177821 67.3629744,12.2302776 67.4538817,12.0852883 C67.6020035,11.8480042 67.8181468,11.8464074 67.9951936,11.9182633 C68.1503082,11.9814965 68.3432479,12.1657669 68.3581872,12.3126723 C68.3769409,12.5039687 68.2463013,12.7163428 68.1560297,12.9079585 C68.1417261,12.9379783 67.9847043,12.9312717 67.9154113,12.8971003 C67.6096321,12.7444464 67.3222886,12.7747856 67.0111058,12.8980583 C66.8626662,12.9568205 66.6725872,12.9079585 66.5012618,12.9079585 C66.4907725,12.8574997 66.480601,12.8070409 66.4701117,12.7565821" id="Fill-62"></path>
                                <path d="M58.8319881,12.9184973 C58.6234733,12.8971003 58.4149586,12.8651643 58.206126,12.8552642 C57.9804469,12.8444059 57.7426893,12.8099151 57.5306781,12.8651643 C57.3275669,12.918178 57.1610094,13.0127084 57.0449913,12.7578595 C56.9261125,12.4982202 56.8854267,12.2373035 57.1136486,12.0159873 C57.3177134,11.816707 57.6705355,11.8725949 57.8688788,12.0824141 C58.0007898,12.2222936 58.1746581,12.3241693 58.3374013,12.4311547 C58.5080909,12.5435693 58.6879985,12.6416126 58.8640917,12.7463626 C58.8532845,12.8038473 58.8427952,12.8619707 58.8319881,12.9184973" id="Fill-63"></path>
                                <path d="M64.428193,21.8117019 C63.8074167,20.8200906 63.8236274,20.6150618 64.5254575,19.8454054 C64.6907436,20.0852444 64.8569832,20.3155026 65.0076479,20.5556609 C65.0381622,20.6042036 65.0327586,20.7016082 65.0044693,20.7558994 C64.8299653,21.0912269 64.6433828,21.4201672 64.428193,21.8117019" id="Fill-64"></path>
                                <path d="M60.965132,21.711423 C60.2286554,21.1595698 60.1841553,20.6112295 60.8151031,19.8642476 C61.4854652,20.523725 61.5197939,20.9414472 60.965132,21.711423" id="Fill-65"></path>
                                <path d="M57.1629166,24.6524049 C57.211231,24.3870171 57.2624061,24.1219487 57.3069062,23.8556029 C57.3479098,23.608738 57.1978809,23.3101368 57.5033423,23.1303374 C57.5653246,23.8080183 57.3123098,25.2132002 57.0186091,25.7088462 C56.4931901,24.845298 56.7179156,23.9354427 56.6775477,22.9728932 C57.038952,23.2405164 56.887016,23.5448661 56.9086303,23.8048247 C56.9318339,24.0842643 56.9521768,24.3643426 56.9734733,24.6441015 C57.036727,24.6469758 57.0999807,24.64985 57.1629166,24.6524049" id="Fill-66"></path>
                                <path d="M68.2606049,25.6778683 C67.9163649,24.8593498 67.8791755,24.0012308 67.8264111,23.1437505 C68.2393084,23.5621115 67.8308611,24.2244631 68.2679156,24.6610276 C68.6290021,24.1641042 68.2440763,23.535924 68.5387305,22.9952483 C68.8470526,23.6001153 68.6652379,25.2837786 68.2606049,25.6778683" id="Fill-67"></path>
                                <path d="M63.8601811,20.1190965 C63.672645,19.6991387 63.2584762,19.3753081 63.4727124,18.8847719 C63.5728376,18.6551524 63.766413,18.4670497 63.9259777,18.2486078 C64.5772683,18.9604601 64.5531112,19.3967052 63.8601811,20.1190965" id="Fill-68"></path>
                                <path d="M61.512801,20.1685972 C60.786178,19.3695597 60.763928,19.0604197 61.3389328,18.2914019 C61.6764978,18.4692852 61.9377769,18.7337149 61.8827875,19.1258884 C61.8351088,19.463132 61.655837,19.7821722 61.512801,20.1685972" id="Fill-69"></path>
                                <path d="M55.0920728,22.312777 C55.42487,21.5824018 55.8622423,21.0829235 56.6419476,20.9363375 C56.8113658,21.1895896 56.6851763,21.4374126 56.5300616,21.6418027 C56.1915431,22.0857124 55.75576,22.3641939 55.0920728,22.312777" id="Fill-70"></path>
                                <path d="M69.776151,20.0268016 C70.509449,19.8760639 71.1953862,19.9287582 71.7357446,20.5400123 C71.2500578,21.0896301 70.035523,20.7552606 69.776151,20.0268016" id="Fill-71"></path>
                                <path d="M53.5835196,20.5531061 C54.1502601,19.938339 54.8260258,19.8706348 55.5942882,20.0328694 C55.3883163,20.4362205 55.0310441,20.6415686 54.6216432,20.7734641 C54.2513389,20.8929046 53.8934309,20.9088726 53.5835196,20.5531061" id="Fill-72"></path>
                                <path d="M70.2281449,22.2964897 C69.3317858,22.3945331 68.5345983,21.6702257 68.6779522,20.9379343 C69.4560682,21.0736621 69.9093335,21.5718629 70.2281449,22.2964897" id="Fill-73"></path>
                                <path d="M61.7985552,25.0132811 C61.302697,24.1047033 61.3370256,23.763308 61.9736949,23.105108 C62.5378925,23.5550856 62.4781352,24.2650218 61.7985552,25.0132811" id="Fill-74"></path>
                                <path d="M63.5334232,25.020307 C62.8560682,24.2417085 62.7998074,23.637161 63.3350799,23.1022338 C63.9685706,23.630135 64.0222886,24.1200326 63.5334232,25.020307" id="Fill-75"></path>
                                <path d="M63.3398478,19.8878802 C63.8487382,20.5511899 63.7800809,21.3684309 63.1567617,21.7701852 C62.6847428,21.060249 62.7197072,20.6719078 63.3398478,19.8878802" id="Fill-76"></path>
                                <path d="M62.0007128,19.8888383 C62.6062319,20.6843628 62.6383356,21.0129838 62.1981025,21.7523011 C61.5611154,21.4374126 61.4737045,20.5307509 62.0007128,19.8888383" id="Fill-77"></path>
                                <path d="M63.8748025,21.5201267 C64.4806396,22.1936559 64.4631574,22.7180443 63.8204489,23.2440294 C63.2893084,22.5705002 63.3077442,21.9937369 63.8748025,21.5201267" id="Fill-78"></path>
                                <path d="M61.5175689,23.2558457 C60.8618282,22.6870664 60.8519746,22.2211208 61.4702081,21.531943 C62.0007128,22.0164114 62.0728665,22.552616 61.5175689,23.2558457" id="Fill-79"></path>
                                <path d="M62.4237815,17.3480139 L62.8983433,17.3480139 C63.225419,17.7548779 63.2282797,18.1818616 62.8983433,18.5411411 C62.7359179,18.7180662 62.5960605,18.7190243 62.4352244,18.5405024 C62.1214987,18.1924005 62.1154594,17.7807461 62.4237815,17.3480139" id="Fill-80"></path>
                                <path d="M61.6644192,16.6246646 C61.3656328,16.1571222 61.4409651,15.5394809 61.8875554,14.6634778 C62.4727317,15.3440329 62.4225101,15.8233915 61.6644192,16.6246646" id="Fill-81"></path>
                                <path d="M63.4571374,14.5839572 C63.6427663,15.2980451 64.0925352,15.8965249 63.6990272,16.617 C62.9151898,15.8032719 62.8427182,15.7195997 63.4571374,14.5839572" id="Fill-82"></path>
                                <path d="M64.9453477,18.3396252 C65.5035061,18.8780654 65.5337026,19.4481221 65.0572337,20.1152642 C64.5648719,19.5873629 64.5184647,18.930121 64.9453477,18.3396252" id="Fill-83"></path>
                                <path d="M61.8827875,25.4539973 C61.8417839,25.9416593 61.6164227,26.3852496 61.1879503,26.7154674 C61.0897322,26.7908362 60.9527355,26.8751471 60.8440281,26.8626921 C60.6857349,26.844808 60.5363417,26.7432517 60.3834521,26.6771442 C60.4581487,26.5468456 60.5032845,26.3740721 60.6135812,26.2942322 C61.0242535,25.9981859 61.4565402,25.7327981 61.8827875,25.4539973" id="Fill-84"></path>
                                <path d="M60.3961664,18.352719 C60.8170102,18.9135143 60.777278,19.5592592 60.2884126,20.1117512 C59.7884223,19.4921937 59.8300616,18.8097224 60.3961664,18.352719" id="Fill-85"></path>
                                <path d="M55.614949,20.6246426 C55.614949,20.82041 55.6890098,21.0644007 55.6003275,21.203322 C55.3727413,21.5590885 55.0145155,21.7625206 54.5739646,21.7446364 C54.5221537,21.7420816 54.4223464,21.605715 54.4363321,21.5600466 C54.4913215,21.3799279 54.5402716,21.1605279 54.6702755,21.0503488 C54.9032653,20.8529846 55.1931516,20.7242828 55.4595165,20.5674772 C55.5113273,20.5860001 55.5631381,20.605481 55.614949,20.6246426" id="Fill-86"></path>
                                <path d="M63.4482373,25.4517618 C63.8554132,25.718427 64.2660855,25.9694435 64.6535542,26.2530348 C64.7832402,26.3478846 64.9634656,26.5743105 64.9281834,26.6586214 C64.8369582,26.8738697 64.6068291,26.9434901 64.3687536,26.8339498 C63.7673666,26.556107 63.5400982,26.035551 63.4482373,25.4517618" id="Fill-87"></path>
                                <path d="M70.8657677,21.7363331 C70.3991524,21.7986082 70.0622231,21.5756952 69.7481795,21.2531421 C69.5062897,21.0053191 69.7818725,20.8357392 69.7786939,20.6268781 C70.4951454,20.702247 70.9646215,21.1761765 70.8657677,21.7363331" id="Fill-88"></path>
                                <path d="M62.9933828,32.7986275 C62.6567713,32.092843 63.3071085,31.7907289 63.3849836,31.3068992 C63.4142265,31.3014701 63.4437873,31.2963604 63.4733481,31.29157 C63.7247736,31.6725659 63.9885956,32.0471746 64.2177711,32.4415836 C64.2641784,32.5214235 64.1818532,32.6772709 64.1586496,32.7976695 C64.1255924,32.8018211 64.0925352,32.8066115 64.0594779,32.8114019 C63.8767097,32.5517626 63.6942593,32.2927621 63.4774803,31.9852188 C63.3175978,32.2534808 63.1802832,32.4846971 62.9933828,32.7986275" id="Fill-89"></path>
                                <path d="M62.6643999,21.7028003 C63.2257369,22.4663889 63.2266904,22.7017569 62.68665,23.3347275 C62.1068773,22.8010777 62.1170487,22.3983654 62.6643999,21.7028003" id="Fill-90"></path>
                                <path d="M62.6653535,20.3065605 C62.5051531,20.0619311 62.36911,19.861054 62.2406954,19.6557058 C62.1116452,19.4500383 62.1294452,19.2549096 62.3214313,19.1000202 C62.5423425,18.9214983 62.7724716,18.8940333 63.0041899,19.0904394 C63.1955404,19.2526741 63.2101618,19.4497189 63.0941437,19.6515541 C62.9736756,19.8616927 62.829686,20.0577794 62.6653535,20.3065605" id="Fill-91"></path>
                                <path d="M62.3478135,33.275112 C62.6678964,33.9569445 62.0331343,34.2529908 61.9606627,34.7246848 C61.9298305,34.7317107 61.8986804,34.7396947 61.8681661,34.7473593 C61.6167405,34.3922316 61.3532364,34.044449 61.1250144,33.673992 C61.0801965,33.6008587 61.175236,33.4405402 61.2260932,33.2403018 C61.4705259,33.5666872 61.6552013,33.812594 61.8633982,34.0901175 C62.0280485,33.8138715 62.167906,33.5778648 62.3478135,33.275112" id="Fill-92"></path>
                                <path d="M62.0401271,28.9608842 C61.5468118,29.7324568 60.9476498,30.4018343 60.1552302,30.8783187 C60.081805,30.922071 59.9610191,30.8872608 59.862801,30.889177 C59.9073011,30.8122113 59.9327297,30.7045872 59.999162,30.6627511 C60.6380563,30.2594 61.1574359,29.7359697 61.6037083,29.1291866 C61.6908014,29.0107043 61.8417839,28.9388484 61.9632055,28.8462341 C61.988952,28.8845573 62.0146985,28.922561 62.0401271,28.9608842" id="Fill-93"></path>
                                <path d="M65.5130418,30.8843866 C65.4234059,30.8977997 65.3102485,30.9530489 65.2489019,30.9176 C64.417068,30.4363252 63.7915238,29.7481054 63.2839048,28.9449162 C63.3007513,28.9184094 63.3175978,28.8912638 63.3350799,28.8641182 C63.4437873,28.9206449 63.5906376,28.9503453 63.6554806,29.0391273 C64.159921,29.735331 64.7539973,30.3318946 65.5063668,30.7623912 C65.5085918,30.8032693 65.5108168,30.8435086 65.5130418,30.8843866" id="Fill-94"></path>
                                <path d="M67.0123772,24.6322852 C67.1414275,24.1618686 67.2704777,23.6924102 67.4176459,23.1558862 C67.5454248,23.8016311 67.2240705,24.9069344 66.7971874,25.4230194 C66.4818725,24.9861356 66.5193797,23.9929275 66.878559,23.7933278 L66.878559,24.6000299 C66.923377,24.6105688 66.9678771,24.6211076 67.0123772,24.6322852" id="Fill-95"></path>
                                <path d="M57.9381718,23.2200774 C58.0627721,23.6892166 58.1876902,24.1580363 58.3116548,24.6265368 C58.3520227,24.6217464 58.3920728,24.616956 58.431805,24.6118462 L58.431805,23.832609 C58.8024273,23.9150037 58.8720381,24.8037813 58.5478232,25.4642168 C58.0370256,24.7897295 57.9273647,24.0248634 57.8507609,23.2488198 C57.8800039,23.239239 57.9089289,23.2296582 57.9381718,23.2200774" id="Fill-96"></path>
                                <path d="M63.6341842,10.0864171 C63.4774803,10.0247807 63.372905,9.98294462 63.2546619,9.93599877 C63.3264978,9.55436414 63.3811693,9.18678133 63.4704874,8.82750187 C63.5140339,8.65025734 63.5489983,8.41488937 63.8490561,8.49440989 C64.1363995,8.57041745 64.1344924,8.75213302 64.0502601,8.97632341 C63.9167598,9.33368671 63.7823059,9.69136937 63.6341842,10.0864171" id="Fill-97"></path>
                                <path d="M62.0913023,9.93951172 C61.9396841,9.9925254 61.8357446,10.0292517 61.6908014,10.0797106 C61.5379118,9.65719791 61.3929686,9.25767914 61.2492969,8.85720231 C61.175236,8.6489799 61.2909362,8.52315225 61.4692545,8.51421018 C61.5811404,8.50910043 61.7759873,8.59660494 61.8010981,8.68251265 C61.9215662,9.08937668 61.9965806,9.50965381 62.0913023,9.93951172" id="Fill-98"></path>
                                <path d="M64.9072048,23.1281019 C64.4421788,22.4318981 64.4612502,22.1007223 64.9838085,21.4929811 C65.4183202,22.0090661 65.4002023,22.5209994 64.9072048,23.1281019" id="Fill-99"></path>
                                <path d="M62.6682142,15.3960885 C62.5270853,15.1623173 62.4174244,14.9719791 62.2988634,14.7873893 C62.1262666,14.5172111 62.2114525,14.3099468 62.4342709,14.1180117 C62.6103641,13.9666353 62.7613466,13.992184 62.9237719,14.1374926 C63.1326045,14.324318 63.2041225,14.5258338 63.0401079,14.7810021 C62.9215469,14.9659112 62.8122038,15.1568882 62.6682142,15.3960885" id="Fill-100"></path>
                                <path d="M60.4387594,23.1092597 C59.9429012,22.5944521 59.9162011,22.1454326 60.323377,21.4862746 C60.8580139,21.9994853 60.8923425,22.4235948 60.4387594,23.1092597" id="Fill-101"></path>
                                <path d="M56.370497,9.70542119 C56.620969,10.4677324 57.0043055,11.2080077 56.4776151,12.020139 C56.4416972,11.8352298 56.3695434,11.6595821 56.3822578,11.4912796 C56.4146793,11.0496054 56.3387112,10.6462543 56.1467251,10.2429033 C55.9677711,9.86957199 56.0164034,9.81304535 56.370497,9.70542119" id="Fill-102"></path>
                                <path d="M68.8400597,12.0038517 C68.3438836,11.1987463 68.7113273,10.4578322 68.966885,9.69999208 C69.1178675,9.73544099 69.3394144,9.77057054 69.2399249,10.0113676 C68.9996243,10.5919632 68.9293778,11.1945946 68.9188885,11.8125553 C68.9179349,11.8751498 68.8693026,11.9364668 68.8400597,12.0038517" id="Fill-103"></path>
                                <path d="M59.1371316,31.463066 C58.3310441,31.5872969 57.5249567,31.7185536 56.716962,31.828094 C56.6244654,31.8408683 56.5163938,31.7377152 56.4149971,31.6885338 C56.5094009,31.6482945 56.5996725,31.588255 56.6982084,31.5710095 C57.3895492,31.4451819 58.0818436,31.3238253 58.7754094,31.2123688 C58.8904739,31.1935266 59.0144385,31.2286561 59.1349066,31.2395144 C59.1352244,31.3142445 59.136178,31.3886553 59.1371316,31.463066" id="Fill-104"></path>
                                <path d="M66.1888076,31.2481371 C66.2905221,31.2286561 66.3970044,31.1797941 66.4933154,31.194804 C67.2456848,31.3123283 67.996465,31.4403915 68.7462917,31.5726063 C68.8095454,31.5834646 68.8632633,31.6492526 68.9214313,31.6891726 C68.8429204,31.7380346 68.7577345,31.8379941 68.6862165,31.829052 C68.0673473,31.7533638 67.4494317,31.6668174 66.8343768,31.5646224 C66.6204585,31.5291734 66.4154402,31.4397528 66.2069254,31.3752422 C66.2005683,31.3327673 66.1948469,31.2906119 66.1888076,31.2481371" id="Fill-105"></path>
                                <path d="M67.781911,11.0952738 C67.6519071,10.7784692 67.5308033,10.454958 67.3871316,10.1413469 C67.1881526,9.70414376 67.1843383,9.64091057 67.4367174,9.35093213 C67.6201214,9.68785642 67.8171932,10.0126451 67.9777114,10.3546791 C68.1569832,10.7353557 68.0641688,10.9592267 67.781911,11.0952738" id="Fill-106"></path>
                                <path d="M64.4351859,34.0990595 C64.5416683,33.9971838 64.6131863,33.9285215 64.6131863,33.9285215 C64.6465614,33.6794211 64.6691293,33.5123961 64.6907436,33.345371 C64.725708,33.3431355 64.7609902,33.3415387 64.7953188,33.3393032 C64.8658833,33.4226561 64.9374013,33.5063282 65.0222693,33.6069265 C65.1211231,33.5733937 65.2237912,33.5385836 65.3534772,33.4941926 L65.3534772,34.4545067 C65.0499229,34.3376211 64.7603545,34.2248872 64.4351859,34.0990595" id="Fill-107"></path>
                                <path d="M57.9922077,9.34933533 C58.0106434,9.52147011 58.0704007,9.70286632 58.036072,9.86382352 C57.9934791,10.0621458 57.8615681,10.2406678 57.7894144,10.4351577 C57.7080428,10.6532803 57.6495569,10.8806642 57.5818532,11.1013417 C57.2878347,10.9860529 57.1803988,10.7442977 57.3526777,10.3674535 C57.5122423,10.0222258 57.7102678,9.69552105 57.8917646,9.36083227 C57.9251397,9.35636124 57.9585147,9.35284828 57.9922077,9.34933533" id="Fill-108"></path>
                                <path d="M64.5883934,24.4898509 C64.0887209,23.8782774 64.0559815,23.5783988 64.4332788,23.0485814 C64.9285013,23.418719 64.9780871,23.8731676 64.5883934,24.4898509" id="Fill-109"></path>
                                <path d="M60.7388172,24.4700506 C60.3545271,23.8856227 60.3958486,23.4838684 60.8859854,23.0390006 C61.2721826,23.5260238 61.2280004,23.9558818 60.7388172,24.4700506" id="Fill-110"></path>
                                <path d="M59.4864573,26.3149905 C59.0967636,26.8978217 58.3892121,27.1769419 57.8825467,26.9738292 C58.1203044,26.5928333 58.6638413,26.3654493 59.4864573,26.3149905" id="Fill-111"></path>
                                <path d="M65.8734926,26.3216971 C66.596937,26.3443716 67.167174,26.573033 67.4503853,26.9537096 C66.9764593,27.2034487 66.1656039,26.8783407 65.8734926,26.3216971" id="Fill-112"></path>
                                <path d="M60.8497496,18.4801434 C60.6437777,18.2524401 60.576074,18.0751955 60.7515315,17.7935204 C60.9756213,17.4339216 61.1180216,17.0232253 61.2871219,16.6530876 C61.5385475,16.9561598 61.4012329,17.6121242 60.8497496,18.4801434" id="Fill-113"></path>
                                <path d="M64.4355038,18.4510817 C64.1964747,17.8609053 63.764188,17.3151199 64.0073493,16.6112515 C64.2368426,17.0733647 64.4815931,17.5156776 64.6704007,17.9809845 C64.7218937,18.1080896 64.6039684,18.3041763 64.5639183,18.4680077 C64.5210075,18.4625786 64.4787324,18.4568302 64.4355038,18.4510817" id="Fill-114"></path>
                                <path d="M64.2056925,24.4860186 C64.7183972,24.9254573 64.7953188,25.1972322 64.5241861,25.5453341 C64.3773358,25.7347143 64.2575034,25.7187463 64.1122423,25.5504438 C63.8665382,25.2655752 63.8881526,24.9819839 64.2056925,24.4860186" id="Fill-115"></path>
                                <path d="M61.1250144,24.4470567 C61.5010403,25.1710447 61.4819688,25.3687283 61.0226642,25.6954331 C60.5102774,25.3604249 60.526806,25.1119632 61.1250144,24.4470567" id="Fill-116"></path>
                                <path d="M64.3538143,16.0568434 C63.8465132,15.4270664 63.8042381,15.1326169 64.1430746,14.5826798 C64.5051146,14.8218801 64.6214506,15.6372049 64.3538143,16.0568434" id="Fill-117"></path>
                                <path d="M61.175236,14.5635182 C61.5360046,15.1083456 61.4695723,15.540439 60.9454248,16.0619531 C60.7407243,15.5097805 60.8411674,14.8541354 61.175236,14.5635182" id="Fill-118"></path>
                                <path d="M63.4358409,18.3846549 C63.3767193,18.0531597 63.3099692,17.7155967 63.2587941,17.3751595 C63.2314583,17.1918471 63.229869,17.0047024 63.212069,16.7492148 C64.083953,17.5616654 63.9860528,18.0298465 63.4358409,18.3846549" id="Fill-119"></path>
                                <path d="M62.0671451,16.8271385 C62.3036313,17.3869758 61.5696976,17.9148771 62.0636486,18.4648141 C61.3106434,18.0566727 61.2883934,17.4821449 62.0671451,16.8271385" id="Fill-120"></path>
                                <path d="M58.3078405,13.9327832 C58.1333365,13.621727 58.2064438,13.3502714 58.5735696,13.1305521 C58.9317954,12.9159425 59.0633886,12.9542656 59.2811212,13.2959803 C58.9553169,13.5089931 58.6298305,13.7223253 58.3078405,13.9327832" id="Fill-121"></path>
                                <path d="M62.6586785,15.9013153 C63.1227509,16.4228294 63.1230688,16.6639458 62.67775,17.0484547 C62.2232133,16.7086561 62.214949,16.4477394 62.6586785,15.9013153" id="Fill-122"></path>
                                <path d="M67.0276344,13.9362961 C66.7151801,13.7299899 66.3970044,13.519532 66.0680216,13.3026868 C66.2002504,12.9893952 66.3388364,12.9299943 66.6862551,13.0925483 C67.0962917,13.2838446 67.2037276,13.5894717 67.0276344,13.9362961" id="Fill-123"></path>
                                <path d="M65.1970911,28.0654001 C65.4176845,27.9130656 65.6595743,27.8351419 65.6865922,27.710911 C65.792121,27.2258039 65.3782701,27.1076409 64.9771335,26.9243285 C65.1211231,26.8920732 65.1958197,26.8559856 65.2657484,26.8626921 C65.6433635,26.9026121 66.1071181,27.5502732 65.9980929,27.9092333 C65.9631285,28.0226059 65.8302639,28.1749404 65.7314101,28.1832437 C65.5626276,28.1976149 65.385263,28.1126653 65.1970911,28.0654001" id="Fill-124"></path>
                                <path d="M60.336727,26.9482805 C59.9359083,27.0980601 59.5636968,27.2360234 59.6355327,27.6943043 C59.6555577,27.8169384 59.8949046,27.9044429 60.0748122,28.0392126 C59.9994799,28.1490723 59.8504045,28.25989 59.6199576,28.2027247 C59.3930071,28.146198 59.3148141,27.9820472 59.3198998,27.7543439 C59.330707,27.2769014 59.8840975,26.7911556 60.336727,26.9482805" id="Fill-125"></path>
                                <path d="M59.5792718,16.9612695 C59.9327297,16.690772 60.2884126,16.4186777 60.6097669,16.1721321 C60.6768349,16.5084177 60.4947024,16.9804311 60.1921017,17.1097717 C59.9635619,17.2071764 59.7124542,17.129572 59.5792718,16.9612695" id="Fill-126"></path>
                                <path d="M64.7304758,16.0054265 C64.9714121,16.4934078 65.3150164,16.7811508 65.8267675,16.8683359 C65.6487671,17.1848212 65.4040166,17.1761985 65.1703911,17.1126459 C64.8592082,17.0276963 64.6827971,16.5898544 64.7304758,16.0054265" id="Fill-127"></path>
                                <path d="M63.2127047,10.7372718 C63.7149201,10.6791484 64.1952032,10.9445361 64.414843,11.4005815 C63.8843383,11.4775472 63.3814872,11.1997044 63.2127047,10.7372718" id="Fill-128"></path>
                                <path d="M58.9686669,18.869762 L59.6905221,18.869762 C59.7283471,19.2216962 59.7998652,19.5707562 59.4041322,19.8741477 C59.2607783,19.5429719 59.1282316,19.2373448 58.9686669,18.869762" id="Fill-129"></path>
                                <path d="M66.3680794,18.844852 C66.212329,19.2169058 66.0810537,19.5298782 65.9399249,19.8664831 C65.5263918,19.5953469 65.6312849,19.2338319 65.6331921,18.8841332 C65.8483818,18.8726363 66.0511751,18.8620974 66.3680794,18.844852" id="Fill-130"></path>
                                <path d="M60.9110961,11.4235754 C61.1412252,10.9438974 61.6116548,10.682342 62.1214987,10.7347169 C61.960027,11.18693 61.5439511,11.4299626 60.9110961,11.4235754" id="Fill-131"></path>
                                <path d="M62.6278463,9.35093213 C62.5404354,9.09352835 62.4333173,8.83963753 62.3751493,8.57552721 C62.3544885,8.47812255 62.4212387,8.32355254 62.4991139,8.25457089 C62.5630033,8.19804425 62.7359179,8.18718603 62.8036217,8.23508996 C62.8888076,8.29608763 62.9768542,8.45065763 62.9577827,8.5432719 C62.9021576,8.8185598 62.7953573,9.08394757 62.7085822,9.35316764 C62.6818821,9.35220956 62.6548642,9.3518902 62.6278463,9.35093213" id="Fill-132"></path>
                                <path d="M70.2500771,31.3969586 C70.545367,31.4269784 70.8422462,31.4442238 71.1327683,31.4988343 C71.2017434,31.5116087 71.3117222,31.6802305 71.2907436,31.7252602 C71.2392506,31.8373554 71.0844539,32.0158774 71.0396359,31.9976739 C70.744346,31.8772753 70.4662204,31.7118471 70.1836448,31.5611094 C70.205577,31.5064989 70.227827,31.4515691 70.2500771,31.3969586" id="Fill-133"></path>
                                <path d="M60.3592949,25.1317635 C60.4269987,25.3173114 60.4743595,25.4444165 60.5439703,25.6321999 C60.1510981,25.7829376 59.7722115,25.9285655 59.3930071,26.0741935 C59.3701214,26.0349122 59.3469177,25.9959504 59.324032,25.9569885 C59.6603256,25.6887265 59.9972549,25.4201452 60.3592949,25.1317635" id="Fill-134"></path>
                                <path d="M60.3796378,15.2306603 C60.0071085,14.7484274 60.1539588,14.0065552 59.5246003,13.6779343 C59.5783182,13.6884731 59.6472934,13.6795311 59.6822578,13.7108283 C59.949894,13.9490705 60.2168946,14.1892289 60.468638,14.4440778 C60.5144096,14.4897462 60.5058274,14.6079092 60.4937488,14.6880684 C60.4683202,14.8595645 60.4235022,15.0281863 60.3796378,15.2306603" id="Fill-135"></path>
                                <path d="M55.1416586,31.5697321 C54.8578116,31.7175956 54.5790503,31.8788721 54.2831246,31.9970351 C54.2418031,32.0133225 54.0895492,31.828094 54.0415527,31.7137633 C54.0234348,31.6696916 54.1445386,31.5080957 54.2192352,31.4940439 C54.4995858,31.4419883 54.7862936,31.4288946 55.0710942,31.4007909 C55.0942978,31.4569982 55.1181372,31.5132055 55.1416586,31.5697321" id="Fill-136"></path>
                                <path d="M65.928482,26.0722773 C65.5578598,25.930801 65.1869197,25.7893248 64.7902331,25.6379484 C64.8550761,25.4597457 64.9043441,25.3256147 64.9745906,25.1324022 C65.3363128,25.4201452 65.6706993,25.686491 66.0057214,25.9528368 C65.979975,25.9927568 65.9542285,26.0323574 65.928482,26.0722773" id="Fill-137"></path>
                                <path d="M64.942487,15.2568478 C64.9018012,14.9643144 64.752408,14.6404839 64.8550761,14.4884687 C65.0829802,14.150267 65.4377095,13.897973 65.7978424,13.6574953 C65.1853304,13.9998487 65.3255057,14.7327788 64.942487,15.2568478" id="Fill-138"></path>
                                <path id="Fill-139" d="M61.8796089,10.3323239 C62.4059815,10.1292113 62.9336255,10.12985 63.4625409,10.3281723 C62.9383934,10.5153169 62.4110672,10.4961554 61.8796089,10.3323239"></path>
                                <path d="M69.7198902,31.775719 C70.0555481,31.6866177 70.5946349,31.9088919 70.6613851,32.141705 C70.6779137,32.2017446 70.5730206,32.3662148 70.5425063,32.361105 C70.3740416,32.3352369 70.1877769,32.3064945 70.0539588,32.2116447 C69.9214121,32.1180724 69.8438547,31.9452989 69.7198902,31.775719" id="Fill-140"></path>
                                <path d="M55.6219418,31.7821062 C55.4617415,31.9820252 55.3543055,32.1979123 55.1801194,32.3064945 C55.0609228,32.3818634 54.8492294,32.3084107 54.6788576,32.3020235 C54.7408399,32.181625 54.7732614,32.0219452 54.8702081,31.9500893 C55.0637835,31.8079743 55.2643518,31.6074165 55.6219418,31.7821062" id="Fill-141"></path>
                                <path d="M61.6122905,14.385635 C61.4028222,13.9382123 61.1895396,13.4815282 60.9632248,12.9980179 C61.5391832,13.182927 61.8049123,13.7996103 61.6122905,14.385635" id="Fill-142"></path>
                                <path d="M63.6990272,14.3476312 C63.5887305,13.6884731 63.7813523,13.2643637 64.3817858,12.9485171 C64.1583317,13.4489535 63.9574456,13.8986117 63.7546523,14.3469925 C63.7511558,14.3540184 63.7180986,14.3476312 63.6990272,14.3476312" id="Fill-143"></path>
                                <path d="M67.7847717,27.4528685 C67.2008669,27.4330682 66.6859372,27.6112708 66.1697361,27.9335046 C66.2390291,27.8399323 66.2886149,27.7000528 66.3811115,27.6604522 C66.7612695,27.4956627 67.1509632,27.3503541 67.5463783,27.2254845 C67.6159892,27.2034487 67.7266037,27.3145858 67.8184647,27.3640866 C67.8070218,27.393787 67.7962146,27.4231681 67.7847717,27.4528685" id="Fill-144"></path>
                                <path d="M57.5294067,27.3187375 C57.6466962,27.2935081 57.7744751,27.2248458 57.8803217,27.2497559 C58.7598343,27.4531879 59.080235,27.649594 59.1082065,27.9472371 C58.6396841,27.6633264 58.1511366,27.4036872 57.5513389,27.4688365 C57.5440281,27.4190164 57.5367174,27.3685576 57.5294067,27.3187375" id="Fill-145"></path>
                                <path d="M62.9412541,13.841127 C63.0410615,13.2895931 63.3201406,13.0289957 63.7727702,13.0606123 C63.5836448,13.4195724 63.3872086,13.7427643 62.9412541,13.841127" id="Fill-146"></path>
                                <path d="M61.0999037,14.1505864 C60.8373531,13.8459174 60.5887883,13.556897 60.336727,13.2634056 C60.381545,13.2075177 60.4454344,13.1273585 60.5093238,13.0471992 C60.8001637,13.1889949 61.1854074,13.9292702 61.0999037,14.1505864" id="Fill-147"></path>
                                <path d="M61.5321903,13.0401733 C62.0429879,13.0628478 62.2858312,13.2975771 62.3954922,13.8360172 C61.9444519,13.7497902 61.7645444,13.4115884 61.5321903,13.0401733" id="Fill-148"></path>
                                <path d="M64.2320747,14.1563348 C64.1608746,13.921925 64.5337218,13.2071983 64.8175689,13.0417701 C64.8811404,13.1187358 64.9453477,13.1972982 64.9981121,13.2608507 C64.7498652,13.5508292 64.495261,13.8481529 64.2320747,14.1563348" id="Fill-149"></path>
                                <path d="M60.0970622,10.345737 C59.9603834,10.8225408 59.7687151,11.0595056 59.5115681,11.0713219 C59.4689751,10.4603871 59.6873435,10.1898896 60.0970622,10.345737" id="Fill-150"></path>
                                <path d="M58.9985456,11.1307227 C58.5939125,10.9809431 58.530341,10.6382704 58.3717299,10.3505274 C58.8157773,10.2045801 58.9912348,10.4169542 58.9985456,11.1307227" id="Fill-151"></path>
                                <path d="M60.7350029,25.8519192 C60.5309382,26.0812194 60.3386342,26.333194 60.1056444,26.5395003 C60.005837,26.6276435 59.8214795,26.6199789 59.6285398,26.6675635 C59.8771046,26.1677658 60.4524273,25.7902828 60.7350029,25.8519192" id="Fill-152"></path>
                                <path d="M65.2441341,10.304859 C65.6853207,10.2623842 65.7851281,10.3926829 65.845839,11.0524797 C65.5816991,11.0876092 65.3216914,10.7711239 65.2441341,10.304859" id="Fill-153"></path>
                                <path d="M65.6910422,26.6116755 C65.4224523,26.6691603 65.2625698,26.6343501 65.1173088,26.3878045 C64.9936621,26.1773466 64.7505009,26.0371478 64.566779,25.8720389 C64.8455404,25.7749536 65.3982951,26.1211393 65.6910422,26.6116755" id="Fill-154"></path>
                                <path d="M66.9090734,10.3265755 C66.8626662,10.7213038 66.6214121,11.0489667 66.3601329,11.0729187 C66.2895685,10.5060555 66.4952225,10.2266159 66.9090734,10.3265755" id="Fill-155"></path>
                                <path d="M68.7138702,9.65368495 C68.3718551,9.68657898 68.1334618,9.56394493 67.7053073,9.15197114 C68.0333365,9.05169225 68.4122231,9.23213038 68.7138702,9.65368495" id="Fill-156"></path>
                                <path d="M69.876912,32.4585097 C69.6896937,32.3872925 69.4821325,32.3454564 69.32225,32.234958 C69.2256213,32.1678925 69.2024176,31.9938416 69.1461568,31.8680139 C69.2809285,31.8868561 69.445261,31.8648203 69.5444327,31.9344407 C69.6976401,32.0420648 69.8057118,32.2132415 69.9328549,32.357592 C69.9144192,32.3911248 69.8956656,32.4243382 69.876912,32.4585097" id="Fill-157"></path>
                                <path d="M57.6276247,9.14302908 C57.3199384,9.36274843 57.0774128,9.71851493 56.5462724,9.67316588 C56.8860624,9.32282849 57.1829416,9.08586372 57.6276247,9.14302908" id="Fill-158"></path>
                                <path d="M55.3883163,32.3349175 C55.5698131,32.1694893 55.7430457,31.9935222 55.9369389,31.8456587 C55.9871605,31.8079743 56.1034964,31.8584331 56.1893181,31.8680139 C56.1740609,31.9526442 56.1886823,32.0810267 56.1397322,32.1136014 C55.9312175,32.2522034 55.7045849,32.3620631 55.4843094,32.482781 C55.4522057,32.4332803 55.42042,32.3840989 55.3883163,32.3349175" id="Fill-159"></path>
                                <path id="Fill-160" d="M62.2928241,9.93376325 C62.1914275,9.41927506 62.0903487,8.90478687 61.988952,8.39061804 C62.02487,8.38263406 62.0607879,8.37433071 62.096388,8.36602736 C62.2152668,8.87668324 62.3338278,9.38797783 62.4523887,9.8986337 C62.3993065,9.91013065 62.3459064,9.92194695 62.2928241,9.93376325"></path>
                                <path d="M65.9014641,13.1666397 C65.5905991,13.4237241 65.2790984,13.6814472 64.8948083,13.9988906 C65.0283086,13.385401 65.4647274,13.2755413 65.8363032,13.088716 C65.8579175,13.1149034 65.8798497,13.1404522 65.9014641,13.1666397" id="Fill-161"></path>
                                <path id="Fill-162" d="M63.3449335,8.38391149 C63.2441726,8.90031584 63.1430938,9.41640083 63.042015,9.93280517 C62.9898863,9.92194695 62.9380755,9.91013065 62.8862647,9.8986337 C63.0019649,9.38542295 63.117983,8.87189284 63.234319,8.35868209 C63.2711905,8.3673048 63.308062,8.37592751 63.3449335,8.38391149"></path>
                                <path d="M66.7170873,27.1632094 C66.2717684,27.4812915 66.2717684,27.4812915 65.8664997,26.8170237 C66.138586,26.9275221 66.4116259,27.0386592 66.7170873,27.1632094" id="Fill-163"></path>
                                <path d="M59.5020324,13.0954225 C59.8847332,13.2723477 60.3125698,13.3975366 60.4368522,13.9963357 C60.0582836,13.6849602 59.7458293,13.4278758 59.4336929,13.1711107 C59.4565787,13.1458813 59.4794645,13.1206519 59.5020324,13.0954225" id="Fill-164"></path>
                                <path d="M59.4724716,26.8160656 C59.0296956,27.4560621 59.0296956,27.4560621 58.6037661,27.1549061 C58.9200347,27.0319527 59.1962531,26.9240091 59.4724716,26.8160656" id="Fill-165"></path>
                                <path d="M62.6332499,7.20643294 C62.7263822,7.3424801 62.8214217,7.48140149 62.8954826,7.58934501 C62.8169717,7.71038226 62.7251108,7.85185853 62.6364284,7.98886377 C62.5452032,7.857607 62.4479387,7.71772753 62.3611636,7.5925386 C62.4399923,7.48076277 62.5378925,7.34120266 62.6332499,7.20643294" id="Fill-166"></path>
                                <path d="M66.3429686,9.49049224 C66.268272,9.60322615 66.1770468,9.7392733 66.0874109,9.87436238 C65.9980929,9.75172832 65.8995569,9.61759733 65.8045174,9.48697928 C65.8833462,9.38127128 65.9847428,9.24362733 66.0813716,9.113648 C66.1706897,9.24171117 66.2635041,9.37616153 66.3429686,9.49049224" id="Fill-167"></path>
                                <path d="M62.2667598,30.6940483 L63.0563186,30.6940483 C62.9336255,30.8757639 62.8220574,31.0415115 62.6678964,31.2701729 C62.5115103,31.0456631 62.3986708,30.8834285 62.2667598,30.6940483" id="Fill-168"></path>
                                <path id="Fill-169" d="M69.1401175,31.5991132 C69.3441822,31.3228672 69.5962435,31.2615502 69.8988442,31.2963604 C69.834319,31.5943228 69.5555577,31.7124858 69.1401175,31.5991132"></path>
                                <path d="M58.9578598,9.4892148 C59.0497207,9.38222936 59.1504816,9.26438569 59.248064,9.15037435 C59.328482,9.24682092 59.4371894,9.37743897 59.5328646,9.49208903 C59.4508573,9.59140984 59.346282,9.71883429 59.245839,9.84114899 C59.1631959,9.7392733 59.0548064,9.60705846 58.9578598,9.4892148" id="Fill-170"></path>
                                <path id="Fill-171" d="M56.1359179,31.609652 C55.8457137,31.6550011 55.5787132,31.6419074 55.3568484,31.3219091 C55.7274706,31.2506919 55.9706319,31.3228672 56.1359179,31.609652"></path>
                                <path id="Fill-172" d="M66.0540358,10.7206651 C65.9796571,10.5609854 65.9046427,10.4013056 65.7949817,10.1656183 L66.252697,10.1656183 C66.2244076,10.3514855 66.1958004,10.5379915 66.1675111,10.7238587 C66.129686,10.7229006 66.0921788,10.7219426 66.0540358,10.7206651"></path>
                                <path id="Fill-173" d="M59.156203,10.7171522 C59.1349066,10.5309656 59.1132922,10.3450983 59.0916779,10.1595504 C59.2007031,10.1585924 59.3094105,10.158273 59.4181179,10.1579536 C59.3923714,10.3450983 59.3672606,10.5325624 59.3421499,10.7200264 C59.2801676,10.7190683 59.2185032,10.7181102 59.156203,10.7171522"></path>
                                <path id="Fill-174" d="M59.8125795,19.8045273 C59.9130225,20.0066819 59.990262,20.1618906 60.0678193,20.3164607 C60.0446157,20.3368997 60.0217299,20.3570193 59.999162,20.377139 C59.8621653,20.2778181 59.7251686,20.1788167 59.5687825,20.0654441 C59.652697,19.9753847 59.7124542,19.9115128 59.8125795,19.8045273"></path>
                                <path id="Fill-175" d="M65.2724234,20.3100735 C65.3452129,20.1580583 65.4183202,20.0063626 65.5076382,19.8195372 C65.597592,19.9025707 65.6672029,19.966762 65.7641495,20.0568214 C65.6080813,20.1775393 65.4783953,20.2784569 65.3487093,20.3796938 C65.3229628,20.3560612 65.2978521,20.3330673 65.2724234,20.3100735"></path>
                                <path id="Fill-176" d="M55.6178097,11.3319192 C55.8158351,11.1591457 55.9467925,11.0441763 56.1295608,10.8841772 C56.1387787,11.0722799 56.1438644,11.1792654 56.1495858,11.3034962 C55.9928819,11.3114802 55.8523887,11.3194642 55.6178097,11.3319192"></path>
                                <path id="Fill-177" d="M58.8399345,11.3443743 L59.6501541,11.3443743 C59.6501541,11.3648133 59.6507898,11.3862104 59.6507898,11.4066494 L58.8418416,11.4066494 C58.8412059,11.3862104 58.8402524,11.3648133 58.8399345,11.3443743"></path>
                                <path id="Fill-178" d="M69.2081391,10.8841772 C69.3909073,11.0460925 69.5139183,11.1556328 69.6842901,11.3070092 L69.2081391,11.3070092 L69.2081391,10.8841772"></path>
                                <path id="Fill-179" d="M66.4936332,11.4200625 L65.69136,11.4200625 C65.6910422,11.3999428 65.6900886,11.3804619 65.6894529,11.3606616 L66.4942689,11.3606616 C66.4936332,11.3804619 66.4936332,11.3999428 66.4936332,11.4200625"></path>
                                <path id="Fill-180" d="M66.9650164,12.1641701 C66.985995,11.9687221 66.8442304,11.695031 67.1058274,11.617746 C67.144606,11.6372269 67.182749,11.6567079 67.2221634,11.6761888 C67.1363417,11.8390622 67.050838,12.0016162 66.9650164,12.1641701"></path>
                                <path id="Fill-181" d="M58.2855904,11.5953908 C58.3453477,11.7713579 58.4044693,11.9460476 58.4639087,12.121376 C58.4365729,12.1360665 58.4086014,12.1510764 58.3812657,12.1657669 C58.2913119,12.0057678 58.201676,11.8460881 58.1120401,11.6864083 C58.1695723,11.6560692 58.2274225,11.62573 58.2855904,11.5953908"></path>
                            </g>
                        </g>
                    </g>
                </g>
            </g>
        </g>
    </g>
</svg>